<svg xmlns="http://www.w3.org/2000/svg" viewBox="0 0 265.9 78.71"><defs><style>.cls-1{fill:#0a999a;}.cls-2{fill:#fff;}</style></defs><title>btn-empezar4</title><g id="Capa_2" data-name="Capa 2"><g id="_1200" data-name="1200"><path class="cls-1" d="M265.9,9.94V68a10.75,10.75,0,0,1-10.75,10.75H6.64A10.74,10.74,0,0,1,0,68.77v-58A10.75,10.75,0,0,1,10.75,0H259.26A10.74,10.74,0,0,1,265.9,9.94Z"/><path class="cls-1" d="M265.9,9.94V68a10.75,10.75,0,0,1-10.75,10.75H6.64A10.74,10.74,0,0,1,0,68.77v-58A10.75,10.75,0,0,1,10.75,0H259.26A10.74,10.74,0,0,1,265.9,9.94Z"/><path class="cls-2" d="M251,40.41,221.88,60.77a1.29,1.29,0,0,1-2-1.05V19a1.29,1.29,0,0,1,2-1L251,38.3A1.28,1.28,0,0,1,251,40.41Z"/></g></g></svg>