<svg xmlns="http://www.w3.org/2000/svg" viewBox="0 0 369.85 125.52"><defs><style>.cls-1{fill:#0a999a;}.cls-2,.cls-3{fill:#fff;}.cls-3{font-size:48.1px;font-family:Lato-Semibold, Lato;font-weight:700;}.cls-4{letter-spacing:-0.01em;}.cls-5{letter-spacing:-0.02em;}</style></defs><title>btn-empezar1</title><g id="Capa_2" data-name="Capa 2"><g id="_1200" data-name="1200"><path class="cls-1" d="M369.85,63.92v3.4a32.15,32.15,0,0,1-32.16,32.15h-224a62.76,62.76,0,1,1,3.67-67.71H337.69A32.16,32.16,0,0,1,369.85,63.92Z"/><path class="cls-2" d="M103.44,66,49.38,103.8a2.39,2.39,0,0,1-3.76-2V26.31a2.39,2.39,0,0,1,3.76-2l54.06,37.76A2.4,2.4,0,0,1,103.44,66Z"/><text class="cls-3" transform="translate(141.29 79.89)"><tspan class="cls-4">E</tspan><tspan x="27.13" y="0">mpeza</tspan><tspan class="cls-5" x="165.86" y="0">r</tspan></text></g></g></svg>