<svg xmlns="http://www.w3.org/2000/svg" xmlns:xlink="http://www.w3.org/1999/xlink" viewBox="0 0 209 320.82"><defs><style>.cls-1{isolation:isolate;}.cls-2{fill:#571211;}.cls-3{fill:#651d15;}.cls-13,.cls-14,.cls-16,.cls-19,.cls-22,.cls-25,.cls-26,.cls-34,.cls-36,.cls-4,.cls-8{mix-blend-mode:multiply;}.cls-5{fill:#c12818;}.cls-6{fill:#fff;}.cls-7{fill:#989593;}.cls-17,.cls-8{fill:#bebfc4;}.cls-13,.cls-16,.cls-34,.cls-36,.cls-8{opacity:0.5;}.cls-9{fill:#fad0b3;}.cls-10{fill:#b46a4d;}.cls-11,.cls-13{fill:#be80b6;}.cls-12{fill:#823d80;}.cls-14,.cls-19{opacity:0.8;}.cls-15,.cls-19,.cls-22{fill:#ecb799;}.cls-18,.cls-36{fill:#b0b0b0;}.cls-20,.cls-34{fill:#fbba34;}.cls-21{fill:#f09331;}.cls-22{opacity:0.4;}.cls-23{fill:#3d1f10;}.cls-24{fill:#1d1d1b;}.cls-25{fill:#f9ceb2;}.cls-26{fill:#ebb597;}.cls-27{fill:#fffaf6;}.cls-28{fill:#e3dbd1;}.cls-29{fill:#8d3814;}.cls-30{fill:#6e4821;}.cls-31{fill:#070409;}.cls-32{fill:none;}.cls-33{fill:#4b5258;}.cls-35{fill:#fbebe2;}.cls-37{fill:#595959;}.cls-38,.cls-39{opacity:0.15;}.cls-38,.cls-39,.cls-41{mix-blend-mode:screen;}.cls-38{fill:url(#linear-gradient);}.cls-39{fill:url(#linear-gradient-2);}.cls-40{fill:url(#linear-gradient-3);}.cls-41{opacity:0.1;fill:url(#linear-gradient-4);}</style><linearGradient id="linear-gradient" x1="175.53" y1="53.01" x2="220.65" y2="53.01" gradientTransform="translate(-139.03 70.41) rotate(-4.87)" gradientUnits="userSpaceOnUse"><stop offset="0" stop-color="#6d6e70"/><stop offset="0.16" stop-color="#6f7072"/><stop offset="0.23" stop-color="#777879"/><stop offset="0.29" stop-color="#838486"/><stop offset="0.34" stop-color="#969798"/><stop offset="0.38" stop-color="#aeaeaf"/><stop offset="0.42" stop-color="#cbcbcc"/><stop offset="0.46" stop-color="#ededed"/><stop offset="0.47" stop-color="#fff"/><stop offset="0.48" stop-color="#f7f7f7"/><stop offset="0.53" stop-color="#d2d2d3"/><stop offset="0.58" stop-color="#b3b3b4"/><stop offset="0.63" stop-color="#999a9b"/><stop offset="0.69" stop-color="#858688"/><stop offset="0.76" stop-color="#78787a"/><stop offset="0.85" stop-color="#6f7072"/><stop offset="1" stop-color="#6d6e70"/></linearGradient><linearGradient id="linear-gradient-2" x1="3792.69" y1="53.01" x2="3837.81" y2="53.01" gradientTransform="matrix(-1, 0.08, 0.08, 1, 3921.45, -275.46)" xlink:href="#linear-gradient"/><linearGradient id="linear-gradient-3" x1="178.73" y1="47.79" x2="299.6" y2="47.79" gradientTransform="translate(-148.66 100.24) rotate(-10.5)" gradientUnits="userSpaceOnUse"><stop offset="0.02"/><stop offset="0.05" stop-color="#030303"/><stop offset="0.07" stop-color="#0d0d0e"/><stop offset="0.09" stop-color="#1e1e1f"/><stop offset="0.11" stop-color="#363637"/><stop offset="0.13" stop-color="#545556"/><stop offset="0.13" stop-color="#58595b"/><stop offset="0.14" stop-color="#505153"/><stop offset="0.18" stop-color="#2d2e2f"/><stop offset="0.22" stop-color="#141515"/><stop offset="0.25" stop-color="#050505"/><stop offset="0.28"/><stop offset="0.74"/><stop offset="0.76" stop-color="#050505"/><stop offset="0.79" stop-color="#121313"/><stop offset="0.82" stop-color="#292a2b"/><stop offset="0.85" stop-color="#494a4b"/><stop offset="0.86" stop-color="#58595b"/><stop offset="0.87" stop-color="#4c4d4f"/><stop offset="0.89" stop-color="#313132"/><stop offset="0.91" stop-color="#1b1b1c"/><stop offset="0.94" stop-color="#0c0c0c"/><stop offset="0.96" stop-color="#030303"/><stop offset="1"/></linearGradient><linearGradient id="linear-gradient-4" x1="224.86" y1="40.55" x2="233.29" y2="40.55" gradientTransform="translate(-139.03 70.41) rotate(-4.87)" gradientUnits="userSpaceOnUse"><stop offset="0" stop-color="#231f20" stop-opacity="0"/><stop offset="0.05" stop-color="#2a2728" stop-opacity="0.03"/><stop offset="0.12" stop-color="#3f3b3c" stop-opacity="0.13"/><stop offset="0.21" stop-color="#605d5e" stop-opacity="0.28"/><stop offset="0.32" stop-color="#8e8c8c" stop-opacity="0.49"/><stop offset="0.43" stop-color="#c8c7c7" stop-opacity="0.75"/><stop offset="0.53" stop-color="#fff"/><stop offset="0.61" stop-color="#c9c8c8" stop-opacity="0.75"/><stop offset="0.69" stop-color="#979596" stop-opacity="0.53"/><stop offset="0.76" stop-color="#6d6b6b" stop-opacity="0.34"/><stop offset="0.83" stop-color="#4d4a4b" stop-opacity="0.19"/><stop offset="0.9" stop-color="#363233" stop-opacity="0.09"/><stop offset="0.96" stop-color="#282425" stop-opacity="0.02"/><stop offset="1" stop-color="#231f20" stop-opacity="0"/></linearGradient></defs><title>emmasection2</title><g class="cls-1"><g id="Capa_2" data-name="Capa 2"><g id="_1200" data-name="1200"><path class="cls-2" d="M49.37,161.63S12.7,181.47,2.94,212.55c-6.3,19.31,4.67,29.47,8.33,39.22s.81,20.32-9.14,18.48a11.45,11.45,0,0,0,11.38,1.84s-14.23,15.43,1.62,24.37c0,0-2-3.86-1-6.5,1.41,3.05,5.07,6.71,7.92,9s3.45,8.93-.21,13.4c0,0,20.63-6.19,24-22.66s28.46-82.38,22.76-114.07c-2.84-15-8.12-15.44-8.12-15.44Z"/><path class="cls-3" d="M69.85,180.15a1.76,1.76,0,0,1-.07-.6,1.68,1.68,0,0,1-.07-.59c-.13-1.19-.32-2.37-.52-3.49-.2,0-.4.06-.6.06-.26-1.31-.52-2.5-.85-3.62a2,2,0,0,0-.13-.59,1.87,1.87,0,0,1-.14-.6c-1.45-5-3.16-7.64-4.61-9v-.07a1.14,1.14,0,0,0-.46-.39,1.89,1.89,0,0,0-.4-.4c-.06,0-.06.07-.06.07a2.13,2.13,0,0,1-.4.39,1.19,1.19,0,0,1,.46.4,1.08,1.08,0,0,1,.46.39c1.32,1.32,3,3.89,4.42,8.9a2.29,2.29,0,0,0,.2.59,2,2,0,0,0,.13.59c.2,1.06.46,2.24.72,3.5a29,29,0,0,1,.47,3.42,2,2,0,0,1,.06.6,1.68,1.68,0,0,1,.07.59,83.39,83.39,0,0,1,0,12.85c-.26,4-.79,8.1-1.45,12.38s-1.52,8.9-2.44,13.45a3,3,0,0,0-.13.72c-.07.26-.13.53-.2.79-1.32,6.13-2.83,12.26-4.41,18.25a17,17,0,0,0-.47,1.65q-1.08,4-2.17,7.71c-2.17,7.78-4.42,15.09-6.33,21.42-2.37,7.57-4.21,13.83-5.27,18.05-.19.72-.32,1.38-.46,2A22.89,22.89,0,0,1,41,298.68a1,1,0,0,0,.46.33c.46-.59.85-1.18,1.31-1.77.07-.14.07-.2.14-.27A22.18,22.18,0,0,0,44,294.86a21.24,21.24,0,0,0,1.78-5.2c.13-.66.32-1.45.52-2.31,2-8,7-23,11.8-40.13.79-2.57,1.51-5.2,2.24-7.9.13-.46.2-.93.33-1.39,1.51-5.53,2.9-11.2,4.15-16.86.06-.27.06-.47.13-.73l.2-.72c1-4.88,1.91-9.76,2.63-14.43.66-4.49,1.19-8.83,1.39-12.92a73.48,73.48,0,0,0,0-12.06Zm0,0a1.76,1.76,0,0,1-.07-.6,1.68,1.68,0,0,1-.07-.59c-.13-1.19-.32-2.37-.52-3.49v-.07c-.27-1.38-.6-2.63-.86-3.82a3.49,3.49,0,0,0-.2-.53,1.85,1.85,0,0,0-.13-.59v-.07c-1.51-5.2-3.36-7.9-4.81-9.35l-.39-.4a3.47,3.47,0,0,1-.53-.39.21.21,0,0,1-.13-.07,1,1,0,0,1-.33-.2,3.26,3.26,0,0,0-1-.39h-.13a.48.48,0,0,0-.2-.07h-.07a.11.11,0,0,1-.19,0l-.6.13-2.11.27L49.29,161l-.2.06a2.79,2.79,0,0,1-.53.27,3.47,3.47,0,0,1-.53.39c-.19.07-.39.2-.59.27-7.31,4.35-36.57,23.12-45.07,50.34-4.87,14.89.46,24.64,4.81,32.42a64.38,64.38,0,0,1,3.5,7.18c2.11,5.66,2,11.46-.33,14.89-1.78,2.5-4.55,3.43-8.11,2.77L0,269.23l1.71,1.52a11.57,11.57,0,0,0,7.52,2.7,9.71,9.71,0,0,0,2.56-.27c-2,2.71-5.53,8.31-4.61,14.11.6,3.88,3.17,7.18,7.65,9.68L16.6,298l-.92-1.85a12.43,12.43,0,0,1-1.25-4.41,35.33,35.33,0,0,0,7.25,7.64,6.64,6.64,0,0,1,2,4.41,11.1,11.1,0,0,1-2.37,8.11l-1.25,1.51,1.91-.52a48.31,48.31,0,0,0,13.51-7.18,1.72,1.72,0,0,0,.52-.4,1.27,1.27,0,0,0,.46-.4,25.89,25.89,0,0,0,4.75-4.67,4.67,4.67,0,0,0,.66-.86,23.54,23.54,0,0,0,4.48-9.62c.2-.79.39-1.71.66-2.77,1.05-4.15,2.83-10.08,5-17.2C54.16,263,56.6,255,59,246.5c.8-2.7,1.52-5.47,2.24-8.24a6.51,6.51,0,0,0,.33-1.18c1.32-5.08,2.64-10.28,3.76-15.42a3.72,3.72,0,0,0,.13-.79c.07-.27.13-.46.2-.73,1.12-5.14,2-10.21,2.77-15.15a128.49,128.49,0,0,0,1.45-13.44A96.2,96.2,0,0,0,69.85,180.15Zm-1.32,13c-.26,4-.79,8.1-1.45,12.38s-1.52,8.9-2.44,13.45a3,3,0,0,0-.13.72c-.07.26-.13.53-.2.79-1.32,6.13-2.83,12.26-4.41,18.25a17,17,0,0,0-.47,1.65q-1.08,4-2.17,7.71c-2.17,7.78-4.42,15.09-6.33,21.42-2.37,7.57-4.21,13.83-5.27,18.05-.19.72-.32,1.38-.46,2A22.89,22.89,0,0,1,41,298.68a7.75,7.75,0,0,1-.66.8,32.93,32.93,0,0,1-4.15,4.28,4.05,4.05,0,0,1-.53.39c-.13.14-.33.27-.46.4-.33.26-.66.53-1.06.79a49.73,49.73,0,0,1-10.08,5.53,4,4,0,0,1-.66.27,12.76,12.76,0,0,0,1.52-7.45,7.93,7.93,0,0,0-2.5-5.27,33.1,33.1,0,0,1-5.74-5.73l-.07-.07a11.74,11.74,0,0,1-1.91-2.9L14,288.41l-.07.19-.26.66-.14.46a7.76,7.76,0,0,0,.27,5.21,13.93,13.93,0,0,1-2.05-1.65,11,11,0,0,1-3.42-6.19,14.93,14.93,0,0,1-.07-2.9.45.45,0,0,1,.07-.26c.73-6.07,5.54-11.34,5.6-11.47l.66-.66,1.25-1.38-.2.06a.06.06,0,0,1-.06.07l-2.37,1a11.45,11.45,0,0,1-4,.72,10.05,10.05,0,0,1-4.82-1.18,1.84,1.84,0,0,0,.86-.14,8,8,0,0,0,6.06-3.42c2.58-3.69,2.77-9.95.53-15.95a63.33,63.33,0,0,0-3.62-7.38c-4.42-8-9.42-17.06-4.75-31.43a67.07,67.07,0,0,1,9-17.85,1,1,0,0,1,.27-.33c10.67-15,25.82-25.57,32.87-30,1.12-.73,2-1.26,2.64-1.65.26-.13.46-.26.59-.33s.46-.26.6-.4h.06l10.87-1.45a4.74,4.74,0,0,1,1.12.53,1.19,1.19,0,0,1,.46.4,1.08,1.08,0,0,1,.46.39c1.32,1.32,3,3.89,4.42,8.9a2.29,2.29,0,0,0,.2.59,2,2,0,0,0,.13.59c.2,1.06.46,2.24.72,3.5a29,29,0,0,1,.47,3.42,2,2,0,0,1,.06.6,1.68,1.68,0,0,1,.07.59A83.39,83.39,0,0,1,68.53,193.13Z"/><g class="cls-4"><path class="cls-5" d="M68.56,175.58c-2.84-15-8.12-15.44-8.12-15.44l-11.07,1.49S23.94,175.41,9.79,198c1.43-1.69,12.69-14.91,19.16-18.33,6.9-3.66-29.86,33.32-16.46,63,6.9,12.58,6.9,33.32-10.36,27.62a11.45,11.45,0,0,0,11.38,1.84s-6.49,7-5.81,14.36c0-.08,1.18-8.05,7.66-11.47-4,5.17-5.18,11.67-3.45,15.5.83,1.86.32,2.82-.68,3.11a18.25,18.25,0,0,0,3.9,2.87s-2-3.86-1-6.5a21.72,21.72,0,0,0,4.08,5.46c-1.77-2.31-4.57-7.57.18-13.68.31,3,.91,8.83,7.31,12.79,5.33,3.3,4.3,12.91-3.39,17.63,3.08-1,20.46-7.51,23.5-22.51C49.15,273.2,74.26,207.27,68.56,175.58Z"/></g><path class="cls-3" d="M51.18,166.53a7.21,7.21,0,0,1-.16.72,17.92,17.92,0,0,1-.56,1.88,22,22,0,0,1-1.08,2.56c-.21.45-.48.91-.74,1.37s-.53.94-.84,1.4A26.3,26.3,0,0,1,45.85,177c-.35.37-.7.72-1,1a7.3,7.3,0,0,1-1,.89c-1.32,1-2.26,1.49-2.26,1.49s.69-.87,1.78-2a10.71,10.71,0,0,0,.79-1c.28-.36.56-.74.88-1.12a12.86,12.86,0,0,0,.88-1.23c.29-.42.6-.85.89-1.28s.56-.88.84-1.32.58-.84.81-1.29c.5-.86,1-1.63,1.38-2.33C50.63,167.45,51.18,166.53,51.18,166.53Z"/><path class="cls-3" d="M47.33,166.85s-.92,1.08-2.49,3.05-3.76,4.79-6.33,8.24c-1.27,1.72-2.64,3.62-4,5.64s-2.83,4.18-4.28,6.43-2.9,4.62-4.31,7c-.71,1.22-1.38,2.46-2.08,3.7s-1.32,2.53-1.94,3.82c-1.26,2.55-2.49,5.13-3.51,7.74a72.18,72.18,0,0,0-2.65,7.78c-.37,1.29-.6,2.57-.92,3.82s-.47,2.49-.6,3.7a34.77,34.77,0,0,0-.2,6.85,23,23,0,0,0,.39,3,18.06,18.06,0,0,0,.61,2.69c.27.82.5,1.6.77,2.3s.62,1.31.89,1.87c.13.28.25.55.39.79s.28.45.42.65c.26.42.49.77.67,1,.36.57.56.86.56.86s-.22-.28-.62-.82c-.19-.28-.45-.61-.73-1l-.47-.64c-.15-.24-.28-.5-.43-.78l-1-1.84c-.3-.71-.57-1.48-.89-2.31a24.85,24.85,0,0,1-1.25-5.78,35.52,35.52,0,0,1,0-7c.11-1.25.34-2.51.51-3.81s.53-2.58.88-3.89a74.14,74.14,0,0,1,2.61-7.93c1-2.66,2.22-5.28,3.48-7.87.64-1.29,1.34-2.55,2-3.82s1.4-2.5,2.12-3.73c1.44-2.43,2.91-4.8,4.4-7s3-4.38,4.45-6.37,2.89-3.85,4.21-5.55C43.32,171,47.33,166.85,47.33,166.85Z"/><path class="cls-3" d="M19,258a10.5,10.5,0,0,1,.85,2.53,13.92,13.92,0,0,1,.29,2.76,12,12,0,0,1-.11,1.56,13.92,13.92,0,0,1-.34,1.61A9.08,9.08,0,0,1,19,268a6.15,6.15,0,0,1-.88,1.35q-.26.3-.48.6l-.58.48c-.18.14-.35.29-.52.44s-.38.21-.56.31a9.29,9.29,0,0,1-1,.5l-.81.25-.7.2.6-.42.7-.44c.25-.17.5-.43.8-.66a5.27,5.27,0,0,0,.87-.84,5,5,0,0,1,.44-.49c.12-.18.24-.38.38-.56a7.07,7.07,0,0,0,.69-1.24,8.88,8.88,0,0,0,.52-1.36,13.09,13.09,0,0,0,.35-1.44c.07-.49.17-1,.19-1.45a24.12,24.12,0,0,0,.09-2.61C19.09,259,19,258,19,258Z"/><path class="cls-3" d="M18.38,278.69s-.63.57-1.45,1.47a16.28,16.28,0,0,0-1.28,1.6c-.22.3-.39.63-.6,1a8.18,8.18,0,0,0-.5,1l-.23.53-.14.54a6.05,6.05,0,0,0-.23,1.09,6.23,6.23,0,0,0-.08,1,6.08,6.08,0,0,0,0,1c0,.3,0,.59.06.83s.07.46.1.64l.08.58a5.63,5.63,0,0,1-.3-.5l-.33-.6a4.9,4.9,0,0,1-.3-.83,3.82,3.82,0,0,1-.24-1,5.12,5.12,0,0,1-.07-1.19,5.2,5.2,0,0,1,.15-1.28,6.36,6.36,0,0,1,.4-1.26,7.62,7.62,0,0,1,.61-1.17,9.07,9.07,0,0,1,.77-1,8.67,8.67,0,0,1,1.67-1.46A6.87,6.87,0,0,1,18.38,278.69Z"/><g class="cls-4"><path class="cls-5" d="M68.56,175.58c-2.84-15-8.12-15.44-8.12-15.44l-11.07,1.49s-1.61.87-4.23,2.52A6.59,6.59,0,0,0,49.59,166c5.08.29-4.23,11.57-10.72,16.37s-20,20.3-20.31,37.23,4.23,38.08,1.12,44.58c2.27,0,2.83-1.42,2.83-1.42s-2,12.41,3.67,21.72c4.4,7.27,8.44,13.86,7.86,21.64,5.11-3.63,10.24-9,11.76-16.51C49.15,273.2,74.26,207.27,68.56,175.58Z"/></g><path class="cls-6" d="M204.73,311c-.34.39-.6.79-1,1.18a11.18,11.18,0,0,1-2.17,1.91c-3.82,2.84-9.16,3.5-15.61-.19-13-7.38-18.58-16.67-19-22.93a5.86,5.86,0,0,1,0-1.45,1.76,1.76,0,0,1,.07-.6v-.33a.43.43,0,0,1,.06-.26v-.07c.07-.79.2-1.51.2-2.17a2.32,2.32,0,0,0,.07-.66,13.41,13.41,0,0,0-.07-1.71c-.13-2.18-.79-3.76-2-4.42v-.06a3.79,3.79,0,0,0-2.17-.6h-.14a.91.91,0,0,0-.46.2c-.06,0-.13.07-.26.13a1,1,0,0,0-.2.27,1.25,1.25,0,0,0-.39.46,7.39,7.39,0,0,0-.66,1.05l-.07.07c-3.43,6.65-7.51,26.75-6.46,40H35.85c.79-3.49,1.51-6.52,2.1-8.89l.07-.07v-.06c-.66-2.18-1.38-4.35-2-6.46-.06-.2-.13-.4-.19-.59s-.14-.4-.2-.6c-3.16-10.28-6-20.22-8.3-29.45-3.5-13.84-5.87-25.89-6.2-34.53-.06-1-.06-2-.06-2.9v-.13c0-1.71,0-3.42.06-5,0-1.12,0-2.17.07-3.29.06-1.38.13-2.64.19-3.89s.2-2.3.27-3.42c.13-.86.2-1.65.33-2.44a19.83,19.83,0,0,1,.4-3c.19-1.39.39-2.64.65-3.89a56,56,0,0,1,1.45-5.6c.2-.66.4-1.25.59-1.85a34.59,34.59,0,0,1,2.71-6,7.27,7.27,0,0,1,.72-1.25,23.63,23.63,0,0,1,8-8,42.57,42.57,0,0,1,5-2.5c2.63-1.12,5-2.11,7.11-3s4.09-1.58,5.54-2.17a4.09,4.09,0,0,0,.52-.2l.6-.2v-.06l.66-.2c.26-.06.46-.2.59-.2a6.77,6.77,0,0,1,.86-.33,2,2,0,0,0,.32-.13l10.81-.85,1.32-.14,8.37-.66,3-.26h.06l.53-.06h.66l3.62-.33,16.68-1.32,5.2-.46h.59l.53-.07h.07l5.53-.46,9.62-.79,5-.4s1.05.46,2.77,1.12a.48.48,0,0,0,.33.14v.06a4.78,4.78,0,0,0,.52.2H133a1.26,1.26,0,0,0,.53.26c1.25.53,2.83,1.19,4.48,1.91,3.62,1.52,8,3.43,12.12,5.27,3.23,1.45,6.33,2.84,8.83,4.09,1.19.53,2.18,1.05,3.1,1.52a20.32,20.32,0,0,1,2.31,1.31c5.79,3.63,7.64,4,9.48,10.68.79,1.91,2,5.2,3.43,9.22.39,1.12.86,2.31,1.25,3.56.2.59.46,1.25.66,1.91s.59,1.58.86,2.44c.39,1,.72,2.11,1.12,3.23,4.35,12.65,9.09,26.82,10.47,31l.2.4c2.11,6.06,6.65,6.72,6.65,8.5s-3,2.77-.32,6.46a28.59,28.59,0,0,1,2.5,4.67c.4.93.86,1.91,1.32,3,1,2.7,2.17,5.8,3.16,9,.33,1,.59,2,.86,3.1a.06.06,0,0,1,.06.06,93.33,93.33,0,0,1,2.18,9.75A18.82,18.82,0,0,1,204.73,311Z"/><path class="cls-7" d="M124.27,175.14l-9.62.79a2.57,2.57,0,0,0,.13.66l10.61-.86A6.12,6.12,0,0,0,124.27,175.14Zm-54.42,5,8.1-.66a1.1,1.1,0,0,0,.2-.6l-8.37.66A1.76,1.76,0,0,0,69.85,180.15Zm139,117.35c-1.58-10.81-7.45-26.23-10.15-29.85-1.58-2.11-1-3-.33-4.09a3.39,3.39,0,0,0,.73-2c0-1-.79-1.65-1.91-2.44a12.58,12.58,0,0,1-4.81-6.26c-.53-1.58-1.72-5.14-3.3-9.69-4.48-13.31-11.92-35.58-14.62-42.1-1.72-6.06-3.43-7.12-7.71-9.75-.66-.4-1.32-.79-2.05-1.25-4.48-2.84-22.66-10.68-31-14.17-.19-.07-.39-.2-.59-.26l-.59-.2c-1.65-.73-2.77-1.19-3-1.25l-.13-.07-6.13.53-8.76.66-5.4.46h-.07l-.53.06h-.59l-5.47.46-16.21,1.32-4,.33h-.59l-.53.07h-.07l-2.83.26-8.57.66-.59.07-.72.06L57.59,180h-.13l-2.5.92c-.14.07-.34.13-.53.2a4.3,4.3,0,0,1-.53.2c-2.83,1.12-7.25,2.9-12.65,5.2-10.54,4.48-21.61,12.72-20.76,53.7.6,12.85,5.34,33.94,14.7,64.38a1.79,1.79,0,0,0,.13.59v.07c.06.2.13.33.2.53.59,2,1.18,4,1.84,6.12-.59,2.37-1.32,5.34-2.17,9H36.5c.66-2.83,1.19-5.33,1.72-7.38.06-.26.2-.59.26-.85a2.15,2.15,0,0,1,.13-.6v-.32c-.72-2.31-1.38-4.55-2.11-6.73a2,2,0,0,1-.13-.59c-.06-.2-.13-.39-.19-.59-2.18-7.12-4.09-13.77-5.8-19.83-.2-.73-.4-1.45-.53-2.18-.53-1.78-.92-3.49-1.38-5.14-4.15-16-6.33-28-6.72-36.44-.07-2.57-.07-4.94,0-7.24v-.14C22.14,203.27,30,194.05,36.84,190a33.55,33.55,0,0,1,4.87-2.37c2.7-1.18,5.14-2.17,7.25-3s3.95-1.58,5.4-2.17a4.3,4.3,0,0,0,.53-.2l.59-.2c1.25-.46,2-.79,2.31-.85l10.74-.86.66-.07.66-.06,8.1-.66,3.36-.27h.59l.46-.06h.14l3.49-.27,16.93-1.38,5-.39H108l.46-.07h.66l5.66-.46,10.61-.86,3.82-.33c.4.13,1.45.6,3,1.25a5.38,5.38,0,0,1,.52.27,2.23,2.23,0,0,1,.6.26c1.25.46,2.7,1.12,4.35,1.78,3.68,1.65,8.23,3.56,12.45,5.47,6.13,2.7,11.73,5.34,13.83,6.72.73.46,1.46.86,2.05,1.25,4.21,2.57,5.6,3.43,7.18,9.1,1,2.43,2.64,6.85,4.48,12.25a.26.26,0,0,0,.06.2c3.3,9.29,7.32,21.28,10.15,29.65,1.52,4.55,2.77,8.1,3.3,9.69a13,13,0,0,0,1.25,2.7,14.16,14.16,0,0,0,3.95,4.15c.79.59,1.45,1.05,1.45,1.45a2.85,2.85,0,0,1-.52,1.32c-.8,1.12-1.78,2.7.32,5.46,1.72,2.38,4.88,9.89,7.25,17.73a79.69,79.69,0,0,1,2.7,11.6A18.15,18.15,0,0,1,204,310.94c-.13.2-.27.33-.39.53a12.09,12.09,0,0,1-9.16,4.35,16.37,16.37,0,0,1-8.18-2.44c-7-3.89-16.4-11.93-18.44-20a10.83,10.83,0,0,1-.34-2.51v-.06a2.37,2.37,0,0,1,0-.92,1.57,1.57,0,0,1,0-.53c0-.2.07-.4.07-.59v-.07c.13-.79.2-1.52.27-2.17v-.6a3.21,3.21,0,0,0,.06-.72v-.6a8.23,8.23,0,0,0-1.51-5.14,4.3,4.3,0,0,0-1.39-1.05,5.15,5.15,0,0,0-2-.33h-.07a.63.63,0,0,0-.46.13.25.25,0,0,0-.2.07c-.13,0-.19.13-.32.2s-.2.19-.33.33a.93.93,0,0,0-.27.26,3.47,3.47,0,0,0-.39.53c-3.63,5.66-8.24,27.34-7.12,41.24H155c-1-12.19,2.5-30.9,5.8-38.41a12.44,12.44,0,0,1,.72-1.38,3.55,3.55,0,0,1,.53-.86v-.07l.06-.06c.07-.07.07-.13.13-.2a.93.93,0,0,1,.27-.26c.26-.27.39-.33.46-.33H163a2.71,2.71,0,0,1,2.44,1,.2.2,0,0,1,.06.13,3.61,3.61,0,0,1,.79,1.78,11,11,0,0,1,.33,3.49,13.46,13.46,0,0,1-.2,2.17,2,2,0,0,1-.06.6.08.08,0,0,0,0,.13c0,.13-.07.33-.07.52-.66,6.73,5.07,17.27,19.37,25.37,7.18,4.15,14.17,3.23,18.85-2.17A19.06,19.06,0,0,0,208.81,297.5Z"/><path class="cls-8" d="M206,287.81a.06.06,0,0,0-.06-.06c-.33-.53-.66-1.06-1.06-1.65a135.31,135.31,0,0,0-16.47-20.69c4.88,16.6,4.41,25.57-2,34.13,7.38,8,13.24,10.87,17.59,11.4.26,0,.53.07.73.07-.34.39-.6.79-1,1.18a11.18,11.18,0,0,1-2.17,1.91c-3.82,2.84-9.16,3.5-15.61-.19-13-7.38-18.58-16.67-19-22.93a5.86,5.86,0,0,1,0-1.45,1.76,1.76,0,0,1,.07-.6v-.33a.43.43,0,0,1,.06-.26v-.07c.07-.79.2-1.51.2-2.17a2.32,2.32,0,0,0,.07-.66,13.41,13.41,0,0,0-.07-1.71c-.13-2.18-.79-3.76-2-4.42v-.06a3.79,3.79,0,0,0-2.17-.6h-.14a.91.91,0,0,0-.46.2c-.06,0-.13.07-.26.13a1,1,0,0,0-.2.27,1.25,1.25,0,0,0-.39.46,7.39,7.39,0,0,0-.66,1.05l-.07.07c-3.43,6.65-7.51,26.75-6.46,40H66c.19-2.57.39-5.33.59-8.3,1.19-20.89-7.31-9.75-14.63-4.48-5.73,4.15-9.68,5.27-9.62,12.78H35.85c.79-3.49,1.51-6.52,2.1-8.89l.07-.07v-.06c-.66-2.18-1.38-4.35-2-6.46-.06-.2-.13-.4-.19-.59s-.14-.4-.2-.6c-3.16-10.28-6-20.22-8.3-29.45.39.66.72,1.25,1.12,1.91,6.39,10.28,11.66,12.92,17.19,10.94a1.49,1.49,0,0,0,.66-.2,6.08,6.08,0,0,0,.73-.33c6.06-2.83,12.72-10.8,21.54-19.63-7.31-9.29-9-21.48-9-21.48s-.2.19-.66.59a10.73,10.73,0,0,1-.85.72l-.86.86C53,252,44.08,260.27,39.14,266.27a2,2,0,0,0-.39.39c-.07.13-.2.2-.27.33-1.18-4.48-.39-13,4.09-16.67s3.23-8.5,1.18-21.48-6.85-30.9-12.58-27.28c-4.29,2.77-7.84,22-9.42,31.23v.14c-.34,2-.53,3.49-.66,4.21,0-1.71,0-3.42.06-5,0-1.12,0-2.17.07-3.29.06-1.38.13-2.64.19-3.89s.2-2.3.27-3.42c.13-.86.2-1.65.33-2.44a19.83,19.83,0,0,1,.4-3c.19-1.39.39-2.64.65-3.89a56,56,0,0,1,1.45-5.6c.2-.66.4-1.25.59-1.85a34.59,34.59,0,0,1,2.71-6,7.27,7.27,0,0,1,.72-1.25,23.63,23.63,0,0,1,8-8c.14.13.2.33.34.46,16.6,22.54,15.61,47.71,20,45.34s6.85-8.5.39-17.86-6.91-8.56-.39-13.84c4.22-3.42-2.57-12.84-7.84-19-.13-.2-.27-.33-.4-.53,2.18-.85,4.09-1.58,5.54-2.17a4.09,4.09,0,0,0,.52-.2l.6-.2a4.93,4.93,0,0,1,.66-.26c.26-.06.46-.2.59-.2a6.77,6.77,0,0,1,.86-.33,2,2,0,0,0,.32-.13l10.81-.85,1.32-.14,8.37-.66,3-.26h.06l.53-.06h.66l3.62-.33,16.68-1.32,5.2-.46h.59l.53-.07h.07l5.53-.46,9.62-.79,5-.4s1.05.46,2.77,1.12a.73.73,0,0,0,.33.2,4.78,4.78,0,0,0,.52.2H133a1.26,1.26,0,0,0,.53.26c1.25.53,2.83,1.19,4.48,1.91-.07.2-.2.33-.26.53-3.1,5.67-8.44,15.35-9.82,19-2.05,5.27,15,1.64,8.5,8.89s-2.84,10.22,4.87,9,9.36-7.31,9.36-19.5c0-5-.2-9-.46-11.86,0-.26-.07-.46-.07-.73,3.23,1.45,6.33,2.84,8.83,4.09,1.19.53,2.24,1.05,3.1,1.52a20.32,20.32,0,0,1,2.31,1.31c5.79,3.63,7.64,4,9.48,10.68.79,1.91,2,5.2,3.43,9.22.39,1.12.79,2.31,1.25,3.56.2.59.46,1.25.66,1.91s.59,1.58.86,2.44c.39,1,.72,2.11,1.12,3.23h-.07s-1.38-3.43-3.3-7.71a.26.26,0,0,1-.06-.2c-3.36-7.38-8.17-17.06-10.34-16.54s-3.43,8.37-2.11,17.46l.2,1.12v.2a43.56,43.56,0,0,0,5.4,15c8,13.18,26.09,39.67,21.61,25a.67.67,0,0,0-.07-.33c-.26-1.06-.52-2-.79-3l.2.4c2.11,6.06,6.65,6.72,6.65,8.5s-3,2.77-.32,6.46a28.59,28.59,0,0,1,2.5,4.67c.4.93.86,1.91,1.32,3,1,2.7,2.17,5.8,3.16,9C205.45,285.7,205.78,286.76,206,287.81Z"/><path class="cls-9" d="M108,188a127.16,127.16,0,0,0,0-23.4l-.15-2.48s-10.83,4.25-27.73,2v3.15c.37,1.81,1.19,10.13,3.34,21.18C88.63,189.65,98.19,191.09,108,188Z"/><path class="cls-10" d="M83.29,184.5l-.2-1.19c-.07-.33-.13-.66-.2-1-.13-1.12-.33-2.17-.53-3.16,0-.2-.06-.4-.06-.59a2.15,2.15,0,0,0-.13-.6c-.4-3-.73-5.53-1-7.44-.26-1.72-.4-2.84-.53-3.3v-2a1.49,1.49,0,0,1-.53-.14v1.12c-.19,0-.32-.06-.46-.06v1.12c.14.59.27,1.71.46,3.36.07.46.14,1,.2,1.51a2.32,2.32,0,0,0,.07.66c.26,1.52.53,3.3.79,5.21a2,2,0,0,1,.06.59,1.87,1.87,0,0,1,.14.59l.39,2.38c.07.26.07.52.13.79a1.26,1.26,0,0,1,.53.33l.07.06c.06.33.06.66.13,1,.07.13.07.33.13.46v.13c.2,1.06.4,2.18.59,3.36h.07l.2.07c.13,0,.19.07.33.07C83.68,186.67,83.48,185.55,83.29,184.5Zm25.3-19.71v-.06a.48.48,0,0,1-.07-.2v-.46l-.06-.13v-1l-.07-.86c0-.2-.06-.33-.2-.39a.42.42,0,0,0-.46-.07c-.06,0-6.85,2.64-17.72,2.64a69.44,69.44,0,0,1-9.75-.73,1,1,0,0,0-.46.13,1,1,0,0,0-.14.4v3.23c.14.59.27,1.71.46,3.36.07.46.14,1,.2,1.51a2.32,2.32,0,0,0,.07.66c.26,1.52.53,3.3.79,5.21a2,2,0,0,1,.06.59,1.87,1.87,0,0,1,.14.59l.39,2.38c.07.26.07.52.13.79a4.36,4.36,0,0,0,.2.85c.2,1.45.46,2.9.73,4.42l.19.85a.43.43,0,0,0,.33.4c.07,0,.13.07.27.07s.39.06.66.13a19.2,19.2,0,0,0,2.43.46,4.37,4.37,0,0,0,.86.13l.79.2c1,.06,2,.2,3.1.33s2.57.13,4,.13a43.94,43.94,0,0,0,7.18-.59,42.61,42.61,0,0,0,4.75-1.06l.59-.2c.07,0,.2-.06.26-.06a.42.42,0,0,0,.33-.4c0-.33.07-.59.07-.85.26-3.76.39-7.19.39-10.15a2.32,2.32,0,0,0,.07-.66v-.59A105.65,105.65,0,0,0,108.59,164.79Zm-.53,11.67a2.77,2.77,0,0,1-.06.66c0,3-.14,6.52-.46,10.34v.13h-.14a27.76,27.76,0,0,1-3.42.92,44.76,44.76,0,0,1-8.57.8,53.17,53.17,0,0,1-7.77-.6c-.33-.06-.6-.06-.86-.13l-.86-.2a1.22,1.22,0,0,1-.46-.06c-.53-.13-1-.2-1.45-.33H84v-.13c-.27-1.19-.47-2.31-.66-3.36l-.2-1.19c-.07-.33-.13-.66-.2-1-.13-1.12-.33-2.17-.53-3.16,0-.2-.06-.4-.06-.59a2.15,2.15,0,0,0-.13-.6c-.4-3-.73-5.53-1-7.44-.26-1.72-.4-2.84-.53-3.3v-2.57a74.24,74.24,0,0,0,9.36.6,55.78,55.78,0,0,0,17.39-2.44v.46l.07.46v.07l.07.46v.39a104.59,104.59,0,0,1,.52,11.2Z"/><path class="cls-11" d="M108,188c-9.82,3.11-19.38,1.67-24.51.42C86,201,90.16,217.17,97.41,231.25A137.91,137.91,0,0,0,108,188Z"/><path class="cls-12" d="M94.82,224.36A159.49,159.49,0,0,1,89,208.22c-.06-.33-.19-.73-.26-1.06h-.07v-.06c0-.07-.06-.2-.06-.27a.55.55,0,0,1-.07-.33h-.06v-.13c-.07-.13-.07-.26-.13-.39v-.14c-.47-1.45-.86-3-1.19-4.48L87,201.3c-.72-2.7-1.31-5.34-1.84-7.84v-.07l-.07-.07a1.73,1.73,0,0,1-.06-.52.07.07,0,0,1-.07-.07,1.55,1.55,0,0,1-.07-.53,2.23,2.23,0,0,1-.19-.85v-.07a1.86,1.86,0,0,1-.13-.52v-.07a1.87,1.87,0,0,1-.14-.59c-.19,0-.39.06-.59.06v.07c0,.13.07.2.07.33v.06a.27.27,0,0,1,.06.2c.07.2.07.4.13.59s.14.6.2.93a2.16,2.16,0,0,0,.13.59c0,.13.07.33.07.53.07,0,.07.06.07.13.13.46.19,1,.32,1.51.27,1.39.6,2.77,1,4.22v.07c.33,1.45.73,2.9,1.12,4.35.07.06.07.13.13.19l1.06,1.91a1.39,1.39,0,0,0-.53.07,1.94,1.94,0,0,0,.13.46v.13c.07.14.07.27.14.4a.27.27,0,0,0,.06.2.22.22,0,0,0,.07.19,11.44,11.44,0,0,0,.59,2,31.92,31.92,0,0,0,1,3.23c.33,1.12.73,2.24,1.12,3.36a120.65,120.65,0,0,0,5.54,13.38c.2-.07.46-.07.66-.14C96.27,227.52,95.54,225.94,94.82,224.36Zm-3.3-34.07-.06-.06c-1.12-.13-2.11-.27-3.1-.33H88a.93.93,0,0,0,.4.06C89.42,190.1,90.4,190.23,91.52,190.29Zm17.14-3.16-.07.07-.53.13-.26.06c-.07,0-.2.07-.26.07s-.07.07-.14.07a27.56,27.56,0,0,1-3.42.85,39.73,39.73,0,0,1-8.57.86,45.38,45.38,0,0,1-7.84-.66c-.33-.07-.59-.07-.86-.13a3,3,0,0,0-.79-.13h-.06c-.13-.07-.27-.07-.4-.13-.53-.07-1-.2-1.45-.27v-.06H84c-.14,0-.2-.07-.33-.07l-.2-.07h-.07l-.52-.06-.07-.07H82.7l.19.92a.58.58,0,0,1,.07.33c.13.47.2,1,.33,1.52a1.74,1.74,0,0,0,.13.59V191a1.22,1.22,0,0,0,.13.53v.06c.07.27.07.53.13.79a.21.21,0,0,0,.07.13,1.85,1.85,0,0,0,.13.6c0,.19.07.33.07.52s.06.07.06.14a21,21,0,0,0,.6,2.7,5.17,5.17,0,0,0,.26,1c.33,1.51.66,3,1,4.34s.66,2.64,1.06,4v.07H87c0,.13.07.33.07.53h.06v.13a.48.48,0,0,1,.07.33h.07v.2h.06a.58.58,0,0,0,.07.33c0,.13.07.19.13.33.4,1.44.86,2.89,1.32,4.28.59,1.78,1.18,3.56,1.84,5.27s1.25,3.36,1.91,5a73.78,73.78,0,0,0,3.17,7,17.12,17.12,0,0,0,.72,1.58c.07.2.2.33.27.53s.06.07.06.13l.27.46.32.66.4-.79.13-.39c.07-.14.07-.2.13-.33a3.6,3.6,0,0,0,.27-.73h.06c.26-.59.46-1.12.66-1.71s.66-1.52.92-2.24.53-1.39.73-2.11h.07c0-.07.06-.13,0-.2a3.74,3.74,0,0,0,.32-.79,4.3,4.3,0,0,0,.33-1.05h.07c.72-2,1.32-4,1.91-6,.06-.26.13-.46.2-.72s.2-.73.26-1.06c.2-.59.33-1.18.46-1.71.33-1.06.53-2,.79-3,.07-.2.07-.4.13-.53s.07-.33.07-.53a34.77,34.77,0,0,0,.79-3.55c.4-1.65.66-3.37.92-5,.07-.07.07-.07.07-.13.2-1.19.33-2.38.53-3.56.33-2.37.59-4.61.79-6.79.06-.53.13-1.12.2-1.65l.06-.92Zm-9.1,37.23c-.59,1.52-1.18,3.1-1.84,4.61a4.76,4.76,0,0,1-.33.86,3.65,3.65,0,0,1-.33-.73c-.79-1.58-1.52-3.16-2.24-4.74A159.49,159.49,0,0,1,89,208.22c-.06-.33-.19-.73-.26-1.06h-.07v-.06c0-.07-.06-.2-.06-.27a.55.55,0,0,1-.07-.33h-.06v-.13c-.07-.13-.07-.26-.13-.39v-.14c-.47-1.45-.86-3-1.19-4.48L87,201.3c-.72-2.7-1.31-5.34-1.84-7.84v-.07l-.07-.07a1.73,1.73,0,0,1-.06-.52.07.07,0,0,1-.07-.07,1.55,1.55,0,0,1-.07-.53,2.23,2.23,0,0,1-.19-.85v-.07a1.86,1.86,0,0,1-.13-.52v-.07a1.87,1.87,0,0,1-.14-.59c-.06-.33-.13-.6-.19-.86.79.2,1.64.33,2.57.53.26,0,.52.06.79.06a.22.22,0,0,0,.19.07H88a.93.93,0,0,0,.4.06c1,.14,2,.27,3.09.33a34.66,34.66,0,0,0,3.89.2,42.68,42.68,0,0,0,7.18-.59,35.36,35.36,0,0,0,4.75-1.06c-.4,4.35-1.06,9.1-2,14.11-.2,1.25-.46,2.43-.72,3.69-.13.46-.2,1-.33,1.51-.07.13-.07.33-.14.53v.06c-.06.14-.06.33-.13.46v.07c-.26,1.12-.53,2.24-.85,3.43-.14.52-.27,1.12-.46,1.64-.07.33-.14.6-.2.86a.47.47,0,0,0-.07.26,4.21,4.21,0,0,0-.26.86l-.07.07c-.59,2-1.18,4.08-1.91,6.12-.13.4-.26.73-.39,1.06s-.13.33-.2.53S99.56,224.29,99.56,224.36Z"/><path class="cls-13" d="M102.68,189.35c-.11,0-.59,10.29-2,11.75-2.61,2.62-3.22,1.47-5-1.31-2.06-3.12-3-6.68-4.32-10.13a49.89,49.89,0,0,1-7.79-1.26C86,201,90.16,217.17,97.41,231.25c5.61-12.86,10.93-29,10.51-43.17A51.29,51.29,0,0,0,102.68,189.35Z"/><g class="cls-14"><path class="cls-15" d="M108,164.58l-.15-2.48s-10.83,4.25-27.73,2v3.15c.37,1.81,1.19,10.13,3.34,21.18.59.15,1.24.29,2,.43-.37-6.67.13-17.18,6.78-17.92,8.39-.93,12.56,4.56,11.72,18.11a36.68,36.68,0,0,0,4.06-1A127.16,127.16,0,0,0,108,164.58Z"/></g><path class="cls-6" d="M133.13,175.52c0-3.06-25.09-10.94-25.09-10.94s4,33.15-10.63,66.67c-13.61-26.41-16.46-60.14-17.25-64,0,0-3-1.05-13.47,4.55s-13.82,6.12-12.07,9.79,10.85,21.51,10.85,21.51l-8.93,6.83L96.4,259.18l34.73-53-8.83-6.4S131.38,184.71,133.13,175.52Z"/><path class="cls-7" d="M116.5,227.46l-.46.66-.47.72-8.89,13.51a3.17,3.17,0,0,0,1-.4l8.69-13.31h.07l.39-.72h.07l.07-.2H117l.27-.46Zm-9.43-27.28q-.69,4.24-1.78,8.5h-.06a1.28,1.28,0,0,1-.13.52,1.33,1.33,0,0,1-.13.53c-.2,1.06-.53,2-.8,3-.19.6-.32,1.19-.52,1.72s-.2.72-.33,1.05h-.27s0-.07-.06,0a1.22,1.22,0,0,0-.53-.07h-.06c-.07.33-.14.6-.2.86l-.07.07c-.59,2-1.18,4.08-1.91,6.12-.13.4-.26.73-.39,1.06s-.13.33-.2.53-.07.19-.07.26c-.59,1.52-1.18,3.1-1.84,4.61a4.76,4.76,0,0,1-.33.86,3.65,3.65,0,0,1-.33-.73c-.2.07-.46.07-.66.14a120.65,120.65,0,0,1-5.54-13.38,23.23,23.23,0,0,1-1.12-3.36c-.39-1.06-.72-2.18-1-3.23a11.44,11.44,0,0,1-.59-2,.22.22,0,0,1-.07-.19.27.27,0,0,1-.06-.2c-.07-.13-.07-.26-.14-.4v-.13a1.94,1.94,0,0,1-.13-.46,1.39,1.39,0,0,1,.53-.07l-1.06-1.91c-.06-.06-.06-.13-.13-.19-.39-1.45-.79-2.9-1.12-4.35v-.07c-.39-1.45-.72-2.83-1-4.22-.13-.52-.19-1-.32-1.51,0-.07,0-.13-.07-.13,0-.2-.07-.4-.07-.53a2.16,2.16,0,0,1-.13-.59c-.06-.33-.13-.66-.2-.93s-.06-.39-.13-.59a.27.27,0,0,0-.06-.2v-.06c0-.13-.07-.2-.07-.33v-.07c-.07-.39-.2-.79-.26-1.18a3.87,3.87,0,0,0-.14-.6c-.06-.19-.06-.46-.13-.66-.19-1.18-.39-2.3-.59-3.36v-.13c-.06-.13-.06-.33-.13-.46-.07-.33-.07-.66-.13-1l-.07-.06a1.26,1.26,0,0,0-.53-.33c-.06-.27-.06-.53-.13-.79l-.39-2.38h-.07c.07.73.2,1.52.33,2.31a3.11,3.11,0,0,1,.13.79c.07.26.13.53.2.79.2,1.45.46,2.9.73,4.48h.06a5.49,5.49,0,0,0,.13.92.58.58,0,0,1,.07.33c.13.47.2,1,.33,1.52a1.74,1.74,0,0,0,.13.59V191c0,.13.06.33.06.53v.06c0-.06.07,0,.07,0,.07.27.07.53.13.79,0,.07.07.07,0,.13h.07c0,.2.06.4.06.6h.07c0,.19.07.33.07.52s.06.07.06.14a21,21,0,0,0,.6,2.7c.06.33.13.59.19.92l.07.07c.26,1.38.59,2.76,1,4.21l.06.13c.33,1.32.66,2.64,1.06,4l.06.07a1.94,1.94,0,0,0,.13.46v.2c.07.07.07.2.14.33a.27.27,0,0,0,.06.2.58.58,0,0,0,.07.33c0,.13.07.19.13.33.4,1.44.86,2.89,1.32,4.28.59,1.78,1.18,3.56,1.84,5.27s1.25,3.36,1.91,5a73.78,73.78,0,0,0,3.17,7,17.12,17.12,0,0,0,.72,1.58c.07.2.2.33.27.53s.06.07.06.13l.27.46.32.66.4-.79.13-.39c.07-.14.07-.2.13-.33s.2-.46.33-.73c.26-.59.46-1.12.66-1.71h.07c.26-.73.59-1.45.85-2.24s.53-1.39.8-2.11c0-.07.06-.07.06-.13.13-.33.2-.6.33-.92s.2-.66.33-1c.72-2,1.32-4,1.91-6,.06-.26.13-.46.2-.72s.2-.73.26-1.06c.2-.59.33-1.18.46-1.71.33-1.06.53-2,.79-3,.07-.2.07-.4.13-.53s.07-.39.14-.53c.26-1.18.52-2.37.72-3.55.4-1.72.66-3.43,1-5.14C107.14,200.11,107.14,200.11,107.07,200.18Zm1.45-36.11a.71.71,0,0,1-.33-.07l-.19-.06-.53-.13v-.07h-.13l.06.53v.39a105.42,105.42,0,0,1,.53,11.2v1.26c-.07,3-.2,6.52-.53,10.41v.06a2,2,0,0,1-.06.6v.65c-.4,4.35-1.06,9.1-2,14.11-.2,1.18-.46,2.43-.72,3.69-.13.46-.2,1-.33,1.51-.07.13-.07.33-.14.53v.06c-.06.14-.06.33-.13.46v.07c-.26,1.12-.53,2.24-.85,3.43-.14.52-.27,1.12-.46,1.64-.07.33-.14.6-.2.86s-.07.2-.13.26c-.07.33-.14.6-.2.86l-.07.07c-.59,2-1.18,4.08-1.91,6.12-.13.4-.26.73-.39,1.06s-.13.33-.2.53-.07.19-.07.26c-.59,1.52-1.18,3.1-1.84,4.61a4.76,4.76,0,0,1-.33.86,3.65,3.65,0,0,1-.33-.73c-.79-1.58-1.52-3.16-2.24-4.74A159.49,159.49,0,0,1,89,208.22a7.38,7.38,0,0,0-.33-1.06v-.06c0-.07-.06-.2-.06-.27a.55.55,0,0,1-.07-.33h-.06v-.13c-.07-.13-.07-.26-.13-.39v-.14s-.07-.06-.07,0c-.4-1.51-.79-3-1.19-4.54-.72-2.7-1.31-5.34-1.84-7.84v-.07l-.07-.07a1.73,1.73,0,0,1-.06-.52c-.07-.07,0-.07,0-.07H85a1.55,1.55,0,0,1-.07-.53,2.23,2.23,0,0,1-.19-.85v-.07a1.86,1.86,0,0,1-.13-.52v-.07a1.87,1.87,0,0,1-.14-.59c-.06-.33-.13-.6-.19-.86v-.13c-.07-.2-.07-.4-.14-.6s-.06-.32-.13-.52v-.13c-.2-1.12-.39-2.18-.59-3.23-.07-.4-.13-.79-.2-1.19s-.13-.66-.2-1c-.19-1.18-.32-2.24-.52-3.29,0-.2-.07-.4-.07-.59s-.07-.4-.13-.6c-.46-3-.79-5.53-1.06-7.44a34.31,34.31,0,0,0-.52-3.43v-.33h-.07l-.26-.13a.67.67,0,0,1-.27-.07c-.13,0-.26-.06-.46-.06-1.31,0-4.67.33-11.66,3.88v.07a2.16,2.16,0,0,0-.53.26c-.2.07-.39.2-.59.27s-.33.2-.46.26c-2.11,1.12-4,2-5.54,2.83-5.73,2.9-8.23,4.16-7,7.19a2.06,2.06,0,0,0,.2.59,3.58,3.58,0,0,0,.26.53c2,4.08,9,17.85,10.35,20.49l-9,6.92,8.63,10.67.53.6.46.59L70,227.59l.53.59.46.59L78,237.34l.53.66.53.59.92,1.19.39.53.07.06.53.59,1.18,1.45L96.47,260.2l10.93-16.73.53-.73.46-.79.27-.39,8.56-13.12.53-.72.33-.53.13-.13V227l.92-1.45h.07l2.11-3.23.46-.73.46-.72L132,206l-8.89-6.4c1.45-2.5,8.1-14,10.28-22.4a2.57,2.57,0,0,0,.13-.66,1.93,1.93,0,0,0,.19-.59c0-.13.07-.26.07-.4C133.76,174.48,131.25,171.25,108.52,164.07ZM132.38,176v.06c-.07.2-.07.4-.13.59-.2.8-.4,1.52-.66,2.38a99.37,99.37,0,0,1-7.12,15.48c-1.52,2.9-2.64,4.88-2.7,4.94l-.26.46.52.4a.24.24,0,0,0,.13.07l8.17,5.93-9.75,14.89h-.06v.06l-.46.73-.46.66-2.12,3.29-.52.73-.46.72v.07l-.46.66-.47.72-8.89,13.51v.06l-.53.79-.46.73-9.36,14.23L82.17,240.63l-1.25-1.51-.47-.59-.06-.07-.4-.53-.79-1-.52-.65-.53-.6v-.06l-6.92-8.57-.53-.59-.46-.53-1.84-2.31-2.77-3.49-.46-.52-.53-.66-7.25-8.9V210l8.83-6.73-.2-.46c-.06-.06-.92-1.78-2.24-4.28-2.57-5.07-6.72-13.31-8.3-16.54a4.38,4.38,0,0,0-.26-.53v-.06c0-.07-.07-.07-.07-.13l-.19-.4c-.4-1.12-.2-1.84,1.18-2.77,0-.06,0-.06.07-.06a41.87,41.87,0,0,1,5.27-2.9c1.51-.79,3.36-1.71,5.47-2.83a.48.48,0,0,1,.26-.14,5,5,0,0,1,.53-.26,2.67,2.67,0,0,1,.59-.33c7.31-3.69,10.41-3.89,11.27-3.82.13.66.26,1.65.46,2.9a13.3,13.3,0,0,0,.26,1.51,2.32,2.32,0,0,0,.07.66c.19,1.52.46,3.3.72,5.21,0,.2.07.39.07.59s.06.4.13.59c.07.73.2,1.52.33,2.31a3.11,3.11,0,0,1,.13.79c.07.26.13.53.2.79.2,1.45.46,2.9.73,4.48h.06a5.49,5.49,0,0,0,.13.92.58.58,0,0,1,.07.33c.13.47.2,1,.33,1.52a1.74,1.74,0,0,0,.13.59V191c0,.13.06.33.06.53v.06c0-.06.07,0,.07,0,.07.27.07.53.13.79,0,.07.07.07,0,.13h.07c0,.2.06.4.06.6h.07c0,.19.07.33.07.52s.06.07.06.14a21,21,0,0,0,.6,2.7c.06.33.13.59.19.92l.07.07c.26,1.38.59,2.76,1,4.21l.06.13c.33,1.32.66,2.64,1.06,4l.06.07a1.94,1.94,0,0,0,.13.46v.2c.07.07.07.2.14.33a.27.27,0,0,0,.06.2.58.58,0,0,0,.07.33c0,.13.07.19.13.33.4,1.44.86,2.89,1.32,4.28.59,1.78,1.18,3.56,1.84,5.27s1.25,3.36,1.91,5a73.78,73.78,0,0,0,3.17,7,17.12,17.12,0,0,0,.72,1.58c.07.2.2.33.27.53s.06.07.06.13l.27.46.32.66.4-.79.13-.39c.07-.14.07-.2.13-.33s.2-.46.33-.73c.26-.59.46-1.12.66-1.71h.07c.26-.73.59-1.45.85-2.24s.53-1.39.8-2.11c0-.07.06-.07.06-.13.13-.33.2-.6.33-.92s.2-.66.33-1c.72-2,1.32-4,1.91-6,.06-.26.13-.46.2-.72s.2-.73.26-1.06c.2-.59.33-1.18.46-1.71.33-1.06.53-2,.79-3,.07-.2.07-.4.13-.53s.07-.39.14-.53c.26-1.18.52-2.37.72-3.55.4-1.72.66-3.43,1-5.14.2-1.19.33-2.38.53-3.56.33-2.37.59-4.61.79-6.79.06-.92.13-1.78.2-2.57.26-3.75.39-7.12.46-10.08V175.8c0-5.08-.27-8.77-.4-10.35,11.53,3.63,23.66,8.44,23.79,10v.07C132.44,175.67,132.44,175.8,132.38,176Z"/><g class="cls-16"><path class="cls-17" d="M113.44,197.26c2.83-1,12,4.94,17.65,9l0-.07-8.83-6.4s1.1-1.83,2.6-4.57c-9.11-12.75-11.78-21.35-10.12-23.18,1.26-1.39,10.9,3.7,17.34,7.34a34.25,34.25,0,0,0,1-3.83c0-3.06-25.09-10.94-25.09-10.94s4,33.15-10.63,66.67c-13.61-26.41-16.46-60.14-17.25-64,0,0-3-1.05-13.47,4.55-6.65,3.54-10.41,5.06-11.83,6.61a134,134,0,0,1,18.78-3.46c9.1-.76,4.74,7.47-10.28,24,1.24,2.43,2.11,4.11,2.11,4.11l-8.93,6.83.36.43c4.94-2.55,11.51-5.69,16.31-7.06,6-1.7-.4,12-5.09,20.94l28.28,35,24.42-37.28C116.59,212.61,110.61,198.29,113.44,197.26Z"/></g><path class="cls-18" d="M64.49,234.34s-4,17.59,11.26,34.6C78.1,252.75,68.25,229.53,64.49,234.34Z"/><path class="cls-7" d="M76.57,260.8a5.06,5.06,0,0,0-.07-1.06,3.22,3.22,0,0,0-.07-.85v-.2a19.3,19.3,0,0,0-.39-2.9,56.12,56.12,0,0,0-1.84-8.37,49,49,0,0,0-2.31-6.59,25.26,25.26,0,0,0-1.71-3.49,2.63,2.63,0,0,0-.47-.66,1.32,1.32,0,0,0-.39-.66,6.42,6.42,0,0,0-.92-1.25,4,4,0,0,0-2.77-1.65,1.91,1.91,0,0,0-1.58.86l-.13.26s-.07.27-.14.66c-.06.07-.06.2-.06.4a35.74,35.74,0,0,0,.06,10.08,33.51,33.51,0,0,0,1.06,4.94c0,.07.06.2.06.26a43.89,43.89,0,0,0,6.2,13.31,39,39,0,0,0,4,5.21c.06.07.13.2.19.26l.33.4.53.59.07-.59.13-.73a33.34,33.34,0,0,0,.33-5.79C76.7,262.44,76.63,261.59,76.57,260.8Zm-3.23,4.28a9,9,0,0,0-.73-1A52.62,52.62,0,0,1,69.52,259a40.66,40.66,0,0,1-4.16-11.79V247a29.82,29.82,0,0,1-.59-4.41,7.52,7.52,0,0,1-.06-1.12,1.76,1.76,0,0,1-.07-.6,36.39,36.39,0,0,1,.4-6.19.67.67,0,0,1,.59-.33c.33,0,.92.13,1.84,1.25A10,10,0,0,1,69,237.8a1.19,1.19,0,0,1,.26.4c.07.13.2.33.33.52a11.15,11.15,0,0,0,.79,1.52,52.7,52.7,0,0,1,3.37,10,51.38,51.38,0,0,1,1.64,10.61,5.4,5.4,0,0,1,.07,1.06,4.74,4.74,0,0,1,.06.92v.72a37.51,37.51,0,0,1-.2,4c-.06-.07-.06-.07-.06-.13-.59-.66-1-1.26-1.58-1.91A1.71,1.71,0,0,0,73.34,265.08Z"/><path class="cls-9" d="M64.54,241.46s3.94-2.06,4.87-3.37S70,219.35,74.47,213s12-7.49,21.93-6.19,13.11,4.32,11.8,9.75c0,0,5.25,2.62,4.69,8.43,3.18,2.25-2.07,5.44-9.18,7.31s-23.24,4.87-23.24,4.87.45,18.75-7.24,28.13C73.23,265.28,64.54,259.26,64.54,241.46Z"/><path class="cls-10" d="M113.4,224.76V224a1.68,1.68,0,0,0-.07-.59,2.22,2.22,0,0,0-.06-.66,10,10,0,0,0-4.48-6.53A6.49,6.49,0,0,0,108,211a8.05,8.05,0,0,0-2.57-2.24h-.07l-.07-.06h-.06l-.33-.2h-.07l-.52-.33a28.88,28.88,0,0,0-7.51-1.78.66.66,0,0,0-.33-.06c-.14,0-.27,0-.33-.07-.27,0-.47-.07-.73-.07h-.2c-1.12-.13-2.24-.26-3.23-.33-.78-.06-1.51-.06-2.24-.06h-.39a5.71,5.71,0,0,0-1,.06s-.07-.06-.07,0a1.39,1.39,0,0,0-.53.07h-.06a.88.88,0,0,0-.6,0H87c-.27,0-.53.07-.79.07a2.21,2.21,0,0,0-.66.13c-5.14.66-8.83,2.83-11.47,6.59-2.11,3-3.16,8.23-3.82,13.24,0,.26-.06.53-.06.79s-.07.59-.14.86c-.19,1.91-.33,3.69-.46,5.34-.13,1-.19,2.24-.26,3.09a4.28,4.28,0,0,0-.13.86,4.58,4.58,0,0,1-.2.92c-.66.92-3.1,2.37-4.35,3a1.59,1.59,0,0,0-.33.2.33.33,0,0,0-.2.2.09.09,0,0,0,0,.13.26.26,0,0,0-.06.13,43.25,43.25,0,0,0,.79,8.83c0,.07.06.2.06.26,1.39,7,4.22,11.21,6.2,13.31a8.53,8.53,0,0,0,1.84,1.78.5.5,0,0,0,.27.14.4.4,0,0,0,.39-.2c.07-.07.07-.07.07-.13a14.52,14.52,0,0,0,1.84-2.64c0-.07,0-.07.07-.13a3,3,0,0,0,.46-.86.57.57,0,0,0,.2-.39,1.71,1.71,0,0,0,.33-.66,2.31,2.31,0,0,0,.32-.73L77,260a44.73,44.73,0,0,0,3-10.61v-.2a81.91,81.91,0,0,0,.93-8.24V240a4.7,4.7,0,0,0,0-.92c.06-.66.06-1.19.06-1.52,1.25-.26,5.27-1,9.75-1.91l.27-.06c3.69-.73,7.64-1.65,10.74-2.31a1.79,1.79,0,0,1,.59-.13l.66-.2c.33-.06.59-.13.86-.2a31.51,31.51,0,0,0,7.84-3.09,5.7,5.7,0,0,0,1.18-.86,2.64,2.64,0,0,0,.73-.72c.06-.07.13-.07.06-.14a1,1,0,0,0,.4-.59v-.07a.89.89,0,0,0,.26-.52v-.13A2,2,0,0,0,113.4,224.76Zm-.79,3a9.33,9.33,0,0,1-.86.72c-.06.07-.13.07-.2.14l-.06.06a1.58,1.58,0,0,0-.46.27c-.2.13-.4.19-.59.33a32.56,32.56,0,0,1-6.86,2.57c-.19.06-.39.06-.59.13a1.39,1.39,0,0,1-.59.13,1.77,1.77,0,0,1-.6.13c-7.57,1.91-21.28,4.42-21.41,4.48a.37.37,0,0,0-.4.46v1.72a5.11,5.11,0,0,1-.06.92,63.79,63.79,0,0,1-2.7,16.67c-.2.66-.46,1.38-.73,2,0,.07-.07.13-.07.2-.19.39-.32.72-.52,1.05a.6.6,0,0,1-.2.46,2,2,0,0,1-.33.66,18.63,18.63,0,0,1-2.24,3.69c-.13-.13-.33-.26-.53-.46a18.73,18.73,0,0,1-3.42-4.68,32.29,32.29,0,0,1-3.83-12.25V247c-.19-1.38-.26-3-.32-4.61v-.6a22.64,22.64,0,0,0,4.54-3c.07-.13.2-.19.27-.33a.31.31,0,0,1,.13-.19v-.07c.06-.2.13-.46.2-.79.13-.86.26-2.24.46-4.35.13-1.25.19-2.7.39-4.22a3.78,3.78,0,0,1,.07-.85,3.58,3.58,0,0,1,.13-.86c.53-5.14,1.58-10.81,3.69-13.77,2.57-3.69,6.26-5.73,11.47-6.26h.06c.26-.07.53-.07.79-.13H88c.19,0,.39-.07.59-.07h1.18a3.82,3.82,0,0,1,.86.07h.33a41.31,41.31,0,0,1,5.4.39c.14,0,.27,0,.33.07A26.71,26.71,0,0,1,104,209.2v.07a.81.81,0,0,1,.53.26c.07-.06.07-.06.07,0a.38.38,0,0,1,.33.2c.06,0,.13.07.19.07a6.41,6.41,0,0,1,2,1.78,3.08,3.08,0,0,1,.4.79,6.23,6.23,0,0,1,.26,3.88c-.07.07-.07.07-.07.14v.06a.4.4,0,0,0,.27.53,8.71,8.71,0,0,1,4.28,6.06,1.94,1.94,0,0,1,.07.66,1.41,1.41,0,0,1,.06.53V225c-.06.13.07.33.2.46.79.6.72,1.06.72,1.19a.65.65,0,0,1-.13.33A2.14,2.14,0,0,1,112.61,227.72Z"/><path class="cls-19" d="M112.89,225c.56-5.81-4.69-8.43-4.69-8.43a6.79,6.79,0,0,0-.17-4.43c-.88.6-2.44.94-5.26.59-9.4-1.07-11.39-.13-11,2.38s7.56,1.06,12.72,1.32,5.29,2.92,5.69,4.24-4.5,1.32-9.14,1.73-6.21,2-6.21,2,10.85-.4,11.65,1.33-5.7,2.78-13.11,4.11-14.17,6.88-17.87-.27-1.35-15.28,2.61-17.87a26.15,26.15,0,0,1,20.72-4.27,9.69,9.69,0,0,0,1.81.2,41.71,41.71,0,0,0-4.24-.78c-9.94-1.3-17.43-.18-21.93,6.19s-4.11,23.8-5.06,25.11-4.87,3.37-4.87,3.37c0,.4,0,.77,0,1.16,2.49-1.47,5.26-2.78,6.5-2.29,2.4.92,6.69,7.39-2.25,19.6a17.5,17.5,0,0,0,4.4,5.35c7.69-9.38,7.24-28.13,7.24-28.13s16.11-3,23.24-4.87S116.07,227.22,112.89,225Z"/><path class="cls-20" d="M45.17,156.12s1.93,7.93,7.5,7.93,10.76-1.76,10.2-4.52C57.82,158.91,45.17,156.12,45.17,156.12Z"/><path class="cls-21" d="M62.8,160.64a.73.73,0,0,0,.06-.52.88.88,0,0,0,0-.6,12.84,12.84,0,0,1-1.51.07h-.66a.39.39,0,0,1-.27-.07.11.11,0,0,1-.19,0,15.1,15.1,0,0,1-1.58-.06l1,.19c.79.14,1.52.27,2.18.33.13,0,.33.07.46.07v.2a2.21,2.21,0,0,1-.27.59,1.89,1.89,0,0,1,.4.4,1.14,1.14,0,0,1,.46.39,1.36,1.36,0,0,0,.33-.59Zm.66-1.25c0-.06,0-.13-.07-.13a1.86,1.86,0,0,1-.27-.2h0c-.07,0-.1-.13-.18-.13s-.33-.07-.53-.07-.13-.06-.2-.06a23.37,23.37,0,0,1-2.57-.4H59.5c-.73-.13-1.51-.26-2.31-.46h-.32c-4.88-.92-10.41-2.17-11.4-2.37a.5.5,0,0,1-.27-.07.6.6,0,0,0-.46.2.26.26,0,0,0-.06.2c-.07.13-.14.2-.07.33s.07.13.13.33a14.68,14.68,0,0,0,2.7,5.47,3.33,3.33,0,0,0,.46.46,2.69,2.69,0,0,1,.4.46,6.47,6.47,0,0,0,4.35,1.71c4.41,0,8.1-1,9.81-2.57l.4-.39v-.07a1.36,1.36,0,0,0,.33-.59,1.1,1.1,0,0,0,.2-.59.33.33,0,0,0,.07-.4c.06-.07.06-.07.06-.13A1.6,1.6,0,0,0,63.46,159.39Zm-1.19.86a2.21,2.21,0,0,1-.27.59c-.06,0-.06.07-.06.07a2.13,2.13,0,0,1-.4.39c-1.51,1.25-5,2.11-8.89,2.11a4.76,4.76,0,0,1-3.16-1.19c-.2-.13-.34-.26-.53-.39a2.69,2.69,0,0,1-.4-.46,13.16,13.16,0,0,1-2.44-4.22c0-.07-.06-.13-.06-.2.86.2,2.24.46,3.82.86a.81.81,0,0,0,.4.07c2.5.46,5.46,1.05,8,1.51a.6.6,0,0,0,.34.07l1,.19c.79.14,1.52.27,2.18.33.13,0,.33.07.46.07v.2Z"/><path class="cls-9" d="M153.56,111C151.3,96.55,151.3,79.81,155,58.82c-6.53-5.67-18.15-16.46-23.82-25.83-12.77,19-65,30.37-97.62,47.11,3.41,12.48,1.43,32.35.29,44.55-2.45,26.3,29,34.88,29,34.88s14,8.53,31.7,7,37.17-14.32,37.17-14.32C151.34,139.2,155.55,124.93,153.56,111Z"/><path class="cls-10" d="M153.07,68a167.37,167.37,0,0,0-1.58,24.51c0,.66.06,1.25.06,1.85a.39.39,0,0,1,.07-.27,2.76,2.76,0,0,1,.46-.79,3.74,3.74,0,0,1,0-1.25,155.24,155.24,0,0,1,1.51-23.79A2.11,2.11,0,0,0,153.07,68Zm-88.3,92c-.66-.33-1.12-.59-1.38-.72a1.86,1.86,0,0,1-.27-.2H63l-.59-.2c-.07,0-.13-.06-.2-.06-4.74-1.58-30-10.87-27.87-34.07l.13-1c.07-.66.13-1.39.2-2.11a1,1,0,0,1,.06-.4c.14-2,.34-4.08.47-6.26v-.06a2,2,0,0,0,.06-.59c.07-.53.07-1.06.13-1.59.27-4.21.47-8.63.53-13A77,77,0,0,0,35.58,90c-.06-1.19-.2-2.37-.33-3.49a52.78,52.78,0,0,0-1.12-6.13c9.62-4.94,21-9.43,32.42-13.71l.66-.2c.13-.06.2-.13.33-.19-.2,0-.33.06-.53.06l-.2.13a11.89,11.89,0,0,1-1.58.14h-.06c-1.52.59-3,1.18-4.42,1.71A286.63,286.63,0,0,0,33.54,80.12,42.27,42.27,0,0,1,34.79,87a29.59,29.59,0,0,1,.4,3.36c.19,3.09.33,6.39.26,9.68v.2c-.07,4.15-.26,8.3-.53,12.26a12.64,12.64,0,0,0-.13,1.51c0,.2-.07.46-.07.66v.07c-.13,1.78-.26,3.49-.39,5.07A6.88,6.88,0,0,0,34.2,121a1.06,1.06,0,0,0-.07.46c-.13,1.12-.19,2.17-.33,3.23-1.91,21,17.66,30.64,25.7,33.73h.13c1.39.53,2.44.86,2.9,1.06a1.27,1.27,0,0,0,.33.06.88.88,0,0,1,0,.6h.07a3.25,3.25,0,0,0,.46.33,62.62,62.62,0,0,0,16.27,5.73c.14,0,.27.06.46.06v-1.12a1.24,1.24,0,0,1-.46-.06A59.52,59.52,0,0,1,64.77,160ZM155.31,58.45c-6-5.21-16.54-15-22.47-23.79-.13-.07-.13-.13-.13-.13-.4-.6-.8-1.19-1.12-1.78a.58.58,0,0,0-.4-.27.51.51,0,0,0-.46.2A23.19,23.19,0,0,1,126.91,37a34,34,0,0,1-4.28,3.69C112.67,48,97,54.23,80.12,60.55a2.34,2.34,0,0,1-.32.07c-2,.79-4,1.52-6.06,2.31-3.3,1.25-6.59,2.43-9.82,3.69h-.07a1,1,0,0,1-.53.19c-.06,0-.06,0-.13.07-10.61,4.08-21,8.24-29.85,12.78-.26.07-.33.33-.26.6a45,45,0,0,1,1.25,7.18,26.75,26.75,0,0,1,.33,3.29c.2,2.64.26,5.41.26,8.17V100a.93.93,0,0,1-.06.4c0,4-.2,8-.53,11.86,0,.46-.07,1-.07,1.45,0,.2-.06.46-.06.66v.06c-.13,1.65-.26,3.3-.4,4.81a1.19,1.19,0,0,1-.06.46c0,.4-.07.73-.07,1.06s-.06.39-.06.53c-.07.79-.14,1.51-.2,2.24l-.07,1a27.55,27.55,0,0,0,3.3,16.34,15.17,15.17,0,0,0,2,3.1,37.31,37.31,0,0,0,6.07,6.39,22.84,22.84,0,0,0,4,3c.46.27.86.53,1.32.86a50.88,50.88,0,0,0,7.18,3.69c1.06.46,2,.86,2.77,1.12.53.2,1,.4,1.39.53.72.2,1.11.33,1.31.39s.14.07.2.14h.07a3.25,3.25,0,0,0,.46.33,62.62,62.62,0,0,0,16.27,5.73c.14,0,.27.06.46.06a1.24,1.24,0,0,0,.53.07,49.47,49.47,0,0,0,9.62.92c1.45,0,2.9-.06,4.35-.2a57.45,57.45,0,0,0,12.78-2.76h.14a4.19,4.19,0,0,0,.46-.2.22.22,0,0,0,.19-.07c.14,0,.2,0,.27-.06a117.34,117.34,0,0,0,23.39-11.14.75.75,0,0,0,.2-.13l.59-.4c.73-.52,1.45-1,2.17-1.51,1.72-1.25,3.37-2.57,4.94-3.89s2.91-2.7,4.22-4.08c.6-.73,1.25-1.45,1.85-2.11a36.44,36.44,0,0,0,8.43-27.81,2,2,0,0,0-.06-.59,9.83,9.83,0,0,0-.13-1.32,6,6,0,0,1-.14-1.12c-.06-.2-.06-.46-.13-.66-.13-.92-.26-1.91-.33-2.83a8,8,0,0,1-.13-1.19,7.57,7.57,0,0,1-.13-1.32c-.33-3-.53-6.19-.6-9.42v-1a4.4,4.4,0,0,1-.06-.92v-.79a158.14,158.14,0,0,1,1.52-23.26c0-.2.06-.39.06-.66.26-1.91.53-3.82.86-5.73,0-.13.06-.26.06-.4.14-.92.33-1.84.46-2.76A.59.59,0,0,0,155.31,58.45Zm-1.25,3a.79.79,0,0,0-.07.4c-.33,1.91-.59,3.82-.86,5.73a1.22,1.22,0,0,0-.06.46,167.37,167.37,0,0,0-1.58,24.51c0,.66.06,1.25.06,1.85.07,3.42.33,6.85.66,10.14a10.25,10.25,0,0,1,.13,1.52c.07.26.07.53.13.86.2,1.38.4,2.83.6,4.21.06.53.13,1.06.19,1.58a1.39,1.39,0,0,0,.07.53c1.38,15.29-5.73,27.87-21.88,38.61,0,0-.46.33-1.25.79A122.18,122.18,0,0,1,108.46,163c-.2.07-.33.07-.53.13l-.53.2a56.19,56.19,0,0,1-12.85,2.77c-1.44.13-2.83.13-4.28.13a49.47,49.47,0,0,1-9.62-.92,1.49,1.49,0,0,1-.53-.14,1.24,1.24,0,0,1-.46-.06A59.52,59.52,0,0,1,64.77,160c-.66-.33-1.12-.59-1.38-.72a1.86,1.86,0,0,1-.27-.2H63l-.59-.2c-.07,0-.13-.06-.2-.06-4.74-1.58-30-10.87-27.87-34.07l.13-1c.07-.66.13-1.39.2-2.11a1,1,0,0,1,.06-.4c.14-2,.34-4.08.47-6.26v-.06a2,2,0,0,0,.06-.59c.07-.53.07-1.06.13-1.59.27-4.21.47-8.63.53-13A77,77,0,0,0,35.58,90c-.06-1.19-.2-2.37-.33-3.49a52.78,52.78,0,0,0-1.12-6.13c9.62-4.94,21-9.43,32.42-13.71l.66-.2c.13-.06.2-.13.33-.19h.07c2.17-.79,4.28-1.58,6.45-2.38,3.1-1.18,6.2-2.3,9.23-3.49.13-.06.26-.06.39-.13,5.93-2.24,11.73-4.48,17.07-6.72l.07-.07c13.7-5.86,24.9-12.12,30.31-19.57,5.79,9.16,16.93,19.51,23.32,25.11Z"/><path class="cls-2" d="M170.74,58.05c-5.17-31.38-24.06-46-35.64-44.79,0,0-23.17-27.13-82-1.84-43.58,21.95-67,86.86-23.46,134.4,15.53,15.24,33.21,13.71,33.21,13.71s-31.49-8.58-29-34.88C35,112.45,37,92.58,33.54,80.1,66.17,63.36,118.39,52,131.16,33c5.67,9.37,17.29,20.16,23.82,25.83-3.68,21-3.68,37.73-1.42,52.21,2,13.9-2.22,28.17-21.82,41.19,0,0,12.07,1.82,25.7-15.5S175.92,89.43,170.74,58.05Z"/><path class="cls-3" d="M155.37,58.38c-5.86-5.14-16.08-14.56-22.14-23.26a.06.06,0,0,1-.06-.07c-.53-.79-1.06-1.58-1.52-2.37l-.46-.79-.53.79A22.73,22.73,0,0,1,126.91,37a28.49,28.49,0,0,1-2.73,2.35q-1.09.88-2.28,1.74a3,3,0,0,1-.86.52c-10,6.92-25.1,12.85-41.24,18.91-.07.07-.2.07-.33.14-1.92.72-3.83,1.45-5.8,2.17-3.36,1.25-6.72,2.5-10.08,3.82-.07-.06-.07-.06-.07,0a4.3,4.3,0,0,0-.53.2A284.4,284.4,0,0,0,33.28,79.53l-.47.26.14.47a46.52,46.52,0,0,1,1.31,7.31,24.12,24.12,0,0,1,.27,3.23c.26,2.57.33,5.27.33,8v1.06a1.85,1.85,0,0,1-.07.65c0,4-.2,7.91-.53,11.67a.1.1,0,0,0,0,.13,10.62,10.62,0,0,1-.06,1.38c0,.27-.07.53-.07.73v.06c-.13,1.65-.26,3.3-.39,4.81v.46a4.8,4.8,0,0,0-.13,1c0,.2-.07.4-.07.6-.07.79-.13,1.51-.2,2.24l-.13,1a27.12,27.12,0,0,0,3.43,16.34,15.17,15.17,0,0,0,2,3.1,29.82,29.82,0,0,0,6.07,6.39,22.84,22.84,0,0,0,4,3c.46.27.86.53,1.32.86a55.47,55.47,0,0,0,6.86,3.69c.78.33,1.58.66,2.24.92a2,2,0,0,1-.6-.06,10.51,10.51,0,0,0,1.45.26,25.78,25.78,0,0,0,2.57.4c-.46-.2-1.51-.53-2.9-1.06H59.5c-8-3.09-27.61-12.78-25.7-33.73.14-1.06.2-2.11.33-3.23a1.06,1.06,0,0,1,.07-.46,6.88,6.88,0,0,1,.13-1.19c.13-1.58.26-3.29.39-5.07v-.07c0-.2.07-.46.07-.66a12.64,12.64,0,0,1,.13-1.51c.27-4,.46-8.11.53-12.26V100c.07-3.29-.07-6.59-.26-9.68a29.59,29.59,0,0,0-.4-3.36,42.27,42.27,0,0,0-1.25-6.86A286.63,286.63,0,0,1,60.75,68.33c1.45-.53,2.9-1.12,4.42-1.71h.06a11.89,11.89,0,0,0,1.58-.14l.2-.13c.2,0,.33-.06.53-.06h.39c2-.79,4.16-1.52,6.2-2.31,3.23-1.19,6.45-2.44,9.68-3.62.14-.07.27-.07.4-.14,5.73-2.17,11.33-4.34,16.54-6.65l.07-.07c13.7-5.79,24.9-12,30.31-19.37C136.92,43.22,148,53.5,154.32,59c-.13.79-.26,1.58-.4,2.37,0,.13-.06.2-.06.33-.33,1.91-.6,3.89-.86,5.73.07,0,.07,0,.13.07a1.22,1.22,0,0,0-.06.46,2.11,2.11,0,0,1,.52.26,155.24,155.24,0,0,0-1.51,23.79,3.74,3.74,0,0,0,0,1.25v.92a7.07,7.07,0,0,0,.52-.79v1l.14,1.32V94.22a4.59,4.59,0,0,1,0-1,4.17,4.17,0,0,1-.07-.93v-.72a166.66,166.66,0,0,1,1.45-23.06c0-.2.07-.46.07-.66.26-1.91.52-3.82.85-5.8,0-.13.07-.26.07-.4.13-.92.33-1.84.46-2.76l.07-.33Zm15.95-.4c-5.14-31.36-23.46-45.39-34.86-45.39h-1.12C133.69,10.81,122.69,0,98.84,0c-13.77,0-29.26,3.69-46,10.87C29.59,22.6,12.13,46.45,7.25,73.14c-4.88,26.42,3,52.38,22,73.14a46.92,46.92,0,0,0,15.48,10.28,1.41,1.41,0,0,0,.66.26,2.64,2.64,0,0,0,.72.33,44.36,44.36,0,0,0,11.4,2.77,23.18,23.18,0,0,0,2.71.2,1.22,1.22,0,0,0,.46.06h1.45c.06,0,.06,0,.13-.06a1.89,1.89,0,0,0,.59,0h.07l.53-.07h.32l1-.07,1.58-.13-3.29-.92c-.33-.07-31-8.76-28.6-34.2l.07-1c.06-.66.13-1.32.19-2a1.24,1.24,0,0,1,.07-.47c.13-2,.33-4.08.53-6.26a2,2,0,0,1,.06-.59c0-.53.07-1.12.07-1.65.33-4.21.53-8.69.59-13.11,0-1.46-.1-2.84-.14-4.27,0-.34,0-.68,0-1-.06-1.44,0-2.93-.15-4.33a31,31,0,0,0-.39-3.56,40.36,40.36,0,0,0-1.06-5.93c9.49-4.87,20.7-9.29,32-13.57a9,9,0,0,0,1.25-.46c.13,0,.2-.07.33-.13h.06c2-.79,4.16-1.52,6.2-2.31,3.23-1.19,6.45-2.44,9.68-3.62.14-.07.27-.07.4-.14,5.73-2.17,11.33-4.34,16.54-6.65l.07-.07c13.7-5.79,24.9-12,30.31-19.37C136.92,43.22,148,53.5,154.32,59c-.13.79-.26,1.58-.4,2.37,0,.13-.06.2-.06.33-.33,1.91-.6,3.89-.86,5.73,0,.2-.07.33-.07.53a168.33,168.33,0,0,0-1.51,24.51,119.73,119.73,0,0,0,.72,12,10.21,10.21,0,0,0,.14,1.52v.07a3.16,3.16,0,0,0,.13.85c.13,1.39.33,2.77.52,4.15.07.53.14,1.12.2,1.65a1.06,1.06,0,0,0,.07.46c1.38,15.29-5.73,27.81-21.81,38.48l-1.32.92h.13l.66.14h.07l.72.06h.2a3.31,3.31,0,0,0,.92.07c3,0,13.64-1.12,25.17-15.75C171.45,119.92,176.59,89.61,171.32,58Zm-37.63,93.64a7.38,7.38,0,0,0,1.12-.86c1.72-1.25,3.37-2.57,4.94-3.89s2.91-2.7,4.22-4.08c.6-.73,1.25-1.45,1.85-2.11a36.1,36.1,0,0,0,8.56-27.87,2,2,0,0,0-.06-.6,9,9,0,0,0-.13-1.25,5.38,5.38,0,0,1-.13-1,1.94,1.94,0,0,1-.07-.66,1.89,1.89,0,0,1-.13-.66,12,12,0,0,1-.2-1.65l-.07-.72a3.72,3.72,0,0,1-.13-1.19,4.1,4.1,0,0,1-.13-1.25,6.21,6.21,0,0,1-.13-1.12,6.64,6.64,0,0,1-.2-2c-.07-1.39-.13-2.77-.26-4.22V94.22a4.59,4.59,0,0,1,0-1,4.17,4.17,0,0,1-.07-.93v-.72a166.66,166.66,0,0,1,1.45-23.06c0-.2.07-.46.07-.66.26-1.91.52-3.82.85-5.8,0-.13.07-.26.07-.4.13-.92.33-1.84.46-2.76l.07-.33-.27-.2c-5.86-5.14-16.08-14.56-22.14-23.26a.06.06,0,0,1-.06-.07c-.53-.79-1.06-1.58-1.52-2.37l-.46-.79-.53.79A22.73,22.73,0,0,1,126.91,37a28.49,28.49,0,0,1-2.73,2.35q-1.09.88-2.28,1.74a3,3,0,0,1-.86.52c-10,6.92-25.1,12.85-41.24,18.91-.07.07-.2.07-.33.14-1.92.72-3.83,1.45-5.8,2.17-3.36,1.25-6.72,2.5-10.08,3.82-.07-.06-.07-.06-.07,0a4.3,4.3,0,0,0-.53.2A284.4,284.4,0,0,0,33.28,79.53l-.47.26.14.47a46.52,46.52,0,0,1,1.31,7.31,24.12,24.12,0,0,1,.27,3.23c.26,2.57.33,5.27.33,8v1.06a1.85,1.85,0,0,1-.07.65c0,4-.2,7.91-.53,11.67a.1.1,0,0,0,0,.13,10.62,10.62,0,0,1-.06,1.38c0,.27-.07.53-.07.73v.06c-.13,1.65-.26,3.3-.39,4.81v.46a4.8,4.8,0,0,0-.13,1c0,.2-.07.4-.07.6-.07.79-.13,1.51-.2,2.24l-.13,1a27.12,27.12,0,0,0,3.43,16.34,15.17,15.17,0,0,0,2,3.1,29.82,29.82,0,0,0,6.07,6.39,22.84,22.84,0,0,0,4,3c.46.27.86.53,1.32.86a55.47,55.47,0,0,0,6.86,3.69c.78.33,1.58.66,2.24.92a2,2,0,0,1-.6-.06,43,43,0,0,1-9-1.78.23.23,0,0,1-.2-.07,27,27,0,0,1-3.82-1.38.5.5,0,0,1-.27-.07,46.73,46.73,0,0,1-15.09-10.08C11.33,124.93,3.63,99.36,8.44,73.34a81.53,81.53,0,0,1,4.35-15.42,87.58,87.58,0,0,1,26.94-37.1,10.69,10.69,0,0,1,1-.85,78.34,78.34,0,0,1,12.65-8C69.91,4.88,85.2,1.25,98.84,1.25a65.22,65.22,0,0,1,14.29,1.52c14.77,3.29,21.42,10.74,21.49,10.87l.19.26.33-.06c.46,0,.86-.07,1.32-.07,3.29,0,7.18,1.25,11.2,3.82,9.23,6,19,19.18,22.47,40.53a115.82,115.82,0,0,1,1.52,12.38,123.91,123.91,0,0,1-2.31,37.83c-2.5,11.13-6.72,20.75-12.39,28C146.74,149.31,137.38,151.35,133.69,151.62Z"/><path class="cls-22" d="M131.19,33A24.36,24.36,0,0,1,128,36.83a42.17,42.17,0,0,1-5.47,4.55c-1.38,1-2.83,2-4.35,2.9a140.46,140.46,0,0,1-13.37,6.85,31.53,31.53,0,0,1-3,1.32c-6.19,2.7-12.91,5.34-19.9,8,0,0,0-.06-.06,0s0-.06-.07,0-.19.13-.26.13c-5.14,1.92-10.35,3.89-15.62,5.87h-.13c0,.06,0,.06-.07,0s-.13.13-.19.13-.14.07-.27.07h-.06c-1.52.59-3,1.18-4.42,1.71A286.63,286.63,0,0,0,33.54,80.12,42.27,42.27,0,0,1,34.79,87a29.59,29.59,0,0,1,.4,3.36c.19,3.09.33,6.39.26,9.68v.2c-.07,4.15-.26,8.3-.53,12.26a12.64,12.64,0,0,0-.13,1.51c0,.2-.07.46-.07.66v.07c-.13,1.78-.26,3.49-.39,5.07A6.88,6.88,0,0,0,34.2,121a1.06,1.06,0,0,0-.07.46c-.13,1.12-.19,2.17-.33,3.23-1.91,21,17.66,30.64,25.7,33.73h.13c1.39.53,2.44.86,2.9,1.06a1.27,1.27,0,0,0,.33.06l.66.4c.07,0,.13.06.26.13a59.71,59.71,0,0,0,15.88,5.6c.14,0,.27.07.46.07s.33.06.53.13a53.09,53.09,0,0,0,13.9.66,58,58,0,0,0,12.79-2.77h.13a5,5,0,0,0,.53-.2,2.92,2.92,0,0,0,.46-.13,112.41,112.41,0,0,0,22.4-10.67h.07c.52-.33.79-.53.79-.53,18.71-12.39,23.39-26,22.07-39.21a1.19,1.19,0,0,0-.07-.52,9.3,9.3,0,0,0-.13-1.45c-.06-.53-.13-1-.19-1.52a3.13,3.13,0,0,1-.14-.79v-.33a17.75,17.75,0,0,1-.26-1.78c-.07-.33-.07-.66-.13-1v-.06a9.21,9.21,0,0,1-.13-1.39c-.33-3-.53-6.12-.6-9.35l-.06-.53v-1a3.74,3.74,0,0,1,0-1.25,155.24,155.24,0,0,1,1.51-23.79,1.73,1.73,0,0,1,.07-.59c.2-1.91.46-3.76.86-5.73-.07-.13,0-.27.06-.4.07-.92.26-1.78.4-2.7C148.45,53.17,136.86,42.37,131.19,33ZM86.71,161.3c-2.5-.26-4.81-.59-7-1s-4.35-.85-6.32-1.31c-1.06-.27-2-.6-3-.86C56.73,154.25,48.69,148,44.08,142.06a21.36,21.36,0,0,1-1.45-2c-4.87-7.45-4.41-13.9-2.83-13.9A108.64,108.64,0,0,0,70,122.56c.79-.2,1.58-.46,2.37-.66,2.44-.73,4.88-1.52,7.31-2.5,3.1-.93-2.77,9.62,9,12.38,7.12,1.25,12.06-1.51,13.32-3.69-8.64-1.25-17-2.17-13.32-9s4-7.77,4.35-10.87,7.12,1.25,10.22,6.52,6.19,3.36,24.44,4,19.77,5.73,16.74,12.06C140.88,138.17,118.28,164.79,86.71,161.3ZM123,45.27c7.71-4,10.48-4.68,15.88,1.18s13.58,13.31,5.87,11.93c-19.18-3-41.84-.92-41.84-.92C95.15,58.58,115.25,49.22,123,45.27Z"/><g class="cls-4"><path class="cls-5" d="M112,43.93c17-8.26,18.69-13,18.69-13s-13-2.45-31.34.39c0,0,19.68-3.66,26.8-3.66s-16.62-6.82-27.3-8.51c8.62-.93,30.67,4.56,32.18,5.14,1.85.7-17.1-10.19-25.34-11.73C126,16.37,139.46,12.31,111,2c-1-.37-2.11-.51-3.08-.77,19,2.47,27.16,12.05,27.16,12.05,4.44-.47,10,1.4,15.37,5.66-4.77-2.46-10.1-4.23-14.15-2.93-4,1.53,5.79,7.93,12.48,11.89-13.4-6.71-18-3.66-4.26,4.57-9.14-4.26-11.58.92-.9,8.53s24.06,12.7,28.53,31.39c.11.43.22.81.33,1.19,1.56,25.51-3.71,48.73-15.06,63.16-13.63,17.32-25.7,15.5-25.7,15.5,19.6-13,23.81-27.29,21.82-41.19C151.3,96.55,151.3,79.81,155,58.82c-6.53-5.67-18.15-16.46-23.82-25.83-12.77,19-65,30.37-97.62,47.11,3.41,12.48,1.43,32.35.29,44.55-2.45,26.3,29,34.88,29,34.88s-17.68,1.53-33.21-13.71C-10.66,101.84,6.41,43,43.7,17.05l.48.06s-28,20.72-29.66,48C26.72,44.74,49.87,33,49.87,33s-20.73,16.25-26,30.48c0,0,20.31-13.83,36.57-19.51C37.68,57.75,68.56,65.06,112,43.93Z"/></g><g class="cls-4"><path class="cls-5" d="M29.15,90.26c-3.66-3.66-1.22-13-1.22-13s-17.47,21.53-8.54,37.38c-15.51-18.28-8.2-51.18-5.64-60.71C1.48,82,3.32,117.09,29.66,145.82c15.53,15.24,33.21,13.71,33.21,13.71s-31.49-8.58-29-34.88C35,112.45,37,92.58,33.54,80.1,63.92,64.52,111.26,53.6,128,36.82,108.21,53.23,54.15,67.55,39.71,72,25.08,76.44,32.8,93.91,29.15,90.26Z"/><path class="cls-5" d="M162.82,113c8.13-18.68,3.66-35.75,2-32.09S157.55,89,157.55,85c0-12.21,11.78-19.1,4-24.38C151.86,54.9,131.16,33,131.16,33c5.67,9.37,17.29,20.16,23.82,25.83-3.68,21-3.68,37.73-1.42,52.21,2,13.9-2.22,28.17-21.82,41.19,0,0,12.07,1.82,25.7-15.5,6.19-7.87,10.56-18.36,13-30.4C168.4,110.41,165.84,113.44,162.82,113Z"/></g><path class="cls-19" d="M109.69,81.64S118,67.23,128.1,78.16C125.49,71.4,115.42,64.8,109.69,81.64Z"/><path class="cls-23" d="M109.69,80.42S118,66,128.1,77C125.49,70.18,115.42,63.58,109.69,80.42Z"/><path class="cls-19" d="M47.53,87.89S56,72.6,67.67,87C64.55,77.12,51.35,71.92,47.53,87.89Z"/><path class="cls-23" d="M47.53,86.67S56,71.39,67.67,85.8C64.55,75.91,51.35,70.69,47.53,86.67Z"/><path class="cls-9" d="M40.15,136.14c-3.33-14.34,3-27.76.5-40s-1.49-15-1.49-15S60,71.36,74.49,67.67s35.72-16,35.72-16,28.48-6.82,33.55,0A78.83,78.83,0,0,0,152,61.47S145.4,83.11,147.77,102s1.25,24.55-5.58,32.46-77.41,5.88-77.41,5.88L41,137.44"/><path class="cls-9" d="M35.24,101.23S33.82,93.5,26.92,97s-4.68,20.52,7.31,22.36C34.23,119.31,35.24,106.91,35.24,101.23Z"/><path class="cls-10" d="M35.45,100.22v-.07l-.07-.06a3.62,3.62,0,0,0-.46-1.19c0-.06,0-.06-.06-.13a5.26,5.26,0,0,0-4.68-3.23,3.81,3.81,0,0,0-1.19.2,4.75,4.75,0,0,0-1.77.59c-.2,0-.34.13-.53.2a5.22,5.22,0,0,0-1.78,1.38,3.26,3.26,0,0,0-.4.47,8.41,8.41,0,0,0-.85,1.31v.07a12.93,12.93,0,0,0-.93,7.77c.8,4.88,4.09,10.94,11,12.13v.06c.13,0,.26.07.39.07h.2a.24.24,0,0,0,.2-.07.55.55,0,0,0,.19-.39c0-.07.14-1.91.34-4.48v-.07c0-.2.06-.39.06-.59,0-.46.07-1,.07-1.58.33-3.89.59-8.5.52-11.47A5.08,5.08,0,0,0,35.45,100.22ZM24,101.47h.06a7.74,7.74,0,0,1,1-2.24,6.11,6.11,0,0,1,2.11-1.84,5.8,5.8,0,0,1,1.32-.46v-.07a5.31,5.31,0,0,1,1.71-.26c2.9,0,4.08,2.9,4.41,4.08.07.33.13.53.13.53,0,.37,0,.83,0,1.26-.05,3.28-.16,6.56-.44,9.68a.1.1,0,0,0,0,.13,10.73,10.73,0,0,0-.13,1.38c0,.27-.06.46-.06.66v.07c-.13,2-.27,3.49-.33,4.28-6.26-1.19-9.29-6.79-10-11.33A14.25,14.25,0,0,1,24,101.47Z"/><path class="cls-24" d="M33.71,103.33c-.88-2.39-5.67-5.65-6.82-2-.06.21.34.19.39,0,.89-2,2.87-.7,4,.34a5.34,5.34,0,0,1,1.57,3.13,12.32,12.32,0,0,1,.16,1.64.38.38,0,0,0-.17.07c-.42.31-.64.75-1,1.07a2.7,2.7,0,0,1-2.1.38,3.61,3.61,0,0,1-2.88-2.61c0-.17-.3-.08-.29.06a3.6,3.6,0,0,0,3.33,3.31,4.05,4.05,0,0,0,3.12-1.1,5.35,5.35,0,0,1-2.48,4.48c-.35.19-.42.77.13.76C34.86,112.83,34.75,106.12,33.71,103.33Z"/><path class="cls-25" d="M26.52,107.73a.45.45,0,0,0,0-.26c-.52-2,0-5,1.64-6.46,3.06-2.63,5,3.25,5.27,5.4s.85,6.66-2.63,5.46a10.72,10.72,0,0,1-2-.92l-.2-.19A9.8,9.8,0,0,1,26.52,107.73Z"/><path class="cls-9" d="M152.06,94.32s3.43-7.18,8.32-4.48c5.91,3.25,6.72,10.16,2.24,16.87s-9.34,2-9.34,2Z"/><path class="cls-10" d="M153.07,99.76a.12.12,0,0,1,0-.2l-.33-3.16c.13,1.45.19,2.83.26,4.22a6.64,6.64,0,0,0,.2,2c.06.33.13.59.2.86Zm12.65-4a6.39,6.39,0,0,0-.33-1,10,10,0,0,0-4.74-5.41,4.51,4.51,0,0,0-.8-.33,4.6,4.6,0,0,0-1.51-.32h-.13c-2.44,0-4.42,2-5.54,3.55-.07.07-.07.14-.13.2a4.91,4.91,0,0,0-.46.79,2.76,2.76,0,0,0-.46.79.39.39,0,0,0-.07.27l.86,10,.13,1.45v.07l.06.92.2,2a.55.55,0,0,0,.13.33,5.58,5.58,0,0,0,.47.39c.13.07.32.2.52.33s.07.07.14.07a7.15,7.15,0,0,0,2.76.92h.4a3.66,3.66,0,0,0,1.45-.26A7.87,7.87,0,0,0,163,107a15.92,15.92,0,0,0,3-8.44A12.9,12.9,0,0,0,165.72,95.81Zm-3.5,10.6c-1.25,1.85-2.57,3-4,3.3a5.72,5.72,0,0,1-1,.13,5.59,5.59,0,0,1-3.36-1.25l-.07-.07-.13-1.58-.07-.72-.06-1.19h-.07V105l-.06-1.25v-.19l-.33-3.76a.12.12,0,0,1,0-.2l-.33-3.16v-.66l-.14-1.32c0-.06.07-.13.14-.2.46-1,2.63-4.48,5.47-4.48a3.51,3.51,0,0,1,1.51.4,1,1,0,0,1,.4.13A8.86,8.86,0,0,1,164.73,96a3.74,3.74,0,0,1,.13.86C165.32,99.83,164.4,103.19,162.22,106.41Z"/><path class="cls-24" d="M153.58,96.78c.88-2.39,5.66-5.65,6.81-2,.07.21-.33.18-.38,0-.9-2-2.87-.7-4,.34a5.34,5.34,0,0,0-1.57,3.13,12.15,12.15,0,0,0-.16,1.64.48.48,0,0,1,.18.06c.4.32.64.76,1,1.08a2.7,2.7,0,0,0,2.1.38,3.65,3.65,0,0,0,2.89-2.61c0-.17.29-.08.28.07a3.58,3.58,0,0,1-3.33,3.29,4,4,0,0,1-3.12-1.1,5.37,5.37,0,0,0,2.48,4.49c.36.19.42.77-.12.77C152.41,106.28,152.53,99.57,153.58,96.78Z"/><path class="cls-25" d="M160.76,101.17a.4.4,0,0,1,0-.25c.52-2,0-5-1.65-6.46-3.05-2.64-5,3.25-5.26,5.4s-.85,6.66,2.64,5.45a10.67,10.67,0,0,0,2-.92l.19-.18A9.84,9.84,0,0,0,160.76,101.17Z"/><path class="cls-24" d="M84.92,92.36a20.46,20.46,0,0,1,1.13,1.78c.34.59.72,1.3,1.13,2.15a26.43,26.43,0,0,1,1.22,2.9,32.52,32.52,0,0,1,1,3.61c.12.65.27,1.32.38,2S90,106.23,90,107s0,1.48-.06,2.24a20,20,0,0,1-.33,2.27A17.41,17.41,0,0,1,88,115.9c-.4.67-.83,1.39-1.22,2l-.63,1-.51.94a7,7,0,0,0-.91,3.9,4.08,4.08,0,0,0,2.1,2.87,11.09,11.09,0,0,0,1.66.74l.85.29.83.18a13.42,13.42,0,0,0,1.59.3c.52.07,1,.17,1.46.21.92.07,1.72.18,2.38.18l2.11.08-2.11.16c-.67,0-1.48,0-2.42,0a18.52,18.52,0,0,1-3.15-.28l-.88-.15-.9-.25a11.34,11.34,0,0,1-1.85-.71,5,5,0,0,1-2.73-3.49,7.78,7.78,0,0,1,.92-4.59l.57-1,.62-1c.44-.67.76-1.27,1.15-1.91a15.58,15.58,0,0,0,1.54-4.09c.19-.7.22-1.43.35-2.13s.07-1.42.11-2.12-.08-1.38-.1-2-.17-1.33-.25-2a34,34,0,0,0-.81-3.55,44.3,44.3,0,0,0-1.91-5.16C85.3,93,84.92,92.36,84.92,92.36Z"/><path class="cls-24" d="M70.7,140.28s.82.19,2.28.42c.73.11,1.61.25,2.62.34s2.18.18,3.44.26,2.62.08,4,.08,3-.06,4.52-.2c.78-.07,1.58-.11,2.38-.19l2.42-.33c1.65-.15,3.28-.56,4.92-.84s3.25-.78,4.86-1.16l4.61-1.42,4.24-1.58c1.37-.48,2.57-1.13,3.73-1.62s2.23-1,3.11-1.47l2.36-1.24,2.06-1.06s-.7.47-2,1.27L118.1,133a32.43,32.43,0,0,1-3,1.68c-1.15.55-2.32,1.28-3.68,1.82s-2.75,1.22-4.24,1.78-3,1.06-4.66,1.55-3.25.87-4.92,1.22-3.34.67-5,.82l-2.47.27c-.81.07-1.62.09-2.42.14-1.59.13-3.13,0-4.59,0s-2.84-.15-4.1-.29-2.42-.29-3.43-.49-1.9-.4-2.62-.56C71.5,140.57,70.7,140.28,70.7,140.28Z"/><path class="cls-24" d="M121.36,127.77l.44.68c.11.19.24.4.36.62s.26.44.42.66a6.1,6.1,0,0,0,.43.65c.07.11.12.23.18.33s.14.2.19.3a3.9,3.9,0,0,1,.39.72,2.61,2.61,0,0,1-.83-.18,2,2,0,0,1-.73-.45,2.25,2.25,0,0,1-.37-.33l-.28-.41a2.66,2.66,0,0,1-.39-.92,1.3,1.3,0,0,1-.06-.44,1.41,1.41,0,0,1,0-.41A1.76,1.76,0,0,1,121.36,127.77Z"/><path class="cls-24" d="M71.32,138l-.13.66c0,.17,0,.36-.07.53s0,.18,0,.28,0,.17,0,.27l0,.27a1.18,1.18,0,0,1,0,.27,2.8,2.8,0,0,1,0,.29c0,.1,0,.19,0,.28a3.37,3.37,0,0,1,0,.69,1.91,1.91,0,0,1-.62-.38,1.2,1.2,0,0,1-.43-.6,3.19,3.19,0,0,1-.16-.41,3.29,3.29,0,0,1,0-.45,1.87,1.87,0,0,1,.23-.87,1.5,1.5,0,0,1,.25-.34.88.88,0,0,1,.27-.24,1.76,1.76,0,0,1,.49-.23A.61.61,0,0,1,71.32,138Z"/><path class="cls-24" d="M91.66,147.48a1.74,1.74,0,0,1,.29-.14c.17-.07.43-.16.74-.26a6.56,6.56,0,0,1,1-.27c.38-.1.77-.18,1.18-.26l.59-.07a5.79,5.79,0,0,0,.6-.07c.36-.06.72-.1,1-.12a6.58,6.58,0,0,1,1.12,0,4.9,4.9,0,0,1-.91.63,6.81,6.81,0,0,1-1,.49,5.54,5.54,0,0,1-1.23.31,7.91,7.91,0,0,1-1.26.1,6.16,6.16,0,0,1-1.11-.09A3.83,3.83,0,0,1,91.66,147.48Z"/><path class="cls-26" d="M49,110.85c-.41,0-1.2-2-1.36-2.35a9.64,9.64,0,0,1-.62-2.7,27.45,27.45,0,0,1,.41-6.2c1.46-6.06,6-13.71,13.41-10.85a16.47,16.47,0,0,1,5.6,4.37,24.06,24.06,0,0,1,4.26,11.48,17.25,17.25,0,0,1-1.22,6c1.09-6.65-.78-9.94-.78-9.94.2,2.41,2,6.55-.71,11.44-3.23,5.9-10.09,4.63-10.09,4.63a5.47,5.47,0,0,1,.38,3.71c-2.89-9.25-13.84-8.93-13.84-8.93A9.52,9.52,0,0,1,49,110.85Z"/><path class="cls-27" d="M48.45,104.49c.2,7.21,6,12.16,11.9,11.52s8.81-6.41,8-13.34-5-12.57-10.12-12.52S48.25,97.27,48.45,104.49Z"/><g class="cls-4"><path class="cls-28" d="M68.4,102.66c-.6-5.34-3.3-10-6.86-11.73a7,7,0,0,0-2.3-.72,5.53,5.53,0,0,0-1.52,0l-1,.19c-.26.13-.59.2-.85.33s-.6.33-.92.46a6.14,6.14,0,0,0-.8.53,1.47,1.47,0,0,0-.39.26,9.28,9.28,0,0,0-.86.73A16.79,16.79,0,0,0,48.43,104v.46a11.79,11.79,0,0,0,3.43,8.24,4.32,4.32,0,0,0,1,.92,4.16,4.16,0,0,0,1.32.86c.07.13.14.2.2.13a1.63,1.63,0,0,0,.79.46,3.36,3.36,0,0,0,.73.33,10.63,10.63,0,0,0,1.38.46h.07a3.22,3.22,0,0,0,.85.07,8,8,0,0,0,2.18.06,7.86,7.86,0,0,0,2.76-.85,2.31,2.31,0,0,0,.8-.4,5.74,5.74,0,0,0,1.58-1.25C67.87,111.09,68.92,107.14,68.4,102.66Zm-2.9,8.17a6.29,6.29,0,0,1-4.81,2.83A9.19,9.19,0,0,1,53,110.57a10.58,10.58,0,0,1-2.83-7.25c0-6.39,3.82-12.59,8.17-12.59s8.17,4.94,8.83,11.14C67.61,105.49,67.15,108.65,65.5,110.83Z"/></g><path class="cls-29" d="M69.62,102.43s0-.14,0-.4,0-.64-.15-1.11A14.09,14.09,0,0,0,69,99.2a10.61,10.61,0,0,0-.35-1,10.88,10.88,0,0,0-.5-1.13c-.18-.4-.37-.8-.6-1.2l-.35-.64c-.12-.2-.25-.42-.39-.62a14.47,14.47,0,0,0-1.85-2.49,7.23,7.23,0,0,0-2.68-1.91,9.63,9.63,0,0,0-3.6-.53c-.29,0-.56,0-.88.07l-.78.14a14,14,0,0,0-1.59.51,8.64,8.64,0,0,0-2.8,1.79,12.35,12.35,0,0,0-2.11,3,19.22,19.22,0,0,0-1.31,3.25,14.1,14.1,0,0,0-.62,2.65,11.11,11.11,0,0,0-.18,1.81c0,.5,0,.91,0,1.17l0,.42s0-.59.15-1.6A12.19,12.19,0,0,1,49,101.1c.07-.34.21-.68.34-1.13a13.92,13.92,0,0,1,.49-1.41,22,22,0,0,1,1.4-3.09,12.11,12.11,0,0,1,2-2.67,8.31,8.31,0,0,1,2.58-1.64,8.17,8.17,0,0,1,1.43-.45l.81-.13.74,0a10,10,0,0,1,3.21.52,6.92,6.92,0,0,1,2.57,1.64,16,16,0,0,1,1.82,2.25l.38.58c.12.19.23.38.35.59.23.37.42.75.62,1.13s.35.72.51,1.06a9.92,9.92,0,0,1,.43,1c.27.64.43,1.19.58,1.65s.2.85.27,1.1S69.62,102.43,69.62,102.43Z"/><path class="cls-23" d="M66.8,94.66s-3.28-6.52-9.34-5.58-8.24,7.31-8.24,7.31-2.49,4.34-5.66,1c0,0,1.28,3.79,4.94,3.08,0,0,2.31-9.65,9.66-10.6C63.88,89.09,66.8,94.66,66.8,94.66Z"/><path class="cls-29" d="M57.7,118.88a5.86,5.86,0,0,0-.73-2c-1.81-3.18-6.1-5.18-10.1-5.07l-.62,0C51.74,113.18,54.89,115,57.7,118.88Z"/><path class="cls-23" d="M49.42,96.87s8.75-15,18-.13C63.61,87.31,53.92,83.75,49.42,96.87Z"/><path class="cls-23" d="M46.05,94.26s2.45,1.78,4.37,1a10.11,10.11,0,0,1-1,1.65S46.43,97,46.05,94.26Z"/><path class="cls-23" d="M48.83,90.83s1.75,2.06,3.65,1.7a10.4,10.4,0,0,1-1.3,1.29S48.49,93.34,48.83,90.83Z"/><path class="cls-30" d="M51.89,105.06c.24,5.77,2.92,10.17,7.21,10.28s7.8-4.11,7.4-9.87-4.31-11-8.14-10.87S51.64,99.3,51.89,105.06Z"/><path class="cls-31" d="M55.55,105.75c.08,2.92,1.69,5.22,4,5.3s4.18-2.11,4-5-2.11-5.29-4.27-5.36S55.48,102.83,55.55,105.75Z"/><path class="cls-6" d="M59.26,101.35c1,2,3.08,3.22,4.41,2.64s1.46-2.71.43-4.61S61.17,96,59.88,96.64,58.27,99.39,59.26,101.35Z"/><path class="cls-26" d="M130.8,104.87c.4-.05,1.2-2,1.36-2.34a9.69,9.69,0,0,0,.61-2.71,27.49,27.49,0,0,0-.41-6.2c-1.46-6.05-6-13.71-13.41-10.84a16.42,16.42,0,0,0-5.6,4.36,24.08,24.08,0,0,0-4.26,11.49,17.23,17.23,0,0,0,1.22,6c-1.09-6.64.78-9.93.78-9.93-.19,2.41-2,6.55.71,11.44,3.23,5.89,10.1,4.62,10.1,4.62a5.51,5.51,0,0,0-.39,3.71c2.88-9.24,13.83-8.93,13.83-8.93A9.43,9.43,0,0,0,130.8,104.87Z"/><path class="cls-27" d="M131.38,98.51c-.2,7.21-6,12.16-11.91,11.53s-8.8-6.42-8-13.34,5-12.58,10.11-12.53S131.58,91.29,131.38,98.51Z"/><g class="cls-4"><path class="cls-28" d="M127.1,86.91a6.51,6.51,0,0,0-.72-.59,7.2,7.2,0,0,0-4.61-2.18h-.2a1.06,1.06,0,0,0-.46.07,5.19,5.19,0,0,0-1.39.2,3.32,3.32,0,0,0-1.12.46,11,11,0,0,0-5.33,5.66,18.34,18.34,0,0,0-1.78,6.2c-.53,4.48.52,8.5,3,10.94h.07a2.44,2.44,0,0,0,1,.85s0,.07.06.07a8.21,8.21,0,0,0,3.89,1.45,9.74,9.74,0,0,0,4.55-.59,4.37,4.37,0,0,0,1.25-.6.06.06,0,0,0,.07-.06h.06a.68.68,0,0,0,.33-.27,1.32,1.32,0,0,0,.66-.39,1,1,0,0,0,.4-.33c0,.06.06-.07.06-.07a4.44,4.44,0,0,0,1.26-1,12.35,12.35,0,0,0,3.29-8.23v-.4A16.75,16.75,0,0,0,127.1,86.91Zm1.72,14.63c0,.06-.07.06-.07.06a9.62,9.62,0,0,1-9.62,6.07,6.35,6.35,0,0,1-2-.53c-3.69-1.52-5.08-6-4.48-11.2a16.59,16.59,0,0,1,2-6.46c1.58-2.64,3.76-4.41,6.2-4.61a1,1,0,0,1,.59-.13c4.35,0,8.17,6.19,8.17,12.58A12.33,12.33,0,0,1,128.82,101.54Z"/></g><path class="cls-29" d="M110.21,96.45s0-.14,0-.39,0-.64.16-1.11a12.76,12.76,0,0,1,.45-1.73,7.17,7.17,0,0,1,.36-1,9,9,0,0,1,.49-1.13c.18-.39.37-.81.6-1.2l.35-.64.39-.62a14.87,14.87,0,0,1,1.85-2.49,7.37,7.37,0,0,1,2.67-1.9,9.51,9.51,0,0,1,3.61-.53c.29,0,.56,0,.87.07l.79.14a12.74,12.74,0,0,1,1.59.5,8.67,8.67,0,0,1,2.8,1.8,12.24,12.24,0,0,1,2.11,3,20.75,20.75,0,0,1,1.32,3.25,15.57,15.57,0,0,1,.62,2.64,13.67,13.67,0,0,1,.17,1.82,11.59,11.59,0,0,1,0,1.16l0,.42s0-.59-.15-1.59a10.89,10.89,0,0,0-.37-1.8,11.32,11.32,0,0,0-.35-1.13,11.2,11.2,0,0,0-.48-1.41,21.87,21.87,0,0,0-1.4-3.08,12.15,12.15,0,0,0-2-2.67A8.2,8.2,0,0,0,124,85.18a8.91,8.91,0,0,0-1.44-.45l-.79-.14c-.21,0-.5,0-.75,0a9.43,9.43,0,0,0-3.2.51,6.9,6.9,0,0,0-2.58,1.65A15.58,15.58,0,0,0,113.44,89l-.38.58-.35.58c-.23.38-.42.76-.62,1.12s-.35.74-.51,1.08-.31.67-.43,1c-.27.63-.42,1.2-.58,1.66s-.2.85-.27,1.1S110.21,96.45,110.21,96.45Z"/><path class="cls-23" d="M113,88.68s3.28-6.52,9.34-5.58,8.24,7.3,8.24,7.3,2.49,4.36,5.66,1c0,0-1.27,3.8-4.94,3.09,0,0-2.3-9.66-9.66-10.61C116,83.12,113,88.68,113,88.68Z"/><path class="cls-29" d="M122.14,112.91a5.7,5.7,0,0,1,.72-2c1.82-3.18,6.11-5.17,10.11-5.07l.61,0C128.1,107.21,124.94,109,122.14,112.91Z"/><path class="cls-23" d="M130.41,90.9s-8.75-15-18-.14C116.21,81.34,125.91,77.77,130.41,90.9Z"/><path class="cls-23" d="M133.78,88.29s-2.45,1.77-4.37.95a10,10,0,0,0,1,1.66S133.4,91,133.78,88.29Z"/><path class="cls-23" d="M131,84.86s-1.75,2.06-3.65,1.69a9.47,9.47,0,0,0,1.3,1.29S131.34,87.37,131,84.86Z"/><path class="cls-30" d="M114.52,97.82c-.41,5.77,1.76,10.44,6,11s8.22-3.22,8.46-9-3.05-11.37-6.87-11.7S114.92,92.08,114.52,97.82Z"/><path class="cls-31" d="M118.08,98.92c-.25,2.92,1.1,5.39,3.36,5.71s4.39-1.62,4.55-4.54-1.5-5.49-3.64-5.81S118.33,96,118.08,98.92Z"/><path class="cls-6" d="M122.26,95c.77,2.09,2.7,3.54,4.09,3.12s1.74-2.54.93-4.55-2.52-3.69-3.87-3.18S121.49,92.89,122.26,95Z"/><path class="cls-3" d="M128.92,28.55l-3.11.18c-2,.12-4.79.38-8.16.72-1.68.16-3.51.36-5.43.63s-3.94.58-6,.85-4.25.69-6.43,1.07-4.4.83-6.59,1.37-4.41.94-6.55,1.54l-3.19.83c-1,.28-2.07.62-3.08.92s-2,.61-3,.91-1.9.64-2.82,1c-1.83.65-3.58,1.19-5.13,1.87s-3,1.21-4.29,1.71l-3.24,1.5-2.83,1.29,2.72-1.5,3.16-1.7,4.22-1.93c1.54-.74,3.28-1.36,5.09-2.07.91-.35,1.84-.74,2.81-1.07l3-1c1-.32,2-.69,3.09-1l3.21-.88c2.15-.64,4.37-1.11,6.57-1.63s4.46-.87,6.64-1.29,4.38-.71,6.49-1,4.15-.54,6.09-.69,3.79-.33,5.48-.43,3.25-.16,4.63-.22,2.59-.06,3.57-.05C127.79,28.49,128.92,28.55,128.92,28.55Z"/><path class="cls-3" d="M129.67,25.54s-1.37-.57-3.84-1.33c-1.24-.39-2.74-.82-4.49-1.24s-3.74-.83-5.91-1.24a90.88,90.88,0,0,0-15-1.37c-2.76-.08-5.61.07-8.5.27s-5.8.61-8.68,1.17l-2.17.4-2.15.47c-1.44.3-2.83.7-4.24,1.08-2.78.78-5.48,1.7-8.06,2.7s-5,2.05-7.3,3.18c-1.14.53-2.24,1.08-3.28,1.66s-2.08,1.1-3,1.65c-1.88,1.17-3.66,2.15-5.15,3.18S45,38,44,38.74c-2.1,1.5-3.29,2.37-3.29,2.37l3.15-2.57c1-.84,2.3-1.72,3.74-2.8s3.18-2.16,5-3.38c.94-.59,2-1.15,3-1.76s2.13-1.2,3.28-1.77a74.89,74.89,0,0,1,7.3-3.36c2.59-1,5.32-2,8.14-2.81,1.41-.39,2.82-.82,4.27-1.13L80.81,21,83,20.6c2.93-.55,5.9-.85,8.82-1.11s5.81-.29,8.61-.19a75.16,75.16,0,0,1,8,.59c2.53.31,4.91.74,7.09,1.17A74.76,74.76,0,0,1,125.9,24,37.43,37.43,0,0,1,129.67,25.54Z"/><path class="cls-3" d="M130.68,22.52s-.65-.5-1.83-1.28c-.6-.36-1.31-.86-2.18-1.32s-1.85-1-2.94-1.53-2.28-1.07-3.56-1.58-2.66-1-4.11-1.42-3-.84-4.48-1.23-3.12-.6-4.71-.91-3.19-.39-4.76-.55l-4.65-.19-4.36.08c-1.39,0-2.69.23-3.9.32s-2.32.18-3.28.37l-2.54.38L81.17,14l2.17-.55,2.49-.6a26.32,26.32,0,0,1,3.29-.6c1.21-.15,2.52-.41,3.92-.52l4.41-.27c1.53,0,3.12,0,4.74.1s3.24.31,4.86.51,3.25.54,4.8,1a43.88,43.88,0,0,1,4.55,1.35A40.62,40.62,0,0,1,120.52,16c1.28.58,2.47,1.19,3.53,1.78a29.89,29.89,0,0,1,2.85,1.76c.84.54,1.52,1.09,2.09,1.51C130.1,21.94,130.68,22.52,130.68,22.52Z"/><path class="cls-3" d="M136.46,28.05s.5.18,1.36.55,2.07.89,3.49,1.61,3.08,1.57,4.8,2.59,3.52,2.15,5.27,3.36c.88.59,1.71,1.27,2.56,1.89s1.61,1.32,2.39,1.94,1.45,1.35,2.12,2l1.78,1.88c.54.59,1,1.19,1.37,1.69a13.45,13.45,0,0,1,1,1.39c.5.79.77,1.24.77,1.24s-.34-.4-1-1.1a11.58,11.58,0,0,0-1.12-1.22c-.45-.46-1-1-1.53-1.52l-1.89-1.71-2.2-1.79c-1.56-1.2-3.23-2.47-5-3.66s-3.48-2.37-5.13-3.45-3.22-2.07-4.57-2.9C138.26,29.16,136.46,28.05,136.46,28.05Z"/><path class="cls-3" d="M138.47,23.78a15.3,15.3,0,0,1,1.54.36,34.28,34.28,0,0,1,4,1.34c.82.32,1.67.7,2.58,1.14s1.81.92,2.77,1.44,1.92,1.13,2.84,1.81S154.06,31.19,155,32l1.32,1.12,1.24,1.21a27.75,27.75,0,0,1,2.28,2.49,21.43,21.43,0,0,1,1.9,2.5c.28.41.56.8.82,1.19s.47.8.67,1.19c.44.76.84,1.45,1.14,2.09l.69,1.68.6,1.47s-.3-.5-.8-1.37c-.25-.43-.55-1-.89-1.57s-.85-1.22-1.31-1.93l-.74-1.11c-.3-.36-.59-.73-.89-1.11-.62-.76-1.25-1.57-2-2.33a31.26,31.26,0,0,0-2.28-2.34L155.48,34l-1.32-1.08c-.84-.76-1.77-1.41-2.67-2.08s-1.83-1.24-2.71-1.84-1.77-1.12-2.64-1.58-1.67-.93-2.43-1.3c-1.54-.75-2.84-1.37-3.77-1.74S138.47,23.78,138.47,23.78Z"/><path class="cls-3" d="M135.2,33.59,139.39,37c1.25,1,2.7,2.21,4.27,3.49s3.24,2.62,5,3.92c.85.65,1.68,1.34,2.55,1.94s1.66,1.26,2.49,1.83,1.62,1.14,2.39,1.63,1.51,1,2.2,1.36a21.63,21.63,0,0,0,1.93,1.06,10.57,10.57,0,0,0,1.53.69l1.39.52s-.52-.09-1.46-.29a11,11,0,0,1-1.64-.51c-.31-.11-.66-.21-1-.36l-1.06-.49c-.74-.34-1.52-.75-2.34-1.22a28.42,28.42,0,0,1-2.52-1.51c-.87-.53-1.73-1.14-2.6-1.75s-1.74-1.29-2.6-1.94c-1.7-1.34-3.37-2.72-4.89-4.07s-2.87-2.67-4-3.8-2.08-2.13-2.73-2.81S135.2,33.59,135.2,33.59Z"/><path class="cls-32" d="M127.66,118.79c-18.27-.62-21.37,1.24-24.47-4s-9.91-9.6-10.2-6.5-.63,4-4.34,10.83,4.63,7.74,13.31,9c-1.24,2.17-6.19,4.95-13.31,3.72-11.76-2.8-5.89-13.32-9-12.39-19.2,7.74-40.55,5.88-40.55,5.88-3.47-.09-.76,30.75,47.6,36,31.58,3.44,54.17-23.13,57.65-30.47C147.37,124.56,145.92,119.41,127.66,118.79Z"/><path class="cls-19" d="M90.81,147.16s3,.67,8.57-1C98,149.8,94.76,151.34,90.81,147.16Z"/><path class="cls-10" d="M94,215a13.91,13.91,0,0,1,2.23-.6,18.11,18.11,0,0,1,2.34-.3,20.72,20.72,0,0,1,2.73,0,16.56,16.56,0,0,1,2.7.4,13.86,13.86,0,0,1,2.28.75l.84.45c.25.13.44.31.62.42a6.11,6.11,0,0,1,.5.38l-.61-.17c-.19-.05-.42-.14-.68-.2s-.58-.12-.9-.21l-1.06-.19-1.18-.18c-.83-.1-1.71-.2-2.6-.24s-1.78-.11-2.62-.14l-2.3-.08C94.89,215.1,94,215,94,215Z"/><path class="cls-10" d="M97.9,224a13,13,0,0,1,2.33-.56,24,24,0,0,1,2.44-.28c.88,0,1.84,0,2.8,0a27.52,27.52,0,0,1,2.8.32c.44.07.87.18,1.27.27a7,7,0,0,1,1.12.3,24.06,24.06,0,0,1,2.23.91,23.18,23.18,0,0,1-2.36-.23c-.35-.06-.74,0-1.14-.08s-.82-.06-1.25-.11-.89,0-1.34-.07l-1.39-.09-5.15-.21C98.86,224.11,97.9,224,97.9,224Z"/><path class="cls-7" d="M38.31,202.42a12.31,12.31,0,0,1,1.35,1.45c.36.46.79,1,1.21,1.61s.81,1.29,1.21,2,.76,1.38,1.08,2,.51,1.35.69,1.91a14.44,14.44,0,0,1,.5,1.91,16.81,16.81,0,0,1-1.14-1.62c-.32-.49-.66-1.07-1-1.69s-.79-1.29-1.18-2-.73-1.36-1.07-2-.65-1.25-.88-1.79C38.58,203.18,38.31,202.42,38.31,202.42Z"/><path class="cls-7" d="M46.77,217.89s.15.49.36,1.34.51,2.06.8,3.53.65,3.19.94,5c.14.93.33,1.88.45,2.86s.27,2,.39,2.95c.27,2,.41,4,.57,5.86.09.92.09,1.84.12,2.7s0,1.67.05,2.42a16.53,16.53,0,0,1-.07,2c0,.61-.07,1.14-.1,1.58-.06.87-.12,1.37-.12,1.37s0-.5-.12-1.37-.13-2.11-.28-3.59-.33-3.22-.55-5.07-.42-3.83-.71-5.79-.46-4-.69-5.82-.4-3.59-.57-5.07-.26-2.73-.35-3.61S46.77,217.89,46.77,217.89Z"/><path class="cls-7" d="M38.56,268.69a3.75,3.75,0,0,1,0-.5,13.69,13.69,0,0,1,.16-1.41,21.16,21.16,0,0,1,.44-2.15,20.27,20.27,0,0,1,.91-2.73,22.54,22.54,0,0,1,1.56-3,26.26,26.26,0,0,1,2.34-3c1.72-2,3.58-4,5.45-6.06s3.75-4.07,5.54-5.95,3.5-3.61,4.93-5.11,2.71-2.69,3.56-3.55,1.37-1.34,1.37-1.34-.43.55-1.19,1.49-1.86,2.29-3.23,3.86-2.91,3.42-4.64,5.36-3.58,4-5.44,6.06-3.76,4.07-5.55,6a29.71,29.71,0,0,0-2.4,2.78,19.09,19.09,0,0,0-1.67,2.82c-.47.91-.79,1.8-1.11,2.57s-.51,1.48-.64,2.08a12.8,12.8,0,0,0-.32,1.36A3,3,0,0,0,38.56,268.69Z"/><path class="cls-7" d="M28.44,278.69s.39.93,1.14,2.55,1.87,3.88,3.33,6.54a51.64,51.64,0,0,0,5.76,8.53,18.8,18.8,0,0,0,4.24,3.8,8.68,8.68,0,0,0,2.58,1.12,6,6,0,0,0,1.4.16,9.68,9.68,0,0,0,1.39-.1,20.05,20.05,0,0,0,5.53-1.91,49.8,49.8,0,0,0,5-2.95,99.79,99.79,0,0,0,8.29-6.21c2.34-1.94,4.27-3.58,5.59-4.78l2.07-1.88s-.66.77-1.91,2.05-3,3.1-5.3,5.14a86.51,86.51,0,0,1-8.15,6.55,47.62,47.62,0,0,1-5.08,3.09,20.5,20.5,0,0,1-5.85,2.1,9.9,9.9,0,0,1-1.65.09,7.31,7.31,0,0,1-1.61-.2,9.72,9.72,0,0,1-2.91-1.31A19.94,19.94,0,0,1,37.87,297a34.49,34.49,0,0,1-3.19-4.54c-.9-1.52-1.69-3-2.38-4.35-1.37-2.74-2.29-5.12-2.94-6.77S28.44,278.69,28.44,278.69Z"/><path class="cls-7" d="M41.78,320.82H40.59c-.2-.59-.46-1.25-.66-1.84a46.42,46.42,0,0,1-1.58-5c-.07-.2-.07-.33-.13-.53-.13-.65-.2-1.18-.27-1.51v-.13H38v.06a5.08,5.08,0,0,1,.46.73c.13.26.33.66.53,1.12a46.08,46.08,0,0,1,2,4.87C41.31,319.31,41.58,320.1,41.78,320.82Z"/><path class="cls-7" d="M152.46,204.63a18,18,0,0,1,.5,2.07,41.8,41.8,0,0,1,.57,4.6,45.83,45.83,0,0,1,.06,4.62,18.51,18.51,0,0,1-.21,2.12,18.7,18.7,0,0,1-.49-2.08,38.85,38.85,0,0,1-.57-4.58,40.79,40.79,0,0,1-.06-4.63A20.73,20.73,0,0,1,152.46,204.63Z"/><path class="cls-7" d="M179.59,251.26s1.48,1.15,3.52,3.09c1,1,2.16,2.15,3.37,3.41.62.64,1.2,1.33,1.81,2l1.8,2.14c.57.74,1.14,1.5,1.69,2.24s1.11,1.45,1.58,2.2l1.35,2.16c.42.69.85,1.31,1.16,2,.64,1.25,1.12,2.33,1.48,3.07s.52,1.17.52,1.17-.28-.38-.74-1.06-1.11-1.64-1.85-2.82c-.39-.57-.87-1.16-1.33-1.82l-1.47-2c-.48-.72-1.1-1.39-1.64-2.13s-1.13-1.44-1.69-2.18l-1.77-2.15c-.59-.69-1.12-1.43-1.7-2.07l-3.08-3.64Z"/><path class="cls-18" d="M166.88,286.22s-.9,8.51,7.91,13.59,11.2-8.51,11.65-14.93S166.88,286.22,166.88,286.22Z"/><path class="cls-7" d="M186.67,283.33a1,1,0,0,0-.26-.46,1.35,1.35,0,0,0-.27-.2,5.22,5.22,0,0,0-3.56-.92c-4.41,0-11.2,2.24-14.29,3.3-.14.06-.27.06-.4.13a2.22,2.22,0,0,0-.59.26,4.79,4.79,0,0,0-.66.2l-.33.13-.07.4a7.56,7.56,0,0,0,.07,1.58,2.39,2.39,0,0,0,.07.66.08.08,0,0,0,0,.13c0,.2.06.39.06.59.13.53.27,1.19.46,1.85a9,9,0,0,0,.93,2.37,15.42,15.42,0,0,0,6.65,7,8,8,0,0,0,3.89,1.19,5.07,5.07,0,0,0,3.69-1.52c.06,0,.2-.06.2-.13a3.75,3.75,0,0,0,.32-.39c1.72-1.85,2.77-4.75,3.43-7.58a10,10,0,0,0,.33-1.45,42.3,42.3,0,0,0,.73-5.54A2.24,2.24,0,0,0,186.67,283.33Zm-4.94,15.29a1.9,1.9,0,0,1-.33.39c-.13.14-.26.2-.4.33a4.13,4.13,0,0,1-2.63,1,7.09,7.09,0,0,1-3.3-1.05,14.76,14.76,0,0,1-7.24-9.23,1.87,1.87,0,0,0-.14-.59,2.2,2.2,0,0,0-.13-.72v-.07a14,14,0,0,1-.13-2c.13-.07.26-.07.4-.13l1.38-.53c3.23-1.06,9.42-3,13.37-3,1.46,0,2.44.26,2.91.79a1.22,1.22,0,0,1,.32,1.12c-.06.72-.2,2.11-.46,3.82a28,28,0,0,1-1.51,6.19,4,4,0,0,1-.53,1.25A7.94,7.94,0,0,1,181.73,298.62Z"/><path class="cls-33" d="M88,190.51c-.26-.43-.53-.87-.78-1.26-3.87-6-5-7.93-8.5-7.35s-4.65,2.91-2.13,7.54c.56,1,1.35,2.44,2.25,4A12,12,0,0,1,88,190.51Z"/><path d="M88.56,190.16l-.13-.2-.07-.06a2.32,2.32,0,0,0-.33-.59l-.06-.07c-.07-.13-.14-.2-.2-.33l-.13-.2-.07-.13-.06-.07c-.8-1.25-1.46-2.3-2.12-3.16a12.75,12.75,0,0,0-2.37-2.9c-.06-.13-.13-.13-.13-.13a1.38,1.38,0,0,0-.59-.39.86.86,0,0,0-.53-.33.21.21,0,0,0-.13-.07,5.7,5.7,0,0,0-3-.2,6.34,6.34,0,0,0-1.78.53A3.89,3.89,0,0,0,75,183.57a3.12,3.12,0,0,0-.33,1.78A9.22,9.22,0,0,0,76,189.7c.53,1,1.25,2.24,2,3.62l.6,1.06.52-.4.07-.06.33-.33a9.58,9.58,0,0,1,2-1.25,7.56,7.56,0,0,1,.85-.4,6.39,6.39,0,0,1,1-.33l.06-.06h.07c.2-.07.33-.07.53-.14h.06c.2-.06.4-.06.6-.13a13.81,13.81,0,0,1,2.9-.2h.72l.72.07h.07Zm-4.68.07c-.07,0-.07,0-.13.06a1.06,1.06,0,0,0-.46.07c-.46.13-.86.26-1.25.4a6.78,6.78,0,0,1-.86.32c-.4.27-.66.4-.92.6h-.07a6,6,0,0,0-1.18.85c-.73-1.31-1.39-2.5-1.85-3.36a7.23,7.23,0,0,1-1.25-4.48v-.06c.06-.2.13-.33.2-.53a1.09,1.09,0,0,1,.32-.46,1.87,1.87,0,0,1,1.06-.73,3.93,3.93,0,0,1,1.32-.39,6.13,6.13,0,0,1,1-.13,3.32,3.32,0,0,1,2.17.72c0,.07.07.07.13.13a5.21,5.21,0,0,1,.53.53h.07a8.09,8.09,0,0,1,.59.73l.13.13c.59.79,1.25,1.71,2,3a6.85,6.85,0,0,1,.4.73h.06v.06l.4.6c.07.06.07.13.13.19l.26.4c.07.06.07.13.14.2v.06c.06,0,.06.07.06.07a13.32,13.32,0,0,0-2.44.2C84.28,190.16,84.08,190.16,83.88,190.23Z"/><path class="cls-20" d="M96.4,206.79s-3.77-8.19-7.26-14.35a12,12,0,0,0-9.16,3c3,5.18,6.47,11,6.47,11Z"/><path class="cls-21" d="M85.13,193.32a1.81,1.81,0,0,1-.59.14c.07,0,.07.06.07.13a1,1,0,0,1,.59-.13v-.07a12.44,12.44,0,0,1,3.56-.33A16.16,16.16,0,0,0,85.13,193.32Zm11.8,13.25s0-.07-.13-.2a144.92,144.92,0,0,0-6.59-13.24l-.53-1a.91.91,0,0,0-.53-.33H88.1a11.75,11.75,0,0,0-3.17.39,1.87,1.87,0,0,0-.59.14h-.06a4.44,4.44,0,0,0-.53.19h-.07a10.32,10.32,0,0,0-2.24,1.06,8.8,8.8,0,0,0-1.78,1.32l-.06.06a.53.53,0,0,0-.13.73l.39.66c2.24,3.95,4.75,8.17,5.67,9.75.13.2.2.39.26.46a1.23,1.23,0,0,0,.13.2.52.52,0,0,0,.47.26h.06l.86.07h1.31l.33.06,7.45.27c.07,0,.2-.07.26-.07a.9.9,0,0,0,.27-.2v-.06a.27.27,0,0,0,.06-.2v-.07C97,206.7,97,206.64,96.93,206.57ZM82,194.71v-.07c.26-.13.59-.26.92-.46H83a2.78,2.78,0,0,1,1.05-.39.72.72,0,0,1,.53-.2c.07-.07.07,0,.07,0a1,1,0,0,1,.59-.13v-.07a12.44,12.44,0,0,1,3.56-.33c2.76,4.81,5.6,10.87,6.65,13.11h-.2L92.12,206l-2.77-.13H87.64l-.66-.07h-.2c-.66-1.18-3.49-5.93-6-10.27A3.45,3.45,0,0,1,82,194.71Z"/><path class="cls-34" d="M92.38,206.66l4,.13s-3.77-8.19-7.26-14.35a14,14,0,0,0-4.32.39A114.39,114.39,0,0,1,92.38,206.66Z"/><path class="cls-33" d="M89.14,192.44c-.39-.67-.76-1.33-1.13-1.93a12,12,0,0,0-9.16,2.93c.36.64.74,1.3,1.13,2A12,12,0,0,1,89.14,192.44Z"/><path d="M84.14,191.41a2,2,0,0,1,.6-.06v-.07C84.54,191.35,84.34,191.35,84.14,191.41Zm5.54.73a6.82,6.82,0,0,1-.53-1h-.07a7.85,7.85,0,0,1-.52-1l-.13-.2-.07-.06h-.72c-.27,0-.53-.07-.79-.07a9,9,0,0,0-2.38.27c-.19,0-.39.06-.59.06a.21.21,0,0,0-.13.07.89.89,0,0,0-.46.13c-.46.13-.86.26-1.25.4a6.78,6.78,0,0,1-.86.32c-.4.27-.66.4-.92.6h-.07a6,6,0,0,0-1.18.85,3.5,3.5,0,0,1-.47.33c-.06.07-.06.14-.13.14l-.33.32.6,1.06.79,1.32.39.66.53-.53c.13-.07.26-.2.39-.26a3.45,3.45,0,0,1,1.19-.86v-.07a6,6,0,0,1,.92-.46H83c.26-.2.66-.33,1-.53a2,2,0,0,0,.59-.19,1.81,1.81,0,0,0,.59-.14,16.16,16.16,0,0,1,3.63-.26h.72l.73.07Zm-4.75.06a1.87,1.87,0,0,0-.59.14h-.06a4.44,4.44,0,0,0-.53.19h-.07a10.32,10.32,0,0,0-2.24,1.06,12.63,12.63,0,0,0-1.32.85l-.52-.85a9.58,9.58,0,0,1,2-1.25,7.56,7.56,0,0,1,.85-.4,6.39,6.39,0,0,1,1-.33h.06c0-.06.07,0,.07,0v-.06c.2,0,.33-.07.53-.07,0,0,0-.07.06-.07a2,2,0,0,1,.6-.06v-.07a13.81,13.81,0,0,1,2.9-.2,3.85,3.85,0,0,0,.46.73A11.75,11.75,0,0,0,84.93,192.2Z"/><path class="cls-19" d="M83.48,91.25s8.58,14.43-.9,28.41c-3.83,5.42.45,8.57,6.32,10.38,3.84.9,9.92-1.81,9.92-1.81a37.23,37.23,0,0,1-11.5-1.12c-5.18-1.59-4.51-5.87-.9-10.6S92.06,99.59,83.48,91.25Z"/><path class="cls-35" d="M93.37,111.14a36.56,36.56,0,0,1-4.56,9.71C87.46,123.16,92.88,120.58,93.37,111.14Z"/><g class="cls-16"><path class="cls-33" d="M88,190.51c-.26-.43-.53-.87-.78-1.26-3.87-6-5-7.93-8.5-7.35a5.88,5.88,0,0,0-2,.68c1.77.44,4.21,2.45,7.32,8.24A14,14,0,0,1,88,190.51Z"/></g><path class="cls-6" d="M88.84,206.25a.6.6,0,0,1-.52-.31L82,195a.61.61,0,0,1,1.06-.6l6.28,11a.6.6,0,0,1-.23.82A.56.56,0,0,1,88.84,206.25Z"/><path class="cls-6" d="M80.61,191.81a.61.61,0,0,1-.52-.29l-4.31-7a.61.61,0,0,1,.19-.84.63.63,0,0,1,.85.21l4.3,7a.6.6,0,0,1-.19.83A.55.55,0,0,1,80.61,191.81Z"/><path class="cls-33" d="M164.86,215.4l-1.05,20.23-.2,4.41v.27l-.13,2.17v.33l-.07.39-.26,5.34-.07,1.91-.06.46v.2l-.27,5.34-.13,2v.79l-.33,5.47-.07,2.18-.06.52-.07,1.12-.19,4.88-.07,1.18-.07.53v.53l-.19,3.1v.92L161.5,281l-2,39.79H73.27c.33-10.8.79-23.91,1.52-37.29.26-4.61.52-9.23.85-13.77,0-.33.07-.59.07-.86.13-1.71.26-3.42.4-5.14v-.06c0-.79.06-1.52.13-2.24.06-.46.06-.93.13-1.39s.06-.79.06-1.18v-.2c0-.07.07-.13.07-.2.53-7.18,1.19-14.1,2-20.49,0-.26.06-.59.06-.86h.07a3.49,3.49,0,0,1,.07-.85c0-.2.06-.4.06-.6l18.06-4.28.59-.13.72-.13,3.76-.93.59-.13,8-1.84.59-.13v-.07l.59-.13,1-.2.79-.2.66-.13,2.9-.72.86-.2h.06l.79-.2,2-.46L138,221.72l.6-.13.65-.13v-.07l6.86-1.58.53-.13.59-.13,7-1.65Z"/><path d="M111.62,228.44v-.52l-.59.13v.07l-.59.13-8,1.84-.59.13-3.76.93-.72.13c-.07-.2-.2-.33-.26-.53l-.6.13L78.61,235.1l-.46.13v.46l.53.6.52.65c0-.26.07-.46.07-.72L97.13,232l.72-.13,4-1,.66-.13.59-.13,7.39-1.71v-.07l.59-.13.46-.07.06-.06c.07-.07.14-.07.2-.14Zm53.64-13.77-11.8,2.77-.2.07-5.93,1.38-8,1.91-.65.13-.6.14-15.68,3.69v.06l-3.16.73h-.07l-.79.19h-.06l-.8.2-3.16.73-.53.13-.59.13-1.58.39-.59.14-.59.13-8.57,2-3.43.79h-.06l-.73.2-.52.13-.6.13L78.61,235.1l-.46.13v.46a3.06,3.06,0,0,0-.07.79,3.7,3.7,0,0,0-.13.86c-.72,5.73-1.32,11.93-1.91,18.45,0,.92-.13,1.78-.2,2.7v.13a13.83,13.83,0,0,1-.13,1.58c0,.47-.07.93-.07,1.39a7,7,0,0,0-.06,1.12c-.07.06-.07.06-.07.13v.72c-.13,1.26-.2,2.51-.26,3.83a3.22,3.22,0,0,0-.07.85,4.2,4.2,0,0,0-.06.86c-.33,4.94-.66,9.95-.92,15v.19c-.73,13.12-1.26,25.9-1.59,36.57h1.25c.47-14.56,1.19-33.14,2.38-51.06.13-2.18.33-4.35.46-6.52.07-1.06.13-2.11.19-3.17L77,260c0-.53.07-1.12.07-1.65a18.36,18.36,0,0,0,.2-1.91c.52-6.26,1.12-12.26,1.78-17.86,0-.33.06-.59.06-.85s.07-.53.13-.8.07-.46.07-.72L97.13,232l.72-.13,4-1,.66-.13.59-.13,7.39-1.71v-.07l.59-.13.46-.07.06-.06,1.06-.2h.06l.93-.26,2.9-.66.79-.2h.06l.07-.07.79-.13V227l.33-.07c.06.07.06,0,.13,0l1.78-.4,16.74-3.95.85-.2.6-.13v-.06l.65-.14,6.66-1.58.66-.13.59-.13,7.12-1.71,9.88-2.31-1.32,25.56v.6l-.06.59-.27,5.47-.13,1.84v.6l-.26,5.53-.13,1.91V259l-.33,5.67-.07,2-.06.59-.07,1.05-.26,4.95-.07,1.25v1.05l-.26,4v1.18l-.07.07-.06,1.58-2,38.41H160l2.1-40.39V280l.07-1.06.06-.72.14-3.1v-.53l.06-1.05.27-4.81.06-1.25v-.46l.13-2.24.27-5.27.06-.6v-.26l.13-2.31.27-5.07v-.73l.13-1.91.26-5.4v-.39l.07-.27.27-5.53v-.6l.06-.66L165.46,216v-.59l.06-.79Z"/><g class="cls-16"><path class="cls-33" d="M164.86,215.4l-1.05,20.23-.2,4.41v.27l-.13,2.17v.33l-.07.39-.26,5.34-.07,1.91-.06.46v.2l-.27,5.34-.13,2v.79l-.33,5.47-.07,2.18-.06.52-.07,1.12-.19,4.88-.07,1.18-.07.53v.53l-.19,3.1v.92L161.5,281l-2,39.79H115c16.34-13,26.09-29.91,31.76-46.45a5,5,0,0,1,.2-.53,2.18,2.18,0,0,0,.13-.52.22.22,0,0,0,.07-.14q1.47-4.33,2.57-8.69c.59-2.11,1-4.22,1.51-6.26v-.07a7.17,7.17,0,0,1,.27-1.18c.13-.8.26-1.59.46-2.38.33-2,.65-3.95.92-5.86v-.07c.06-.33.06-.59.13-.92.13-.72.2-1.45.26-2.17.2-1.45.33-2.84.46-4.22a2.12,2.12,0,0,0,.07-.66,1.55,1.55,0,0,0,.07-.53,158.73,158.73,0,0,0,.46-21.67v-.6Z"/></g><polygon class="cls-18" points="145.66 232.88 146.65 219.69 102.45 230.12 102 244.28 145.66 232.88"/><path class="cls-7" d="M139.29,220.8l-.65.13-.6.14-15.68,3.69v.06l-3.16.73h-.07l-.79.19h-.06l-.8.2-3.16.73-.53.13-.59.13-1.58.39-.59.14-.59.13-8.57,2v.59l-.07.66v1.32l-.06.53v.59l-.4,11.73,4.35-1.12.86-.2v-.06l.85-.2,38.82-10.08,1-13.18.07-.66.06-.66ZM108.39,242l-.85.2v.07l-.86.19c-.07,0-.13.07-.26.07l-3.83,1L103,233v-1.05l.06-1.32,7.39-1.71v-.07l.59-.13.46-.07.06-.06,1.06-.2h.06l.93-.26,2.9-.66.79-.2h.06l.07-.07.79-.13V227l.33-.07c.06.07.06,0,.13,0l1.78-.4,16.74-3.95c.06,0,.06,0,0-.07l.85-.13v-.06l.6-.13.65-.14,6.66-1.58-.86,11.93Z"/><g class="cls-16"><path class="cls-18" d="M137.62,221.83c-3.75,6.71-12.47,11.94-18.22,14.9a141,141,0,0,1-17.4,7.38v.17l43.66-11.4,1-13.18Z"/></g><polygon class="cls-18" points="111.02 229.21 111.02 223.94 138.65 217.84 138.65 223.13 111.02 229.21"/><path class="cls-7" d="M118.21,227l-.79.19h-.07l-.85.2-2.84.59-.79.2-1.12.26c-.06.07-.13.07-.2.14l1.06-.2h.06l.93-.26,2.9-.66.79-.2-.27.46a7.49,7.49,0,0,0,1.06-.53.84.84,0,0,0,.46-.26Zm-6.59-2.11c-.2,0-.39-.07-.59-.07v3.23l.59-.13Zm10.61-4-.86.2-.79.13h-.06v.06l-7.25,1.52-.46.13-.53.13-1.84.4V230l1.25-.26,3.88-.86.79-.2h.07l.79-.2,18.72-4.08,3.35-.73v-6.52ZM138,222.65l-1.12.26-16.47,3.62-1.78.4c-.07,0-.07.07-.13,0l-.33.07-.79.19h-.07l-.85.2-2.84.59-.79.2-1.12.26h-.13v-4l.79-.2.53-.07.46-.13,6.2-1.38.85-.14.86-.19L127.1,221,138,218.63Z"/><path class="cls-36" d="M128,220.18A37.78,37.78,0,0,1,116.52,228l22.13-4.88v-5.28Z"/><polygon class="cls-6" points="90.73 235.69 82.3 238.46 82.17 240.63 82.1 241.49 82.1 242.41 77.69 320.82 77.42 320.82 79.99 249.4 79.99 249.2 80.26 242.28 80.26 242.02 80.32 240.31 80.39 239.38 80.39 238.46 80.45 237.74 80.45 237.14 81.18 237.01 90.73 235.69"/><path class="cls-9" d="M182.33,258.88s-2.44-10-6.91-14a114.52,114.52,0,0,0-11.57-8.74l-.46,6.55s-7.14-4.27-10.17-1.62a84.46,84.46,0,0,0-9.89,11c-1.68,2.29-2.14,3.66.61,6.25-1.68,4.42-2.75,5.18,2.43,9.6-.61,5.18.31,6.7,2.28,6.85.15,4,1.38,4,4.73,6.1s5.33,2.89,5.79.15-3.51-7.31-3.51-7.31,4.88,1.68,6.71,1.52c-.16,7.47,1.37,16.46,12.34,15.39,3.66,4.72,7.16,9,7.16,9S192.49,287.52,182.33,258.88Z"/><path class="cls-10" d="M163.48,242.81l-.07.39a.26.26,0,0,0,.2-.06.14.14,0,0,0,.13-.13C163.68,242.94,163.54,242.88,163.48,242.81Zm19.37,15.94a55.23,55.23,0,0,0-2-6,.06.06,0,0,1-.06-.07,3.34,3.34,0,0,1-.2-.52l-.07-.07c-1.12-2.77-2.7-5.8-4.81-7.64a127.6,127.6,0,0,0-11.33-8.64l-.26-.13a.66.66,0,0,0-.33-.06.26.26,0,0,0-.2.06.46.46,0,0,0-.27.4l-.39,5.73-.07-.07a17.23,17.23,0,0,0-7-2,4,4,0,0,0-2,.46,2.39,2.39,0,0,0-1,.46,90.41,90.41,0,0,0-10,11.07c-1.78,2.44-2.17,4.09.39,6.73a4.21,4.21,0,0,1-.32.85c-1.46,3.63-1.65,4.88,2.83,8.77-.33,3.22-.13,5.13.79,6.19.07.06.07.13.13.13a2.11,2.11,0,0,0,1.45.79c.2,3.23,1.25,3.89,3.49,5.21.4.26.92.52,1.45.85,1.85,1.26,3.36,2,4.48,2s1.85-.73,2-2.24c.34-2-1.38-4.75-2.56-6.4a21.12,21.12,0,0,0,4.08,1c.2,0,.4.07.59.07h.07c0,1,0,1.91.07,2.77,0,.26.06.52.06.79s.07.59.07.85v.07a.54.54,0,0,1,.06.26c.46,3.5,1.59,6.13,3.37,7.91a4.21,4.21,0,0,0,.85.72c.07.07.07.14.13.07a.92.92,0,0,0,.46.4.89.89,0,0,0,.27.19.48.48,0,0,0,.32.14c.07.13.2.13.34.19a12.34,12.34,0,0,0,6.65,1.06c2.83,3.62,5.54,7,6.52,8.23a2.32,2.32,0,0,1,.4.46l.06.07a.61.61,0,0,0,.4.2.24.24,0,0,0,.2-.07c.06,0,.2-.06.2-.13a3.75,3.75,0,0,0,.32-.39A21.44,21.44,0,0,0,186,291.9a10,10,0,0,0,.33-1.45C187.86,283.86,188.05,273.51,182.85,258.75Zm.46,37.36a13.89,13.89,0,0,1-1.45,2.64c0-.07-.06-.07-.13-.13-1.06-1.25-3.62-4.42-6.2-7.91h-.06c-.07-.13-.13-.2-.2-.33l-.13-.13a.57.57,0,0,0-.4-.2h-.06a10.6,10.6,0,0,1-7.12-1.31v-.07a1.69,1.69,0,0,1-.53-.33v-.07c-.26-.06-.39-.26-.59-.46a.26.26,0,0,1-.13-.06l-.13-.13c-1.78-1.78-2.84-4.55-3.16-8.37a1.73,1.73,0,0,1,0-.6,1.68,1.68,0,0,1-.07-.59c-.07-.92-.07-1.91-.07-2.9a.5.5,0,0,0-.13-.33.57.57,0,0,0-.39-.2h-.53c-.2,0-.4-.06-.66-.06a36.47,36.47,0,0,1-5.33-1.39.55.55,0,0,0-.6.2.43.43,0,0,0,.07.6c1.05,1.25,3.69,4.87,3.36,6.91-.2,1.32-.8,1.32-1.06,1.32-.92,0-2.57-.92-4-1.84-.53-.33-1.06-.6-1.45-.86-2.24-1.32-2.9-1.78-3-4.81a.45.45,0,0,0-.46-.46h-.07a2.08,2.08,0,0,1-1.32-.59,1,1,0,0,1-.19-.27l-.07-.06c-.39-1-.46-2.7-.2-5.41a.71.71,0,0,0-.19-.46l-.14-.13a.15.15,0,0,1-.13-.13c-.13-.07-.26-.2-.33-.2L145,265.94c-2.57-2.44-2.18-3.43-1.12-6.26.19-.4.33-.79.52-1.25a.51.51,0,0,0-.13-.53l-.06-.07a.06.06,0,0,1-.07-.06l-.26-.27a11.23,11.23,0,0,1-1-1.18c-.86-1.39-.39-2.38.79-4a87.24,87.24,0,0,1,9.82-10.87.22.22,0,0,1,.19-.07,3.21,3.21,0,0,1,2.18-.66c2.63,0,5.93,1.71,6.92,2.24l.33.2c.06.06.13.06.26.06a.26.26,0,0,0,.2-.06.14.14,0,0,0,.13-.13c.07-.07.13-.13.13-.2v-.2l.4-5.6a.07.07,0,0,1,.07.07,92,92,0,0,1,10.73,8.17,18.17,18.17,0,0,1,4.22,6.52,58.2,58.2,0,0,1,2.57,7.25c3.49,9.75,4.48,17.59,4.28,23.65a2.09,2.09,0,0,1,0,.93,30.78,30.78,0,0,1-.59,5.33,24.87,24.87,0,0,1-1.71,5.93A4,4,0,0,1,183.31,296.11Z"/><path class="cls-10" d="M174.71,290.57l.37-.12a9.24,9.24,0,0,0,.9-.35,4.9,4.9,0,0,0,.58-.27c.19-.11.41-.18.61-.32a6.41,6.41,0,0,1,.62-.38,5.2,5.2,0,0,0,.59-.46l.61-.46c.16-.2.34-.36.5-.55s.34-.33.51-.48.27-.35.39-.5a12.73,12.73,0,0,1,.91-1,10.34,10.34,0,0,1-.41,1.34,4,4,0,0,1-.27.62c-.14.2-.28.41-.44.62s-.33.45-.52.67l-.65.56a4.27,4.27,0,0,1-.71.49c-.25.14-.51.24-.75.36a3,3,0,0,1-.75.22,2.9,2.9,0,0,1-.68.13A3.81,3.81,0,0,1,174.71,290.57Z"/><path class="cls-10" d="M148.65,274.72s-.05-.38-.08-1a20.51,20.51,0,0,1,.1-2.76,15.71,15.71,0,0,1,.32-1.83,7.25,7.25,0,0,1,.73-2,4.2,4.2,0,0,1,1.64-1.77,4,4,0,0,1,2.49-.24l2.22.33a20.44,20.44,0,0,1,2.15.43c1.4.33,2.69.65,3.77,1,2.18.64,3.59,1.2,3.59,1.2l-1-.17c-.64-.13-1.58-.25-2.69-.48s-2.4-.38-3.78-.65-2.88-.42-4.36-.65l-.56-.08H153l0,0h0s.05,0,0,0h-.3a2.05,2.05,0,0,0-.88.19,3.66,3.66,0,0,0-1.32,1.33,9.51,9.51,0,0,0-.79,1.77,17.42,17.42,0,0,0-.47,1.73c-.22,1.09-.38,2-.45,2.68S148.65,274.72,148.65,274.72Z"/><path class="cls-10" d="M146.37,267.87s0-.42,0-1.13c0-.35.07-.79.13-1.29a13.09,13.09,0,0,1,.29-1.65,16.84,16.84,0,0,1,.54-1.94,11.46,11.46,0,0,1,.94-2.07,6.94,6.94,0,0,1,1.57-1.92l.51-.42.6-.31a4.57,4.57,0,0,1,1.27-.45,7.54,7.54,0,0,1,2.57.08l2.33.36a14.75,14.75,0,0,1,2.16.45c.7.16,1.34.34,1.93.48,1.2.29,2.15.71,2.83.91s1,.42,1,.42l-1.1-.23c-.71-.13-1.7-.35-2.89-.54-.61-.09-1.25-.2-1.94-.32s-1.4-.2-2.17-.29l-2.33-.27a6.6,6.6,0,0,0-2.25-.05,3.67,3.67,0,0,0-1,.34l-.48.25-.43.34a6.9,6.9,0,0,0-1.44,1.65,16.14,16.14,0,0,0-1.7,3.67c-.35,1.16-.63,2.14-.77,2.83S146.37,267.87,146.37,267.87Z"/><path class="cls-10" d="M143.94,258.27s.16-.42.49-1.12.8-1.71,1.46-2.88a32.73,32.73,0,0,1,2.49-3.83,12.62,12.62,0,0,1,1.82-1.93,4.47,4.47,0,0,1,1.25-.77,2.24,2.24,0,0,1,.84-.15,4.55,4.55,0,0,1,.75.13c1.71.43,3.43.85,5,1.3s3.09.87,4.37,1.23c2.55.74,4.22,1.32,4.22,1.32s-1.74-.26-4.35-.77c-1.3-.27-2.83-.55-4.44-.91s-3.35-.77-5.07-1.17a1.28,1.28,0,0,0-1,0,4,4,0,0,0-1,.59,13,13,0,0,0-1.74,1.74,40.46,40.46,0,0,0-2.7,3.57C144.89,256.77,143.94,258.27,143.94,258.27Z"/><path class="cls-10" d="M163,242.39a11.62,11.62,0,0,1,1.19.28,15.74,15.74,0,0,1,2.4,1,16.55,16.55,0,0,1,2.22,1.38,7.54,7.54,0,0,1,.92.81,6.92,6.92,0,0,1-1.19-.28,16,16,0,0,1-2.42-1,16.39,16.39,0,0,1-2.21-1.38A10.19,10.19,0,0,1,163,242.39Z"/><path class="cls-19" d="M182,283.3s-3.2,5.09-8.16,4.73-8.39-5.91-9-10.4-.23-3.31-4.84-4.62-9.11-1.53-8.87-3.65,2-2.85,7.21-1.78c6.72,1.39,8.39,3.55,8.51,1.3.13-2.64,2.24-3.43,1.3-8.39s.35-7.56,2.12-11.46,6.74-2.95,10.52,5.68c.25.57.52,1.11.79,1.62-1-3.23-3.13-8.71-6.17-11.47a114.52,114.52,0,0,0-11.57-8.74l-.45,6.43c5.45,2.78,4.52,4.53,3.57,5.89-1.06,1.53-8.38-1.19-11.82-2.49s-5.08.36-9.09,6.5a17.74,17.74,0,0,1-3.54,4.17,7.42,7.42,0,0,0,1.13,1.36,65.4,65.4,0,0,1,5.6-7.53c2.36-2.36,3-2.25,9.8-.6,7.1,1.77,6.62,3.08,6.5,4.62s-1.77,2.71-6,1.53-9.33-2.95-11.1,1.07c-1.2,2.72-2.72,7-3.59,9.41.34.32.72.67,1.14,1a34.65,34.65,0,0,1,1.86-5.37c2-4.37,4.38-5.31,10.88-4,6.73,1.31,6.73,3.66,6.37,5.79s-6.26,0-12.17-.95c-4.07-.65-5.4,6.55-5.82,11.1a2.31,2.31,0,0,0,1.56.65c.15,4,1.38,4,4.73,6.1s5.33,2.89,5.79.15-3.51-7.31-3.51-7.31,4.88,1.68,6.71,1.52c-.16,7.47,1.37,16.46,12.34,15.39,3.66,4.72,7.16,9,7.16,9s2.77-3.16,4.12-10.05C182.54,285.23,182,283.3,182,283.3Z"/><path class="cls-19" d="M67,87.81S59.29,74.49,50,84.6C52.39,78.34,61.7,72.25,67,87.81Z"/><path class="cls-23" d="M67,86.69s-7.71-13.33-17-3.21C52.39,77.22,61.7,71.12,67,86.69Z"/><path class="cls-19" d="M110.79,80.34s7.71-13.33,17-3.21C125.4,70.87,116.09,64.77,110.79,80.34Z"/><path class="cls-23" d="M110.79,79.21s7.71-13.33,17-3.21C125.4,69.74,116.09,63.64,110.79,79.21Z"/><path class="cls-37" d="M99.74,88.16l0,0-.14.13,0,0-.18.15,0,0-.15.1,0,0-.12.08,0,0-.12.07-.1,0h0l-.06,0-.17-.12,0,0-.2-.11h0L98,88.59l-.06,0-.25-.09h0l-.28-.1h-.05l-.3-.09-.06,0-.67-.16-.06,0L95.9,88h-.06l-.31-.06h0l-.32-.06H95.1l-.29,0h-.07l-.23,0h-.07c-.09,0-1.85-.12-2.08-.1-.46,0-1.44.25-1.52.28h0l-.21.07-.07,0-.24.08-.07,0-.22.08-.05,0h0l-.28.1-.08,0-.3.11h0l-.3.11,0,0-.31.13-.06,0L87.9,89l-.06,0-.28.14,0,0-.25.13h0L87,89.5l0,0-.2.13h0l-.18.14,0,0-.15.14h-.08l-.1,0-.13,0,0,0-.14-.06-.05,0-.16-.08,0,0-.2-.11,0,0-.17-.11-.06,0-.21-.16,1,.83.21.16.06,0,.16.1.06,0,.2.11,0,0,.16.08,0,0,.13.06h0l.12.05h0l.09,0h0l.06,0a1,1,0,0,1,.15-.14l0,0,.18-.14h0l.19-.13,0,0,.23-.13,0,0,.25-.14.05,0,.28-.14.06,0,.63-.27,0,0,.32-.12.05,0,.32-.12h0a3,3,0,0,1,.32-.12l0,0,.31-.11h0l.3-.1h0l.27-.09h0l.46-.14h0l.17,0h0l.33,0h0l.18,0h0l.48.07h0l.28,0h0l.31,0h0l.32.06h0l.34.06h0L95,89h0l.34.08h0l.67.16.06,0,.31.09,0,0,.27.09h0l.25.09.06,0,.21.09h0l.21.11,0,0,.18.12,0,0h0l.08,0h0l.11-.07,0,0,.12-.08.06,0,.14-.1,0,0,.18-.15,0,0,.14-.13.06,0,.18-.2.82-1Z"/><path class="cls-38" d="M43.38,91.49a8.32,8.32,0,0,0-3.76,8c.48,5.62.52,14.22,9.6,22.84,0,0,6.47,6.5,19.41,3.22a21.83,21.83,0,0,0,14.11-13s4.37-8.9,1-17.4c0,0-4.06-8.87-20-8.56C63.83,86.53,52,86.06,43.38,91.49Z"/><path class="cls-39" d="M141.13,83.16a8.35,8.35,0,0,1,5.05,7.23c.48,5.61,1.9,14.1-5.6,24.13,0,0-5.28,7.5-18.58,6.46a21.87,21.87,0,0,1-16.12-10.46s-5.81-8-4-17c0,0,2.5-9.43,18.21-11.81C120.13,81.74,131.75,79.27,141.13,83.16Z"/><path class="cls-37" d="M79.92,118.4c.12-.16.25-.32.37-.49s.15-.21.23-.32l.34-.5.22-.34.33-.53.21-.37c.11-.19.22-.38.32-.58s.14-.24.2-.37l.33-.67a3.36,3.36,0,0,0,.16-.33c.16-.34.31-.69.46-1.05s4.39-8.89,1.09-17.38c0,0,0-.07-.07-.14a11.68,11.68,0,0,0-3-3.64l-1-.83a11.57,11.57,0,0,1,3.08,3.78c3.3,8.5-.87,16.94-1.09,17.38s-.3.71-.46,1.06c-.05.11-.1.21-.16.32l-.33.68-.19.36-.33.58-.21.37-.33.53c-.07.12-.15.23-.22.34l-.35.51a3.46,3.46,0,0,1-.22.31c-.12.18-.25.34-.38.5l-.2.27c-.15.19-.31.37-.46.55l-.13.17c-.2.23-.41.45-.61.67l-.14.15-.47.47-.23.22-.39.36-.25.22c-.12.11-.24.22-.37.32l-.25.21-.36.29-.25.19-.37.27-.24.17-.39.26-.2.14-.52.33-.09,0-.53.31-.37.2-.12.07c-.33.17-.64.33-.94.47l-.13,0-.31.14-.15.07-.25.11-.17.06-.22.09-.15.06-.21.07-.13,0-.2.07-.07,0-.22.07,0,0-.44.13h0l-.15,0h0L68,125c-.42.1-.83.2-1.24.28l-.44.09-.75.14-.86.13-.37.06-1.18.12q-.42,0-.84.06h-.24l-.58,0H60.32l-.89,0h-.19l-.75-.06-.11,0c-.28,0-.55-.06-.81-.1l-.24,0-.31,0-.26-.05-.3,0-.25,0-.29-.07-.24-.05-.27-.07-.23-.06-.27-.07-.22-.07-.26-.07-.2-.07-.26-.08-.19-.07-.25-.09-.17-.06-.25-.1-.17-.07-.23-.1-.17-.07-.22-.09-.16-.08-.2-.09L51.8,124l-.18-.1a.8.8,0,0,1-.16-.08l-.17-.09-.15-.08-.16-.09-.15-.09a.57.57,0,0,1-.13-.08l-.16-.09-.11-.07-.16-.1-.09-.06L50,123l-.06,0-.16-.11,0,0-.16-.11,0,0-.16-.13h0l-.3-.24,1,.83.22.18.08.06.13.1,0,0,.14.1.05,0,.13.08.09.07.12.08.11.07.13.09.12.07.13.09.14.08.14.09.14.08a.8.8,0,0,0,.16.08l.15.09.16.08.17.09.16.09.18.08.17.09.2.09.18.08.2.08.19.08.21.09.21.08.18.07h0l.2.07.24.09.21.07.25.08.22.06.26.08.22.06.28.07.23.06.29.06.24.06.29.06.26,0,.3.06.27,0,.21,0h.07l.79.1h.13c.24,0,.48,0,.73.06l.21,0c.28,0,.57,0,.87,0h.94a.57.57,0,0,1,.13,0h.12l.55,0h.27l.83-.06,1.18-.12.4-.07c.28,0,.55-.07.83-.12h.06l.71-.14.42-.08c.41-.08.82-.18,1.24-.29h.16l.05,0,.1,0,.06,0,.19,0h0l.19-.06.1,0,.16-.05.12,0,.06,0,.09,0,.18-.07.17-.06.18-.07.19-.07.19-.08.23-.1.18-.07.28-.13.15-.07.46-.22,0,0,.43-.22.19-.1.27-.15,0,0q.28-.15.57-.33h0l.57-.35.19-.13.4-.27.23-.17.37-.27.26-.2.36-.28.26-.22.36-.31.25-.22.39-.36.23-.22.46-.47.15-.16.6-.66.15-.18c.15-.18.3-.35.45-.54Z"/><path class="cls-37" d="M84.22,88.1l0,0h0L84,88h0l-.13-.07,0,0-.19-.1h0l-.21-.1-.06,0-.27-.13,0,0-.28-.12-.08,0-.34-.15-.07,0L82,87.06l-.09,0-.43-.17-.08,0-.21-.08L81,86.68l-.11,0-.52-.18-.09,0-.47-.15-.14,0-.6-.18L79,86l-.57-.17-.17,0-.66-.18h0l-.72-.17-.17,0L76,85.26l-.1,0-.78-.16-.19,0-.69-.13-.17,0-.85-.14-.19,0-.4-.06-.25,0-.46-.06-.55-.07-.48,0-.57-.06-.5-.05-.59,0-.52,0-.61,0-.53,0-.65,0-.53,0H63.85l-1.09,0-.29,0-.95,0-.35,0-1.26.09c-.81.07-1.64.16-2.49.26h-.11l-.14,0h0l-.18,0h-.06l-.22,0h-.06l-.29.05h-.06l-.34,0h0l-.39.06-.09,0L55,85l-.12,0-.41.07h-.07l-.34.06-.07,0-.62.11h-.1l-.77.14-.18,0-.62.11-.27,0-.6.12-.27,0-.81.16-.08,0-.91.19-.27,0-.67.15-.32.07-.69.15-.28.06-1,.23-.09,0-.88.21-.31.08-.69.17-.33.09-.73.19-.26.07c-.32.09-.65.17-1,.27l-.21.06-.74.22-.32.09-.65.2-.31.1-.73.24-.16,0,0,0-.52.18-.26.09-.76.28,0,0h0l-.09,0-.07,0-.13,0-.07,0L36,89.7a.32.32,0,0,0-.09,0l-.22.07-.07,0-.23.07-.1,0L35,90,35,90l-.31.1-.09,0-.33.1-.08,0-.34.1-.07,0-.36.1h0l-.37.11h0l-.36.1h0l-.34.08h0l-.31.07h0l-.28,0h0l-.15,0H31.3l-.16,0H31l1,.83h.17l.16,0h0l.15,0h0l.28,0h0l.31-.07h.05l.33-.09h0l.36-.09h0l.36-.1h0l.36-.1.07,0,.34-.1.09,0,.32-.1.09,0,.3-.09.09,0,.26-.08.11,0,.22-.07.07,0,.22-.07.09,0,.18,0,.07,0,.13,0,.07,0a.32.32,0,0,1,.09,0l0,0h0l.76-.28.21-.08.58-.2.13-.05.79-.26.28-.08.68-.22.3-.08.79-.24.16,0,1-.28.22-.06.76-.2.32-.08.71-.18.29-.07.9-.22h.08l1-.23.27-.06.7-.16.31-.06.69-.15.26-.06.91-.18.09,0,.79-.16.29-.06.58-.11.29,0,.58-.11.22,0,.75-.14.17,0L55,86l1-.17h0c1.37-.23,2.27-.37,2.43-.39.85-.11,1.68-.19,2.49-.26l1.25-.1.35,0,1-.05h.29c.39,0,.78,0,1.17,0h1.78l.69,0h.53l.65,0,.52,0,.62,0,.52,0,.59.05.5,0,.57.06.48,0,.55.07.46.06.65.1.18,0,.86.15.17,0,.69.13.19,0,.78.17.11,0,.65.15.19.05.71.17h0l.65.17.17,0,.58.17h0l.6.19.14,0,.47.16.09,0,.52.18.1,0,.42.15.07,0,.44.17.07,0,.36.14,0,0,.36.15.06,0,.29.12,0,0,.27.12.06,0,.21.1h0l.19.1h0l.13.08h0l.1,0,0,0,0,0Z"/><path class="cls-37" d="M109.79,115.86l-.44-.42-.28-.28-.42-.43c-.1-.1-.19-.21-.28-.31L108,114l-.28-.33-.41-.51-.26-.34c-.15-.19-.29-.39-.44-.6l-.21-.3q-.31-.47-.63-1c-.29-.4-5.83-8-4-16.94,0,0,0-.08,0-.16a11.93,11.93,0,0,1,2.35-4.09c.28-.33.55-.66.83-1A11.25,11.25,0,0,0,102.55,93c-1.83,8.93,3.71,16.55,4,17s.42.65.63,1l.22.3c.14.2.29.41.44.6s.17.22.25.33l.42.52.27.32.42.47c.09.1.18.21.27.3l.43.44.27.28.46.43.24.22.55.47.16.14.71.56.17.12.54.39.26.17.44.3.29.17.41.25.29.16.41.23a2.44,2.44,0,0,0,.28.14l.41.21.26.13.42.19.23.1.56.23.1,0,.58.22.4.14.13,0c.35.12.68.22,1,.3l.14,0,.32.08.17,0,.27.06.17,0,.23.05.16,0,.21,0,.14,0,.22,0h.07l.23,0h0l.46,0h0l.16,0h.2c.44,0,.86.06,1.27.07h.45l.76,0,.87,0h.38l1.18-.07.84-.09.24,0,.58-.08.22,0,.83-.14.1,0,.87-.19.19,0,.72-.19.11,0c.27-.08.53-.15.78-.24l.23-.07.3-.1.25-.09.28-.11.24-.09.27-.11.23-.1.26-.11.22-.1.25-.12.2-.09.25-.13.19-.09.24-.13.17-.1.23-.13.16-.09.23-.14.16-.09.21-.14.15-.1.2-.13.15-.1.18-.13.14-.1.17-.13.14-.1.15-.12.14-.11.13-.11.14-.12.12-.09a.86.86,0,0,1,.14-.13l.09-.08.14-.13.08-.07.15-.14.05-.06a.93.93,0,0,0,.14-.14l.05,0,.13-.14,0,0,.15-.16h0l.26-.28c-.28.32-.55.65-.83,1l-.19.21-.06.07-.12.13,0,0-.12.13,0,0-.11.1a.6.6,0,0,1-.08.08l-.11.11-.09.08-.12.11-.1.1-.12.1-.12.1-.13.12-.12.1-.14.11-.14.11-.14.11-.15.12-.15.11-.16.11a.91.91,0,0,1-.16.11l-.17.12L137,118l-.19.13-.17.1-.2.13-.19.11-.17.1,0,0-.19.1-.22.12-.19.11-.23.12-.21.1-.24.12-.22.1-.25.12-.22.09-.27.11-.24.1-.28.11L133,120l-.29.1-.25.09-.2.07-.07,0-.77.23-.13,0c-.23.07-.46.13-.7.18l-.2,0-.86.19-.13,0-.79.14-.13,0-.13,0-.53.07-.27,0-.83.09-1.19.07h-.4l-.84,0h-.06l-.72,0h-.43c-.42,0-.84,0-1.27-.07h-.38l-.2,0h0l-.2,0h-.1l-.17,0-.12,0h-.06l-.1,0-.18,0-.18,0-.19,0-.21,0-.19,0-.25-.05-.18,0-.3-.07-.17,0-.48-.14h0l-.47-.15-.2-.06-.3-.11h0l-.62-.23h0l-.62-.26-.21-.09-.44-.2-.26-.13-.41-.2-.28-.15-.4-.22-.29-.17-.42-.25-.28-.18-.44-.28-.27-.18-.53-.38-.18-.13c-.23-.18-.47-.36-.7-.56l-.18-.15-.53-.45Z"/><path class="cls-40" d="M152.58,81.57l-.17,0a41.31,41.31,0,0,1-5.67-.57c-8.14-1.62-20.65-1.32-21.31-1.31-.86,0-1.69.09-2.5.16C107.79,81.16,100,87.37,99.6,87.7c-.11,1.29-1.7,2.08-1.78,2.12-1.06-.8-4.6-1.34-5.41-1.27s-4.18,1.2-5.09,2.17c-.09,0-1.79-.55-2.12-1.79-.46-.26-9.17-5.06-24.31-3.77-.81.07-1.64.15-2.49.26-.65.1-13,1.92-20.79,4.9a43.75,43.75,0,0,1-5.49,1.52H32l.31,3.8a7,7,0,0,1,1.55-.31,2.48,2.48,0,0,1,1.81.37c1,.84,1.78,4.71,2.23,7.34s3.89,14.83,9.6,19.56c3.67,3.35,8.44,6.16,16.42,5.49a40.85,40.85,0,0,0,8.49-1.76c2.45-1.19,10-3.46,13.89-17.69A96.5,96.5,0,0,1,89.4,96.33c.07-.13,1.38-2.55,3.44-2.83,2.08-.08,3.79,2.09,3.88,2.21a97.59,97.59,0,0,1,5.19,11.6c6.27,13.36,14,14.32,16.67,15.08a40.28,40.28,0,0,0,8.67.3c8-.68,12.2-4.27,15.25-8.19,4.84-5.62,6.16-18.24,6.16-20.9s.11-6.61,1-7.61a2.48,2.48,0,0,1,1.72-.67,7.35,7.35,0,0,1,1.59,0ZM83.09,112.85c-4.41,10.8-13.64,12.9-14.12,13a30.14,30.14,0,0,1-4.84.83c-9.7.83-14.29-3.8-14.53-4-9.05-8.61-9.06-17.21-9.52-22.81a8.11,8.11,0,0,1,3.77-8c5.27-3.33,11.77-4.44,16-4.8a37.16,37.16,0,0,1,4.43-.15C80.15,86.61,84,95,84.18,95.47,87.48,104,83.31,112.4,83.09,112.85Zm57.3,2.06c-.19.29-3.93,5.62-13.63,6.45a30.9,30.9,0,0,1-4.91,0c-.5,0-9.95-.54-16.12-10.44-.29-.4-5.83-8-4-16.94.12-.48,2.47-9.42,18.16-11.8a37.9,37.9,0,0,1,4.4-.6c4.23-.36,10.82-.36,16.58,2a8.09,8.09,0,0,1,5.06,7.21C146.42,96.42,147.86,104.9,140.39,114.91Z"/><path class="cls-37" d="M100.43,86.72l0,0h0a.36.36,0,0,1,.09-.08h0l.12-.1,0,0,.17-.12,0,0,.19-.13.05,0,.25-.17,0,0,.26-.17.06,0,.32-.2.06,0,.31-.19.08,0L103,85l.07,0,.2-.11.18-.11.1-.06.47-.26.09,0,.44-.23.13-.07.56-.28,0,0,.54-.26.16-.07.62-.29h0l.67-.29.17-.07.63-.26.1,0,.74-.3.18-.07.66-.24.16-.06.82-.28.17-.06.39-.13.24-.08.44-.14.53-.16.47-.13.55-.16.48-.13.58-.15.5-.12.6-.14.52-.12.63-.13.52-.11.68-.13.52-.09.74-.12.5-.08.08,0,1.07-.15.29,0,1-.11.35,0,1.25-.12c.82-.07,1.65-.12,2.5-.16h6.93l.83,0h.08l.93,0h.27l.69,0,.33,0,.7,0h.29l1,.06h.1q.45,0,.9.06l.32,0,.71,0,.34,0,.75.07.27,0,1,.1.22,0,.78.09.32,0,.68.08.32,0,.76.11.16,0h0l.55.1.26,0,.8.15h.25l.13,0H148l.18,0h.1l.23,0h.07l.24,0h.1l.27,0h.09l.32,0,.09,0,.34,0h.09l.35,0h.07l.38,0h0l.38,0h0l.38,0h0l.35,0h0c.11,0,.39,1,.39,1h-1.26l-.34,0h0l-.37,0h0l-.38,0h0l-.37,0h-.08l-.34,0h-.1l-.33,0-.1,0-.31,0h-.1l-.26,0H148l-.23,0h-.08l-.23,0h-.09l-.18,0h-.08l-.14,0h-.25l-.8-.15-.21,0-.61-.11-.14,0-.82-.12-.29,0-.71-.09-.3,0-.82-.1-.17,0-1-.1-.23,0-.78-.07-.33,0c-.24,0-.48,0-.73-.06l-.3,0-.92-.06h-.08l-1-.06h-.29l-.71,0-.32,0-.7,0h-.27l-.93,0h-.08l-.82,0h-4.47l-2.46,0c-.86,0-1.69.09-2.5.16l-1.26.12-.35,0-.94.11-.29,0-1.16.17-.5.08-.73.12-.52.09-.68.13-.52.11-.64.13-.51.12-.61.14-.49.12-.58.15-.48.13-.56.16-.46.13-.54.17-.43.13-.64.21-.17.06-.82.28-.16.06-.65.24-.19.07-.74.3-.1,0-.62.26-.17.07-.67.29h0l-.62.29-.15.07-.55.27,0,0-.56.29-.12.06-.45.24-.08,0-.48.27-.1,0-.38.22-.07,0-.4.24-.07,0-.32.2,0,0-.33.21-.06,0-.26.17,0,0-.24.17,0,0-.19.13h0l-.17.13,0,0-.12.09h0l-.1.08h0l-.05,0Z"/><path class="cls-41" d="M96.72,89.37c-2.15-.47-2.85-.88-4.2-.79-1,.07-1.76.44-4.2,1.51l2.2,4.25a5.86,5.86,0,0,1,2.32-.92,4.28,4.28,0,0,1,2.42.52Z"/></g></g></g></svg>