<svg xmlns="http://www.w3.org/2000/svg" viewBox="0 0 183 47.12"><defs><style>.cls-1{fill:#c83b8d;}.cls-2{fill:#fff;}</style></defs><title>conocermas-hover-btn</title><g id="Capa_2" data-name="Capa 2"><g id="_1200" data-name="1200"><path class="cls-1" d="M171.57,47.12H11.43A11.43,11.43,0,0,1,0,35.69V11.43A11.43,11.43,0,0,1,11.43,0H171.57A11.43,11.43,0,0,1,183,11.43V35.69A11.43,11.43,0,0,1,171.57,47.12Z"/><path class="cls-2" d="M34.28,27.07a.52.52,0,0,1,.41.19l1.17,1.27a7.44,7.44,0,0,1-2.71,2,9.35,9.35,0,0,1-3.85.72,9.14,9.14,0,0,1-3.58-.68A8,8,0,0,1,23,28.71a8.49,8.49,0,0,1-1.75-2.92,11.1,11.1,0,0,1-.6-3.73,10.43,10.43,0,0,1,.64-3.73,8.55,8.55,0,0,1,1.82-2.92,8.38,8.38,0,0,1,2.82-1.91,9.4,9.4,0,0,1,3.61-.67,8.86,8.86,0,0,1,3.46.63,8.63,8.63,0,0,1,2.61,1.69l-1,1.37a1.09,1.09,0,0,1-.24.24.68.68,0,0,1-.37.09,1,1,0,0,1-.58-.23q-.31-.23-.81-.51a6,6,0,0,0-3.11-.75,6.15,6.15,0,0,0-2.38.45,5.1,5.1,0,0,0-1.86,1.32,6.31,6.31,0,0,0-1.21,2.11,8.52,8.52,0,0,0-.43,2.82,8.4,8.4,0,0,0,.45,2.85A6.22,6.22,0,0,0,25.33,27a5.41,5.41,0,0,0,1.86,1.32,5.9,5.9,0,0,0,2.3.45,10.66,10.66,0,0,0,1.35-.08,5.71,5.71,0,0,0,1.1-.27,4.63,4.63,0,0,0,.95-.46,6.48,6.48,0,0,0,.89-.67A.76.76,0,0,1,34.28,27.07Z"/><path class="cls-2" d="M43.19,18.1a6.84,6.84,0,0,1,2.57.46,5.56,5.56,0,0,1,2,1.32A6,6,0,0,1,49,22a8.72,8.72,0,0,1,0,5.47,6,6,0,0,1-1.25,2.08,5.56,5.56,0,0,1-2,1.32,7.29,7.29,0,0,1-5.15,0,5.51,5.51,0,0,1-2-1.32,5.89,5.89,0,0,1-1.26-2.08,8.72,8.72,0,0,1,0-5.47,5.85,5.85,0,0,1,1.26-2.07,5.51,5.51,0,0,1,2-1.32A6.78,6.78,0,0,1,43.19,18.1Zm0,11.08A3,3,0,0,0,45.77,28a5.61,5.61,0,0,0,.85-3.32,5.65,5.65,0,0,0-.85-3.33,3,3,0,0,0-2.58-1.18,3,3,0,0,0-2.62,1.18,5.57,5.57,0,0,0-.85,3.33A5.54,5.54,0,0,0,40.57,28,3,3,0,0,0,43.19,29.18Z"/><path class="cls-2" d="M54.52,20a8.79,8.79,0,0,1,.86-.77,5.85,5.85,0,0,1,.95-.6,5.21,5.21,0,0,1,1.07-.38,4.72,4.72,0,0,1,1.23-.14,4.46,4.46,0,0,1,1.85.35,3.58,3.58,0,0,1,1.34,1A4.31,4.31,0,0,1,62.65,21a6.8,6.8,0,0,1,.27,2V31.1H60.24V23a3,3,0,0,0-.6-2,2.23,2.23,0,0,0-1.82-.72,3.53,3.53,0,0,0-1.67.41,5.87,5.87,0,0,0-1.45,1.13V31.1H52V18.3h1.64a.66.66,0,0,1,.7.51Z"/><path class="cls-2" d="M71.63,18.1a6.8,6.8,0,0,1,2.57.46,5.47,5.47,0,0,1,2,1.32A5.83,5.83,0,0,1,77.41,22a8.72,8.72,0,0,1,0,5.47,5.87,5.87,0,0,1-1.25,2.08,5.47,5.47,0,0,1-2,1.32,7.29,7.29,0,0,1-5.15,0,5.6,5.6,0,0,1-2-1.32,5.87,5.87,0,0,1-1.25-2.08,7.82,7.82,0,0,1-.44-2.73A7.84,7.84,0,0,1,65.83,22a5.83,5.83,0,0,1,1.25-2.07,5.6,5.6,0,0,1,2-1.32A6.85,6.85,0,0,1,71.63,18.1Zm0,11.08A3,3,0,0,0,74.21,28a5.54,5.54,0,0,0,.85-3.32,5.57,5.57,0,0,0-.85-3.33,3,3,0,0,0-2.58-1.18A3,3,0,0,0,69,21.37a5.57,5.57,0,0,0-.86,3.33A5.54,5.54,0,0,0,69,28,3,3,0,0,0,71.63,29.18Z"/><path class="cls-2" d="M89.49,20.81a1.44,1.44,0,0,1-.23.25.54.54,0,0,1-.33.09.86.86,0,0,1-.45-.15l-.55-.34a4.34,4.34,0,0,0-.77-.33A3.64,3.64,0,0,0,86,20.18a3.68,3.68,0,0,0-1.54.31,3,3,0,0,0-1.11.9,4,4,0,0,0-.66,1.42,7.24,7.24,0,0,0-.22,1.88,7,7,0,0,0,.24,1.92A3.86,3.86,0,0,0,83.42,28a2.94,2.94,0,0,0,1.08.88,3.3,3.3,0,0,0,1.43.3A3.76,3.76,0,0,0,87.2,29,4.34,4.34,0,0,0,88,28.6c.22-.15.41-.29.56-.41a.76.76,0,0,1,.5-.19.58.58,0,0,1,.5.25l.77,1a5.16,5.16,0,0,1-1,1,6.25,6.25,0,0,1-1.2.63,6.4,6.4,0,0,1-1.3.35,9,9,0,0,1-1.37.11,5.52,5.52,0,0,1-2.23-.45,5.27,5.27,0,0,1-1.81-1.29,6.23,6.23,0,0,1-1.22-2.07,8.08,8.08,0,0,1-.45-2.79,8.19,8.19,0,0,1,.41-2.63A5.7,5.7,0,0,1,81.31,20a5.2,5.2,0,0,1,1.92-1.38,6.56,6.56,0,0,1,2.63-.49,6.28,6.28,0,0,1,2.46.45,5.91,5.91,0,0,1,1.89,1.28Z"/><path class="cls-2" d="M94.23,24.91a6.38,6.38,0,0,0,.34,1.89,3.87,3.87,0,0,0,.77,1.32,3,3,0,0,0,1.16.79,4.22,4.22,0,0,0,1.5.26A4.32,4.32,0,0,0,99.37,29a5.94,5.94,0,0,0,1-.4c.29-.14.53-.28.73-.4a1.11,1.11,0,0,1,.56-.18.58.58,0,0,1,.5.25l.77,1a4.73,4.73,0,0,1-1.09,1,6.35,6.35,0,0,1-1.28.63,7.26,7.26,0,0,1-1.39.35,9.65,9.65,0,0,1-1.4.11,6.6,6.6,0,0,1-2.46-.45,5.53,5.53,0,0,1-2-1.31A6.07,6.07,0,0,1,92,27.38a8.34,8.34,0,0,1-.47-2.95A7.22,7.22,0,0,1,92,22a6,6,0,0,1,1.2-2,5.71,5.71,0,0,1,1.91-1.35,6.27,6.27,0,0,1,2.55-.49,6,6,0,0,1,2.18.38,5,5,0,0,1,1.74,1.12,5.25,5.25,0,0,1,1.13,1.82,6.86,6.86,0,0,1,.41,2.44,1.61,1.61,0,0,1-.14.84.55.55,0,0,1-.5.21Zm6.45-1.65a4,4,0,0,0-.2-1.27,3,3,0,0,0-.57-1A2.5,2.5,0,0,0,99,20.3a3.21,3.21,0,0,0-1.28-.25,3.17,3.17,0,0,0-2.32.85,4.05,4.05,0,0,0-1.06,2.36Z"/><path class="cls-2" d="M108.16,20.67a5.72,5.72,0,0,1,1.46-1.91,3.11,3.11,0,0,1,2-.7,3.27,3.27,0,0,1,.78.09,2.26,2.26,0,0,1,.65.29l-.19,2a.47.47,0,0,1-.15.29.46.46,0,0,1-.29.09,4,4,0,0,1-.54-.07,3.51,3.51,0,0,0-.74-.07,2.8,2.8,0,0,0-1,.16,2.42,2.42,0,0,0-.78.48,3.34,3.34,0,0,0-.61.76,10,10,0,0,0-.49,1v8h-2.7V18.3h1.57a.82.82,0,0,1,.59.16A.91.91,0,0,1,108,19Z"/><path class="cls-2" d="M120.61,31.1V18.3h1.64a.66.66,0,0,1,.7.51l.18,1.12a7.11,7.11,0,0,1,.72-.73,4.84,4.84,0,0,1,.81-.58,4.22,4.22,0,0,1,.93-.38,3.76,3.76,0,0,1,1.08-.14,3.67,3.67,0,0,1,1.13.17,2.89,2.89,0,0,1,.91.51,3.32,3.32,0,0,1,.69.79,4.5,4.5,0,0,1,.47,1,4.27,4.27,0,0,1,.73-1.15,4,4,0,0,1,1-.77,4.59,4.59,0,0,1,1.15-.45A5.75,5.75,0,0,1,134,18.1a5,5,0,0,1,1.84.32,3.71,3.71,0,0,1,1.37.95A4.28,4.28,0,0,1,138,20.9a6.76,6.76,0,0,1,.29,2.05V31.1h-2.71V23a3,3,0,0,0-.58-2,2.15,2.15,0,0,0-1.73-.69,2.65,2.65,0,0,0-1,.18,2.28,2.28,0,0,0-.79.51,2.51,2.51,0,0,0-.53.85,3.28,3.28,0,0,0-.19,1.18V31.1h-2.71V23a3.11,3.11,0,0,0-.56-2.06,2.07,2.07,0,0,0-1.66-.66,2.69,2.69,0,0,0-1.39.38,4.66,4.66,0,0,0-1.19,1.05V31.1Z"/><path class="cls-2" d="M141.17,20.08a7.32,7.32,0,0,1,5.17-2,5.05,5.05,0,0,1,2,.36,3.83,3.83,0,0,1,1.44,1,4.49,4.49,0,0,1,.9,1.55,6.25,6.25,0,0,1,.3,2V31.1h-1.2a1.16,1.16,0,0,1-.59-.12.88.88,0,0,1-.34-.48l-.27-1.05a9.54,9.54,0,0,1-1,.79,6.24,6.24,0,0,1-1,.58,4.81,4.81,0,0,1-1.09.36,6.43,6.43,0,0,1-1.29.12,4.84,4.84,0,0,1-1.45-.21,3.21,3.21,0,0,1-1.16-.65,3.12,3.12,0,0,1-.78-1.07,3.87,3.87,0,0,1-.28-1.51,2.85,2.85,0,0,1,.4-1.44,3.58,3.58,0,0,1,1.3-1.26,8.52,8.52,0,0,1,2.4-.93,17.52,17.52,0,0,1,3.68-.41V23a3.09,3.09,0,0,0-.59-2.06,2.19,2.19,0,0,0-1.74-.68,4.06,4.06,0,0,0-1.3.19,6.11,6.11,0,0,0-.92.43l-.69.42a1.16,1.16,0,0,1-.64.19.79.79,0,0,1-.47-.14,1.22,1.22,0,0,1-.32-.36Zm7.16,5.42a18.45,18.45,0,0,0-2.44.23,6.79,6.79,0,0,0-1.61.47,2.11,2.11,0,0,0-.88.67,1.46,1.46,0,0,0-.27.85,2,2,0,0,0,.14.77,1.43,1.43,0,0,0,.4.53,1.66,1.66,0,0,0,.61.3,2.59,2.59,0,0,0,.76.1,3.78,3.78,0,0,0,1.81-.4,5.45,5.45,0,0,0,1.48-1.15Zm1.74-12.67-3,3.25a1.31,1.31,0,0,1-.4.31,1.23,1.23,0,0,1-.51.09h-1.61l1.83-3a1.22,1.22,0,0,1,.4-.46,1.31,1.31,0,0,1,.69-.15Z"/><path class="cls-2" d="M161.76,20.62a.63.63,0,0,1-.23.25.59.59,0,0,1-.31.08,1,1,0,0,1-.47-.14l-.59-.29a4.82,4.82,0,0,0-.8-.3,4.18,4.18,0,0,0-1.07-.13,3.18,3.18,0,0,0-.91.12,2,2,0,0,0-.69.34,1.67,1.67,0,0,0-.44.52,1.33,1.33,0,0,0-.15.63,1.09,1.09,0,0,0,.28.75,2.28,2.28,0,0,0,.73.52,6.72,6.72,0,0,0,1,.4l1.18.37a12.08,12.08,0,0,1,1.18.47,4,4,0,0,1,1,.65,2.86,2.86,0,0,1,.73.92,3,3,0,0,1,.28,1.33,4.18,4.18,0,0,1-.33,1.67,3.81,3.81,0,0,1-1,1.33,4.36,4.36,0,0,1-1.56.88,7,7,0,0,1-2.14.31,6.88,6.88,0,0,1-1.29-.12,7.31,7.31,0,0,1-1.18-.33,5.84,5.84,0,0,1-1-.49,4.77,4.77,0,0,1-.86-.63l.63-1a.78.78,0,0,1,.28-.29.77.77,0,0,1,.42-.11,1,1,0,0,1,.52.17c.17.11.37.24.6.37a4.78,4.78,0,0,0,.84.37,3.81,3.81,0,0,0,1.22.17,3.22,3.22,0,0,0,1-.15,2,2,0,0,0,.73-.39,1.79,1.79,0,0,0,.43-.57,1.75,1.75,0,0,0,.13-.68,1.2,1.2,0,0,0-.27-.81,2.36,2.36,0,0,0-.74-.54,6.86,6.86,0,0,0-1-.4c-.39-.12-.79-.24-1.19-.38s-.79-.29-1.18-.46a4.37,4.37,0,0,1-1-.67,3,3,0,0,1-.73-1,3.26,3.26,0,0,1-.28-1.43,3.44,3.44,0,0,1,.31-1.45,3.55,3.55,0,0,1,.9-1.22,4.56,4.56,0,0,1,1.47-.84,6.27,6.27,0,0,1,2-.3,6.51,6.51,0,0,1,2.35.41,5.17,5.17,0,0,1,1.77,1.13Z"/></g></g></svg>