<svg xmlns="http://www.w3.org/2000/svg" viewBox="0 0 239.83 319.72"><defs><style>.cls-1{isolation:isolate;}.cls-2{fill:#571211;}.cls-3{fill:#480202;}.cls-4{fill:#af1e26;}.cls-24,.cls-4{opacity:0.8;}.cls-10,.cls-14,.cls-17,.cls-24,.cls-31,.cls-34,.cls-38,.cls-4,.cls-40,.cls-44,.cls-45,.cls-7,.cls-8{mix-blend-mode:multiply;}.cls-5,.cls-7{fill:#f7c3a3;}.cls-6{fill:#fad0b3;}.cls-24,.cls-46,.cls-8{fill:#ecb799;}.cls-34,.cls-45,.cls-8{opacity:0.4;}.cls-10,.cls-9{fill:#8b3b14;}.cls-10,.cls-14,.cls-38,.cls-44{opacity:0.5;}.cls-11{fill:#5c1c0f;}.cls-12{fill:#faf2e5;}.cls-13{fill:#863e13;}.cls-15{fill:#a99985;}.cls-16{fill:#6e4821;}.cls-18{fill:#8d2213;}.cls-19{fill:#111;}.cls-20,.cls-37{fill:#fff;}.cls-21{fill:#2e0e14;}.cls-22{fill:#6d1211;}.cls-23{fill:#1d1d1b;}.cls-25{fill:#edb99c;}.cls-26{fill:#651d15;}.cls-27{fill:#c12818;}.cls-28{fill:#fbba34;}.cls-29{fill:#f09331;}.cls-30,.cls-40{fill:#636468;}.cls-31{fill:#389a9f;}.cls-32,.cls-47{fill:none;}.cls-32{stroke:#3e1110;}.cls-32,.cls-37{stroke-miterlimit:10;stroke-width:0.16px;}.cls-33,.cls-34{fill:#4bb2ba;}.cls-35{fill:#bd66a4;}.cls-36{fill:#bd4ea4;}.cls-37{stroke:#858180;}.cls-38{fill:#b2b3b9;}.cls-39{fill:#858180;}.cls-41{fill:#4b5258;}.cls-42,.cls-44{fill:#b0b0b0;}.cls-43{fill:#989593;}</style></defs><title>emmasection1espejo</title><g class="cls-1"><g id="Capa_2" data-name="Capa 2"><g id="_1200" data-name="1200"><path class="cls-2" d="M123.5,167.33l0,0c-2.15,6.89-5.49,12.88-12,16.66a24.16,24.16,0,0,1-19,2.05,20.7,20.7,0,0,1-9-5.59,8,8,0,0,1-.63-.69c-.2-.23-.4-.46-.59-.7,0,0,0,0,0,0l-.54-.67a20.63,20.63,0,0,1-1.19-1.7c-.09-.13-.18-.28-.27-.43s-.27-.44-.39-.66a27.37,27.37,0,0,1-1.42-2.81L78,171.69a50.23,50.23,0,0,1-2.44-9.25c-.5-2.72-.65-5.61-1.34-8.3,2.64.43,5.76-.18,8.38-.61a10.78,10.78,0,0,0,1.86-.47.23.23,0,0,0,.23,0,9.1,9.1,0,0,0,1-.48,15.19,15.19,0,0,0,4.86-3.5.2.2,0,0,0-.29-.28,12.07,12.07,0,0,1-2.15,1.63c2.24-3,2.42-7.61,1.66-11.35,1.24.6,2.47,1.19,3.71,1.77a.44.44,0,0,0,.48-.08,55.91,55.91,0,0,0,16.35,5.58l-.77,5.25a24.46,24.46,0,0,0-.25,3.18,7.85,7.85,0,0,0,2,5.74C114.62,163.9,119.94,164.36,123.5,167.33Z"/><path class="cls-2" d="M200.08,69.68c-1.49,2.22-3.15,4.92-5.84,5.61a16.21,16.21,0,0,1-4.13,5.26,14,14,0,0,1-2.92,1.91A12.12,12.12,0,0,1,181,83.6a32.12,32.12,0,0,0-.54,4.42v0l-69.35,57.43-.08,0c-1.16-.22-2.3-.48-3.44-.76a55.51,55.51,0,0,1-13.32-5.08A37.59,37.59,0,0,1,79.1,125c-3.06-5.58-3.94-12-4.3-18.33l-.65-1c-.46,12,3.57,22.83,13.14,30.61.29.25.61.46.91.69-9.69-5.34-19.16-11.1-26.86-19.17a67,67,0,0,1-7.88-10,62.92,62.92,0,0,1-9-21.54c-2.35-11.32.12-22.91,4.32-33.54,0,0,0,0,0,0,.64-1.59,1.31-3.17,2-4.71a72.85,72.85,0,0,1,9.9-16.62,51.93,51.93,0,0,1,5.43-5.57c1.06-.9,2.14-1.79,3.24-2.64,1.43-1.42,2.87-2.81,4.29-4.18l.5-.36a.15.15,0,0,1,.21,0C89.21,8.47,109.47-.86,127.65.06c13.4.68,22.47,2.29,34.94,7.29,5.29,2.12,12.44,7.46,16.85,11.13s6.74,11.64,11,15.54a6.14,6.14,0,0,0,1.65.24c2.75,0,4.35-.84,5.09-3.6a.17.17,0,0,1,.32,0,4.06,4.06,0,0,1-.29,2.47,4.5,4.5,0,0,1,.21,1.13,4.35,4.35,0,0,1,0,1h0a6.6,6.6,0,0,1-.14.89,5.39,5.39,0,0,1-.18.66v0l0,.07a2.17,2.17,0,0,1-.17.42.13.13,0,0,1,0,.06.75.75,0,0,1-.07.12,2.53,2.53,0,0,1-.18.37.11.11,0,0,1,0,.06,4.94,4.94,0,0,1-.32.55h0c-.15.21-.31.42-.47.61a5.34,5.34,0,0,1-1.11,1c5.74,2.41,8.38,11.2,8.61,16.81A21,21,0,0,1,200.08,69.68Z"/><path class="cls-3" d="M187.19,82.46l-6.75,5.6-69.35,57.43-.08,0-3.44-.76a55.51,55.51,0,0,1-13.32-5.08A37.59,37.59,0,0,1,79.1,125c-3.06-5.58-3.94-12-4.3-18.33l-.65-1c-.46,12,3.57,22.83,13.14,30.61.29.25.61.46.91.69-9.69-5.34-19.16-11.1-26.86-19.17a67,67,0,0,1-7.88-10c16.12,9.9,6.49-4.6,7.17-17.44.72-13.61,12.81-16.7,15.54-13S83.41,69,83.41,69c4.14-17.69,39.19-23.58,66-22.52s42.09-6,42.09-6-7.93,16.41-2.24,24C193.48,70.17,191.08,76.89,187.19,82.46Z"/><path class="cls-2" d="M123.5,167.33l0,0c-2.15,6.89-5.49,12.88-12,16.66a24.16,24.16,0,0,1-19,2.05,20.7,20.7,0,0,1-9-5.59,8,8,0,0,1-.63-.69c-.2-.23-.4-.46-.59-.7,0,0,0,0,0,0l-.54-.67a20.63,20.63,0,0,1-1.19-1.7c-.09-.13-.18-.28-.27-.43s-.27-.44-.39-.66a27.37,27.37,0,0,1-1.42-2.81L78,171.69a50.23,50.23,0,0,1-2.44-9.25c-.5-2.72-.65-5.61-1.34-8.3,2.64.43,5.76-.18,8.38-.61a10.78,10.78,0,0,0,1.86-.47.23.23,0,0,0,.23,0,9.1,9.1,0,0,0,1-.48,15.19,15.19,0,0,0,4.86-3.5.2.2,0,0,0-.29-.28,12.07,12.07,0,0,1-2.15,1.63c2.24-3,2.42-7.61,1.66-11.35,1.24.6,2.47,1.19,3.71,1.77a.44.44,0,0,0,.48-.08,55.91,55.91,0,0,0,16.35,5.58l-.77,5.25a24.46,24.46,0,0,0-.25,3.18,7.85,7.85,0,0,0,2,5.74C114.62,163.9,119.94,164.36,123.5,167.33Z"/><path class="cls-4" d="M123.5,167.33l0,0c-2.15,6.89-5.49,12.88-12,16.66a24.16,24.16,0,0,1-19,2.05,20.7,20.7,0,0,1-9-5.59,8,8,0,0,1-.63-.69c-.2-.23-.4-.46-.59-.7,0,0,0,0,0,0l-.54-.67a20.63,20.63,0,0,1-1.19-1.7c-.09-.13-.18-.28-.27-.43s-.27-.44-.39-.66a27.37,27.37,0,0,1-1.42-2.81L78,171.69a50.23,50.23,0,0,1-2.44-9.25c-.5-2.72-.65-5.61-1.34-8.3,2.64.43,5.76-.18,8.38-.61a10.78,10.78,0,0,0,1.86-.47.23.23,0,0,0,.23,0,9.1,9.1,0,0,0,1-.48,15.19,15.19,0,0,0,4.86-3.5.2.2,0,0,0-.29-.28,12.07,12.07,0,0,1-2.15,1.63c2.24-3,2.42-7.61,1.66-11.35,1.24.6,2.47,1.19,3.71,1.77a.44.44,0,0,0,.48-.08,55.91,55.91,0,0,0,16.35,5.58l-.77,5.25a24.46,24.46,0,0,0-.25,3.18,7.85,7.85,0,0,0,2,5.74C114.62,163.9,119.94,164.36,123.5,167.33Z"/><path class="cls-5" d="M123.54,167.35c-2.15,6.89-5.49,12.88-12,16.66a24.16,24.16,0,0,1-19,2.05,20.7,20.7,0,0,1-9-5.59,8,8,0,0,1-.63-.69c-.2-.23-.4-.46-.59-.7,0,0,0,0,0,0l-.54-.67a20.63,20.63,0,0,1-1.19-1.7c-.09-.13-.18-.28-.27-.43s-.27-.44-.39-.66a27.37,27.37,0,0,1-1.42-2.81L78,171.69a50.23,50.23,0,0,1-2.44-9.25c-.5-2.72-.65-5.61-1.34-8.3,2.64.43,5.76-.18,8.38-.61a10.78,10.78,0,0,0,1.86-.47.23.23,0,0,0,.23,0,9.1,9.1,0,0,0,1-.48,15.19,15.19,0,0,0,4.86-3.5.2.2,0,0,0-.29-.28,12.07,12.07,0,0,1-2.15,1.63c2.24-3,2.42-7.61,1.66-11.35,1.24.6,2.47,1.19,3.71,1.77a.44.44,0,0,0,.48-.08,55.91,55.91,0,0,0,16.35,5.58l-.77,5.25a24.46,24.46,0,0,0-.25,3.18,7.85,7.85,0,0,0,2,5.74c3.24,3.37,8.56,3.83,12.12,6.8Z"/><path class="cls-6" d="M123.54,167.35c-2.15,6.89-5.49,12.88-12,16.66a24.16,24.16,0,0,1-19,2.05,20.7,20.7,0,0,1-9-5.59,8,8,0,0,1-.63-.69c-.2-.23-.4-.46-.59-.7,0,0,0,0,0,0l-.54-.67a20.63,20.63,0,0,1-1.19-1.7c-.09-.13-.18-.28-.27-.43s-.27-.44-.39-.66a27.37,27.37,0,0,1-1.42-2.81L78,171.69a50.23,50.23,0,0,1-2.44-9.25c-.5-2.72-.65-5.61-1.34-8.3,2.64.43,5.76-.18,8.38-.61a10.78,10.78,0,0,0,1.86-.47.23.23,0,0,0,.23,0,9.1,9.1,0,0,0,1-.48,15.19,15.19,0,0,0,4.86-3.5.2.2,0,0,0-.29-.28,12.07,12.07,0,0,1-2.15,1.63c2.24-3,2.42-7.61,1.66-11.35,1.24.6,2.47,1.19,3.71,1.77a.44.44,0,0,0,.48-.08,55.91,55.91,0,0,0,16.35,5.58l-.77,5.25a24.46,24.46,0,0,0-.25,3.18,7.85,7.85,0,0,0,2,5.74c3.24,3.37,8.56,3.83,12.12,6.8Z"/><path class="cls-7" d="M110.4,146.36l-.77,5.25a17.39,17.39,0,0,1-7.55-1.58c-2.19-1.13-4.26-2.83-6.73-3.34-1.74-.35-2.21,1.75-2.74,3-1.25,2.87-4.87,4.12-7.31,5.83-1.14.8-1.22,1.86-1,3.15.58,4.33.73,8.53,1,12.9a78.41,78.41,0,0,0,1.9,11.93,22.42,22.42,0,0,1-3.58-3,8,8,0,0,1-.63-.69c-.2-.23-.4-.46-.59-.7,0,0,0,0,0,0l-.54-.67a20.63,20.63,0,0,1-1.19-1.7c-.09-.13-.18-.28-.27-.43s-.27-.44-.39-.66a27.37,27.37,0,0,1-1.42-2.81L78,171.69a50.23,50.23,0,0,1-2.44-9.25c-.5-2.72-.65-5.61-1.34-8.3,2.64.43,5.76-.18,8.38-.61a10.78,10.78,0,0,0,1.86-.47.23.23,0,0,0,.23,0,9.1,9.1,0,0,0,1-.48,15.19,15.19,0,0,0,4.86-3.5.2.2,0,0,0-.29-.28,12.07,12.07,0,0,1-2.15,1.63c2.24-3,2.42-7.61,1.66-11.35,1.24.6,2.47,1.19,3.71,1.77a.44.44,0,0,0,.48-.08A55.91,55.91,0,0,0,110.4,146.36Z"/><path class="cls-6" d="M184.51,74.59a.19.19,0,0,0,.05.13,14,14,0,0,1-4.95,7.43,4.94,4.94,0,0,1-.59.43.09.09,0,0,1-.06,0s0,0,0,0h-.06c-.43,0-.87,0-1.3.08-.18,0-.25.3,0,.35.51.12,1,.21,1.49.29h.17l.69.1.26,0c0,.2-.11.42-.15.62a24.24,24.24,0,0,0-.53,2.67,1.5,1.5,0,0,1,0,.2c0,.11,0,.23-.05.35a.41.41,0,0,0,0,.11v0c-.12.9-.18,1.82-.22,2.73v.3h0c0,.18,0,.36,0,.55v.14c0,4.34.63,8.69,1,13.11.09,1,.13,1.92.13,2.87a31.59,31.59,0,0,1-1.36,9.29,36.14,36.14,0,0,1-4.38,9.36,45.72,45.72,0,0,1-5.41,6.78c-.1.09-.18.19-.28.29a50.58,50.58,0,0,1-8.06,6.63c-.59.4-1.19.78-1.79,1.15a43.27,43.27,0,0,1-17.84,5.72c-.65.08-1.29.14-1.95.2h-.1c-.66.07-1.32.12-2,.15-14.38.84-30-.15-42.88-7.16A37.59,37.59,0,0,1,79.1,125c-3.06-5.58-3.94-12-4.3-18.33,0-.32,0-.64,0-1l0-.68h.09a2.34,2.34,0,0,0,.38,0l.25,0a3.28,3.28,0,0,0,.63-.19l.36-.16a4.9,4.9,0,0,0,1.6-1.46l.25-.38a7.38,7.38,0,0,0,.53-1c.12-.26.24-.52.35-.81a9.18,9.18,0,0,0,.32-1A14.52,14.52,0,0,0,80,97.23c0-.29-.4-.32-.46-.07a27.47,27.47,0,0,1-1.4,4.31c-.07.16-.14.31-.22.47a4.4,4.4,0,0,1-.3.52c-1.59,2.65-4.6,1.21-6.4-.33-.17-.14-.33-.29-.49-.45s-.32-.31-.47-.48A13,13,0,0,1,69,99.57l-.3-.47s0,0,0-.06c-.12-.19-.22-.37-.33-.56L68,97.92s0-.06,0-.08c-.1-.19-.19-.38-.28-.57s-.2-.41-.28-.63-.17-.42-.26-.63-.17-.42-.24-.64-.16-.42-.23-.64A27.49,27.49,0,0,1,65.9,92c-.85-3.7-.78-8.26,1.9-11.23C70,78.3,73.05,78.4,75.64,80c3,1.85,3.35,4.91,3.22,8.1,0,.11.15.12.16,0,.11-.48.2-.94.27-1.39A77.61,77.61,0,0,0,81,94.34c.06.21.36.11.33-.1-.06-.41-.13-.83-.2-1.23.12.33.22.67.36,1a.2.2,0,0,0,.38-.11,31.1,31.1,0,0,1-.46-4.12,29.46,29.46,0,0,1,.12-4.3q.09-1,.24-2c.08-.51.17-1,.26-1.53a37.56,37.56,0,0,1,3.47-9.4,7.65,7.65,0,0,0,3.93,3,3.73,3.73,0,0,0,2.69,1.34c.1,0,.14-.15,0-.19-2.55-1.28-2.56-3.62-1.73-5.87a.16.16,0,0,1,0,0c.11-.74,2-10.46,24-15.24l1.21-.26a121.4,121.4,0,0,1,18-2.13c40.83-2.1,52.26-7.52,52.6-7.69-.22.36-5.12,8.26-5.84,16.9h0a9.84,9.84,0,0,0,.45,2,21,21,0,0,0,1.85,3.55A13.08,13.08,0,0,1,184.51,74.59Z"/><path class="cls-8" d="M90.57,70.56a1.09,1.09,0,0,0-.1.25c.08-.61,1.84-10.34,23.67-15.19a1.6,1.6,0,0,1-.38.69c-2.76,2.55-6.35,3.74-9.86,4.89C99.79,62.55,94.52,64,92,67.85a6.25,6.25,0,0,0-.38.61,3,3,0,0,0-.19.32l-.33.6c-.09.18-.18.36-.26.54s-.11.24-.16.37S90.6,70.46,90.57,70.56Z"/><path class="cls-8" d="M141.17,146.44c-.65.08-1.29.14-1.95.2h-.1c-.66.07-1.32.12-2,.15-14.38.84-30-.15-42.88-7.16A37.59,37.59,0,0,1,79.1,125c-3.06-5.58-3.94-12-4.3-18.33,0-.32,0-.64,0-1l0-.68h.09a2.34,2.34,0,0,0,.38,0l.25,0a3.28,3.28,0,0,0,.63-.19,2.32,2.32,0,0,0,.36-.16,4.9,4.9,0,0,0,1.6-1.46l.25-.38a7.38,7.38,0,0,0,.53-1c.12-.26.24-.53.35-.81a9.18,9.18,0,0,0,.32-1,16.59,16.59,0,0,1-2.06,5.87,3.86,3.86,0,0,0-.4,1.37,11.87,11.87,0,0,0,.33,3.4c0,.27.09.52.14.77a35.7,35.7,0,0,0,6,15.07c6.24,8.76,15.74,13.94,25.92,16.7S130.56,146.56,141.17,146.44Z"/><path class="cls-8" d="M77.67,102.47c.19-.33.35-.67.51-1-.09.13-.16.25-.26.38a.52.52,0,0,1-.94-.41c.44-3.16,1.68-6.05,1-9.29a22.19,22.19,0,0,0-1.76-5.72,6.38,6.38,0,0,0-2.44-3,3.94,3.94,0,0,0-5.19,2c-1.4,2.9-.23,5.58-.08,8.56a.52.52,0,0,1-.77.44,3.77,3.77,0,0,1-1.67-1.59c.88,3.42,2.43,7,5.15,9.33C73.06,103.66,76.07,105.11,77.67,102.47Z"/><path class="cls-8" d="M169.52,75.44c1.95-1.93,5.79-5,8.28-2,1.09,1.31,1.15,3.75,2.44,4.83.87.72,1.15-2.35,1.14-2.64a15.41,15.41,0,0,0-.34-2.94c-.56-2.51-1.5-4.85-4.68-4.65a9.62,9.62,0,0,0-5.43,2.52c-3,3.87-7.07,6.61-10.4,10.19-4.8,5.18-5.49,11.62-5.35,18.45,0,1.44.1,2.9.27,4.34.05.43.41,3.62,1.82,2.67a3.2,3.2,0,0,1,1.16-.63,5.69,5.69,0,0,1,2.29-.18c1.71,0,.8-3,.57-3.92-1.19-4.73-3.9-9.8-1.38-14.56C162.2,82.53,166,78.85,169.52,75.44Z"/><path class="cls-9" d="M74.1,85.71C71.29,83,68.21,88.3,70,90.76c.11.15.41.07.33-.14a3.72,3.72,0,0,1,1-4.47c2.18-1.58,3.81,3.44,4.1,4.58.93,3.56,0,7.28-1.54,10.49-.12.27.22.58.43.33C77.7,97.37,78.12,89.63,74.1,85.71Z"/><path class="cls-10" d="M142.87,42.56a0,0,0,1,0-.08,0,13.86,13.86,0,0,1-.21,2.9,9.73,9.73,0,0,0,.39-1.15v0A16.72,16.72,0,0,0,142.87,42.56Zm-20-5.47a.17.17,0,0,0,0,.24l.32.33C123.12,37.47,123,37.29,122.9,37.09Zm-18.71-3.86,1.22-.15a.19.19,0,0,0,.17-.15Z"/><path class="cls-11" d="M182.62,71.25c-.43-3.62-1.83-6.57-6.31-6.19-3.83.33-7.32,4.28-8.73,7.58a.23.23,0,0,0,.06.25c0,.07,0,.15,0,.28a.32.32,0,0,0,.53.31c2.17-1.72,4.31-3.46,7-4.23,4.71-1.35,5.29,3.89,5.84,7.19Z"/><path class="cls-12" d="M178.62,93.12c-1.89,7.2-6.44,11.82-10.15,10.31s-5.2-8.59-3.3-15.81,6.44-11.82,10.15-10.3S180.51,85.91,178.62,93.12Z"/><path class="cls-13" d="M179.19,83.4c0-.27-.11-.55-.17-.82s-.11-.49-.18-.74A9.14,9.14,0,0,0,177,78.3a5.83,5.83,0,0,0-.72-.68l-.58-.37s0,0,0,0a3.74,3.74,0,0,0-1.6-.49,5,5,0,0,0-2.43.47,8.88,8.88,0,0,0-2.28,1.63,14.33,14.33,0,0,0-1.91,2.44,19.3,19.3,0,0,0-1.54,2.93,24.62,24.62,0,0,0-1.11,3.23,25.48,25.48,0,0,0-.8,7,18.71,18.71,0,0,0,.4,3.38.47.47,0,0,0,0,.16,13,13,0,0,0,1,2.83,7.31,7.31,0,0,0,1.74,2.18s0,0,0,0l.52.36.52.25a2.85,2.85,0,0,0,.56.19,2,2,0,0,0,.58.11,3.93,3.93,0,0,0,.84,0,5.54,5.54,0,0,0,2.62-1.07c.2-.14.39-.29.57-.44a13.26,13.26,0,0,0,2.7-3.23,21.71,21.71,0,0,0,1.26-2.5l.13-.3.12-.29c.09-.23.18-.44.25-.65a.78.78,0,0,0,0-.14c0-.1.07-.21.09-.3-.11.31-.25.68-.42,1.07a20.6,20.6,0,0,1-1.56,3,11.51,11.51,0,0,1-2.69,3.1,8.31,8.31,0,0,1-.72.49,4.7,4.7,0,0,1-2.93.79,1.15,1.15,0,0,1-.26,0,1.41,1.41,0,0,1-.53-.12,2.75,2.75,0,0,1-.5-.2l-.44-.23h0l-.07,0-.46-.36a6.66,6.66,0,0,1-1.53-2.09,13.08,13.08,0,0,1-.71-2c-.07-.27-.13-.55-.19-.84a21.16,21.16,0,0,1-.33-3.2,24.19,24.19,0,0,1,.83-6.56,25,25,0,0,1,1-3.13A19.1,19.1,0,0,1,168,81.84a10.83,10.83,0,0,1,3.85-4,4,4,0,0,1,4.31.14,7.3,7.3,0,0,1,2.49,3.78,3.19,3.19,0,0,1,.11.33.48.48,0,0,1,0,.17c0,.12.07.23.1.34s.12.49.17.73a15.89,15.89,0,0,1,.32,3c0,.33,0,.64,0,1s0,.33,0,.48a2.17,2.17,0,0,1,0,.26c0,.71-.09,1.36-.17,1.92a1.55,1.55,0,0,1,0,.21,16.16,16.16,0,0,1-.37,2.09c0,.19-.08.35-.1.47l0-.13a5.54,5.54,0,0,0,.14-.55c0-.16.07-.32.1-.48s0-.07,0-.11l.09-.47a3.06,3.06,0,0,1,.05-.32,1.29,1.29,0,0,0,0-.19h0c0-.16.05-.32.07-.5s.05-.27.07-.42,0-.19,0-.3a20.88,20.88,0,0,0,.14-2.5v-.4A17,17,0,0,0,179.19,83.4Z"/><g class="cls-14"><path class="cls-15" d="M179.42,86c0-.27,0-.55,0-.81,0-.06,0-.1,0-.15,0-.24-.05-.48-.08-.71s-.05-.32-.07-.48-.05-.31-.07-.46a.06.06,0,0,1,0,0,.14.14,0,0,0,0-.06A3.29,3.29,0,0,0,179,83l-.08-.35c0-.16-.08-.32-.12-.48s-.05-.15-.07-.23a.64.64,0,0,0,0-.07c-.05-.15-.09-.3-.14-.44l-.15-.4c0-.06-.05-.12-.07-.17l-.09-.2a2.68,2.68,0,0,0-.19-.42,5.61,5.61,0,0,0-.29-.54,1.92,1.92,0,0,0-.17-.26,0,0,0,0,0,0,0l0,0a.05.05,0,0,0,0,0,2.83,2.83,0,0,0-.32-.45l0,0-.21-.26-.27-.27a.38.38,0,0,0-.09-.09,3.14,3.14,0,0,0-.4-.34l-.06,0a2.37,2.37,0,0,0-.33-.22l-.13-.08c-.14-.08-.29-.14-.43-.21-3.71-1.51-8.26,3.1-10.14,10.32a24.22,24.22,0,0,0-.83,6.22q0,.57,0,1.14c0,.3,0,.61.07.9,0,.13,0,.24,0,.36,0,.34.09.69.15,1,0,0,0,.06,0,.09a5.41,5.41,0,0,0,.12.58,1,1,0,0,1,0,.15,0,0,0,0,1,0,0s0,0,0,0a.1.1,0,0,1,0,0l0,.09a5.29,5.29,0,0,0,.15.57,1.72,1.72,0,0,0,.07.21,5.83,5.83,0,0,0,.22.63c.08.21.16.41.25.59s.05.11.07.16a.06.06,0,0,1,0,0h0l.13.23c0,.09.1.17.14.26a0,0,0,0,1,0,0c.1.17.21.35.32.51l0,0,0,0,0,0a3.17,3.17,0,0,0,.21.27.22.22,0,0,0,.07.09,3.47,3.47,0,0,0,.25.29,5.74,5.74,0,0,0,.73.67.07.07,0,0,1,.05,0l.3.19.16.1.4.19a2.53,2.53,0,0,0,.36.12,1.41,1.41,0,0,0,.22.06h.08l.14,0,.19,0h0a3,3,0,0,0,.43,0h.17l.27,0a4.19,4.19,0,0,0,.69-.13l.27-.08h0l.17-.06.31-.13a3.18,3.18,0,0,0,.32-.16,6.48,6.48,0,0,0,.61-.36,6,6,0,0,0,.78-.6,2.07,2.07,0,0,0,.32-.28c.16-.14.31-.29.46-.45l.3-.32.35-.42.16-.2a1.56,1.56,0,0,1,.16-.2c.1-.13.21-.27.31-.42a19.36,19.36,0,0,0,1.66-2.93c0-.09.08-.19.13-.29l.13-.3.12-.31c.09-.21.17-.42.25-.63a.78.78,0,0,0,0-.14c0-.1.07-.21.09-.3s.07-.22.11-.32a1.59,1.59,0,0,0,.07-.2,1.89,1.89,0,0,0,.06-.18l0-.1s0,0,0-.08c.09-.28.18-.56.25-.85a.19.19,0,0,0,0-.07s0,0,0,0,0-.08,0-.11a1.6,1.6,0,0,0,.05-.21l0-.13a5.54,5.54,0,0,0,.14-.55c0-.16.07-.32.1-.48s0-.07,0-.11l.09-.47a3.06,3.06,0,0,1,.05-.32,2,2,0,0,0,0-.24v0c0-.23.07-.46.09-.69s.06-.46.08-.69c0,0,0-.1,0-.15s0-.12,0-.18l0-.35q0-.21,0-.39v-.08c0-.13,0-.27,0-.41v-.15a.76.76,0,0,0,0-.15V87C179.44,86.69,179.44,86.37,179.42,86Zm-12.89,2.14c1.5-5.77,5.14-9.45,8.1-8.25,1.73.7,2.85,2.9,3.19,5.76h0c.06.57.1,1.15.11,1.77,0,.2,0,.39,0,.59a20.19,20.19,0,0,1-.59,4.25c0,.09-.05.19-.07.27s0,.09,0,.14h0c-.08.3-.17.59-.25.87-1.54,4.81-4.58,7.9-7.25,7.39h0a3.13,3.13,0,0,1-.57-.18,2.25,2.25,0,0,1-.53-.28,3.58,3.58,0,0,1-.72-.59,5.41,5.41,0,0,1-1-1.46h0C165.71,96,165.49,92.11,166.53,88.18Z"/></g><path class="cls-13" d="M165.54,104a3.28,3.28,0,0,1,1.18-.87,3.08,3.08,0,0,1,.63-.19,2.54,2.54,0,0,1,.73,0,3,3,0,0,1,.77.14,3.43,3.43,0,0,1,.75.36,5,5,0,0,1,.68.53,3.39,3.39,0,0,1,.57.63,6.9,6.9,0,0,1,.83,1.36,8.8,8.8,0,0,1,.44,1.08c.09.27.13.42.13.42s-.1-.11-.25-.31-.36-.52-.62-.83-.29-.35-.44-.55-.33-.34-.5-.54a6.77,6.77,0,0,0-.55-.51,6.26,6.26,0,0,0-.6-.45,5,5,0,0,0-.65-.33,4.26,4.26,0,0,0-.64-.2,3.48,3.48,0,0,0-.64-.07,2.88,2.88,0,0,0-.59,0A4.54,4.54,0,0,0,165.54,104Z"/><path class="cls-16" d="M178.21,91.75a5.77,5.77,0,0,0,.32-3.73s0-.06,0-.06c-.19-2.87-2.56-5.07-4.8-3.83-3.34,1.82-6.22,6.59-6.83,11.08-.56,4.07,1.32,9,4.94,7.37C175.24,101.07,177.37,96.06,178.21,91.75Z"/><g class="cls-17"><path class="cls-18" d="M176.86,88.85c-.41-2.59-2.36-3.56-4.83,0-2,2.87-4.1,10.27-.2,10.49C175.08,99.56,177.37,92.05,176.86,88.85Z"/></g><path class="cls-19" d="M176.17,90c-.42-2.16-2.13-3.06-4.13-.2-1.58,2.28-3.15,8.3.17,8.67C175,98.73,176.7,92.64,176.17,90Z"/><path class="cls-20" d="M178.42,90.23c-.32,1.47-1.21,2.54-2,2.38s-1.17-1.49-.87-3,1.22-2.54,2-2.37S178.74,88.75,178.42,90.23Z"/><path class="cls-13" d="M167.39,79.83s.09-.24.27-.6a12.55,12.55,0,0,1,.91-1.44,6.7,6.7,0,0,1,.7-.85l.41-.43c.15-.13.31-.24.47-.38a5.48,5.48,0,0,1,1-.66,4.4,4.4,0,0,1,1.16-.34,2.46,2.46,0,0,1,.6,0l.59.08a1.36,1.36,0,0,1,.55.17c.18.07.36.17.53.24a10.26,10.26,0,0,1,.89.66,7.94,7.94,0,0,1,.69.79,3.91,3.91,0,0,1,.53.74c.12.24.25.46.35.63.19.35.29.55.29.55l-.4-.42c-.12-.15-.26-.31-.43-.5a5.42,5.42,0,0,0-.59-.58,9.18,9.18,0,0,0-.72-.61c-.27-.15-.55-.36-.85-.5a4.16,4.16,0,0,0-1-.29l-.5-.06a4.57,4.57,0,0,0-.52.05,3.39,3.39,0,0,0-1,.28,5.46,5.46,0,0,0-1,.52l-.46.31-.4.34a8.18,8.18,0,0,0-.74.68c-.21.24-.43.43-.6.65s-.33.37-.45.52Z"/><path class="cls-21" d="M169.27,76.94S172.14,73,176,75.32s4.27,11.51,4.53,14a2.26,2.26,0,0,0,2.71,1.81,3.55,3.55,0,0,1-4.13.13s1.49-9.49-2.84-13.61S169.27,76.94,169.27,76.94Z"/><path class="cls-12" d="M120.83,79c-1.83,7.48,1,15,6.32,16.86s11.11-2.76,12.92-10.27-1-15.06-6.32-16.88S122.65,71.52,120.83,79Z"/><path class="cls-13" d="M122.31,75s0,0,0,0h0l0,0h0s0,0,0,.07l-.33.7a0,0,0,0,1,0,0c-.1.22-.2.47-.29.72a12.69,12.69,0,0,0-.53,1.54.19.19,0,0,0,0,.08,3.36,3.36,0,0,0-.13.48.56.56,0,0,0,0,.12.29.29,0,0,0,0,.09l.21-.69a17.59,17.59,0,0,1,.81-2.23,14.83,14.83,0,0,1,.91-1.75C122.61,74.52,122.45,74.77,122.31,75Zm-1.82,11a19.68,19.68,0,0,1-.13-3.81,15.31,15.31,0,0,1,.31-2.38c0-.13,0-.26.06-.36s0,0,0,0v0a.25.25,0,0,0,0,.07,1.62,1.62,0,0,0,0,.19c0,.11-.05.24-.07.35s0,.25-.07.37,0,.2,0,.29,0,.31-.07.47c0,.36-.07.73-.08,1.09a.22.22,0,0,0,0,.08c0,.36,0,.72,0,1.08s0,.62,0,.93,0,.47,0,.71,0,.47.08.7a3.26,3.26,0,0,0,0,.33c0,.26.08.5.12.75a.64.64,0,0,0,0,.07c.06.34.14.66.22,1a2.8,2.8,0,0,0,.09.31c0,.17.09.34.14.5a4.59,4.59,0,0,0,.17.48c.08.25.18.5.28.73h.1A15.27,15.27,0,0,1,120.49,86.05Zm.27-6.7a.31.31,0,0,1,0,.08s0,0,0,.07a1.05,1.05,0,0,0,0-.26A.43.43,0,0,0,120.76,79.35Zm0,0a.31.31,0,0,1,0,.08s0,0,0,.07a1.05,1.05,0,0,0,0-.26A.43.43,0,0,0,120.76,79.35Zm0,0a.31.31,0,0,1,0,.08s0,0,0,.07a1.05,1.05,0,0,0,0-.26A.43.43,0,0,0,120.76,79.35Zm0,0a.31.31,0,0,1,0,.08s0,0,0,.07a1.05,1.05,0,0,0,0-.26A.43.43,0,0,0,120.76,79.35Zm20.14-.85a16.32,16.32,0,0,0-.92-3.59,14.62,14.62,0,0,0-1.8-3.21,10.32,10.32,0,0,0-2.64-2.4,6.89,6.89,0,0,0-2.21-.94h-.05a8.65,8.65,0,0,0-.86-.16,7.36,7.36,0,0,0-1.23,0h0A8.57,8.57,0,0,0,127,69.56a12.16,12.16,0,0,0-3.36,3.25,17,17,0,0,0-1.55,2.65.51.51,0,0,0-.07.15,3.47,3.47,0,0,0-.15.36,16,16,0,0,0-.77,2.17.19.19,0,0,0,0,.08,3.36,3.36,0,0,0-.13.48.56.56,0,0,0,0,.12.29.29,0,0,0,0,.09l.21-.69a17.59,17.59,0,0,1,.81-2.23,14.83,14.83,0,0,1,.91-1.75,1,1,0,0,1,.09-.13c.24-.41.52-.81.83-1.24a11.22,11.22,0,0,1,3.12-3h0l.24-.15a8,8,0,0,1,5.28-1.1,8.09,8.09,0,0,1,5.24,3.44A14.68,14.68,0,0,1,140,78.54a17,17,0,0,1,.1,3.49,20.44,20.44,0,0,1-.52,3.44,18.71,18.71,0,0,1-1.79,4.59,13.34,13.34,0,0,1-3.16,3.86,10.31,10.31,0,0,1-2.69,1.59,7.84,7.84,0,0,1-3,.45l-.75-.07-.11,0-.68-.19a3.13,3.13,0,0,1-.71-.24,3,3,0,0,1-.7-.32l-.33-.2A10.05,10.05,0,0,1,122,90.83c-.14-.25-.26-.51-.37-.76a15.27,15.27,0,0,1-1.12-4,19.68,19.68,0,0,1-.13-3.81,15.31,15.31,0,0,1,.31-2.38c0-.13,0-.26.06-.36s0,0,0,0v0a.25.25,0,0,0,0,.07,1.62,1.62,0,0,0,0,.19c0,.11-.05.24-.07.35s0,.25-.07.37,0,.2,0,.29,0,.31-.07.47-.07.58-.09.9a18.57,18.57,0,0,0,.08,3.82,16,16,0,0,0,1,4c.11.28.22.56.35.84a11.3,11.3,0,0,0,3,3.89h0a7.89,7.89,0,0,0,1,.7,4.19,4.19,0,0,0,.73.38,5.51,5.51,0,0,0,.78.31l.78.23c.27,0,.54.07.83.13h0a8.36,8.36,0,0,0,3.33-.35,11.1,11.1,0,0,0,3-1.59,13.59,13.59,0,0,0,2.4-2.45,16,16,0,0,0,1.32-2.06,19.07,19.07,0,0,0,1.68-4.34,22.67,22.67,0,0,0,.5-3.59A18.88,18.88,0,0,0,140.9,78.5Zm-20.14.85a.31.31,0,0,1,0,.08s0,0,0,.07a1.05,1.05,0,0,0,0-.26A.43.43,0,0,0,120.76,79.35Zm0,0a.31.31,0,0,1,0,.08s0,0,0,.07a1.05,1.05,0,0,0,0-.26A.43.43,0,0,0,120.76,79.35Zm0,0a.31.31,0,0,1,0,.08s0,0,0,.07a1.05,1.05,0,0,0,0-.26A.43.43,0,0,0,120.76,79.35Zm0,0a.31.31,0,0,1,0,.08s0,0,0,.07a1.05,1.05,0,0,0,0-.26A.43.43,0,0,0,120.76,79.35Z"/><g class="cls-14"><path class="cls-15" d="M133.75,68.74a7.52,7.52,0,0,0-1.11-.28,2.5,2.5,0,0,0-.38-.06c-.12,0-.24,0-.38,0a2.23,2.23,0,0,0-.37,0h-.14a5.52,5.52,0,0,0-.81.06h0a3,3,0,0,0-.43.06H130l-.09,0-.06,0-.33.07-.07,0-.32.1h0l-.25.08-.55.22c-.18.08-.37.15-.55.25s-.47.25-.7.4-.31.19-.46.3a8,8,0,0,0-.74.56h0l-.5.44a4,4,0,0,0-.3.29l-.38.38-.36.4c-.22.26-.43.53-.64.82-.09.11-.17.24-.26.36a5.8,5.8,0,0,0-.34.52c-.1.15-.2.3-.29.46l-.21.38a3,3,0,0,0-.21.4.11.11,0,0,0,0,.08h0l0,0h0s0,0,0,.07l-.33.7a0,0,0,0,1,0,0c-.1.22-.2.47-.29.72a12.69,12.69,0,0,0-.53,1.54.19.19,0,0,0,0,.08,3.36,3.36,0,0,0-.13.48.56.56,0,0,0,0,.12.29.29,0,0,0,0,.09s0,0,0,.06a.14.14,0,0,0,0,.06,1.6,1.6,0,0,0,0,.21.43.43,0,0,0,0,.11.31.31,0,0,1,0,.08s0,0,0,.07h0s0,0,0,0v0a.25.25,0,0,0,0,.07,1.62,1.62,0,0,0,0,.19c0,.11-.05.24-.07.35s0,.25-.07.37,0,.2,0,.29,0,.31-.07.47c0,.36-.07.73-.08,1.09a.22.22,0,0,0,0,.08c0,.36,0,.72,0,1.08s0,.62,0,.93,0,.47,0,.71,0,.47.08.7a3.26,3.26,0,0,0,0,.33c0,.26.08.5.12.75a.64.64,0,0,0,0,.07c.06.34.14.66.22,1a2.8,2.8,0,0,0,.09.31c0,.17.09.34.14.5a4.59,4.59,0,0,0,.17.48c.08.25.18.5.28.73,0,0,0,0,0,0,.1.24.2.48.32.71.23.47.48.92.75,1.36l.45.62a5.07,5.07,0,0,0,.36.45c0,.06.08.1.11.15l.47.49,0,0a4.35,4.35,0,0,0,.38.36h0l.21.17a.63.63,0,0,0,.13.11,4,4,0,0,0,.34.27c.12.08.23.16.36.23a.15.15,0,0,0,.06,0l.49.29.34.17a7.85,7.85,0,0,0,.8.32,5.06,5.06,0,0,0,.6.18l.1,0c.15,0,.3.07.45.09l.24,0a8.42,8.42,0,0,0,1,.07,5.44,5.44,0,0,0,.57,0,1.55,1.55,0,0,0,.37,0h.1l.23,0,.17,0,.22,0a.86.86,0,0,0,.23-.06c.2,0,.39-.1.6-.17l0,0c.19-.07.39-.14.58-.23a4.37,4.37,0,0,0,.49-.23,6.16,6.16,0,0,0,.71-.4,4.66,4.66,0,0,0,.47-.3l0,0,.11-.08a5.42,5.42,0,0,0,.52-.39c.19-.15.38-.31.55-.47s.4-.37.58-.57.28-.3.41-.45l.1-.1.43-.53c.16-.21.31-.42.46-.64a.18.18,0,0,0,.05-.07c.14-.2.28-.41.41-.63l.39-.67,0-.09c.14-.27.28-.53.41-.82a1.11,1.11,0,0,0,.09-.19c.15-.33.3-.66.43-1,0-.09.08-.2.11-.31s.07-.19.11-.3l.18-.53v0c.13-.38.23-.78.33-1.18C141.9,78.12,139.06,70.56,133.75,68.74Zm-11,11c1.46-6,6.08-9.69,10.33-8.23,2.7.93,4.59,3.68,5.23,7.12h0a14.82,14.82,0,0,1-.18,6.37c-.09.36-.19.71-.29,1.05a13.36,13.36,0,0,1-2,4,7.81,7.81,0,0,1-6.29,3.51,5.49,5.49,0,0,1-1.73-.31,5.67,5.67,0,0,1-1.51-.77h0a7,7,0,0,1-1.87-1.86,5.14,5.14,0,0,1-.37-.54,11.44,11.44,0,0,1-1.35-3.3v0h0A15,15,0,0,1,122.76,79.69Z"/></g><path class="cls-13" d="M130.32,98.79a4.8,4.8,0,0,0-.91-1.68,5.13,5.13,0,0,0-.65-.68,4.65,4.65,0,0,0-.85-.65,6.23,6.23,0,0,0-1-.52,7.42,7.42,0,0,0-1.11-.33,7.1,7.1,0,0,0-1.12-.12,4.6,4.6,0,0,0-1,0,7,7,0,0,0-1.76.43,7.92,7.92,0,0,0-1.14.53l-.4.23a3.3,3.3,0,0,0,.49,0c.3,0,.71-.12,1.22-.16l.83-.09c.27,0,.59,0,.9,0a7.82,7.82,0,0,1,1,0,6.45,6.45,0,0,1,1,.13,7.53,7.53,0,0,1,1,.26,6.44,6.44,0,0,1,.89.38,7.77,7.77,0,0,1,1.49,1A8.53,8.53,0,0,1,130.32,98.79Z"/><path class="cls-16" d="M138.68,81.55a4.12,4.12,0,0,0-1-3.79s-.07-.05-.09,0c-1.37-2.74-5.81-3.9-8.75-1.75-4.36,3.16-6.9,9-6.12,13.68.72,4.22,5.46,8.26,10.33,5.16C137.74,91.91,139.06,86.11,138.68,81.55Z"/><g class="cls-17"><path class="cls-18" d="M135.52,79.28c-1.61-2.38-4.94-2.52-7.32,2-1.88,3.63-2.3,11.77,3.72,10.36C136.92,90.5,137.52,82.2,135.52,79.28Z"/></g><path class="cls-19" d="M134.9,80.65c-1.47-2-4.41-2.12-6.34,1.52-1.53,2.88-1.62,9.44,3.58,8.41C136.47,89.72,136.73,83,134.9,80.65Z"/><path class="cls-20" d="M138.41,80a2.91,2.91,0,0,1-2.13,3.16c-1.26.17-2.36-1-2.46-2.54A2.88,2.88,0,0,1,136,77.44C137.22,77.26,138.33,78.39,138.41,80Z"/><path class="cls-13" d="M141.84,77.37a4.61,4.61,0,0,0,0-.73,13,13,0,0,0-.25-1.93,11.08,11.08,0,0,0-.37-1.28c-.08-.23-.17-.45-.24-.69s-.24-.45-.35-.7a9.42,9.42,0,0,0-.86-1.4,8.33,8.33,0,0,0-1.21-1.24,4.8,4.8,0,0,0-.69-.52l-.75-.43a3.4,3.4,0,0,0-.76-.32l-.77-.23a13.13,13.13,0,0,0-1.45-.19,7.32,7.32,0,0,0-1.28.08,3.53,3.53,0,0,0-1,.17l-.78.23c-.42.12-.66.21-.66.21l.71,0,.81-.06a9,9,0,0,1,1,0c.38,0,.79,0,1.21.1s.86.15,1.31.29a9.56,9.56,0,0,1,1.32.57l.64.36a5.27,5.27,0,0,1,.58.48,6.64,6.64,0,0,1,1.07,1.05,12.16,12.16,0,0,1,.85,1.22c.13.21.24.43.36.63s.2.41.29.62a12.44,12.44,0,0,1,.5,1.17c.12.37.28.71.35,1s.19.58.25.8C141.78,77.1,141.84,77.37,141.84,77.37Z"/><path class="cls-21" d="M141.22,73.43a9.51,9.51,0,0,0-7.17-6.91c-6-1.3-11.66,5.94-13.36,7.75,0,0-2,1.49-4.29-.75A7.07,7.07,0,0,0,121.29,77s3.59-9,11.13-8.84S141.22,73.43,141.22,73.43Z"/><path class="cls-11" d="M145.53,64.4a.15.15,0,0,0,0-.06h0a34,34,0,0,0-2.74-4.76h0a1.77,1.77,0,0,0-.12-.17,19.32,19.32,0,0,0-1.24-1.59l-.78-.84h0A12.27,12.27,0,0,0,138.14,55a7.71,7.71,0,0,0-1.08-.53,8.05,8.05,0,0,0-3.48-.63,13.85,13.85,0,0,0-8.6,3.68,8.32,8.32,0,0,0-1,1,9.42,9.42,0,0,0-1.21,1.75,10.87,10.87,0,0,0-.42,3.34c2.2-1.21,3.86-3.33,6-4.7a9.62,9.62,0,0,1,1.08-.61,10.1,10.1,0,0,1,6.34-1.13,9.81,9.81,0,0,1,2.8,1.05,13.74,13.74,0,0,1,2.9,2.14,13.15,13.15,0,0,1,1.86,2.28c.39.53,2.09,2.79,2.18,2.1v0A1.23,1.23,0,0,0,145.53,64.4Z"/><path class="cls-22" d="M199.18,49.13A28,28,0,0,0,194,44.44a20.48,20.48,0,0,1,3,3.28c.72,1,3.06,3.73,2.24,5.13-1.76,3-11.08-8.54-12.93-11.05,5.08,8.74,16.32,14.65,10.24,28.69-1.42,3.3,1.26-1.34,1.68-1.87C202.05,63.62,203.57,54.35,199.18,49.13Z"/><path class="cls-22" d="M192.44,36.37c-4.2-.66-7.61-4.33-9.88-8-.1-.09-.27.06-.2.19a21.5,21.5,0,0,0,6.17,7.6c2.32,1.67,6.15,2.45,7.67-.65a.52.52,0,0,0,.07-.32A4.31,4.31,0,0,1,192.44,36.37Z"/><path class="cls-23" d="M158.79,82.76a19,19,0,0,0-1,1.65c-.31.54-.66,1.2-1,2a24.27,24.27,0,0,0-1.13,2.69,30.25,30.25,0,0,0-1,3.33c-.12.6-.25,1.22-.35,1.87s-.14,1.3-.17,2,0,1.38.06,2.07a17.28,17.28,0,0,0,.3,2.11,16,16,0,0,0,1.5,4.08c.37.62.76,1.29,1.13,1.84l.58.88.47.86a6.5,6.5,0,0,1,.84,3.61,3.71,3.71,0,0,1-1.94,2.65,9.19,9.19,0,0,1-1.54.69c-.26.09-.51.18-.78.26l-.76.18a12.09,12.09,0,0,1-1.47.27c-.48.07-.92.16-1.35.2-.85.06-1.6.16-2.21.16l-1.94.08,1.94.14c.62,0,1.37,0,2.24,0a17.6,17.6,0,0,0,2.91-.26l.82-.14.83-.23a9,9,0,0,0,1.71-.66,4.52,4.52,0,0,0,2.52-3.22,7.17,7.17,0,0,0-.85-4.24l-.53-1-.57-.9c-.4-.62-.7-1.17-1.06-1.77a14.5,14.5,0,0,1-1.43-3.77c-.17-.65-.2-1.32-.32-2s-.07-1.32-.1-2,.07-1.27.09-1.89.16-1.23.23-1.82a30.17,30.17,0,0,1,.76-3.29,37.7,37.7,0,0,1,1.76-4.76C158.45,83.38,158.79,82.76,158.79,82.76Z"/><path class="cls-23" d="M155.55,130.06s-.48.17-1.32.39c-.42.09-.93.23-1.52.31s-1.26.17-2,.24a22.1,22.1,0,0,1-2.35.08c-.83-.05-1.71-.06-2.62-.19-.45-.07-.91-.1-1.37-.18l-1.41-.3a25.16,25.16,0,0,1-2.85-.78c-1-.3-1.88-.72-2.81-1.07l-2.67-1.31c-.86-.51-1.68-1-2.46-1.46s-1.49-1.05-2.16-1.5-1.29-.9-1.8-1.36l-1.37-1.14-1.19-1,1.13,1.17,1.3,1.32a18.46,18.46,0,0,0,1.75,1.55c.67.51,1.35,1.18,2.14,1.68s1.59,1.13,2.45,1.65,1.77,1,2.7,1.43,1.88.81,2.85,1.13,1.94.62,2.91.76l1.43.25c.47.06.94.08,1.4.13a19.76,19.76,0,0,0,2.66,0c.85-.07,1.64-.14,2.37-.27a13.62,13.62,0,0,0,2-.46,15.76,15.76,0,0,0,1.52-.51A10.36,10.36,0,0,0,155.55,130.06Z"/><path class="cls-23" d="M126.2,118.49l-.25.63q-.11.27-.21.57c-.09.19-.15.41-.24.61s-.16.42-.25.61-.07.21-.11.3a1.38,1.38,0,0,1-.11.27,5.22,5.22,0,0,0-.22.67,1,1,0,0,0,.48-.17,1.24,1.24,0,0,0,.42-.41,2,2,0,0,0,.22-.3l.16-.38a3.13,3.13,0,0,0,.22-.85,1.9,1.9,0,0,0,0-.41,2.41,2.41,0,0,0,0-.38A2.17,2.17,0,0,0,126.2,118.49Z"/><path class="cls-23" d="M155.19,127.94s0,.28.07.61c0,.16,0,.33.05.49a1,1,0,0,0,0,.25,1,1,0,0,1,0,.25v.26a2,2,0,0,0,0,.25,2.43,2.43,0,0,0,0,.27,2.29,2.29,0,0,0,0,.25,4.73,4.73,0,0,0,0,.65,1.19,1.19,0,0,0,.36-.36,1.34,1.34,0,0,0,.25-.55,3.54,3.54,0,0,0,.09-.38c0-.13,0-.28,0-.42a2.44,2.44,0,0,0-.13-.8,1.19,1.19,0,0,0-.15-.32.61.61,0,0,0-.15-.22.78.78,0,0,0-.28-.21A.23.23,0,0,0,155.19,127.94Z"/><path class="cls-23" d="M143.41,136.71l-.17-.12a3.55,3.55,0,0,0-.43-.25,2.91,2.91,0,0,0-.59-.25c-.22-.09-.45-.16-.68-.23l-.35-.07a2.05,2.05,0,0,1-.34-.07,3.57,3.57,0,0,0-.6-.1,2,2,0,0,0-.65,0,3.73,3.73,0,0,0,.53.59,4.32,4.32,0,0,0,.59.45,2.45,2.45,0,0,0,.71.28,3.67,3.67,0,0,0,.72.1,2.55,2.55,0,0,0,.65-.09A1.62,1.62,0,0,0,143.41,136.71Z"/><path class="cls-24" d="M145,136s-2.57.61-7.45-.92C138.74,138.39,141.51,139.81,145,136Z"/><path class="cls-25" d="M160.12,81.73S152.2,95.07,161,108c3.54,5-.42,7.92-5.84,9.59-3.55.83-9.18-1.67-9.18-1.67a34.25,34.25,0,0,0,10.64-1c4.79-1.46,4.16-5.42.83-9.8S152.2,89.44,160.12,81.73Z"/><path class="cls-2" d="M78,137s-36.52,4.72-54.41,27.25C12.24,178.13,18.06,190,18,199.17s-5.78,17-13.39,12.34a10.09,10.09,0,0,0,8.79,5.12S-3.24,224.84,7,237.24c0,0-.45-3.83,1.23-5.68.2,3,2.06,7.13,3.69,9.88s0,8.46-4.42,11c0,0,19,1.44,26.94-11.07S84,182.47,89.36,154.55c2.42-13.3-1.8-15.3-1.8-15.3Z"/><path class="cls-26" d="M89,158.72a1.74,1.74,0,0,1,.13-.51,1.74,1.74,0,0,1,.13-.51c.27-1,.48-2.06.68-3-.17-.06-.35-.07-.51-.13.2-1.17.36-2.23.44-3.26a1.78,1.78,0,0,0,.08-.53,1.84,1.84,0,0,1,.08-.53c.39-4.59-.18-7.3-.94-8.9l0-.05a1.26,1.26,0,0,0-.25-.48,2.09,2.09,0,0,0-.21-.45c-.05,0-.07,0-.07,0a2.74,2.74,0,0,1-.45.2,1,1,0,0,1,.25.47,1,1,0,0,1,.26.47c.67,1.5,1.21,4.14.82,8.73a2,2,0,0,0,0,.55,1.89,1.89,0,0,0-.08.53c-.17.93-.33,2-.51,3.11a25,25,0,0,1-.7,3,28.79,28.79,0,0,0-.27,1A74.21,74.21,0,0,1,83.77,169c-1.48,3.18-3.23,6.43-5.13,9.75s-4.07,6.85-6.27,10.31a2.4,2.4,0,0,0-.34.55c-.13.2-.27.39-.41.59-3,4.63-6.22,9.2-9.43,13.64-.33.38-.62.82-.9,1.21q-2.15,2.92-4.23,5.67c-4.26,5.72-8.43,11-12,15.64-4.36,5.5-7.86,10.07-10.07,13.21-.39.54-.71,1-1,1.49a20.5,20.5,0,0,1-6.38,6.21.92.92,0,0,0,.27.41c.57-.34,1.08-.7,1.65-1,.1-.09.12-.15.19-.18a18.82,18.82,0,0,0,1.6-1.38,18.56,18.56,0,0,0,3.11-3.73c.32-.5.73-1.09,1.17-1.73,4.15-6,13-16.74,22.44-29.33,1.47-1.87,2.9-3.81,4.36-5.81.25-.34.45-.7.7-1,3-4.08,6-8.31,8.78-12.58.13-.2.2-.36.33-.56s.26-.34.4-.53c2.41-3.69,4.66-7.44,6.74-11.06s3.78-6.9,5.24-10.21a65,65,0,0,0,3.82-9.93Zm0,0a1.74,1.74,0,0,1,.13-.51,1.74,1.74,0,0,1,.13-.51c.27-1,.48-2.06.68-3l0-.05c.22-1.22.34-2.36.5-3.42a4.37,4.37,0,0,0,0-.5,1.78,1.78,0,0,0,.08-.53l0-.05c.4-4.77-.27-7.58-1-9.24l-.2-.45a3.55,3.55,0,0,1-.31-.49s-.09-.1-.09-.1a1.42,1.42,0,0,1-.21-.27,2.88,2.88,0,0,0-.69-.64l-.11,0a.38.38,0,0,0-.14-.11l-.05,0c-.08,0-.13,0-.16-.06l-.53-.08-1.83-.45-7.14-1.69H77.9a2.47,2.47,0,0,1-.52.05,2.49,2.49,0,0,1-.56.16c-.18,0-.39,0-.57,0-7.41,1.27-37.47,7.47-53.11,27.2-8.74,10.73-7.43,20.46-6.31,28.25a58.56,58.56,0,0,1,.6,7c-.06,5.34-2,10.08-5,12.17-2.26,1.5-4.83,1.38-7.55-.29l-1.73-1,.94,1.79a10.21,10.21,0,0,0,5.33,4.61,8.64,8.64,0,0,0,2.2.59c-2.48,1.61-7.19,5.09-8.27,10.16-.74,3.4.33,6.93,3.23,10.41L7.71,239l-.17-1.81a10.72,10.72,0,0,1,.37-4,30.73,30.73,0,0,0,3.54,8.59,5.86,5.86,0,0,1,.29,4.29A9.81,9.81,0,0,1,7.21,252l-1.51.85,1.74.17a42.29,42.29,0,0,0,13.41-1.64,1.3,1.3,0,0,0,.56-.16,1,1,0,0,0,.51-.18,23.09,23.09,0,0,0,5.39-2.35,3.63,3.63,0,0,0,.82-.49,20.87,20.87,0,0,0,6.74-6.51c.41-.59.87-1.29,1.42-2.07,2.19-3.09,5.53-7.41,9.58-12.59,3.89-4.92,8.45-10.78,13.1-17,1.51-2,3-4,4.45-6.08a6.56,6.56,0,0,0,.65-.87c2.7-3.77,5.43-7.64,8-11.52a3.76,3.76,0,0,0,.36-.61l.39-.53c2.55-3.88,4.92-7.77,7.09-11.62a110.54,110.54,0,0,0,5.45-10.62A84.3,84.3,0,0,0,89,158.72ZM83.77,169c-1.48,3.18-3.23,6.43-5.13,9.75s-4.07,6.85-6.27,10.31a2.4,2.4,0,0,0-.34.55c-.13.2-.27.39-.41.59-3,4.63-6.22,9.2-9.43,13.64-.33.38-.62.82-.9,1.21q-2.15,2.92-4.23,5.67c-4.26,5.72-8.43,11-12,15.64-4.36,5.5-7.86,10.07-10.07,13.21-.39.54-.71,1-1,1.49a20.5,20.5,0,0,1-6.38,6.21,6.68,6.68,0,0,1-.8.44A27.24,27.24,0,0,1,22,249.92a2.49,2.49,0,0,1-.56.16c-.15.07-.35.11-.5.18-.36.11-.71.23-1.12.32a44.25,44.25,0,0,1-10.06,1.36,3.39,3.39,0,0,1-.63,0,11.24,11.24,0,0,0,3.61-5.65,7,7,0,0,0-.39-5.14,29.56,29.56,0,0,1-2.91-6.54l0-.08a10.16,10.16,0,0,1-.65-3l-.13-1.29-.11.14-.43.46-.25.34a6.87,6.87,0,0,0-1.44,4.37,11.46,11.46,0,0,1-1.16-2,9.8,9.8,0,0,1-.86-6.19A12.72,12.72,0,0,1,5.26,225a.44.44,0,0,1,.13-.2c2.52-4.77,8.16-7.58,8.25-7.67l.76-.34,1.47-.74h-.19a0,0,0,0,1-.07,0l-2.27.07a10.08,10.08,0,0,1-3.54-.68,8.8,8.8,0,0,1-3.59-2.5,1.71,1.71,0,0,0,.75.16,7.08,7.08,0,0,0,6.08-.9c3.29-2.23,5.44-7.32,5.49-13a55.71,55.71,0,0,0-.65-7.23c-1.11-8-2.35-17.05,6.06-27.41A59.09,59.09,0,0,1,37,152.71a1.08,1.08,0,0,1,.32-.19c13.54-8.94,29.4-12.88,36.61-14.28,1.15-.25,2-.41,2.69-.53.26,0,.47-.07.59-.08.28-.08.47-.07.62-.14l0,0,9.42,2.26a3.69,3.69,0,0,1,.76.79,1,1,0,0,1,.25.47,1,1,0,0,1,.26.47c.67,1.5,1.21,4.14.82,8.73a2,2,0,0,0,0,.55,1.89,1.89,0,0,0-.08.53c-.17.93-.33,2-.51,3.11a25,25,0,0,1-.7,3,28.79,28.79,0,0,0-.27,1A74.21,74.21,0,0,1,83.77,169Z"/><g class="cls-17"><path class="cls-27" d="M89.36,154.55c2.42-13.3-1.8-15.3-1.8-15.3L78,137s-25.33,3.29-44.14,17.4c1.71-.94,15.19-8.26,21.6-9,6.85-.83-35.18,18-33.54,46.69,1.7,12.56-4.87,29.65-17.29,19.48a10.09,10.09,0,0,0,8.79,5.12s-7.58,3.75-9.34,10c0-.06,3.53-6.26,10-7-5,3-8,8-7.76,11.68.1,1.79-.63,2.42-1.54,2.35a16.19,16.19,0,0,0,2.3,3.6s-.45-3.83,1.23-5.68a19.24,19.24,0,0,0,1.63,5.79c-.72-2.46-1.36-7.69,4.49-11.22-.71,2.61-2.05,7.57,2,12.86,3.34,4.41-.55,12-8.39,13.46,2.87.12,19.25.29,26.51-11.1C42.41,228.85,84,182.47,89.36,154.55Z"/></g><path class="cls-26" d="M77.9,141.58s-.12.2-.36.54a13.68,13.68,0,0,1-1.06,1.38,20.91,20.91,0,0,1-1.7,1.76c-.32.31-.68.6-1,.9s-.73.61-1.13.88a22.64,22.64,0,0,1-2.4,1.46L69,149a6.41,6.41,0,0,1-1.09.42c-1.4.37-2.33.51-2.33.51a23.52,23.52,0,0,1,2.09-1.08,9.34,9.34,0,0,0,1-.57c.34-.2.7-.43,1.08-.64a11.89,11.89,0,0,0,1.11-.74l1.15-.77c.38-.25.74-.55,1.1-.82s.75-.51,1.08-.8c.68-.56,1.34-1,1.88-1.49Z"/><path class="cls-26" d="M74.62,140.62s-1.1.6-3,1.72-4.61,2.76-7.82,4.79c-1.6,1-3.32,2.15-5.11,3.37s-3.66,2.55-5.57,3.94-3.86,2.89-5.79,4.44c-1,.79-1.92,1.6-2.88,2.4s-1.89,1.66-2.81,2.53c-1.85,1.7-3.68,3.44-5.35,5.27a62.37,62.37,0,0,0-4.65,5.57c-.72.94-1.31,1.93-2,2.85s-1.17,1.91-1.67,2.86A30.62,30.62,0,0,0,25.64,186a21.51,21.51,0,0,0-.64,2.61,17,17,0,0,0-.34,2.41c0,.76-.09,1.48-.1,2.14s.1,1.27.14,1.82c0,.28,0,.54.07.78s.09.46.14.67c.09.43.16.79.22,1.07.12.59.19.89.19.89s-.09-.3-.24-.87l-.3-1.06c-.05-.2-.11-.43-.18-.67s-.07-.51-.1-.79c-.08-.55-.15-1.16-.24-1.83s0-1.4,0-2.18a21.78,21.78,0,0,1,.81-5.16A30.47,30.47,0,0,1,27.28,180c.48-1,1.07-2,1.62-3s1.26-2,2-2.93a65.85,65.85,0,0,1,4.67-5.7c1.68-1.88,3.5-3.65,5.36-5.38.94-.87,1.91-1.68,2.87-2.52s1.94-1.62,2.93-2.4c2-1.54,3.92-3,5.86-4.41s3.86-2.65,5.68-3.84,3.6-2.25,5.23-3.23C70,142.74,74.62,140.62,74.62,140.62Z"/><path class="cls-26" d="M22.38,206.73a9.23,9.23,0,0,1-.1,2.35,12,12,0,0,1-.64,2.36,8,8,0,0,1-.59,1.26,11,11,0,0,1-.78,1.22,8.64,8.64,0,0,1-1,1.07,6.1,6.1,0,0,1-1.15.83l-.59.34-.63.21-.57.2-.56.08a7.57,7.57,0,0,1-1,.1l-.75-.06-.64-.06.63-.15.71-.14c.27-.06.56-.19.88-.29a4.82,4.82,0,0,0,1-.42l.52-.27.49-.34a7.06,7.06,0,0,0,1-.79,7.86,7.86,0,0,0,.86-1,12.33,12.33,0,0,0,.75-1.08,12.5,12.5,0,0,0,.61-1.13c.38-.75.66-1.49.91-2.12C22.13,207.64,22.38,206.73,22.38,206.73Z"/><path class="cls-26" d="M15.31,223.62s-.7.27-1.67.75a16.76,16.76,0,0,0-1.56.91c-.28.18-.52.4-.8.6a9.63,9.63,0,0,0-.74.7l-.35.36-.29.4a5.2,5.2,0,0,0-.53.82A4.57,4.57,0,0,0,9,229a5.24,5.24,0,0,0-.3.79c-.06.26-.18.49-.21.71s-.09.4-.12.56c-.08.31-.12.5-.12.5a3.83,3.83,0,0,1-.09-.51c0-.16-.05-.36-.08-.6a4.22,4.22,0,0,1,0-.78,3.3,3.3,0,0,1,.12-.91,5.12,5.12,0,0,1,.32-1,4.82,4.82,0,0,1,.53-1,5.47,5.47,0,0,1,.73-.92,8,8,0,0,1,.88-.77,6.45,6.45,0,0,1,.95-.59,7.14,7.14,0,0,1,1.84-.67A5.81,5.81,0,0,1,15.31,223.62Z"/><g class="cls-17"><path class="cls-27" d="M89.36,154.55c2.42-13.3-1.8-15.3-1.8-15.3L78,137s-1.6.2-4.28.73a5.79,5.79,0,0,0,3.06,3c4.1,1.85-7.15,8.19-14,10.09S39.77,161.15,34.17,175,25.59,207.74,21,212.1a2.51,2.51,0,0,0,2.78-.26s-5.57,9.6-3.87,19.06c1.32,7.38,2.57,14.1-.38,20.32,5.37-1.37,11.29-4.16,14.93-9.87C42.41,228.85,84,182.47,89.36,154.55Z"/></g><path class="cls-28" d="M76.25,131.1s-.93,7.14,3.67,8.91,9.42,2,9.84-.49C85.79,137.4,76.25,131.1,76.25,131.1Z"/><path class="cls-29" d="M89.34,140.41a.64.64,0,0,0,.22-.41.83.83,0,0,0,.19-.49s-.46-.12-1.27-.43l-.44-.17-.11,0c-.05,0-.16-.06-.19-.14s-.13,0-.16-.06a10.7,10.7,0,0,1-1.28-.55l.75.47c.6.36,1.16.7,1.68,1,.11,0,.25.16.36.2l0,.06,0,.11a2,2,0,0,1-.41.4,2.09,2.09,0,0,1,.21.45,1.26,1.26,0,0,1,.25.48,1.21,1.21,0,0,0,.46-.39Zm.94-.82c0-.06,0-.11,0-.13a2.26,2.26,0,0,1-.16-.25h0c0-.06,0-.15-.11-.17s-.25-.16-.41-.22-.09-.1-.14-.12a18.17,18.17,0,0,1-2-1.14l-.11,0c-.55-.34-1.16-.7-1.75-1.11l-.27-.11c-3.73-2.3-7.89-5.09-8.64-5.57a.44.44,0,0,1-.2-.13.52.52,0,0,0-.44,0,.22.22,0,0,0-.12.14c-.1.09-.17.13-.16.25a3.15,3.15,0,0,0,0,.32,13,13,0,0,0,.5,5.36,2.17,2.17,0,0,0,.23.53,2.63,2.63,0,0,1,.18.5,5.78,5.78,0,0,0,3,2.8c3.64,1.4,7,1.75,8.91,1l.45-.2,0-.05a1.21,1.21,0,0,0,.46-.39.9.9,0,0,0,.35-.43.27.27,0,0,0,.18-.3c.08,0,.08,0,.1-.09A1.35,1.35,0,0,0,90.28,139.59Zm-1.25.33a2,2,0,0,1-.41.4c-.05,0-.07,0-.07,0a2.74,2.74,0,0,1-.45.2c-1.65.55-4.8.15-8-1.09a4.19,4.19,0,0,1-2.23-2c-.12-.17-.19-.32-.31-.49a2.51,2.51,0,0,1-.18-.51,11.45,11.45,0,0,1-.67-4.24c0-.06,0-.13,0-.19.64.44,1.7,1.09,2.87,1.92a.7.7,0,0,0,.31.18c1.92,1.17,4.17,2.6,6.14,3.8a.71.71,0,0,0,.26.16l.75.47c.6.36,1.16.7,1.68,1,.11,0,.25.16.36.2l0,.06Z"/><path class="cls-30" d="M197,163.26c1.08-1.13,7.25,3.62,11.64,8.8s15.26,20.43,15.39,23.27-15.39.39-21.86-3.75S194.25,166.1,197,163.26Z"/><path class="cls-31" d="M33.86,319.64,36.52,300s3,1.25,8.26,2.93l3.06.94c2.07.63,4.39,1.28,6.94,1.94,1.11.29,2.27.58,3.47.86,4.59,1.1,9.76,2.16,15.38,3l1.46.22c1,.15,2,.3,3.09.42,2.42.33,4.9.6,7.45.83l1.19.1c1.27.11,2.56.2,3.84.27,3,.18,6,.29,9.1.3h.54c2.09,0,4.21,0,6.35-.12,4-.16,8.15-.49,12.3-1,3.5-.44,7-1,10.57-1.77.49-.1,1-.2,1.5-.32l.09,1,.89,10Z"/><path class="cls-32" d="M33.86,319.64,36.52,300s3,1.25,8.26,2.93l3.06.94c2.07.63,4.39,1.28,6.94,1.94,1.11.29,2.27.58,3.47.86,4.59,1.1,9.76,2.16,15.38,3l1.46.22c1,.15,2,.3,3.09.42,2.42.33,4.9.6,7.45.83l1.19.1c1.27.11,2.56.2,3.84.27,3,.18,6,.29,9.1.3h.54c2.09,0,4.21,0,6.35-.12,4-.16,8.15-.49,12.3-1,3.5-.44,7-1,10.57-1.77.49-.1,1-.2,1.5-.32l.09,1,.89,10Z"/><polygon class="cls-33" points="58.26 306.55 58.25 306.66 58.14 307.85 58.14 307.86 57.1 319.64 42.7 319.64 44.78 302.92 44.8 302.76 47.85 303.61 54.8 305.57 58.26 306.55"/><polygon class="cls-32" points="58.26 306.55 58.25 306.66 58.14 307.85 58.14 307.86 57.1 319.64 42.7 319.64 44.78 302.92 44.8 302.76 47.85 303.61 54.8 305.57 58.26 306.55"/><path class="cls-33" d="M99.7,319.64c0-1.8.13-3.42.25-4.82.08-1.13.18-2.13.3-3,0-.16,0-.31.08-.46l6.34-.24,12.28-.45v0l.18,2.23h0l.51,6.69Z"/><path class="cls-32" d="M99.7,319.64c0-1.8.13-3.42.25-4.82.08-1.13.18-2.13.3-3,0-.16,0-.31.08-.46l6.34-.24,12.28-.45v0l.18,2.23h0l.51,6.69Z"/><polygon class="cls-33" points="75.15 308.96 75.1 309.81 75.09 309.92 75 311.47 74.5 319.64 53.42 319.64 54.66 306.98 54.78 305.8 54.8 305.57 54.8 305.51 75.15 308.96"/><polygon class="cls-32" points="75.15 308.96 75.1 309.81 75.09 309.92 75 311.47 74.5 319.64 53.42 319.64 54.66 306.98 54.78 305.8 54.8 305.57 54.8 305.51 75.15 308.96"/><path class="cls-33" d="M90.66,311v3l0,3.79v1.76H72.06c.28-3.14.57-6,.86-8.56.06-.49.11-1,.16-1.43l.55.05,1.47.11,3.11.25,7.44.58,1.21.1Z"/><path class="cls-32" d="M90.66,311v3l0,3.79v1.76H72.06c.28-3.14.57-6,.86-8.56.06-.49.11-1,.16-1.43l.55.05,1.47.11,3.11.25,7.44.58,1.21.1Z"/><path class="cls-33" d="M86.39,319.64c.12-2.53.23-4.61.32-6.14,0-.95.09-1.7.11-2.23,0-.21,0-.39,0-.53s0-.39,0-.39l13.15,1,.3,0,0,.46c-.07,1-.13,2-.19,3h0c-.08,1.56-.16,3.17-.22,4.81Z"/><path class="cls-32" d="M86.39,319.64c.12-2.53.23-4.61.32-6.14,0-.95.09-1.7.11-2.23,0-.21,0-.39,0-.53s0-.39,0-.39l13.15,1,.3,0,0,.46c-.07,1-.13,2-.19,3h0c-.08,1.56-.16,3.17-.22,4.81Z"/><path class="cls-34" d="M131.66,309.87l-.11-1.2h0l0-.51,0-.17-.25.06-.18,0h0l-.15,0-.44.09h0l-1.77.38h0c-3.11.63-6.3,1.16-9.55,1.59l-12.45.46-6.32.23h-.1l-13.87-1.06,0,.38-.7-.05-7.39-.58-2.64-.2.06-.81L54.88,305l-.25,0-6.73-1.9-3.53-1,0,.15c-4.81-1.56-7.6-2.71-7.62-2.72l-.63-.26-2.77,20.38H79.58l.06-.33s.34-3.46,3.78-1.38c0,0,0,.59-.08,1.71h6.19c.08-1.12.11-1.71.11-1.71l1-.05,6.58-.3c-.06.67-.13,1.36-.19,2.06h35.5Z"/><path class="cls-35" d="M78.94,152.05S80.32,179.3,101,178.78s16.55-20.18,16.55-20.18,16,6.21,18.63,21.21S131,308.62,131,308.62s-15.52,9.31-42.42,5.17S47.74,305,47.74,305L59.63,160.15A49.7,49.7,0,0,1,78.94,152.05Z"/><path class="cls-36" d="M87,179.81c6.52,4.43,17,6.09,24.6,2.22s10.22-12.24,10.54-21a32,32,0,0,0-4.62-2.39s4.14,19.66-16.55,20.18-22.07-26.73-22.07-26.73a51.42,51.42,0,0,0-7.28,2C72.49,163.4,79.66,174.79,87,179.81Z"/><path class="cls-35" d="M136.19,179.82c-.08-.46-.17-.92-.28-1.36a22.92,22.92,0,0,0-1.23-3.78c-.08-.21-.17-.4-.26-.59-.19-.43-.4-.83-.61-1.24-.1-.19-.19-.37-.3-.56s-.21-.37-.32-.54c-.31-.54-.65-1.06-1-1.58-.12-.16-.23-.33-.36-.49s-.25-.35-.39-.53-.22-.29-.34-.43a27.44,27.44,0,0,0-2-2.26l-.35-.35a33.67,33.67,0,0,0-3.44-3l-.62-.46-1-.66c-.2-.15-.4-.28-.61-.41-.91-.59-1.76-1.1-2.51-1.51l-.3-.16c-1.12-.6-2-1-2.42-1.18l-.17-.07-.17-.07s0,0,0,0,0,0,0,.06a1.05,1.05,0,0,0,0,.13c0,.2.1.55.15,1a2.43,2.43,0,0,1,0,.38c0,.13,0,.25,0,.38s0,.21,0,.33v.18h0c0,.19,0,.38,0,.59s0,.26,0,.4c0,.31,0,.64,0,1,0,.09,0,.19,0,.29s0,.38,0,.58V164l0,.39c0,.29,0,.58-.09.87l0,.19c0,.22-.06.42-.09.63s0,.23-.06.35-.09.43-.14.65a16.28,16.28,0,0,1-.92,2.88,13.24,13.24,0,0,1-4.58,5.7h0l.71,0a.52.52,0,0,1,.52.52c.06,3.87,1,8.39-1.13,11.87-1.78,2.9-7.59,2.7-10.45,2.59-3.41-.12-8.15-.21-10.54-3.05-2.06-2.47-1.4-7.38-.88-10.26a.51.51,0,0,1,.64-.35c2,.45,5.28,1.92,7.79,1.72h.15A21.76,21.76,0,0,1,96,178.3a18.43,18.43,0,0,1-3.29-1.11c-.26-.11-.5-.23-.75-.36a17.56,17.56,0,0,1-3.56-2.42q-.52-.47-1-1a22.54,22.54,0,0,1-1.82-2.11c-.28-.36-.55-.74-.81-1.12-.12-.2-.24-.38-.37-.58-.24-.37-.46-.74-.67-1.11s-.46-.84-.67-1.26-.4-.81-.58-1.21l-.27-.61c-.08-.2-.17-.38-.24-.57-.16-.42-.33-.84-.48-1.25-.07-.2-.14-.41-.21-.6s-.15-.41-.21-.6-.09-.26-.12-.38c-.08-.27-.17-.53-.24-.79s-.13-.44-.19-.66,0-.15-.07-.23-.11-.42-.16-.63-.13-.5-.19-.74-.09-.36-.12-.54-.08-.34-.12-.52c-.08-.34-.14-.67-.2-1s-.1-.49-.13-.72a4,4,0,0,1-.08-.46c-.11-.65-.2-1.23-.26-1.73h0a1.8,1.8,0,0,1,0-.22c0-.14,0-.27,0-.41l0-.2c0-.18,0-.34,0-.48s0-.12,0-.17,0-.29,0-.36,0-.14,0-.14l-.47.1c-.84.17-1.66.35-2.46.56l-.75.19h-.07l-.08,0L75,153h0l-.16,0c-.69.21-1.37.41-2,.62l-.65.22-.49.17c-.26.09-.53.18-.78.28l-1.51.58h0l-1.39.59c-1.58.69-3,1.4-4.12,2l-.32.18c-.7.39-1.3.75-1.81,1.07l-.34.22c-1.08.69-1.66,1.13-1.66,1.13l-.75,9.13-4.67,56.86-.06.82-2.52,30.6-2.72,33.08-1,12.45,0,.52v.25l-.1,1.14,0,0a1,1,0,0,1,.2.06l.23.07.76.24.23.07c.59.18,1.36.4,2.3.66l1,.28.68.18c.22.06.46.12.7.2l.45.11.33.09.67.17.09,0,.8.21,1.86.46h.06c.15,0,.31.08.47.12l.79.19.35.08,1.79.42,2,.46c.37.07.76.16,1.15.25l.41.09.81.18,2.59.54.72.15.73.15.28.06.91.18,1.81.36,2.08.39c1,.19,2,.37,3,.55a1.09,1.09,0,0,0,.26,0l1.47.27.46.08.51.09.51.09,3.47.58,1.17.18a10.16,10.16,0,0,1-.2-2.18,4.78,4.78,0,0,1,0-.53c0-.1,0-.22,0-.33s0-.13,0-.19a169.48,169.48,0,0,1,1.75-17.3c.11-.67.22-1.33.36-2,0-.36.12-.72.19-1.07,0-.14,0-.29.08-.43h0c1.12-5.89,2.58-11.66,4.26-17.43,2-7,4-14.1,3.79-21.46a.52.52,0,0,1,1,0c0,.85,0,1.71,0,2.57h0a8.72,8.72,0,0,0,2.92,5.85c.92.85,2.15,1.47,3,2.38,1.58,1.65.53,5,.4,6.92-.55,7.61-1,15.26-1,22.89,0,.83,0,1.67,0,2.51,0,.68,0,1.36,0,2v.47c0,.38,0,.77,0,1.15a45.15,45.15,0,0,1-1.2,10.59,17.35,17.35,0,0,1-1,3c-.07.17-.15.34-.23.5a4.67,4.67,0,0,1-.27.49,7.69,7.69,0,0,1-2.62,2.86l2.53.11h.44l.8,0q3,0,5.67-.12l1.67-.1,1.6-.14,1.56-.17.93-.13a5.54,5.54,0,0,0,.57-.07l.37-.06c1.06-.15,2.08-.33,3-.51,0,0,0,0,0,0l1.41-.29,1.36-.31.91-.22c.6-.15,1.16-.3,1.72-.46l.8-.23,1.18-.36,1.51-.51c.53-.2,1-.38,1.51-.57l.67-.26c.64-.27,1.21-.52,1.67-.74s.61-.28.84-.4l.07,0h0c.59-.29.91-.49,1-.53h0s0-.06,0-.18,0-.21,0-.36h0s0-.07,0-.11c0-.22,0-.49.05-.81,0-.09,0-.19,0-.3v-.15c0-.23,0-.5.06-.78s0-.36,0-.56c0-.5.07-1.06.12-1.67,0-.39.05-.83.08-1.27s0-.73.08-1.12c.15-2.26.32-5,.52-8.1.06-.95.12-1.93.18-3,0-.37.06-.74.07-1.12.06-.9.12-1.83.18-2.77s.12-1.93.18-2.91a.25.25,0,0,0,0-.08c0-.64.08-1.28.11-1.93.12-2,.26-4.13.38-6.3l.12-2.12c0-.06,0-.11,0-.16.05-1,.12-2.05.18-3.09a1.09,1.09,0,0,0,0-.18c0-.75.09-1.51.13-2.28s.1-1.61.14-2.42c.06-1.1.12-2.21.2-3.33,0-.81.08-1.62.13-2.44s.09-1.59.13-2.4c.18-3.19.35-6.44.52-9.7.05-.81.09-1.63.13-2.45.24-4.68.47-9.36.68-13.95,0-.18,0-.35,0-.53s0-.36,0-.55v-.09c.08-1.82.16-3.63.23-5.42,0-.87.08-1.74.11-2.59h0c0-.38,0-.75,0-1.12s0-.69.05-1h0l0-.95c0-.19,0-.38,0-.57l0-.54c0-1.23.09-2.44.13-3.64,0-.58,0-1.17.06-1.74,0-.09,0-.17,0-.25,0-.88.05-1.75.08-2.6,0-.51,0-1,.05-1.52.07-2.54.14-5,.18-7.27,0-.82,0-1.61,0-2.4C136.8,189.16,136.68,182.69,136.19,179.82ZM102.59,197a.49.49,0,0,1,.28-.57.45.45,0,0,1,.47-.34c2.65.11,5.07-.75,7.63-1.27a.51.51,0,0,1,.63.36,69.76,69.76,0,0,1,1,11.81c0,3.17.51,6.77-.3,9.87,0,0,0,.08,0,.12a6.57,6.57,0,0,1-2.88,4c-1.85,1.21-4.28,1.65-6.7,2a.52.52,0,0,1-.63-.36C100.34,214.08,104.3,205.56,102.59,197ZM90.75,208.37c-.16-4.44-.9-8.87-.34-13.29a.52.52,0,0,1,.78-.45,6.11,6.11,0,0,0,3.88.7.53.53,0,0,1,.51.52c.06,8.14,1.52,16.48-.79,24.45a.52.52,0,0,1-1-.27c.1-.33.18-.66.26-1-1,1.46-1.92,3-2.93,4.49a.53.53,0,0,1-1-.27C90.18,218.31,91,213.31,90.75,208.37Z"/><path class="cls-6" d="M239.67,152c-.37-1.58-2.06-2.78-3.3-3.81a30,30,0,0,0-.09-6.45,4.34,4.34,0,0,0-.45-4.42.46.46,0,0,0-.58-.37c-.24.07-.49.11-.73.17h0a7.48,7.48,0,0,0-2.7-1.2,16,16,0,0,0-3.13-.71c-.75-2.24-1.69-4.42-3.63-5.85-2.45-1.8-4.63.15-6.57,1.78.09-3.31.11-6.63.34-10,.41-5.82,1.23-11.34-.37-17.06-.63-2.29-2.45-5.11-5.17-3.92-2.16,1-2.55,4.6-2.8,6.56a64,64,0,0,0-.18,10.45,66,66,0,0,1-1.2,14.63c-1.26,6.76-3.87,12.87-6.37,19.23a14.56,14.56,0,0,0-.11,10.51c-1,3.18-2.88,6.05-4.31,9-1.3,2.72-2.68,5.31-4.11,7.94a.41.41,0,0,0,.05.49c-.16,4,.58,8.5,3.15,11.69s6.86,5.06,10.7,3a.54.54,0,0,0,.46-.23c2.79-3.81,2.62-9.5,5.75-13a9.6,9.6,0,0,0,9.44.88c2.4-1.06,3.88-3.71,5-5.93a42.65,42.65,0,0,0,3.51-9.45,1.88,1.88,0,0,0,2.28.38c2.53-1.17,3.49-5.9,4.31-8.29C239.5,156.16,240.14,154,239.67,152Z"/><path class="cls-8" d="M235,163.15c-2-.55-1.35-3.84-.88-5.14a63.26,63.26,0,0,0,2.55-9.56l-.33-.28c0-.39.07-.81.09-1.22a14.1,14.1,0,0,1-.59,1.65c-.63,1.43-2.16,3.82-4.11,3s-1.67-3.3-.58-4.75c1.42-1.89,4.59-2.3,5.13-4.81,0-.1,0-.21,0-.31a4.75,4.75,0,0,0,.06-3.57c-.59,4.1-5.71,4.51-9.34,4.7-6.89.37-9.68,6.31-14.91,9.8-1.29.85-4,2.69-5.64,1.72-1.38-.8-.59-2.88-.15-4,1.08-2.67,3.22-4.26,5.5-5.86A79.1,79.1,0,0,1,222,138.85a.47.47,0,0,1,.51,0c2.08-.58,4.16-.3,6.68-.41a14.51,14.51,0,0,0,5.35-1.38,7.63,7.63,0,0,0-2.7-1.19,15.83,15.83,0,0,0-2.86-.67,8,8,0,0,1,0,1.47.55.55,0,0,1-.52.53c-2.27.11-5.61.44-6.89-2-.86-1.66-1.78-4.07-.89-5.8a20.53,20.53,0,0,0-2.18,1.69c.09-3.31.11-6.63.34-10,.41-5.82,1.23-11.34-.37-17.06a7.18,7.18,0,0,0-1.95-3.4,2.23,2.23,0,0,0-1,1.55,25.81,25.81,0,0,0-.64,5c-.14,2.79-.08,5.58,0,8.38a70,70,0,0,1-.81,15.24,26.87,26.87,0,0,1-2.17,7.32c-.55,1.05-1.33,3.28-2.56,3.76s-2-.72-2.21-2.37c-1.27,3.88-2.82,7.65-4.34,11.51a14.56,14.56,0,0,0-.11,10.51c-1,3.18-2.88,6.05-4.31,9-1.3,2.72-2.68,5.31-4.11,7.94a.41.41,0,0,0,.05.49c-.16,4,.58,8.5,3.15,11.69s6.86,5.06,10.7,3a.54.54,0,0,0,.46-.23c2.79-3.81,2.62-9.5,5.75-13a9.6,9.6,0,0,0,9.44.88c2.4-1.06,3.88-3.71,5-5.93a42.65,42.65,0,0,0,3.51-9.45,1.88,1.88,0,0,0,2.28.38c1.38-.64,2.3-2.35,3-4.16A2.65,2.65,0,0,1,235,163.15Zm-9.83-8c-1.5-.45-1.69-2.88-1.65-4.16.08-2.26,1.7-3.14,3.72-3.74a.42.42,0,0,1,.22,0l.69-.45a.52.52,0,0,1,.78.45C228.77,148.71,227.88,155.94,225.2,155.14Z"/><path class="cls-7" d="M219.36,130.39l-.88.73c.05-1.72.08-3.43.12-5.14-.95,5.14-.88,10.46-1.91,15.57,1.74-.94,3.51-1.82,5.28-2.7a.47.47,0,0,1,.51,0l.17,0A8.74,8.74,0,0,1,219.36,130.39Z"/><path class="cls-7" d="M234.59,165c-5.71-.6-3.4-6.44-1.23-10.81-1.09,1.22-2.43,2.81-4.09,3.18-1,.22-1.57-.11-1.85-.74-.87,1.09-3,3-4,.87a11.7,11.7,0,0,1-.56-7.39,6.78,6.78,0,0,1,2.7-3.78,14.87,14.87,0,0,0-2,.58c-1.62.59-2.77,1.3-2.6,3.22a15.34,15.34,0,0,1,.25,2.77c-.4,4.55-.95,10.44-5.34,13.06-4.91,2.93-10.32-.06-13.28-4.53,0,.05,0,.09,0,.13s-.05.14-.07.22h0a48.16,48.16,0,0,0,3.92,8.69c.6,1.09,2,2.55,1.72,3.86a4.33,4.33,0,0,1-2,2.51c-2.9,1.62-5.93-3.13-7.56-6.85-.11.21-.2.41-.3.6-1.3,2.72-2.68,5.31-4.11,7.94a.41.41,0,0,0,.05.49c-.16,4,.58,8.5,3.15,11.69s6.86,5.06,10.7,3a.54.54,0,0,0,.46-.23c2.79-3.81,2.62-9.5,5.75-13a9.6,9.6,0,0,0,9.44.88,8.65,8.65,0,0,0,3.61-3.44,12.66,12.66,0,0,1-2.78.63,5.86,5.86,0,0,1-6.73-6.18c.05-4,4-10.27,8.63-10,4.25.27,4.69,4,4.57,7.61a36.92,36.92,0,0,0,1.2-4,1.88,1.88,0,0,0,2.28.38,4.42,4.42,0,0,0,1.71-1.58A4.18,4.18,0,0,1,234.59,165Z"/><path class="cls-9" d="M239.67,152c-.37-1.58-2.06-2.78-3.3-3.81a30,30,0,0,0-.09-6.45,4.34,4.34,0,0,0-.45-4.42.46.46,0,0,0-.58-.37c-.24.07-.49.11-.73.17h0a7.48,7.48,0,0,0-2.7-1.2,16,16,0,0,0-3.13-.71c-.75-2.24-1.69-4.42-3.63-5.85-2.45-1.8-4.63.15-6.57,1.78.09-3.31.11-6.63.34-10,.41-5.82,1.23-11.34-.37-17.06-.63-2.29-2.45-5.11-5.17-3.92-2.16,1-2.55,4.6-2.8,6.56a64,64,0,0,0-.18,10.45,66,66,0,0,1-1.2,14.63c-1.26,6.76-3.87,12.87-6.37,19.23a14.56,14.56,0,0,0-.11,10.51c-1,3.18-2.88,6.05-4.31,9-1.3,2.72-2.68,5.31-4.11,7.94a.41.41,0,0,0,.05.49c-.16,4,.58,8.5,3.15,11.69s6.86,5.06,10.7,3a.54.54,0,0,0,.46-.23c2.79-3.81,2.62-9.5,5.75-13a9.6,9.6,0,0,0,9.44.88c2.4-1.06,3.88-3.71,5-5.93a42.65,42.65,0,0,0,3.51-9.45,1.88,1.88,0,0,0,2.28.38c2.53-1.17,3.49-5.9,4.31-8.29C239.5,156.16,240.14,154,239.67,152Zm-8.89-15.57c.83.25,1.67.66,2.51.94a28.16,28.16,0,0,1-3.77.38c-.22-.62-.42-1.27-.63-1.92Zm-5.18-5.65c1.27,1.05,1.85,2.74,2.39,4.42-.09.08-.12.25,0,.3l.09,0a19.63,19.63,0,0,0,.82,2.24c-1.3.05-2.61.05-3.93.05a9.89,9.89,0,0,0-3.4.58c-.16-.45-.35-.89-.49-1.33a11,11,0,0,0-.61-1.56.17.17,0,0,0-.3.13c.16.51.34,1,.5,1.54a9,9,0,0,1,.28,1.46,16.7,16.7,0,0,0-3,1.74l-.2.14a73.23,73.23,0,0,0,.68-8.85C220.8,130.24,222.86,128.49,225.6,130.76Zm13,26.3a32,32,0,0,1-2.68,6.6c-.75,1.45-2.76,3.13-3.65.6a7.62,7.62,0,0,1-.29-2.73c0-2.85,1.56-5.07,3.1-7.34a.14.14,0,0,0-.22-.16c-2.43,2.56-4.06,5.3-3.8,8.92a5.81,5.81,0,0,0,.69,2.33c-1.69,4.68-3,10.21-6.59,13.87-2.11,2.17-5.39,2.46-8.19,1.76s-4.65-3-6.39-5.25c-.11-.15-.31,0-.24.18a12,12,0,0,0,3.53,4.32c-1.27.68-1.8,2.5-2.29,3.74a69.2,69.2,0,0,1-3.76,8.81c-4.13,1.53-7.94-.35-10.19-4-1.83-3-2-6.37-2.71-9.64h0c2.47-5,6.61-12.86,8.11-16.48a34.52,34.52,0,0,0,2.09,4.23c0,.08.19,0,.15-.07a42.19,42.19,0,0,1-2.51-7.35c-.61-3,.23-6,1.33-8.87,2-5.18,4.14-10.17,5.46-15.61a64.45,64.45,0,0,0,2-14.82c0-2.39-.19-4.78-.21-7.17a35.94,35.94,0,0,1,.84-9.2c.3-1.13.83-2.48,2.06-2.84,2.33-.69,3.43,2.93,3.87,4.51,1.43,5,.38,10.62.27,15.75a178.16,178.16,0,0,1-1.24,19.32.36.36,0,0,0,.17.37c-3.91,2.5-8.54,3.76-10.94,8.11-.08.13.11.28.2.16a16.33,16.33,0,0,1,5.39-4.45,49.86,49.86,0,0,0,6.63-3.39,15.18,15.18,0,0,1,3.93-2.25c1.6-.53,3.63-.27,5.3-.26a29.57,29.57,0,0,0,7.32-.82c1.74,2-.19,5-1.9,6.16a11,11,0,0,1-4.7,1.47,16.4,16.4,0,0,0-8.42,3.59c-.14.12,0,.33.19.25.31-.17.65-.31,1-.46-.15,6.78,1,17.07-8,18.43-.15,0-.11.26,0,.26a8.34,8.34,0,0,0,7.8-5.42,23.63,23.63,0,0,0,1.1-4.08,3.48,3.48,0,0,0,4.21.82,2.09,2.09,0,0,0,.67-.56,2.07,2.07,0,0,0,1.37,1.66c1.81.5,2.93-1.59,3.69-2.86,1.25-2.05,2.91-3.84,3.68-6.13a13.68,13.68,0,0,0,.46-1.91c.55.54,1.14,1.06,1.69,1.63C239.62,152.53,239.05,155,238.55,157.06Zm-16.66-8.41a31.94,31.94,0,0,1,6.08-1.89l1.1-.23c-.51,2.32-.94,4.64-1.28,7a15.26,15.26,0,0,1-.71,2.91.35.35,0,0,0-.18.26,1.62,1.62,0,0,0,0,.22c0,.12-.09.24-.15.36-1,2.15-3.75,1.47-4.37-.44A18,18,0,0,0,221.89,148.65Zm6.57,5.8c.56-2.71,1.07-5.42,1.6-8.13a12,12,0,0,0,3.62-1.34,6.29,6.29,0,0,0,2-2.1c-.08,1.71-.09,3.48-.3,5.19a.62.62,0,0,0,0,.13,13.29,13.29,0,0,1-1.05,3.93,26.7,26.7,0,0,1-2.2,3.2c-.46.68-.84,1.42-1.27,2.13-1,1.6-2.56,1.28-3.15-.23A16.24,16.24,0,0,0,228.46,154.45Z"/><path class="cls-37" d="M86.51,232.47c0,1-.09,1.92-.15,2.9-.38,6.46-1,13.41-1.73,20.71-.08.85-.16,1.69-.25,2.55a.88.88,0,0,0,0,.16l-.12,1c0,.48-.09.95-.15,1.42a2.77,2.77,0,0,1,0,.3c-.06.62-.13,1.24-.2,1.86-.19,1.68-.37,3.39-.58,5.11,0,.42-.09.84-.14,1.26s-.1.91-.16,1.36v0c-.57,5-1.19,10-1.82,15.16l-.06.45c0,.36-.09.73-.13,1.09-.89,7.15-1.8,14.41-2.68,21.67,0,.17,0,.34-.07.52l0,.28c-.07.56-.14,1.12-.2,1.68-.31,2.54-.61,5.09-.91,7.62H13.81C18.29,295.35,22,279.3,22,279.3-3.13,277.93-1.41,254.47,2,241c.72-2.83,1.46-5.53,2.2-8.13.65-2.32,1.32-4.57,2-6.72l.48-1.52c.22-.72.45-1.42.68-2.11.13-.42.28-.83.41-1.24l.58-1.71a175.64,175.64,0,0,1,8.75-21.35c.62-1.26,1.25-2.46,1.87-3.62.34-.66.69-1.29,1.05-1.92s.83-1.45,1.23-2.15c.23-.39.46-.76.69-1.14s.46-.76.69-1.12.46-.73.69-1.08c.45-.71.9-1.4,1.36-2.06l.33-.49c6.87-10,13.24-14.89,18-18.83a45,45,0,0,1,11.14-6.22h0l.13-.05c.66-.28,1.33-.54,2-.81q1.59-.62,3.21-1.2h0c1.08-.38,2.17-.75,3.24-1.1l2.65-.84c2.06-.63,4-1.19,5.78-1.66l1.28-.33c.55-.15,1.08-.3,1.57-.41.25-.06.5-.12.73-.19l.4-.1h0l.85-.2.39-.1.69-.16,1.31-.3.47-.1s0,.62.17,1.76a1.8,1.8,0,0,0,0,.22h0c.66,6.58,3,28.58,6.71,52.5C86.9,213.34,87,222.21,86.51,232.47Z"/><path class="cls-38" d="M85.84,206.54c-3.75-23.92-6-45.92-6.71-52.5h0a1.8,1.8,0,0,1,0-.22c0-.14,0-.27,0-.41,0-.61-.1-1-.11-1.21s0-.14,0-.14l-.47.1-1.31.3-.69.16-.39.1-.54.13-.43.1L75,153h0l-.11,0-.05,0-.68.17-1.57.41-1.28.33-1.35.37-.71.2-2.2.63-1.52.46-2.65.84c-1.07.35-2.16.72-3.24,1.1h0q-1.62.58-3.21,1.2l-2.14.86A23.89,23.89,0,0,1,56.72,164c.8,1.71,1.51,3.47,2.16,5.25,1.55,4.17,2.82,8.46,4.44,12.58,1.8,4.58,3.19,8.53.9,13.22-2.23,4.54-6.63,10-.7,13.66,3.46,2.12,8.49,3.62,10.23,7.64s-1.74,5.68-5,6c-4.73.49-9,2.37-13.57,3.49l-.95.24c-2.29.6-5.79,1.39-7-.9s-.76-5.25-.38-7.66A89,89,0,0,1,50,204.85c2-6.45,4.52-12.75,6.74-19.13a47.25,47.25,0,0,0-10.67,13.06,73.54,73.54,0,0,0-5,9.71c-1.16,2.94-2.1,6-3.3,8.87a25.72,25.72,0,0,1-4.17,7.31c-2.24,2.49-5.19,3.93-7.74,6.06-5,4.15-8.43,10.29-12,15.67-1.35,2.06-4.2,6.61-7.15,4.42-3.41-2.54-1-9.12-.24-12.31,1.74-7.07,3-14.2,5.08-21.21a152.11,152.11,0,0,1,7.84-21.66c1.76-3.72,3.65-7.35,5.59-11a.43.43,0,0,0,0-.07c-.12.19-.26.37-.37.56-.46.66-.91,1.34-1.36,2.06q-.34.53-.69,1.08c-.23.36-.46.74-.69,1.12s-.46.75-.69,1.14c-.41.69-.82,1.41-1.23,2.15S19.34,194,19,194.63c-.62,1.16-1.25,2.36-1.87,3.62A175.64,175.64,0,0,0,8.38,219.6l-.58,1.71c-.13.41-.28.82-.41,1.24-.23.69-.46,1.39-.68,2.11l-.48,1.52c-.16.54-.33,1.08-.5,1.63l-1,3.36c-.16.56-.32,1.14-.49,1.73C3.5,235.5,2.76,238.2,2,241c-3.45,13.44-5.17,36.9,20,38.27,0,0-3.75,16.05-8.23,40.34H20c1.09-4.33,2.5-8.62,3.24-12.9,1-5.61.81-14.9,8-16.2a.52.52,0,0,1,.6.35c5.69.13,11.4,0,17.09-.25h0c3.26-.13,6.5-.32,9.75-.52,6-.37,11.85-.78,16.39-4.81.28-.25.56-.51.83-.79.11-.1.21-.22.31-.33l.22-.24A32.61,32.61,0,0,0,83,271.17v0c.06-.45.11-.91.16-1.36s.1-.84.14-1.26c.21-1.72.39-3.43.58-5.11.07-.62.14-1.24.2-1.86a2.77,2.77,0,0,0,0-.3c.06-.47.1-.93.15-1.41h0l.12-1c0-.05,0-.11,0-.16h0c.09-.86.17-1.7.25-2.55.75-7.3,1.35-14.25,1.73-20.71.06-1,.11-1.94.15-2.9C87,222.21,86.9,213.34,85.84,206.54Zm-71.3,52.51a.51.51,0,0,1-.77-.44c0-7.06,4.66-13.63,9.12-18.75a81.55,81.55,0,0,1,7.5-7.93c2-1.81,4.29-3.21,7.1-2.62h.41a.53.53,0,0,1,.27,1c-3.31,2.27-6.93,4.33-9.73,7.24a49,49,0,0,0-7.08,9.36C19.19,250.67,18.26,256.39,14.54,259.05Zm48.16-7.58c-.05,1.35,0,3.24-1.26,4.14-1.76,1.31-4.3.83-6.33,1.26-1.15.25-2.31.47-3.48.69-1.66.33-3.33.66-4.94,1.13-3.53,1-7,2.18-10.61,3.06s-16.47,4.24-15-3.46A26.16,26.16,0,0,1,24,251.05c1.31-2.43,2.46-5,3.8-7.4A33.45,33.45,0,0,1,40.4,230.58a.49.49,0,0,1,.68.17,9,9,0,0,1,.81-.56c2.9-1.78,6.13-1.9,9.38-2.55,1-.19,1.94-.42,2.88-.68,6.09-1.62,11.87-4.29,18.24-4.9.57-.06.63.69.26,1-5.4,3.91-7.91,11.53-9,17.87A75,75,0,0,0,62.7,251.47Z"/><path class="cls-38" d="M22,279.3l0,.12c8.73-.29,17.49-1.71,26.15-2.53,5-.47,9.91-1,14.84-1.73,2.24-.34,4.64-.59,7-1-4.35-1.71-3.62-7.8-5.25-12-15.27,1.52-30,8.09-45.45,7.25-5.69-.31-11.83-1.69-15.28-6.67A18.74,18.74,0,0,1,.61,252.06c0-1.84.13-3.67.25-5.5C-1.41,260.07.06,278.1,22,279.3Z"/><path class="cls-37" d="M138.61,319.64c-.07-.71-.14-1.39-.2-2a1.37,1.37,0,0,1,0-.19c0-.44-.06-.86-.08-1.27,0-.2,0-.4-.05-.6s0-.38,0-.58c0-.38-.05-.74-.05-1.09s0-.8,0-1.17,0-.75,0-1.08v-.07c0-.17,0-.32,0-.48s0-.26,0-.38l0-.23c0-.22,0-.46.07-.73.08-.77.16-1.74.26-2.87,0-.17,0-.36,0-.55.08-1,.16-2,.25-3.2,0-.34.06-.68.08-1,.09-1.19.19-2.48.3-3.84,0-.3,0-.6.07-.92s0-.42,0-.64c0-.42.06-.86.1-1.31s.06-.89.09-1.35c.06-.67.1-1.36.15-2.06l.06-.71c.07-.95.14-1.92.2-2.9.2-2.84.42-5.82.62-8.87,0-.11,0-.21,0-.33h0c.07-1.08.15-2.18.22-3.27,0-.47.06-.94.08-1.41,1.07-15.8,2.13-32.6,2.63-41.62,0-.18,0-.36,0-.53s0-.38,0-.57c0-.47,0-.9.07-1.31s0-.78.05-1.13c0,0,.31.45.9,1.2.4.52.93,1.18,1.58,2l.64.76.63.72c4.7,5.37,13.37,13.82,23.25,16.56a23.67,23.67,0,0,0,5.42.87,12.11,12.11,0,0,0,4.13-.61c.28-.08.55-.17.83-.28s.54-.2.82-.32c16.56-7.07,36.85-43,41.47-54.66,0,0-21.38-9.65-26.56-31.38,0,0-8.62,10-25.17,46.21,0,0-1.72-3.79-6.21,3.79,0,0-10.34-14.82-15.17-22.76s-21.68-30.27-32.71-32.74h-.05s0,0,0,.06a1.05,1.05,0,0,0,0,.13c0,.33.12,1,.25,2.13v.16h0a249.83,249.83,0,0,1-.41,50.44l-.06.53-.06.57-.18,1.6c-.13,1.21-.28,2.44-.45,3.68h0c-.35,2.7-.74,5.46-1.19,8.27-4,24.74-6.55,47.35-7.87,66.22-.13,1.78-.24,3.52-.35,5.23l0,.48c0,.38-.05.75-.07,1.12-.23,4-.4,7.79-.51,11.38,0,.16,0,.34,0,.51s0,.39,0,.58c0,1-.05,2-.07,3h0c0,1.7,0,3.33-.06,4.91H138.6"/><path class="cls-38" d="M109.81,268.33c.28-1.07.57-2.13.87-3.19,2-6.83,3.86-13.76,6.26-20.45a96.23,96.23,0,0,1,7.46-15.64c3-5.27,6.46-10.76,7.95-16.7.43-1.72.94-3.57,0-5.24a25.82,25.82,0,0,0-1.7-2.56,7.55,7.55,0,0,1-1.58-5.08c.35-4.57,3.82-8.78,5.54-12.92A61.61,61.61,0,0,0,138,177.3c-.17-1-.35-2-.5-3-6.5-7.45-14.08-14.45-20-15.75,0,0,4.14,29-2.06,67.6C113.1,241.13,111.21,255.29,109.81,268.33Z"/><path class="cls-38" d="M141,274.38c0,.49-.07,1-.1,1.49-.07,1.09-.15,2.19-.22,3.27l0,.34c-.2,3-.42,6-.62,8.87-.07,1-.14,1.95-.2,2.9l-.06.71c-.05.7-.09,1.39-.15,2.06q0,.69-.09,1.35c0,.45-.06.89-.1,1.31,0,.22,0,.43,0,.64s-.05.62-.07.92c-.11,1.36-.21,2.65-.3,3.84,0,.35-.05.69-.08,1-.09,1.17-.17,2.23-.25,3.2,0,.19,0,.38,0,.55-.1,1.13-.18,2.1-.26,2.87,0,.27,0,.51-.07.73l0,.23c0,.12,0,.24,0,.38s0,.31,0,.48v.07c0,.34,0,.69,0,1.07s0,.77,0,1.18,0,.71.05,1.09c0,.2,0,.38,0,.58s0,.4.05.6c0,.41.05.83.08,1.27a1.37,1.37,0,0,0,0,.19c.06.65.12,1.33.19,2h-.5l0-.12a.53.53,0,0,0-1-.13l-.13.25H134.8c.17-.63.33-1.27.49-1.91.46-1.9.85-3.84,1.18-5.77l.18-1.08c0-.15,0-.31.07-.47.8-5.2,1.22-10.48,1.61-15.72s1.08-10.2,1.87-15.28c.24-1.65.51-3.3.76-5C141,274.44,141,274.4,141,274.38Z"/><path class="cls-38" d="M209.92,186c-.15,2-15.16,24.75-18.89,29.79-3,4-5.76,8.2-8.86,12.12-1.31,1.67-4.27,5.4-6.79,3.54s-3-5.24-3.38-8.08a94.56,94.56,0,0,1-.5-13.35l0,0c-3.26,8.31-.38,17.81-2.71,26.7a.52.52,0,0,1-.94.12C165,233.06,164.9,227.45,165,223a85.31,85.31,0,0,1,.83-9.43l-.36.6v0c-1.52,4.08-2.8,8.28-4.62,12.23-.44,1-1.5,4.16-3,4.17-1.84,0-3.27-2.26-4.16-3.6a67.09,67.09,0,0,1-5.13-9.61,44.41,44.41,0,0,1-2.89-7.34c-1.92-7.94-4.09-15.78-5.88-23.73,1.13,12.74,1.65,25.55,2.79,38.29q.44,4.8.88,9.59c.11-1.9.2-3.54.26-4.81,0,0,15.17,21.39,32.41,22.07s42.08-42.76,47.25-55.87A54.21,54.21,0,0,1,209.92,186Z"/><path class="cls-38" d="M206.36,218.92c-5.34,8.19-11.27,17.47-19.92,22.52a20.09,20.09,0,0,1-12.32,2.94c-5.59-.59-10.89-3.84-15.12-7.37-4.77-4-9.2-8.66-11.65-14.44-1.55-3.69-2.67-8-4.63-11.72.26,3.83.57,7.66.86,11.49.16,2.42.33,4.85.44,7.3,2,2.69,16.19,21.09,32.17,21.73,17.24.69,42.08-42.76,47.25-55.87,0,0-.31-.13-.82-.4C217.29,203.1,211.6,210.87,206.36,218.92Z"/><path class="cls-37" d="M114.47,234.82a332.94,332.94,0,0,0,1.72-44.14c-.69-24.15-1.76-29.36-1.76-29.36s-4.62-1.85-3.76-8.41c0,0,5.34-.34,9.14,2.25s18.1,18.27,18.1,18.27-6.55,18.28-11.89,26.39c0,0,4.83,4.3,5.86,5.86C131.88,205.68,118.6,225.5,114.47,234.82Z"/><path class="cls-38" d="M129.86,206.08c-2.64,3.08-5,7.2-9.05,8.55a.53.53,0,0,1-.64-.64c1.54-4.73,4.11-9,6.61-13.23a.55.55,0,0,1,.12-.14l-.88-.8a95.74,95.74,0,0,0,6.82-13.55c-2.06,3.52-4.18,7-6.57,10.33a78.7,78.7,0,0,0-4.71,6.67c-.57,1-.54,1-1.58,1a.54.54,0,0,1-.52-.52c-.29-8.81.89-17.6.68-26.41-.11-4.55-.09-9.66-1.28-14.07-.91-3.4-2.82-6.47-3.43-10a19.23,19.23,0,0,0-4.76-.44c-.86,6.56,3.76,8.41,3.76,8.41s1.07,5.21,1.76,29.36a332.94,332.94,0,0,1-1.72,44.14c4.13-9.32,17.41-29.14,17.41-29.14a11,11,0,0,0-.8-1C130.66,205.16,130.25,205.62,129.86,206.08Z"/><path class="cls-37" d="M81.88,149.29s8.27,55.18,5,78.29a55.25,55.25,0,0,0-14-14.83c-8.8-6.21-10.35-10-10.35-10s3.28-7.59,6.9-14.66c0,0-8.62-25.87-14-29.49A87,87,0,0,1,81.88,149.29Z"/><path class="cls-38" d="M79.84,215.35c-1.57-2-3.06-4-4.7-5.92a52,52,0,0,1-3.86-4.54c-2-3.1-1.19-6.14.32-9.3a.53.53,0,0,1,.71-.19,40.49,40.49,0,0,1,8.12,5.85,114,114,0,0,1-14.78-25.83c-1.42-3.5-2.58-7.13-4.17-10.55-1-2.2-2.42-4.2-3.41-6.41a3.61,3.61,0,0,1-.3-1.07c-1.46.75-2.28,1.21-2.28,1.21,5.35,3.62,14,29.49,14,29.49-3.62,7.07-6.9,14.66-6.9,14.66s1.55,3.79,10.35,10a55.25,55.25,0,0,1,14,14.83c.13-.92.23-1.89.33-2.9C84.81,221.42,82.22,218.33,79.84,215.35Z"/><path class="cls-39" d="M74.84,221c-5.18.76-10.19,2.5-15.29,3.65-5.32,1.2-10.7,2.09-16,3.51a27.75,27.75,0,0,0-3.37,1.14.55.55,0,0,0-.16-.27,4.88,4.88,0,0,0-2.91-1.35c1-2.9,1.78-5.89,2.83-8.79a98.72,98.72,0,0,1,4-9.21c2.77-5.79,6-11.31,8.93-17a.17.17,0,0,0-.3-.17c-3.35,5.45-6.6,11-9.56,16.67-3.05,5.89-4.87,12-7.09,18.25a.72.72,0,0,0,0,.29c-3.72.36-7.81,4-10.16,6.15a54.19,54.19,0,0,0-12.22,17.82c0,.11.09.2.15.09A71.36,71.36,0,0,1,23.17,238,40.31,40.31,0,0,1,30,232c2.47-1.71,6.26-4.29,9.05-2.15a21.64,21.64,0,0,0-6,4.18c-2.91,2.82-5.09,6.46-7.18,9.89-.09.14.12.26.22.13a60,60,0,0,1,7.78-9.2c3.73-3.45,8-4.89,12.79-6.17,4.65-1.24,9.39-2.09,14.08-3.15s9.48-2.72,14.35-3.44C75.8,222,75.52,220.92,74.84,221Z"/><path class="cls-39" d="M72,273.2c-4,.48-8,1.49-12.06,1.88-4.66.45-9.3,1-14,1.44s-9.33,1.19-14,1.6-9.43.12-14.1.71a.13.13,0,0,0,0,.26c9.42,1.2,18.75-.51,28.11-1.38,8.41-.78,16.67-1.91,25-3.18A6.39,6.39,0,0,0,72,273.2Z"/><path class="cls-39" d="M143.77,219.86a77.9,77.9,0,0,0-.44-10.69c-.5-3.87-1.17-7.7-1.46-11.59,0-.2-.32-.2-.32,0,0,7.12,1.22,14.15,1.14,21.3s.14,14.53,0,21.8c0,.21.33.26.36,0C144.38,234,143.7,226.72,143.77,219.86Z"/><path class="cls-39" d="M167.08,211.22c-3.64,4.62-4.31,10.48-4.52,16.19,0,.19.33.24.35,0,.84-5.57,1.7-11,4.49-16C167.52,211.27,167.23,211,167.08,211.22Z"/><path class="cls-39" d="M172,209.36c-2.66,4.12-2.62,9.51-2.38,14.25a.16.16,0,0,0,.32,0c.59-4.82.89-9.44,2.49-14.08C172.55,209.27,172.16,209.14,172,209.36Z"/><path class="cls-40" d="M74.63,221.54c3.11-.51,4.14,8.11,4.83,16.55s-4.65,34.83-8.8,36.56-8.1-12.24-5.68-30.18S74.63,221.54,74.63,221.54Z"/><path class="cls-39" d="M113.18,155.27c-.05-.11-.24,0-.21.09,1.39,4.15,1.26,8.57,2.33,12.79,0,.22.43.18.41-.06C115.44,163.75,115.21,159.21,113.18,155.27Z"/><path class="cls-39" d="M85.32,208.09a60.55,60.55,0,0,0-8.08-10.71c-3.16-3.59-5.35-7.94-8.61-11.44-.09-.09-.23,0-.17.14,4.46,8.25,11.24,14.58,16.7,22.11A.09.09,0,0,0,85.32,208.09Z"/><path class="cls-39" d="M128,196.59c-3.23,3.89-6,8.36-8.83,12.54-.07.09.08.17.14.08,3-4,7-7.75,9.05-12.34C128.46,196.65,128.19,196.37,128,196.59Z"/><path class="cls-41" d="M191.55,234.5l-9.76,15-2.11,3.28-.11.21-1.07,1.6-.14.25-.23.27-2.56,4-.9,1.43-.25.32-.09.15-2.56,4-1,1.51-.35.6-2.67,4-1,1.64-.28.37-.55.83-2.31,3.63-.58.88-.28.38-.23.4L161,281.48l-.41.7-.64,1-19.17,29.51-70.29-30.5c5-8.11,15.62-25.57,22.09-35.47,2.25-3.41,4.49-6.82,6.75-10.15.15-.25.31-.42.43-.62l2.58-3.75,0-.05c.35-.61.72-1.13,1.09-1.66.25-.32.46-.67.71-1s.4-.57.58-.87l.08-.16c0-.05.11-.07.14-.12,3.59-5.25,7.15-10.25,10.58-14.78.12-.2.31-.43.43-.63l.05,0a3.27,3.27,0,0,1,.43-.62c.09-.15.23-.28.31-.43l15.7,4.72.51.16.61.22,3.28,1,.51.16,6.91,2.12.51.16,0,0,.51.16.84.29.69.2.57.19,2.53.73.75.23.05,0,.69.2,1.71.53,15.1,4.57.51.16.57.19,0-.05,5.93,1.83.46.13.51.16,6.12,1.86Z"/><path d="M145.32,220.5l-.51-.16,0,0h0l-.51-.16-2.2-.68-.24-.07-4.47-1.36-.51-.17-.77-.22-2.51-.74-.62-.22c0-.18,0-.34,0-.52l-.51-.16-15-4.55-.52-.16-.42-.1-.2.35.14.68.12.75a6.3,6.3,0,0,1,.37-.53l.39.11,15.11,4.57.61.22,3,.87.44.12.53.19h0l.51.16,6.4,1.95h0l0,0,.5.16.38.15H145c.08,0,.13,0,.21,0l-.1-.05.21-.38Zm46.84,13.62L181.93,231l-.18,0-5.15-1.56-7-2.1-.55-.18h0l-.51-.17-13.48-4.08h0l-.11,0,0,0h0l-2.7-.84,0,0-.69-.19,0,0-.69-.2-2.74-.85-.46-.13-.51-.16-1.39-.4-.51-.16-.51-.17-7.45-2.22-1-.31-2-.6-.06,0-.64-.17-.46-.13-.51-.16-15-4.55-.52-.16-.42-.1-.2.35a2.6,2.6,0,0,0-.4.58,3.31,3.31,0,0,0-.48.59c-1,1.36-2.08,2.75-3.14,4.2l-2.88,4-3.61,5.08c-.4.71-.88,1.3-1.34,2l-.06.1a10,10,0,0,1-.8,1.16c-.2.34-.46.67-.66,1a5.19,5.19,0,0,0-.55.83c-.08,0-.08,0-.11.07l-.32.55c-.65.9-1.25,1.83-1.89,2.81a2.8,2.8,0,0,0-.43.62,3.34,3.34,0,0,0-.43.63c-2.44,3.63-4.91,7.31-7.33,11l-.08.15c-2.13,3.25-4.72,7.34-7.41,11.64h0C79.12,267,73.49,276.2,70.16,281.57a3,3,0,0,1-.19.3l.51.29,0,0h0l.4.23s0,0,0-.05l.23-.37c3.29-5.28,8-12.86,12.91-20.76,5.4-8.63,11.12-17.64,15.68-24.43,1.06-1.61,2.17-3.18,3.23-4.79l1.56-2.32.07,0c.23-.39.55-.82.78-1.22a16.7,16.7,0,0,0,1-1.37c3.17-4.56,6.28-8.88,9.26-12.87.14-.25.31-.42.43-.62s.29-.38.46-.54a6.3,6.3,0,0,1,.37-.53l.39.11,15.11,4.57.61.22,3,.87.44.12.53.19h0l.51.16,6.4,1.95h0l0,0,.5.16.38.15H145l.89.31,0,0,.83.2,2.5.79.7.19,0,0,.09,0,.66.25,0,0,.28.08c0,.08,0,0,.1.07l.08,0h0l1.44.46,14.52,4.38h.06l.7.21.51.17,0,0h0l.54.19,5.79,1.73.55.19h0l.51.15,6.2,1.85,8.57,2.61-10.37,15.95-1.95,3-.26.45-.31.43-2.63,4.06-.91,1.35-.26.46-2.66,4.11-.94,1.4-.32.56-2.76,4.18-1,1.53-.31.43-.52.77-2.38,3.66-.61.93-.47.81-1.95,2.9-.52.9-.08,0-.75,1.17L140.48,312l-.22.33.49.29h0l.4.22h0l.28-.44L160.65,283l.17-.3.53-.78.37-.52,1.46-2.31.24-.4.51-.78,2.33-3.56.6-.92.22-.36,1.08-1.66,2.54-3.9.32-.43.11-.2,1.12-1.7,2.45-3.76.32-.56.94-1.4,2.6-4,.17-.3.17-.18,2.65-4.11.27-.46.15-.21.18-.25,9.59-14.7.26-.45.4-.57Z"/><g class="cls-14"><path class="cls-41" d="M191.55,234.5l-9.76,15-2.11,3.28-.11.21-1.07,1.6-.14.25-.23.27-2.56,4-.9,1.43-.25.32-.09.15-2.56,4-1,1.51-.35.6-2.67,4-1,1.64-.28.37-.55.83-2.31,3.63-.58.88-.28.38-.23.4L161,281.48l-.41.7-.64,1-19.17,29.51L98.4,294.29c18.26-2.74,41.55-12.62,53.2-22.75a4,4,0,0,1,.39-.31,2.06,2.06,0,0,0,.33-.35.18.18,0,0,0,.11-.07c2-1.78,4-3.61,5.81-5.51,1.39-1.35,2.67-2.75,3.93-4.11l0-.05a6.67,6.67,0,0,1,.72-.79c.46-.55.91-1.09,1.41-1.61,1.12-1.36,2.25-2.73,3.3-4.07l0,0c.19-.23.31-.43.5-.65a18.93,18.93,0,0,0,1.17-1.54c.79-1,1.5-2,2.22-3a2,2,0,0,0,.34-.48,1.38,1.38,0,0,0,.28-.37,140.19,140.19,0,0,0,10-16.36l.26-.46Z"/></g><polygon class="cls-42" points="169.14 239.36 175.72 229.72 137.34 218.12 130.73 228.74 169.14 239.36"/><path class="cls-43" d="M169.62,227.31l-.55-.18h0l-.51-.17-13.48-4.08h0l-.11,0,0,0h0l-2.7-.84,0,0-.69-.19,0,0-.69-.2-2.74-.85-.46-.13-.51-.16-1.39-.4-.51-.16-.51-.17-7.45-2.22-.26.45-.35.47-.47.83h0l-.11.17-.28.37-.27.46-5.49,8.79,3.83,1.07.74.22,0-.05.75.23.31.09,8.06,2.23,3.93,1.1L169.34,240l6.58-9.64.34-.46.34-.48Zm-26,4.43-7-1.94-.75-.23,0,.05-.28-.09-.46-.14a1,1,0,0,1-.23-.06h-.05l-3.31-.93,4.39-7h0l.55-.86.47-.8.63-1,6.4,1.95h0l0,0,.5.16.38.15H145l.89.31,0,0,.83.2,2.5.79.7.19,0,0,.09,0,.66.25,0,0,.28.08c0,.08,0,0,.1.07l.08,0h0l1.44.46,14.52,4.38h.06a.06.06,0,0,0,0,0v0h0l.69.26h0l0,0,.51.16h0l.54.19,5.79,1.73-5.94,8.73-22.66-6.27Z"/><g class="cls-14"><path class="cls-42" d="M167.88,227.36c-5.84,3.47-14.81,3.6-20.52,3.32a125.28,125.28,0,0,1-16.56-2.06l-.07.12,38.41,10.62,6.59-9.64Z"/></g><polygon class="cls-42" points="144.29 221.23 146.63 217.19 170.44 224.77 168.1 228.8 144.29 221.23"/><path class="cls-43" d="M150.77,222.72l-.69-.21-.06,0-.74-.23-2.43-.81-.68-.19-1-.3c-.08,0-.13,0-.21,0l.89.31,0,0,.83.2,2.5.79.7.19-.41.24a5.82,5.82,0,0,0,1,.06.66.66,0,0,0,.48,0Zm-4.53-4.84-1.17,2-.26.45.51.16.26-.45,1.08-1.86C146.51,218.1,146.39,218,146.24,217.88Zm3.84,4.63.66.25,0,0Zm-.8-.25-2.43-.81-.68-.19-1-.3c-.08,0-.13,0-.21,0l.89.31,0,0,.83.2,2.5.79.7.19,0,0,.09,0-.06,0Zm-3.7-2.21-.26.45h0Zm-.26.45,0,0-.21.38.22-.38Zm11.23-.69-.74-.23-.66-.25-.06,0,0,0-6.21-2-.42-.1-.46-.14-1.58-.51-1.84,3.17-.28.5h0l-.26.45,0,0h0l-.47.81,1.07.35,3.35,1.06.7.21,0,0,.7.21,16.09,5.15h0l2.89.94.69-1.21.27-.46h0v0l.27-.46,1.63-2.82Zm12,7.14-.29.51h0l-.25.45,0,0h0l-.12.2-.92-.28h0l-14.19-4.52-1.44-.46h0l-.08,0c-.06,0-.08,0-.1-.07l-.28-.08-.69-.21-.06,0-.74-.23-2.43-.81-.68-.19-1-.3-.1-.05.22-.38v0h0l.25-.45,1.08-1.86.21-.36.69.21.43.17.41.11,5.35,1.68.71.28.74.23,5,1.56.09,0h0l9.3,3Zm-23.24-6.42-.21.38.22-.38v0Zm0,0h0l.25-.45Zm4.7,2-.74-.23-2.43-.81-.68-.19-1-.3c-.08,0-.13,0-.21,0l.89.31,0,0,.83.2,2.5.79.7.19,0,0,.09,0Zm.06,0,.66.25,0,0Z"/><path class="cls-44" d="M161.28,221.85a33.19,33.19,0,0,1-12.25.88l19.07,6.07,2.34-4Z"/><polygon class="cls-20" points="125.92 217.2 118.25 215.58 117.19 217.19 116.75 217.81 116.35 218.51 73.85 284.12 73.65 284 111.64 222.92 111.73 222.77 115 217.6 115.11 217.4 115.92 216.12 116.38 215.44 116.79 214.74 117.16 214.21 117.42 213.76 118.03 213.98 125.92 217.2"/><polygon points="70.15 281.56 69.41 282.85 140.59 313.74 141.45 312.46 70.15 281.56"/><path class="cls-6" d="M123.26,220.6c-1.42-2.94-2.12-7-5.36-8.49a10.85,10.85,0,0,0-4-.62c-2.51-.11-5-.32-7.52-.49a17,17,0,0,0-11,2.63,80.91,80.91,0,0,0-11,8.27,59.84,59.84,0,0,1-5.06,4.22c-1.9,1.31-4.54,2-6.64,3-1.51.72-3,1.46-4.48,2.22A55.64,55.64,0,0,0,65,244.47a80.1,80.1,0,0,0-.73,11.61l.12-.07c3.66-2.27,7.75-5.83,12.19-4.54a7,7,0,0,0,1.8,2.13c2.55,1.91,5.51,3.64,8.8,3.5,2.5-.1,4.58-2,6.25-3.63,1.14-1.13,2.23-2.32,3.3-3.52-.92,4.79,7.56,11.46,11.8,7.56a21.68,21.68,0,0,0,3.52-4.6,36,36,0,0,0,3.52-6,5.5,5.5,0,0,0,.29-1.07.53.53,0,0,0,.15-.12,9.28,9.28,0,0,0,1.5-3.15.58.58,0,0,0,.17-.14,15.67,15.67,0,0,0,3-5.28,6.83,6.83,0,0,0,.18-2.23l.12,0C126.23,232,125.6,225.42,123.26,220.6Z"/><g class="cls-45"><path class="cls-46" d="M123.26,220.6c-1.42-2.94-2.12-7-5.36-8.49-.13-.06-.27-.09-.4-.14a31.63,31.63,0,0,1,2.7,4.2c1.51,2.83,3.35,6.12,3.8,9.34.16,1.11-.25,4.08-2,2.51-1.34-1.25-2.4-2.76-3.67-4.07a8.11,8.11,0,0,0-3.94-2.21c.45.5.9,1,1.31,1.53,1.22,1.59,2.91,3.72,3,5.83.07,1.57-2.17,1.12-3,.8-1.46-.61-2.62-1.77-4-2.44-.59-.27-1.17-.49-1.77-.71,1.61,1.94,3.29,3.82,4.84,5.8.73.94,2.91,3.4,2,4.78-1,1.57-3.11.82-4.46.13-2.53-1.26-5.09-2.36-7.64-3.54a30.66,30.66,0,0,0,4,4.09c.68.44,1.35.89,2,1.39.93.73,2.77,2,3,3.45.69.93,0,1.76-1.67,1.8-3.57.07-6.6-2.67-9.33-4.62-1.79-1.28-3.71-2.76-6-2.89A20.83,20.83,0,0,0,90,238c-4.21,1.15-12.79,4.71-16.48.52-1.68-1.91-.63-5.28.46-7.19a21.41,21.41,0,0,1,3-4c-1.44.61-3,1.11-4.29,1.74-1.51.72-3,1.46-4.48,2.22A55.64,55.64,0,0,0,65,244.47a80.1,80.1,0,0,0-.73,11.61l.12-.07c3.66-2.27,7.75-5.83,12.19-4.54a7,7,0,0,0,1.8,2.13c2.55,1.91,5.51,3.64,8.8,3.5,2.5-.1,4.58-2,6.25-3.63,1.14-1.13,2.23-2.32,3.3-3.52-.92,4.79,7.56,11.46,11.8,7.56a21.68,21.68,0,0,0,3.52-4.6,36,36,0,0,0,3.52-6,5.5,5.5,0,0,0,.29-1.07.53.53,0,0,0,.15-.12,9.28,9.28,0,0,0,1.5-3.15.58.58,0,0,0,.17-.14,15.67,15.67,0,0,0,3-5.28,6.83,6.83,0,0,0,.18-2.23l.12,0C126.23,232,125.6,225.42,123.26,220.6Z"/></g><g class="cls-17"><path class="cls-5" d="M110.13,255c-2.17,1-5.16,2.09-7.06,0-2.78-3,1.33-6.72,3.6-8.86-2.45-1.75-5.21-3-7.8-4.53-2.81,4.92-9.13,10.22-14.87,10.54-5.42.29-9.89-5-12-10.11v2.48a.55.55,0,0,1-.38.51c-1.72.44-5,2.37-6.09-.1a8.28,8.28,0,0,1-.46-1.38c0,.32-.1.64-.14,1a80.1,80.1,0,0,0-.73,11.61l.12-.07c3.66-2.27,7.75-5.83,12.19-4.54a7,7,0,0,0,1.8,2.13c2.55,1.91,5.51,3.64,8.8,3.5,2.5-.1,4.58-2,6.25-3.63,1.14-1.13,2.23-2.32,3.3-3.52-.92,4.79,7.56,11.46,11.8,7.56a15.78,15.78,0,0,0,2.47-3C110.7,254.66,110.42,254.81,110.13,255Z"/></g><path class="cls-9" d="M123.26,220.6c-1.42-2.94-2.12-7-5.36-8.49a10.85,10.85,0,0,0-4-.62c-2.51-.11-5-.32-7.52-.49a17,17,0,0,0-11,2.63,80.91,80.91,0,0,0-11,8.27,59.84,59.84,0,0,1-5.06,4.22c-1.9,1.31-4.54,2-6.64,3-1.51.72-3,1.46-4.48,2.22-.17.44-.34.89-.5,1.36l1.18-.54a93.06,93.06,0,0,0,10.82-5.37c2.68-1.71,5-4,7.44-6a78.48,78.48,0,0,1,10.15-7.13c3.79-2.16,7.67-1.74,11.83-1.43,3.79.28,8.79-.66,10.8,3.35a58,58,0,0,1,3.65,9c1.17,3.83.81,7.44-2.92,9.38-.15-1.06-.41-2.12-.6-3.07-.43-2-.74-3.88-2-5.52a24.85,24.85,0,0,0-5-4.38c-.11-.08-.24.09-.14.18,3.08,2.67,5.3,5.15,6.1,9.24.43,2.17,1,4.32.67,6.55a8.9,8.9,0,0,1-1.77,3.51,16.46,16.46,0,0,0-.1-4.78c-.29-1.62-1.66-2.93-2.68-4.1a27.52,27.52,0,0,0-5.11-4.65c-.09-.06-.2.09-.12.17a47.93,47.93,0,0,1,6.49,7.66c1.55,2.32.66,6.74-.56,9.44a7.5,7.5,0,0,0-3.68-4.8c-2-1.78-4.58-3-6.58-4.79a.12.12,0,0,0-.17.17,31,31,0,0,0,6.61,5.5c1.88,1.69,3.35,3.67,2.8,6.49-.51,2.58-3.08,5.14-4.52,7.31-1.89,2.86-4.38,4.61-7.74,2.85-3.16-1.65-6.32-4.91-4.55-8.43l.4-.44a4.72,4.72,0,0,1,4.5.76l-.42.53a17.09,17.09,0,0,0-2.16,3.06.09.09,0,0,0,.15.11c.8-.76,1.44-1.69,2.24-2.47a18,18,0,0,0,2.3-2.06,6.41,6.41,0,0,0,.67.21.24.24,0,0,0,.24-.39c-1.67-2-4.33-3.23-6.65-4.27-.16-.07-.3.14-.15.24a9.44,9.44,0,0,1,1.23.87c-3.6,3.44-6.57,8.18-10.9,10.73-3,1.79-6.44.07-9.1-1.54-2.82-1.72-3.87-3.94-5.35-6.72a.14.14,0,0,0-.25.12c.4,1,.79,2.19,1.29,3.27-2.75-1.18-6,.77-8.51,2.17-1.11.64-2.2,1.31-3.3,2,0,.49,0,1,0,1.46l.12-.07c3.66-2.27,7.75-5.83,12.19-4.54a7,7,0,0,0,1.8,2.13c2.55,1.91,5.51,3.64,8.8,3.5,2.5-.1,4.58-2,6.25-3.63,1.14-1.13,2.23-2.32,3.3-3.52-.92,4.79,7.56,11.46,11.8,7.56a21.68,21.68,0,0,0,3.52-4.6,36,36,0,0,0,3.52-6,5.5,5.5,0,0,0,.29-1.07.53.53,0,0,0,.15-.12,9.28,9.28,0,0,0,1.5-3.15.58.58,0,0,0,.17-.14,15.67,15.67,0,0,0,3-5.28,6.83,6.83,0,0,0,.18-2.23l.12,0C126.23,232,125.6,225.42,123.26,220.6ZM100.85,245a22.84,22.84,0,0,0,3.32,2.54,4.07,4.07,0,0,0-.85.76,4.66,4.66,0,0,0-4.22-1.11C99.7,246.46,100.28,245.73,100.85,245Z"/><path class="cls-3" d="M166.39,35.88C118.67,19.55,79.82,51,83.92,66c0,0-4.83-22.68,21.66-35.6a72.86,72.86,0,0,1,66.94.89c15.94,8.39,19.86,6.42,19.86,6.42S183.83,41.85,166.39,35.88Z"/><line class="cls-47" x1="138.61" y1="319.64" x2="138.6" y2="319.64"/></g></g></g></svg>