<svg xmlns="http://www.w3.org/2000/svg" viewBox="0 0 195 118.82"><defs><style>.cls-1{fill:#0a999a;}.cls-2{fill:#fff;}</style></defs><title>enviar-a-btn</title><g id="Capa_2" data-name="Capa 2"><g id="_1200" data-name="1200"><path class="cls-1" d="M195,71.7v47.12H0V71.7H55.78a46.85,46.85,0,1,1,79.43,0Z"/><path class="cls-2" d="M42.51,89.86v5.47H49.9v4H42.51V105h9.64v4.19H37V85.67H52.15v4.19Z"/><path class="cls-2" d="M59.28,94.24c.33-.3.66-.58,1-.84a5.87,5.87,0,0,1,1.11-.65,6.11,6.11,0,0,1,1.27-.42,7,7,0,0,1,1.49-.15,6,6,0,0,1,2.43.47A5.12,5.12,0,0,1,68.36,94a5.72,5.72,0,0,1,1.1,2,8.23,8.23,0,0,1,.37,2.53v10.62h-5V98.52a2.93,2.93,0,0,0-.56-1.9,2,2,0,0,0-1.66-.69,3.48,3.48,0,0,0-1.54.35,6,6,0,0,0-1.4.94v11.92h-5V92.43h3.1a1.17,1.17,0,0,1,1.22.84Z"/><path class="cls-2" d="M88.41,92.43l-6.48,16.71H77.38L70.9,92.43h4.16a1.58,1.58,0,0,1,.89.25,1.24,1.24,0,0,1,.49.63l2.33,7.49c.2.61.38,1.2.54,1.78s.29,1.16.41,1.74a25.46,25.46,0,0,1,1-3.52l2.42-7.49a1.34,1.34,0,0,1,.48-.63,1.49,1.49,0,0,1,.84-.25Z"/><path class="cls-2" d="M95.67,87.86A2.52,2.52,0,0,1,95.42,89a3,3,0,0,1-.66.92,3.38,3.38,0,0,1-1,.63,3.15,3.15,0,0,1-1.19.23,2.87,2.87,0,0,1-1.14-.23,3.42,3.42,0,0,1-.95-.63,2.93,2.93,0,0,1-.64-.92,2.65,2.65,0,0,1-.24-1.12,2.71,2.71,0,0,1,.24-1.14,2.9,2.9,0,0,1,.64-.94,3,3,0,0,1,.95-.63,2.86,2.86,0,0,1,1.14-.22,3.15,3.15,0,0,1,1.19.22,3,3,0,0,1,1,.63,3,3,0,0,1,.66.94A2.57,2.57,0,0,1,95.67,87.86Zm-.52,4.57v16.71h-5V92.43Z"/><path class="cls-2" d="M98.28,94.75a10.27,10.27,0,0,1,3.36-2,11.92,11.92,0,0,1,4-.65,7.38,7.38,0,0,1,2.73.49A6,6,0,0,1,110.4,94a6.05,6.05,0,0,1,1.3,2.09,7.5,7.5,0,0,1,.45,2.64v10.44h-2.29a2.37,2.37,0,0,1-1.08-.19,1.49,1.49,0,0,1-.6-.81l-.35-.92c-.42.36-.83.67-1.21.94a7.62,7.62,0,0,1-1.21.68,5.66,5.66,0,0,1-1.32.42,8.19,8.19,0,0,1-1.55.14,6.74,6.74,0,0,1-2.08-.3,4.23,4.23,0,0,1-1.59-.88,3.83,3.83,0,0,1-1-1.44,5.12,5.12,0,0,1-.36-2A4.06,4.06,0,0,1,98,103a4.48,4.48,0,0,1,1.56-1.69,9.82,9.82,0,0,1,3-1.28,20.18,20.18,0,0,1,4.76-.58V98.7a3,3,0,0,0-.61-2.12,2.23,2.23,0,0,0-1.72-.65,4.55,4.55,0,0,0-1.45.19,6.67,6.67,0,0,0-1,.44c-.3.16-.59.3-.87.43a2.35,2.35,0,0,1-1,.2,1.47,1.47,0,0,1-.87-.26,2.4,2.4,0,0,1-.58-.61Zm9,7.59a17.36,17.36,0,0,0-2.47.26,6,6,0,0,0-1.53.48,1.89,1.89,0,0,0-.78.66,1.54,1.54,0,0,0-.22.81,1.38,1.38,0,0,0,.47,1.2,2.27,2.27,0,0,0,1.37.35,4,4,0,0,0,1.69-.34,5.31,5.31,0,0,0,1.47-1.1Z"/><path class="cls-2" d="M120,95a6.89,6.89,0,0,1,1.78-2.12,3.66,3.66,0,0,1,2.31-.78,3,3,0,0,1,1.84.53l-.32,3.68a.75.75,0,0,1-.27.48.82.82,0,0,1-.5.13l-.34,0-.44,0-.46-.05-.43,0a2.53,2.53,0,0,0-1.75.58,4.61,4.61,0,0,0-1.1,1.61v10.15h-5V92.43h3a2.65,2.65,0,0,1,.62.07,1.09,1.09,0,0,1,.42.2.88.88,0,0,1,.26.36,4.24,4.24,0,0,1,.15.55Z"/><path class="cls-2" d="M134.06,94.75a10.32,10.32,0,0,1,3.37-2,11.92,11.92,0,0,1,4-.65,7.38,7.38,0,0,1,2.73.49,5.82,5.82,0,0,1,3.36,3.46,7.5,7.5,0,0,1,.45,2.64v10.44h-2.29a2.33,2.33,0,0,1-1.07-.19,1.49,1.49,0,0,1-.6-.81l-.36-.92a14.85,14.85,0,0,1-1.21.94,7.53,7.53,0,0,1-1.2.68,5.66,5.66,0,0,1-1.32.42,8.3,8.3,0,0,1-1.56.14,6.79,6.79,0,0,1-2.08-.3,4.39,4.39,0,0,1-1.59-.88,3.81,3.81,0,0,1-1-1.44,5.12,5.12,0,0,1-.36-2,4.18,4.18,0,0,1,.45-1.83,4.44,4.44,0,0,1,1.57-1.69,9.82,9.82,0,0,1,3-1.28,20.09,20.09,0,0,1,4.75-.58V98.7a3.09,3.09,0,0,0-.6-2.12,2.25,2.25,0,0,0-1.72-.65,4.55,4.55,0,0,0-1.45.19,6.8,6.8,0,0,0-1,.44c-.29.16-.58.3-.86.43a2.35,2.35,0,0,1-1,.2,1.43,1.43,0,0,1-.87-.26,2.24,2.24,0,0,1-.58-.61Zm9,7.59a17.2,17.2,0,0,0-2.46.26,6.25,6.25,0,0,0-1.54.48,2,2,0,0,0-.78.66,1.64,1.64,0,0,0-.22.81,1.4,1.4,0,0,0,.47,1.2,2.29,2.29,0,0,0,1.37.35,4.09,4.09,0,0,0,1.7-.34,5.13,5.13,0,0,0,1.46-1.1Z"/><path class="cls-2" d="M150.87,95.61a2.58,2.58,0,0,1,.22-1.08,2.73,2.73,0,0,1,.59-.87,2.89,2.89,0,0,1,2-.81,2.89,2.89,0,0,1,1.11.22,3.05,3.05,0,0,1,.9.59,2.79,2.79,0,0,1,.61.87,2.74,2.74,0,0,1,.22,1.08,2.87,2.87,0,0,1-.22,1.09,2.68,2.68,0,0,1-.61.87,2.84,2.84,0,0,1-.9.58,2.89,2.89,0,0,1-1.11.21,3,3,0,0,1-1.13-.21,2.73,2.73,0,0,1-.9-.58,2.63,2.63,0,0,1-.59-.87A2.69,2.69,0,0,1,150.87,95.61Zm0,11a2.58,2.58,0,0,1,.22-1.08,2.73,2.73,0,0,1,.59-.87,2.82,2.82,0,0,1,2-.8,2.89,2.89,0,0,1,1.11.21,3.05,3.05,0,0,1,.9.59,2.79,2.79,0,0,1,.61.87,2.74,2.74,0,0,1,.22,1.08,2.83,2.83,0,0,1-.22,1.09,2.72,2.72,0,0,1-.61.88,3,3,0,0,1-.9.58,2.89,2.89,0,0,1-1.11.21,3,3,0,0,1-1.13-.21,2.9,2.9,0,0,1-.9-.58,2.79,2.79,0,0,1-.81-2Z"/><path class="cls-2" d="M112,75.2a8.08,8.08,0,0,1-8.07-8L85.62,56.6a12.42,12.42,0,1,1-4.25-21c.45.16.9.35,1.35.56l15.5-15.6a7.71,7.71,0,0,1-.26-2,8.07,8.07,0,1,1,6,7.81L88.49,42a12.41,12.41,0,0,1,1.06,7.47L108,60.11a8,8,0,0,1,4-1.06,8.08,8.08,0,0,1,0,16.15ZM85.35,52.87a1.63,1.63,0,0,1,.82.22l20.31,11.74a1.64,1.64,0,0,1,.81,1.65,4.62,4.62,0,0,0-.05.65A4.76,4.76,0,1,0,112,62.37a4.69,4.69,0,0,0-2.91,1,1.65,1.65,0,0,1-1.84.12L86.84,51.69a1.65,1.65,0,0,1-.77-1.88,9.11,9.11,0,0,0-1-7.27,1.65,1.65,0,0,1,.23-2l17.1-17.21a1.66,1.66,0,0,1,1.82-.36,4.76,4.76,0,1,0-2.92-4.39,4.62,4.62,0,0,0,.37,1.84,1.66,1.66,0,0,1-.35,1.81L84.19,39.4a1.66,1.66,0,0,1-2.06.24,9.71,9.71,0,0,0-1.84-.89,9.1,9.1,0,1,0,3.82,14.67A1.66,1.66,0,0,1,85.35,52.87Z"/></g></g></svg>