<svg xmlns="http://www.w3.org/2000/svg" viewBox="0 0 343 47.12"><defs><style>.cls-1{fill:#c83b8d;}.cls-2{fill:#fff;}</style></defs><title>masdeta-hover-btn</title><g id="Capa_2" data-name="Capa 2"><g id="_1200" data-name="1200"><path class="cls-1" d="M331.57,47.12H11.43A11.43,11.43,0,0,1,0,35.69V11.43A11.43,11.43,0,0,1,11.43,0H331.57A11.43,11.43,0,0,1,343,11.43V35.69A11.43,11.43,0,0,1,331.57,47.12Z"/><path class="cls-2" d="M40.37,13V31.1H37.78V18.71c0-.2,0-.42,0-.66s0-.48.05-.72L32,28.06a1.11,1.11,0,0,1-1.05.67h-.41a1.07,1.07,0,0,1-1-.67L23.63,17.31q0,.36.06.72c0,.25,0,.47,0,.68V31.1H21.12V13h2.2a1.89,1.89,0,0,1,.6.07q.21.06.39.42L30.11,24q.2.36.36.75a6.67,6.67,0,0,1,.31.78c.1-.27.21-.53.32-.79a7.63,7.63,0,0,1,.36-.76l5.71-10.48q.18-.36.39-.42a2,2,0,0,1,.61-.07Z"/><path class="cls-2" d="M43.49,20.08a7.34,7.34,0,0,1,5.18-2,5.09,5.09,0,0,1,2,.36,3.91,3.91,0,0,1,1.44,1A4.31,4.31,0,0,1,53,21a6,6,0,0,1,.31,2V31.1H52.07a1.18,1.18,0,0,1-.59-.12,1,1,0,0,1-.34-.48l-.26-1.05a10.88,10.88,0,0,1-1,.79,5.74,5.74,0,0,1-1,.58,4.89,4.89,0,0,1-1.1.36,6.26,6.26,0,0,1-1.28.12,4.79,4.79,0,0,1-1.45-.21,3.34,3.34,0,0,1-1.17-.65,3.23,3.23,0,0,1-.77-1.07,3.7,3.7,0,0,1-.28-1.51,2.94,2.94,0,0,1,.39-1.44,3.62,3.62,0,0,1,1.31-1.26,8.52,8.52,0,0,1,2.4-.93,17.43,17.43,0,0,1,3.68-.41V23a3,3,0,0,0-.6-2.06,2.17,2.17,0,0,0-1.73-.68,4.12,4.12,0,0,0-1.31.19,6,6,0,0,0-.91.43l-.69.42a1.16,1.16,0,0,1-.64.19.83.83,0,0,1-.48-.14A1.38,1.38,0,0,1,44,21Zm7.17,5.42a18.28,18.28,0,0,0-2.44.23,6.79,6.79,0,0,0-1.61.47,2.15,2.15,0,0,0-.89.67,1.46,1.46,0,0,0-.27.85,1.79,1.79,0,0,0,.15.77A1.33,1.33,0,0,0,46,29a1.54,1.54,0,0,0,.6.3,2.64,2.64,0,0,0,.76.1,3.82,3.82,0,0,0,1.82-.4,5.45,5.45,0,0,0,1.48-1.15ZM52.4,12.83l-3,3.25a1.18,1.18,0,0,1-.39.31,1.23,1.23,0,0,1-.51.09H46.86l1.82-3a1.33,1.33,0,0,1,.41-.46,1.29,1.29,0,0,1,.69-.15Z"/><path class="cls-2" d="M64.08,20.62a.61.61,0,0,1-.22.25.63.63,0,0,1-.32.08,1,1,0,0,1-.46-.14l-.59-.29a5.19,5.19,0,0,0-.8-.3,4.23,4.23,0,0,0-1.07-.13,3.18,3.18,0,0,0-.91.12,2,2,0,0,0-.7.34,1.64,1.64,0,0,0-.43.52,1.33,1.33,0,0,0-.15.63,1,1,0,0,0,.28.75,2.17,2.17,0,0,0,.73.52,6.72,6.72,0,0,0,1,.4l1.18.37c.4.14.79.29,1.18.47a4.18,4.18,0,0,1,1,.65,2.72,2.72,0,0,1,1,2.25,4.36,4.36,0,0,1-.32,1.67,3.81,3.81,0,0,1-1,1.33A4.54,4.54,0,0,1,62,31a7,7,0,0,1-2.14.31,6.73,6.73,0,0,1-1.29-.12,7,7,0,0,1-1.18-.33,5.94,5.94,0,0,1-1-.49,5.6,5.6,0,0,1-.86-.63l.63-1a1,1,0,0,1,.28-.29.83.83,0,0,1,.43-.11,1,1,0,0,1,.52.17c.17.11.37.24.6.37a4.78,4.78,0,0,0,.84.37,3.79,3.79,0,0,0,1.21.17,3.28,3.28,0,0,0,1.05-.15,2,2,0,0,0,.73-.39,1.62,1.62,0,0,0,.42-.57,1.76,1.76,0,0,0,.14-.68,1.16,1.16,0,0,0-.28-.81,2.31,2.31,0,0,0-.73-.54,7.29,7.29,0,0,0-1-.4c-.39-.12-.79-.24-1.19-.38s-.8-.29-1.19-.46a4.12,4.12,0,0,1-1-.67,3.06,3.06,0,0,1-.74-1,3.61,3.61,0,0,1,.94-4.1,4.56,4.56,0,0,1,1.47-.84,6.18,6.18,0,0,1,2-.3,6.55,6.55,0,0,1,2.35.41,5.17,5.17,0,0,1,1.77,1.13Z"/><path class="cls-2" d="M84.54,12.53V31.1H82.9a.65.65,0,0,1-.69-.52L82,29.19a6.74,6.74,0,0,1-1.82,1.52,4.85,4.85,0,0,1-2.38.58,4.34,4.34,0,0,1-2-.44,4.14,4.14,0,0,1-1.51-1.26,6,6,0,0,1-1-2.05,10.38,10.38,0,0,1-.34-2.8,8.93,8.93,0,0,1,.38-2.65A6.56,6.56,0,0,1,74.46,20a5.25,5.25,0,0,1,1.74-1.4,5.07,5.07,0,0,1,2.29-.51,4.65,4.65,0,0,1,1.93.36,4.76,4.76,0,0,1,1.42,1V12.53Zm-2.7,8.92a3.11,3.11,0,0,0-1.25-1,3.74,3.74,0,0,0-1.47-.29,3,3,0,0,0-2.47,1.16,5.56,5.56,0,0,0-.89,3.44,8.42,8.42,0,0,0,.2,2,3.79,3.79,0,0,0,.57,1.36,2.32,2.32,0,0,0,.92.77,3,3,0,0,0,1.22.24,3.39,3.39,0,0,0,1.78-.45,5.25,5.25,0,0,0,1.39-1.26Z"/><path class="cls-2" d="M89.79,24.91a6.08,6.08,0,0,0,.34,1.89,3.87,3.87,0,0,0,.77,1.32,2.9,2.9,0,0,0,1.16.79,4.18,4.18,0,0,0,1.5.26A4.32,4.32,0,0,0,94.93,29a5.94,5.94,0,0,0,1-.4c.29-.14.53-.28.73-.4a1.11,1.11,0,0,1,.55-.18.58.58,0,0,1,.51.25l.76,1a4.9,4.9,0,0,1-1.08,1,6.62,6.62,0,0,1-1.28.63,7.45,7.45,0,0,1-1.39.35,9.76,9.76,0,0,1-1.4.11,6.65,6.65,0,0,1-2.47-.45,5.49,5.49,0,0,1-2-1.31,6.08,6.08,0,0,1-1.31-2.15,8.57,8.57,0,0,1-.47-2.95A7.22,7.22,0,0,1,87.53,22a6,6,0,0,1,1.21-2,5.61,5.61,0,0,1,1.91-1.35,6.26,6.26,0,0,1,2.54-.49,6,6,0,0,1,2.19.38,4.83,4.83,0,0,1,1.73,1.12,5.12,5.12,0,0,1,1.14,1.82,6.86,6.86,0,0,1,.41,2.44,1.73,1.73,0,0,1-.14.84.55.55,0,0,1-.5.21Zm6.44-1.65A4,4,0,0,0,96,22a3,3,0,0,0-.57-1,2.59,2.59,0,0,0-.94-.68,3.22,3.22,0,0,0-1.29-.25,3.13,3.13,0,0,0-2.31.85,4.06,4.06,0,0,0-1.07,2.36Z"/><path class="cls-2" d="M105.17,31.3a3.23,3.23,0,0,1-2.46-.9,3.52,3.52,0,0,1-.86-2.53V20.42h-1.41a.56.56,0,0,1-.39-.15.53.53,0,0,1-.16-.43V18.75l2.07-.3.59-3.7a.7.7,0,0,1,.22-.35.57.57,0,0,1,.4-.13h1.38v4.2h3.56v2h-3.56v7.26a1.47,1.47,0,0,0,.34,1.06,1.19,1.19,0,0,0,.9.36,1.55,1.55,0,0,0,.55-.08,2,2,0,0,0,.38-.17l.29-.18a.43.43,0,0,1,.23-.08.4.4,0,0,1,.36.25l.81,1.32a4.32,4.32,0,0,1-1.48.84A5.29,5.29,0,0,1,105.17,31.3Z"/><path class="cls-2" d="M109.93,20.08a7.32,7.32,0,0,1,5.17-2,5.05,5.05,0,0,1,2,.36,3.83,3.83,0,0,1,1.44,1,4.49,4.49,0,0,1,.9,1.55,6.25,6.25,0,0,1,.3,2V31.1h-1.2a1.16,1.16,0,0,1-.59-.12.88.88,0,0,1-.34-.48l-.27-1.05a9.54,9.54,0,0,1-1,.79,6.24,6.24,0,0,1-1,.58,4.81,4.81,0,0,1-1.09.36,6.43,6.43,0,0,1-1.29.12,4.84,4.84,0,0,1-1.45-.21,3.21,3.21,0,0,1-1.16-.65,3.12,3.12,0,0,1-.78-1.07,3.87,3.87,0,0,1-.28-1.51,2.85,2.85,0,0,1,.4-1.44,3.58,3.58,0,0,1,1.3-1.26,8.52,8.52,0,0,1,2.4-.93,17.52,17.52,0,0,1,3.68-.41V23a3.09,3.09,0,0,0-.59-2.06,2.19,2.19,0,0,0-1.74-.68,4.06,4.06,0,0,0-1.3.19,6.11,6.11,0,0,0-.92.43l-.69.42a1.16,1.16,0,0,1-.64.19.79.79,0,0,1-.47-.14,1.22,1.22,0,0,1-.32-.36Zm7.16,5.42a18.45,18.45,0,0,0-2.44.23,6.79,6.79,0,0,0-1.61.47,2.11,2.11,0,0,0-.88.67,1.46,1.46,0,0,0-.27.85,2,2,0,0,0,.14.77,1.43,1.43,0,0,0,.4.53,1.66,1.66,0,0,0,.61.3,2.59,2.59,0,0,0,.76.1,3.78,3.78,0,0,0,1.81-.4,5.45,5.45,0,0,0,1.48-1.15Z"/><path class="cls-2" d="M125.62,12.53V31.1h-2.7V12.53Z"/><path class="cls-2" d="M131.71,12.53V31.1H129V12.53Z"/><path class="cls-2" d="M137,24.91a6.72,6.72,0,0,0,.34,1.89,3.88,3.88,0,0,0,.78,1.32,2.86,2.86,0,0,0,1.15.79,4.22,4.22,0,0,0,1.5.26,4.28,4.28,0,0,0,1.37-.19,6.07,6.07,0,0,0,1-.4c.28-.14.52-.28.72-.4a1.14,1.14,0,0,1,.56-.18.57.57,0,0,1,.5.25l.77,1a4.9,4.9,0,0,1-1.08,1,6.7,6.7,0,0,1-1.29.63,7.26,7.26,0,0,1-1.39.35,9.62,9.62,0,0,1-1.39.11,6.62,6.62,0,0,1-2.47-.45,5.53,5.53,0,0,1-2-1.31,6.07,6.07,0,0,1-1.3-2.15,8.34,8.34,0,0,1-.47-2.95,7.22,7.22,0,0,1,.42-2.48,6,6,0,0,1,1.2-2,5.71,5.71,0,0,1,1.91-1.35,6.27,6.27,0,0,1,2.55-.49,6,6,0,0,1,2.18.38,5,5,0,0,1,1.74,1.12,5.25,5.25,0,0,1,1.13,1.82,6.64,6.64,0,0,1,.41,2.44,1.61,1.61,0,0,1-.14.84.55.55,0,0,1-.5.21Zm6.45-1.65a4,4,0,0,0-.2-1.27,3,3,0,0,0-.57-1,2.55,2.55,0,0,0-.93-.68,3.3,3.3,0,0,0-1.29-.25,3.13,3.13,0,0,0-2.31.85,4,4,0,0,0-1.07,2.36Z"/><path class="cls-2" d="M156.05,20.62a.71.71,0,0,1-.23.25.59.59,0,0,1-.31.08,1,1,0,0,1-.47-.14l-.59-.29a5.19,5.19,0,0,0-.8-.3,4.18,4.18,0,0,0-1.07-.13,3.18,3.18,0,0,0-.91.12,2,2,0,0,0-.69.34,1.55,1.55,0,0,0-.44.52,1.33,1.33,0,0,0-.15.63,1,1,0,0,0,.28.75,2.28,2.28,0,0,0,.73.52,6.72,6.72,0,0,0,1,.4l1.18.37c.4.14.79.29,1.18.47a4,4,0,0,1,1,.65,2.76,2.76,0,0,1,1,2.25,4.18,4.18,0,0,1-.33,1.67,3.81,3.81,0,0,1-1,1.33A4.54,4.54,0,0,1,154,31a7,7,0,0,1-2.14.31,6.73,6.73,0,0,1-1.29-.12,7,7,0,0,1-1.18-.33,5.84,5.84,0,0,1-1-.49,4.77,4.77,0,0,1-.86-.63l.62-1a.89.89,0,0,1,.29-.29.77.77,0,0,1,.42-.11,1,1,0,0,1,.52.17c.17.11.37.24.6.37a4.78,4.78,0,0,0,.84.37,3.81,3.81,0,0,0,1.22.17,3.26,3.26,0,0,0,1-.15,2,2,0,0,0,.73-.39,1.62,1.62,0,0,0,.42-.57,1.59,1.59,0,0,0,.14-.68,1.2,1.2,0,0,0-.27-.81,2.36,2.36,0,0,0-.74-.54,6.86,6.86,0,0,0-1-.4c-.39-.12-.79-.24-1.19-.38s-.8-.29-1.19-.46a4.31,4.31,0,0,1-1-.67,3,3,0,0,1-.73-1,3.26,3.26,0,0,1-.28-1.43A3.56,3.56,0,0,1,149,19.24a4.56,4.56,0,0,1,1.47-.84,6.22,6.22,0,0,1,2-.3,6.55,6.55,0,0,1,2.35.41,5.17,5.17,0,0,1,1.77,1.13Z"/><path class="cls-2" d="M176.5,12.53V31.1h-1.63a.65.65,0,0,1-.69-.52l-.24-1.39a6.93,6.93,0,0,1-1.83,1.52,4.82,4.82,0,0,1-2.38.58,4.34,4.34,0,0,1-2-.44,4.14,4.14,0,0,1-1.51-1.26,6,6,0,0,1-1-2.05,10.36,10.36,0,0,1-.35-2.8,8.93,8.93,0,0,1,.38-2.65,6.76,6.76,0,0,1,1.1-2.12,5.25,5.25,0,0,1,1.74-1.4,5.11,5.11,0,0,1,2.3-.51,4.34,4.34,0,0,1,3.34,1.36V12.53Zm-2.7,8.92a3.11,3.11,0,0,0-1.25-1,3.74,3.74,0,0,0-1.47-.29,3,3,0,0,0-2.47,1.16,5.56,5.56,0,0,0-.89,3.44,8.42,8.42,0,0,0,.2,2,3.8,3.8,0,0,0,.58,1.36,2.23,2.23,0,0,0,.91.77,3,3,0,0,0,1.22.24,3.39,3.39,0,0,0,1.78-.45,5.25,5.25,0,0,0,1.39-1.26Z"/><path class="cls-2" d="M181.75,24.91a6.38,6.38,0,0,0,.34,1.89,3.87,3.87,0,0,0,.77,1.32,2.9,2.9,0,0,0,1.16.79,4.22,4.22,0,0,0,1.5.26,4.32,4.32,0,0,0,1.37-.19,5.94,5.94,0,0,0,1-.4c.29-.14.53-.28.73-.4a1.11,1.11,0,0,1,.56-.18.58.58,0,0,1,.5.25l.76,1a4.49,4.49,0,0,1-1.08,1,6.62,6.62,0,0,1-1.28.63,7.26,7.26,0,0,1-1.39.35,9.65,9.65,0,0,1-1.4.11,6.69,6.69,0,0,1-2.47-.45,5.58,5.58,0,0,1-2-1.31,6.07,6.07,0,0,1-1.3-2.15,8.33,8.33,0,0,1-.48-2.95A7.22,7.22,0,0,1,179.5,22a6,6,0,0,1,1.2-2,5.61,5.61,0,0,1,1.91-1.35,6.27,6.27,0,0,1,2.55-.49,6,6,0,0,1,2.18.38,4.83,4.83,0,0,1,1.73,1.12,5.12,5.12,0,0,1,1.14,1.82,6.86,6.86,0,0,1,.41,2.44,1.73,1.73,0,0,1-.14.84.55.55,0,0,1-.5.21Zm6.45-1.65A4,4,0,0,0,188,22a3,3,0,0,0-.57-1,2.5,2.5,0,0,0-.94-.68,3.21,3.21,0,0,0-1.28-.25,3.15,3.15,0,0,0-2.32.85,4.05,4.05,0,0,0-1.06,2.36Z"/><path class="cls-2" d="M203.5,31.3a3.23,3.23,0,0,1-2.46-.9,3.52,3.52,0,0,1-.86-2.53V20.42h-1.41a.53.53,0,0,1-.55-.58V18.75l2.07-.3.59-3.7a.78.78,0,0,1,.22-.35.57.57,0,0,1,.4-.13h1.38v4.2h3.56v2h-3.56v7.26a1.47,1.47,0,0,0,.34,1.06,1.2,1.2,0,0,0,.91.36,1.5,1.5,0,0,0,.54-.08,2,2,0,0,0,.38-.17l.29-.18a.46.46,0,0,1,.23-.08.4.4,0,0,1,.36.25l.81,1.32a4.23,4.23,0,0,1-1.48.84A5.29,5.29,0,0,1,203.5,31.3Z"/><path class="cls-2" d="M219.38,18.3V31.1h-1.64a.65.65,0,0,1-.69-.52l-.2-1.19a6.89,6.89,0,0,1-.85.78,5.76,5.76,0,0,1-.94.6,5,5,0,0,1-1.08.39,5.3,5.3,0,0,1-1.22.14A4.64,4.64,0,0,1,210.9,31a3.76,3.76,0,0,1-1.35-1,4.31,4.31,0,0,1-.83-1.54,6.87,6.87,0,0,1-.27-2V18.3h2.7v8.14a3.05,3.05,0,0,0,.6,2,2.2,2.2,0,0,0,1.81.72,3.52,3.52,0,0,0,1.66-.41,5.63,5.63,0,0,0,1.46-1.13V18.3Z"/><path class="cls-2" d="M231.47,20.67a5.72,5.72,0,0,1,1.46-1.91,3.11,3.11,0,0,1,2-.7,3.21,3.21,0,0,1,.78.09,2.26,2.26,0,0,1,.65.29l-.19,2a.47.47,0,0,1-.15.29.44.44,0,0,1-.29.09,4,4,0,0,1-.54-.07,3.51,3.51,0,0,0-.74-.07,2.84,2.84,0,0,0-1,.16,2.65,2.65,0,0,0-.78.48,3.06,3.06,0,0,0-.6.76,7.06,7.06,0,0,0-.49,1v8h-2.71V18.3h1.57a.85.85,0,0,1,.6.16,1,1,0,0,1,.22.54Z"/><path class="cls-2" d="M239.72,24.91a6.08,6.08,0,0,0,.34,1.89,3.87,3.87,0,0,0,.77,1.32,2.93,2.93,0,0,0,1.15.79,4.72,4.72,0,0,0,2.87.07,6.07,6.07,0,0,0,1-.4c.28-.14.53-.28.73-.4a1.08,1.08,0,0,1,.55-.18.55.55,0,0,1,.5.25l.77,1a4.9,4.9,0,0,1-1.08,1,6.62,6.62,0,0,1-1.28.63,7.36,7.36,0,0,1-1.4.35,9.51,9.51,0,0,1-1.39.11,6.65,6.65,0,0,1-2.47-.45,5.49,5.49,0,0,1-2-1.31,6.08,6.08,0,0,1-1.31-2.15,8.57,8.57,0,0,1-.47-2.95,7.22,7.22,0,0,1,.42-2.48,5.84,5.84,0,0,1,1.21-2,5.61,5.61,0,0,1,1.91-1.35,6.22,6.22,0,0,1,2.54-.49,6,6,0,0,1,2.19.38A4.92,4.92,0,0,1,247,19.6a5.12,5.12,0,0,1,1.14,1.82,6.86,6.86,0,0,1,.41,2.44,1.73,1.73,0,0,1-.14.84.55.55,0,0,1-.5.21Zm6.44-1.65A4,4,0,0,0,246,22a2.81,2.81,0,0,0-.58-1,2.55,2.55,0,0,0-.93-.68,3.22,3.22,0,0,0-1.29-.25,3.13,3.13,0,0,0-2.31.85,4.06,4.06,0,0,0-1.07,2.36Z"/><path class="cls-2" d="M258.75,20.62a.63.63,0,0,1-.23.25.59.59,0,0,1-.31.08,1,1,0,0,1-.47-.14l-.59-.29a5,5,0,0,0-.79-.3,4.32,4.32,0,0,0-1.08-.13,3.23,3.23,0,0,0-.91.12,2,2,0,0,0-.69.34,1.52,1.52,0,0,0-.43.52,1.33,1.33,0,0,0-.15.63,1.08,1.08,0,0,0,.27.75,2.39,2.39,0,0,0,.73.52,7.15,7.15,0,0,0,1,.4l1.18.37a12.08,12.08,0,0,1,1.18.47,4,4,0,0,1,1,.65,2.76,2.76,0,0,1,1,2.25,4.18,4.18,0,0,1-.33,1.67,3.78,3.78,0,0,1-.95,1.33,4.49,4.49,0,0,1-1.57.88,7,7,0,0,1-2.14.31,6.88,6.88,0,0,1-1.29-.12,7.31,7.31,0,0,1-1.18-.33,5.84,5.84,0,0,1-1-.49,5.16,5.16,0,0,1-.86-.63l.63-1a.86.86,0,0,1,.28-.29.77.77,0,0,1,.42-.11,1,1,0,0,1,.52.17c.17.11.37.24.6.37a4.78,4.78,0,0,0,.84.37,3.86,3.86,0,0,0,1.22.17,3.22,3.22,0,0,0,1-.15,2,2,0,0,0,.73-.39,1.65,1.65,0,0,0,.43-.57,1.76,1.76,0,0,0,.14-.68,1.21,1.21,0,0,0-.28-.81,2.36,2.36,0,0,0-.74-.54,6.86,6.86,0,0,0-1-.4l-1.19-.38c-.4-.13-.79-.29-1.18-.46a4.37,4.37,0,0,1-1.05-.67,3,3,0,0,1-.73-1,3.66,3.66,0,0,1,0-2.88,3.58,3.58,0,0,1,.91-1.22,4.36,4.36,0,0,1,1.47-.84,6.16,6.16,0,0,1,2-.3,6.51,6.51,0,0,1,2.35.41,5.08,5.08,0,0,1,1.77,1.13Z"/><path class="cls-2" d="M272.87,18.3V31.1h-1.63a.65.65,0,0,1-.69-.52l-.21-1.19a6.81,6.81,0,0,1-.84.78,6.32,6.32,0,0,1-.95.6,4.78,4.78,0,0,1-1.08.39,5.3,5.3,0,0,1-1.22.14,4.71,4.71,0,0,1-1.86-.35A3.76,3.76,0,0,1,263,30a4.29,4.29,0,0,1-.82-1.54,6.54,6.54,0,0,1-.28-2V18.3h2.7v8.14a3.05,3.05,0,0,0,.6,2,2.22,2.22,0,0,0,1.81.72,3.56,3.56,0,0,0,1.67-.41,5.59,5.59,0,0,0,1.45-1.13V18.3Z"/><path class="cls-2" d="M278.91,12.53V31.1h-2.7V12.53Z"/><path class="cls-2" d="M286.36,31.3a3.22,3.22,0,0,1-2.45-.9,3.48,3.48,0,0,1-.86-2.53V20.42h-1.41a.56.56,0,0,1-.39-.15.53.53,0,0,1-.16-.43V18.75l2.07-.3.59-3.7a.69.69,0,0,1,.21-.35.59.59,0,0,1,.41-.13h1.38v4.2h3.55v2h-3.55v7.26a1.47,1.47,0,0,0,.34,1.06,1.16,1.16,0,0,0,.9.36,1.46,1.46,0,0,0,.54-.08,2.4,2.4,0,0,0,.39-.17l.28-.18a.46.46,0,0,1,.24-.08.4.4,0,0,1,.36.25l.8,1.32a4.23,4.23,0,0,1-1.48.84A5.25,5.25,0,0,1,286.36,31.3Z"/><path class="cls-2" d="M291.12,20.08a7.34,7.34,0,0,1,5.18-2,5.09,5.09,0,0,1,2,.36,3.91,3.91,0,0,1,1.44,1A4.31,4.31,0,0,1,300.6,21a6,6,0,0,1,.31,2V31.1H299.7a1.18,1.18,0,0,1-.59-.12,1,1,0,0,1-.34-.48l-.26-1.05a10.88,10.88,0,0,1-1,.79,5.74,5.74,0,0,1-1,.58,4.89,4.89,0,0,1-1.1.36,6.26,6.26,0,0,1-1.28.12,4.79,4.79,0,0,1-1.45-.21,3.34,3.34,0,0,1-1.17-.65,3.23,3.23,0,0,1-.77-1.07,3.7,3.7,0,0,1-.28-1.51,2.94,2.94,0,0,1,.39-1.44,3.62,3.62,0,0,1,1.31-1.26,8.52,8.52,0,0,1,2.4-.93,17.43,17.43,0,0,1,3.68-.41V23a3,3,0,0,0-.6-2.06,2.17,2.17,0,0,0-1.73-.68,4.12,4.12,0,0,0-1.31.19,6,6,0,0,0-.91.43l-.69.42a1.19,1.19,0,0,1-.64.19.83.83,0,0,1-.48-.14,1.38,1.38,0,0,1-.32-.36Zm7.17,5.42a18.28,18.28,0,0,0-2.44.23,6.79,6.79,0,0,0-1.61.47,2.15,2.15,0,0,0-.89.67,1.46,1.46,0,0,0-.27.85,1.79,1.79,0,0,0,.15.77,1.33,1.33,0,0,0,.4.53,1.54,1.54,0,0,0,.6.3,2.64,2.64,0,0,0,.76.1,3.82,3.82,0,0,0,1.82-.4,5.45,5.45,0,0,0,1.48-1.15Z"/><path class="cls-2" d="M314.94,12.53V31.1h-1.63a.65.65,0,0,1-.69-.52l-.24-1.39a6.78,6.78,0,0,1-1.83,1.52,4.79,4.79,0,0,1-2.38.58,4.38,4.38,0,0,1-2-.44,4.22,4.22,0,0,1-1.51-1.26,6.2,6.2,0,0,1-1-2.05,10.38,10.38,0,0,1-.34-2.8,8.62,8.62,0,0,1,.38-2.65,6.37,6.37,0,0,1,1.1-2.12,5.25,5.25,0,0,1,1.74-1.4,5,5,0,0,1,2.29-.51,4.34,4.34,0,0,1,3.34,1.36V12.53Zm-2.7,8.92a3.08,3.08,0,0,0-1.24-1,3.74,3.74,0,0,0-1.47-.29,3,3,0,0,0-2.48,1.16,5.63,5.63,0,0,0-.89,3.44,9,9,0,0,0,.2,2,4,4,0,0,0,.58,1.36,2.26,2.26,0,0,0,.92.77,3,3,0,0,0,1.22.24,3.35,3.35,0,0,0,1.77-.45,5.1,5.1,0,0,0,1.39-1.26Z"/><path class="cls-2" d="M323.78,18.1a6.84,6.84,0,0,1,2.57.46,5.52,5.52,0,0,1,1.95,1.32A5.69,5.69,0,0,1,329.55,22a8.54,8.54,0,0,1,0,5.47,5.73,5.73,0,0,1-1.25,2.08,5.52,5.52,0,0,1-1.95,1.32,7.32,7.32,0,0,1-5.16,0,5.56,5.56,0,0,1-2-1.32A5.75,5.75,0,0,1,318,27.42,8.72,8.72,0,0,1,318,22a5.71,5.71,0,0,1,1.26-2.07,5.56,5.56,0,0,1,2-1.32A6.87,6.87,0,0,1,323.78,18.1Zm0,11.08A3,3,0,0,0,326.36,28a5.61,5.61,0,0,0,.85-3.32,5.65,5.65,0,0,0-.85-3.33,3,3,0,0,0-2.58-1.18,3,3,0,0,0-2.62,1.18,5.57,5.57,0,0,0-.85,3.33,5.54,5.54,0,0,0,.85,3.32A3,3,0,0,0,323.78,29.18Z"/></g></g></svg>