<svg xmlns="http://www.w3.org/2000/svg" viewBox="0 0 150.67 47.12"><defs><style>.cls-1{fill:#0a999a;}.cls-2{fill:#fff;}</style></defs><title>next-btn</title><g id="Capa_2" data-name="Capa 2"><g id="_1200" data-name="1200"><path class="cls-1" d="M10.22,0H123.49a10.23,10.23,0,0,1,6.27,2.15l17,13.15a10.22,10.22,0,0,1,.09,16.08l-17,13.52a10.21,10.21,0,0,1-6.36,2.22H10.22A10.23,10.23,0,0,1,0,36.89V10.22A10.23,10.23,0,0,1,10.22,0Z"/><path class="cls-2" d="M30.58,16.11a1,1,0,0,1-.29.34.65.65,0,0,1-.38.1.93.93,0,0,1-.53-.2c-.2-.13-.44-.28-.73-.44a5.38,5.38,0,0,0-1-.45,4.27,4.27,0,0,0-1.41-.21,4.15,4.15,0,0,0-1.33.19,2.76,2.76,0,0,0-1,.52,2.25,2.25,0,0,0-.58.8,2.55,2.55,0,0,0-.2,1,1.76,1.76,0,0,0,.37,1.15,3.15,3.15,0,0,0,1,.78,7.41,7.41,0,0,0,1.36.57l1.57.52q.8.28,1.56.63a5.33,5.33,0,0,1,1.36.89,4,4,0,0,1,1,1.32,4.33,4.33,0,0,1,.37,1.89,6,6,0,0,1-.42,2.26A5.06,5.06,0,0,1,30,29.61a5.53,5.53,0,0,1-1.93,1.24,7.16,7.16,0,0,1-2.62.45,8.57,8.57,0,0,1-1.69-.17,8.17,8.17,0,0,1-1.57-.48,7.46,7.46,0,0,1-1.4-.74,7.06,7.06,0,0,1-1.17-1l.85-1.41a.82.82,0,0,1,.29-.27.76.76,0,0,1,.39-.1,1,1,0,0,1,.64.27c.24.18.52.37.85.59a7.46,7.46,0,0,0,1.2.59,4.73,4.73,0,0,0,1.69.26A3.56,3.56,0,0,0,28,28.09a2.72,2.72,0,0,0,.88-2.15,2,2,0,0,0-.37-1.25,3,3,0,0,0-1-.81,7.41,7.41,0,0,0-1.36-.55l-1.56-.48a12.92,12.92,0,0,1-1.56-.61,4.81,4.81,0,0,1-1.36-.9,4.06,4.06,0,0,1-1-1.38,5.11,5.11,0,0,1-.37-2.05A4.82,4.82,0,0,1,20.8,16a4.72,4.72,0,0,1,1.12-1.62,5.59,5.59,0,0,1,1.81-1.14,6.75,6.75,0,0,1,2.46-.42,8,8,0,0,1,2.86.49,6.33,6.33,0,0,1,2.24,1.39Z"/><path class="cls-2" d="M37.5,14.43a1.74,1.74,0,0,1-.14.69,1.78,1.78,0,0,1-.4.57,1.87,1.87,0,0,1-1.29.54,1.58,1.58,0,0,1-.69-.15,1.67,1.67,0,0,1-.56-.39,1.73,1.73,0,0,1-.38-.57,1.58,1.58,0,0,1-.15-.69,1.66,1.66,0,0,1,.15-.7,1.73,1.73,0,0,1,.38-.57,2,2,0,0,1,.56-.39,1.58,1.58,0,0,1,.69-.14,1.73,1.73,0,0,1,.71.14,2.11,2.11,0,0,1,.58.39,1.78,1.78,0,0,1,.4.57A1.82,1.82,0,0,1,37.5,14.43Zm-.45,3.87V31.1h-2.7V18.3Z"/><path class="cls-2" d="M51.5,18.76v1c0,.33-.2.54-.61.61l-1.28.21a3.91,3.91,0,0,1,.33,1.62,4,4,0,0,1-.37,1.71,3.87,3.87,0,0,1-1,1.31,4.5,4.5,0,0,1-1.55.82,6.24,6.24,0,0,1-2,.29,6.85,6.85,0,0,1-.79,0c-.26,0-.5-.07-.75-.12a1.79,1.79,0,0,0-.54.45.86.86,0,0,0-.17.49.64.64,0,0,0,.36.61,2.53,2.53,0,0,0,1,.29,12.52,12.52,0,0,0,1.36.12c.52,0,1,0,1.56.08s1,.12,1.56.21a4.55,4.55,0,0,1,1.36.48,2.7,2.7,0,0,1,1,.9,2.65,2.65,0,0,1,.36,1.46,3.37,3.37,0,0,1-.42,1.62,4.27,4.27,0,0,1-1.19,1.41,6.2,6.2,0,0,1-1.92,1,8.16,8.16,0,0,1-2.58.37,10.2,10.2,0,0,1-2.49-.27,6,6,0,0,1-1.77-.75,3.11,3.11,0,0,1-1.06-1.08,2.58,2.58,0,0,1-.34-1.28,2.25,2.25,0,0,1,.57-1.55,3.86,3.86,0,0,1,1.55-1,2.31,2.31,0,0,1-.85-.69,2,2,0,0,1-.32-1.16,2.12,2.12,0,0,1,.42-1.18,3.25,3.25,0,0,1,1.24-1,4.08,4.08,0,0,1-1.51-1.4,3.71,3.71,0,0,1-.55-2,3.87,3.87,0,0,1,.37-1.72,3.74,3.74,0,0,1,1-1.3A4.71,4.71,0,0,1,43,18.36a6.66,6.66,0,0,1,2-.29,5.86,5.86,0,0,1,2.89.69Zm-2.72,13a1,1,0,0,0-.24-.69,1.79,1.79,0,0,0-.66-.4,4.23,4.23,0,0,0-1-.21c-.37-.05-.76-.08-1.17-.1l-1.27-.07c-.43,0-.85-.06-1.25-.11a3.19,3.19,0,0,0-1,.75,1.46,1.46,0,0,0-.38,1,1.35,1.35,0,0,0,.19.71,1.72,1.72,0,0,0,.6.56,3.56,3.56,0,0,0,1,.38,7.36,7.36,0,0,0,1.52.14,5.15,5.15,0,0,0,2.68-.56A1.63,1.63,0,0,0,48.78,31.73ZM45,24.59a2.52,2.52,0,0,0,1.88-.65,2.25,2.25,0,0,0,.63-1.66,2.22,2.22,0,0,0-.63-1.67,3.16,3.16,0,0,0-3.76,0,2.19,2.19,0,0,0-.64,1.67,2.51,2.51,0,0,0,.17.92,2,2,0,0,0,.47.74,2.39,2.39,0,0,0,.79.48A3.28,3.28,0,0,0,45,24.59Z"/><path class="cls-2" d="M64.44,18.3V31.1H62.8a.65.65,0,0,1-.69-.52l-.2-1.19a6.89,6.89,0,0,1-.85.78,5.24,5.24,0,0,1-1,.6,4.7,4.7,0,0,1-1.07.39,5.32,5.32,0,0,1-1.23.14A4.62,4.62,0,0,1,56,31a3.89,3.89,0,0,1-1.36-1,4.45,4.45,0,0,1-.82-1.54,6.87,6.87,0,0,1-.27-2V18.3h2.7v8.14a3.11,3.11,0,0,0,.59,2,2.24,2.24,0,0,0,1.82.72,3.52,3.52,0,0,0,1.66-.41,5.43,5.43,0,0,0,1.45-1.13V18.3Z"/><path class="cls-2" d="M71,14.43a1.58,1.58,0,0,1-.14.69,1.78,1.78,0,0,1-.4.57,1.65,1.65,0,0,1-.58.39,1.71,1.71,0,0,1-.71.15,1.65,1.65,0,0,1-.69-.15,1.53,1.53,0,0,1-.55-.39,1.92,1.92,0,0,1-.39-.57,1.74,1.74,0,0,1-.14-.69,1.82,1.82,0,0,1,.14-.7,1.92,1.92,0,0,1,.39-.57,1.83,1.83,0,0,1,.55-.39,1.64,1.64,0,0,1,.69-.14,1.7,1.7,0,0,1,.71.14,2,2,0,0,1,.58.39,1.78,1.78,0,0,1,.4.57A1.65,1.65,0,0,1,71,14.43Zm-.45,3.87V31.1h-2.7V18.3Z"/><path class="cls-2" d="M75.91,24.91a6.08,6.08,0,0,0,.34,1.89A3.71,3.71,0,0,0,77,28.12a2.86,2.86,0,0,0,1.15.79,4.22,4.22,0,0,0,1.5.26A4.28,4.28,0,0,0,81,29a6.07,6.07,0,0,0,1-.4c.28-.14.53-.28.73-.4a1.08,1.08,0,0,1,.55-.18.55.55,0,0,1,.5.25l.77,1a4.61,4.61,0,0,1-1.08,1,6.13,6.13,0,0,1-1.28.64,7.36,7.36,0,0,1-1.4.35,9.51,9.51,0,0,1-1.39.11A6.65,6.65,0,0,1,77,30.84a5.4,5.4,0,0,1-2-1.31,5.94,5.94,0,0,1-1.31-2.15,8.55,8.55,0,0,1-.47-2.94A7.23,7.23,0,0,1,73.65,22a5.84,5.84,0,0,1,1.21-2,5.61,5.61,0,0,1,1.91-1.35,6.67,6.67,0,0,1,4.73-.11,4.79,4.79,0,0,1,1.73,1.12,5.27,5.27,0,0,1,1.14,1.82,6.86,6.86,0,0,1,.41,2.44,1.73,1.73,0,0,1-.14.84.56.56,0,0,1-.51.21Zm6.44-1.65A4,4,0,0,0,82.16,22a2.9,2.9,0,0,0-.58-1,2.55,2.55,0,0,0-.93-.68,3.23,3.23,0,0,0-1.29-.24,3.12,3.12,0,0,0-2.31.84A4.06,4.06,0,0,0,76,23.26Z"/><path class="cls-2" d="M89.81,20a10.12,10.12,0,0,1,.86-.77,6.32,6.32,0,0,1,1-.6,6.18,6.18,0,0,1,1.07-.39,5.34,5.34,0,0,1,1.23-.13,4.46,4.46,0,0,1,1.85.35,3.62,3.62,0,0,1,1.35,1A4.29,4.29,0,0,1,97.94,21a6.47,6.47,0,0,1,.28,2V31.1H95.53V23a3,3,0,0,0-.6-2,2.22,2.22,0,0,0-1.81-.72,3.46,3.46,0,0,0-1.68.42A5.6,5.6,0,0,0,90,21.77V31.1h-2.7V18.3h1.63a.66.66,0,0,1,.7.51Z"/><path class="cls-2" d="M105.32,31.3a3.23,3.23,0,0,1-2.46-.9,3.52,3.52,0,0,1-.86-2.53V20.42h-1.41a.6.6,0,0,1-.39-.14.57.57,0,0,1-.16-.44V18.75l2.07-.3.59-3.7a.78.78,0,0,1,.22-.35.57.57,0,0,1,.4-.13h1.38v4.2h3.56v2H104.7v7.27a1.46,1.46,0,0,0,.34,1,1.19,1.19,0,0,0,.9.36,1.55,1.55,0,0,0,.55-.08,2,2,0,0,0,.38-.17l.29-.18a.43.43,0,0,1,.23-.08.4.4,0,0,1,.36.25l.81,1.32a4.32,4.32,0,0,1-1.48.84A5.29,5.29,0,0,1,105.32,31.3Z"/><path class="cls-2" d="M112.26,24.91a6.72,6.72,0,0,0,.34,1.89,3.88,3.88,0,0,0,.78,1.32,2.86,2.86,0,0,0,1.15.79,4.22,4.22,0,0,0,1.5.26A4.28,4.28,0,0,0,117.4,29a6.07,6.07,0,0,0,1-.4c.28-.14.52-.28.73-.4a1.08,1.08,0,0,1,.55-.18.57.57,0,0,1,.5.25l.77,1a4.61,4.61,0,0,1-1.08,1,6.13,6.13,0,0,1-1.28.64,7.55,7.55,0,0,1-1.4.35,9.62,9.62,0,0,1-1.39.11,6.65,6.65,0,0,1-2.47-.45,5.4,5.4,0,0,1-2-1.31,5.94,5.94,0,0,1-1.31-2.15,8.55,8.55,0,0,1-.47-2.94A7.23,7.23,0,0,1,110,22a6,6,0,0,1,1.2-2,5.81,5.81,0,0,1,1.91-1.35,6.27,6.27,0,0,1,2.55-.49,6.16,6.16,0,0,1,2.18.38,4.83,4.83,0,0,1,1.74,1.12,5.42,5.42,0,0,1,1.14,1.82,6.86,6.86,0,0,1,.4,2.44,1.76,1.76,0,0,1-.13.84.57.57,0,0,1-.51.21Zm6.45-1.65a4,4,0,0,0-.2-1.27,3,3,0,0,0-.57-1,2.55,2.55,0,0,0-.93-.68,3.3,3.3,0,0,0-1.29-.24,3.12,3.12,0,0,0-2.31.84,4.06,4.06,0,0,0-1.07,2.36Z"/></g></g></svg>