<svg xmlns="http://www.w3.org/2000/svg" viewBox="0 0 123 47.12"><defs><style>.cls-1{fill:#c83b8d;}.cls-2{fill:#fff;}</style></defs><title>ok-hover-btn</title><g id="Capa_2" data-name="Capa 2"><g id="_1200" data-name="1200"><path class="cls-1" d="M111.57,47.12H11.43A11.43,11.43,0,0,1,0,35.69V11.43A11.43,11.43,0,0,1,11.43,0H111.57A11.43,11.43,0,0,1,123,11.43V35.69A11.43,11.43,0,0,1,111.57,47.12Z"/><path class="cls-2" d="M64.09,22.06a10.06,10.06,0,0,1-.66,3.7,8.44,8.44,0,0,1-1.84,2.92,8.33,8.33,0,0,1-2.85,1.92,10.24,10.24,0,0,1-7.39,0,8.4,8.4,0,0,1-4.7-4.84,10.06,10.06,0,0,1-.65-3.7,10.1,10.1,0,0,1,.65-3.7,8.4,8.4,0,0,1,4.7-4.84,10.24,10.24,0,0,1,7.39,0,8.33,8.33,0,0,1,2.85,1.92,8.54,8.54,0,0,1,1.84,2.92A10.1,10.1,0,0,1,64.09,22.06Zm-3,0a8.76,8.76,0,0,0-.42-2.8,5.92,5.92,0,0,0-1.2-2.1,5.26,5.26,0,0,0-1.91-1.33,6.91,6.91,0,0,0-5,0,5.26,5.26,0,0,0-1.91,1.33,6,6,0,0,0-1.22,2.1,9.36,9.36,0,0,0,0,5.61A6,6,0,0,0,50.63,27a5.22,5.22,0,0,0,1.91,1.31,7.05,7.05,0,0,0,5,0A5.22,5.22,0,0,0,59.46,27a6,6,0,0,0,1.2-2.11A8.69,8.69,0,0,0,61.08,22.06Z"/><path class="cls-2" d="M69.29,12.52V23.29h.58a1.18,1.18,0,0,0,.45-.07,1,1,0,0,0,.36-.32l3.6-4.1a1.33,1.33,0,0,1,.41-.38,1.22,1.22,0,0,1,.58-.12h2.45L73.4,23.17a3.51,3.51,0,0,1-.83.77,2.79,2.79,0,0,1,.44.4,5.41,5.41,0,0,1,.36.5L78,31.1H75.57A1.36,1.36,0,0,1,75,31a1,1,0,0,1-.41-.39l-3.7-5a.93.93,0,0,0-.38-.37,1.41,1.41,0,0,0-.57-.09h-.66v6h-2.7V12.52Z"/></g></g></svg>