<svg xmlns="http://www.w3.org/2000/svg" viewBox="0 0 195 118.82"><defs><style>.cls-1{fill:#c83b8d;}.cls-2{fill:#fff;}</style></defs><title>pedircita-hover-btn</title><g id="Capa_2" data-name="Capa 2"><g id="_1200" data-name="1200"><path class="cls-1" d="M195,71.7v47.12H0V71.7H55.78a46.85,46.85,0,1,1,79.43,0Z"/><path class="cls-2" d="M117.54,33.45V28.29a1.46,1.46,0,0,0-.43-1l-14.3-14a1.2,1.2,0,0,0-.45-.29,1.45,1.45,0,0,0-.54-.11H77.21a2.73,2.73,0,0,0-2.74,2.72v51a2.73,2.73,0,0,0,2.74,2.72h37.58a2.74,2.74,0,0,0,2.75-2.72V61.58a15.62,15.62,0,0,0,0-28.13Zm-4.9-6.58h-9.4V17.68Zm2.06,39.66H77.31V15.72H100.4V28.29a1.43,1.43,0,0,0,1.42,1.42H114.7V32.4a15.62,15.62,0,0,0-11.37,1.39H81.59a1.42,1.42,0,1,0,0,2.83h18a15.33,15.33,0,0,0-2.34,3.09H81.59a1.42,1.42,0,0,0,0,2.84H96a14.84,14.84,0,0,0-.7,3.08H81.59a1.42,1.42,0,1,0,0,2.84H95.18a15.82,15.82,0,0,0,.51,3.09H81.59a1.42,1.42,0,1,0,0,2.83H96.75a15.87,15.87,0,0,0,2,3.09H81.59a1.42,1.42,0,0,0,0,2.84h20.25a15.52,15.52,0,0,0,8.92,2.81,15.93,15.93,0,0,0,3.94-.5Zm.87-7.18A12.78,12.78,0,0,1,98,47.51c0-.15,0-.31,0-.46a12.67,12.67,0,0,1,1.39-5.35v0a12.78,12.78,0,1,1,16.18,17.67Z"/><path class="cls-2" d="M98.47,30.7H81.59a1.42,1.42,0,0,1,0-2.84H98.47a1.42,1.42,0,1,1,0,2.84Z"/><path class="cls-2" d="M97.8,24.78H81.59a1.42,1.42,0,0,1,0-2.84H97.8a1.42,1.42,0,1,1,0,2.84Z"/><path class="cls-2" d="M109.38,58.28h0a1.41,1.41,0,0,1-1.06-.48l-8.1-9.24a1.42,1.42,0,0,1,0-1.87l3.32-3.78a1.39,1.39,0,0,1,1.06-.48h0a1.41,1.41,0,0,1,1.07.48l3.71,4.24,7.37-8.41a1.47,1.47,0,0,1,2.13,0l3.31,3.79a1.42,1.42,0,0,1,0,1.87L110.45,57.8A1.41,1.41,0,0,1,109.38,58.28Zm-6.2-10.65,6.2,7.08,9.86-11.25-1.43-1.63-7.36,8.41a1.47,1.47,0,0,1-2.13,0L104.6,46Z"/><path class="cls-2" d="M43.69,85.67a13.47,13.47,0,0,1,4.27.59,8.17,8.17,0,0,1,2.93,1.62,6.14,6.14,0,0,1,1.7,2.43,8.12,8.12,0,0,1,.55,3,9,9,0,0,1-.56,3.22,6.54,6.54,0,0,1-1.73,2.51,8.16,8.16,0,0,1-2.94,1.64,13.6,13.6,0,0,1-4.22.59H40.85v7.84H35.4V85.67Zm0,11.52a3.47,3.47,0,0,0,4-3.85,4.28,4.28,0,0,0-.24-1.47,3,3,0,0,0-.74-1.14A3.29,3.29,0,0,0,45.47,90a5.52,5.52,0,0,0-1.78-.26H40.85v7.45Z"/><path class="cls-2" d="M58.78,101.68a4.75,4.75,0,0,0,1.28,3,3.78,3.78,0,0,0,2.66.94,4.76,4.76,0,0,0,1.5-.21,6.86,6.86,0,0,0,1.12-.47l.9-.46a1.92,1.92,0,0,1,.87-.21,1,1,0,0,1,.9.43l1.45,1.79A7.23,7.23,0,0,1,67.79,108a8.57,8.57,0,0,1-1.84.87,9.84,9.84,0,0,1-1.88.44,14.31,14.31,0,0,1-1.8.12,9.46,9.46,0,0,1-3.3-.57,7.7,7.7,0,0,1-2.69-1.7,8.06,8.06,0,0,1-1.83-2.81,10.55,10.55,0,0,1-.66-3.9,8.86,8.86,0,0,1,.57-3.17,7.7,7.7,0,0,1,4.24-4.41A8.58,8.58,0,0,1,62,92.18a8.7,8.7,0,0,1,3,.51,6.75,6.75,0,0,1,2.37,1.5A6.9,6.9,0,0,1,69,96.6a8.86,8.86,0,0,1,.56,3.23,7.45,7.45,0,0,1,0,.92,1.37,1.37,0,0,1-.18.56.64.64,0,0,1-.34.29,1.79,1.79,0,0,1-.56.08Zm6.29-2.9a4.56,4.56,0,0,0-.15-1.16,2.77,2.77,0,0,0-.5-1,2.43,2.43,0,0,0-.91-.72,3.15,3.15,0,0,0-1.37-.28,3,3,0,0,0-2.23.82,4.25,4.25,0,0,0-1.06,2.34Z"/><path class="cls-2" d="M87.2,85v24.12H84.1a1.17,1.17,0,0,1-1.22-.84L82.49,107a9.58,9.58,0,0,1-1,1,6.55,6.55,0,0,1-1.18.75,6.17,6.17,0,0,1-1.37.48,7.25,7.25,0,0,1-1.59.17,5.24,5.24,0,0,1-2.42-.58A5.67,5.67,0,0,1,73,107.14a8.44,8.44,0,0,1-1.27-2.68,13.28,13.28,0,0,1-.45-3.62,11.42,11.42,0,0,1,.51-3.47,8.41,8.41,0,0,1,1.46-2.77,6.7,6.7,0,0,1,2.27-1.83,6.43,6.43,0,0,1,2.92-.66,5.82,5.82,0,0,1,2.19.37,6,6,0,0,1,1.61,1V85Zm-5,11.89A3.07,3.07,0,0,0,81,96a3.88,3.88,0,0,0-1.39-.25,3,3,0,0,0-1.27.27,2.48,2.48,0,0,0-1,.88,4.48,4.48,0,0,0-.67,1.57,9.76,9.76,0,0,0-.24,2.33,10.77,10.77,0,0,0,.19,2.23,4.58,4.58,0,0,0,.54,1.45,2.11,2.11,0,0,0,.83.8,2.38,2.38,0,0,0,1.08.24,4.25,4.25,0,0,0,1-.1,3.47,3.47,0,0,0,.82-.3,3.55,3.55,0,0,0,.7-.49,6.19,6.19,0,0,0,.65-.69Z"/><path class="cls-2" d="M96.22,87.86A2.52,2.52,0,0,1,96,89a3,3,0,0,1-.66.92,3.38,3.38,0,0,1-1,.63,3.15,3.15,0,0,1-1.19.23A2.87,2.87,0,0,1,92,90.53a3.42,3.42,0,0,1-1-.63,2.93,2.93,0,0,1-.64-.92,2.65,2.65,0,0,1-.24-1.12,2.71,2.71,0,0,1,.24-1.14,2.9,2.9,0,0,1,.64-.94,3,3,0,0,1,1-.63,2.86,2.86,0,0,1,1.14-.22,3.15,3.15,0,0,1,1.19.22,3,3,0,0,1,1,.63,3,3,0,0,1,.66.94A2.57,2.57,0,0,1,96.22,87.86Zm-.52,4.57v16.71h-5V92.43Z"/><path class="cls-2" d="M103.88,95a6.89,6.89,0,0,1,1.78-2.12,3.66,3.66,0,0,1,2.31-.78,3,3,0,0,1,1.84.53l-.32,3.68a.75.75,0,0,1-.27.48.82.82,0,0,1-.5.13l-.34,0-.44,0-.46-.05-.43,0a2.53,2.53,0,0,0-1.75.58A4.61,4.61,0,0,0,104.2,99v10.15h-5V92.43h3a2.72,2.72,0,0,1,.62.07,1.17,1.17,0,0,1,.42.2.88.88,0,0,1,.26.36,4.24,4.24,0,0,1,.15.55Z"/><path class="cls-2" d="M130.58,96.4a2.48,2.48,0,0,1-.43.43,1,1,0,0,1-.6.16,1.36,1.36,0,0,1-.67-.17l-.67-.4a5,5,0,0,0-.87-.39,3.69,3.69,0,0,0-1.24-.18,3.45,3.45,0,0,0-1.59.34,2.91,2.91,0,0,0-1.1,1,4.5,4.5,0,0,0-.65,1.54,9.19,9.19,0,0,0-.21,2.06,6.25,6.25,0,0,0,.93,3.69,3,3,0,0,0,2.55,1.29,3.68,3.68,0,0,0,1.38-.22,4.42,4.42,0,0,0,.87-.49l.65-.49a1.21,1.21,0,0,1,.75-.22,1,1,0,0,1,.9.43l1.45,1.79A7.5,7.5,0,0,1,130.4,108a8.09,8.09,0,0,1-1.74.87,9.09,9.09,0,0,1-1.8.44,13.46,13.46,0,0,1-1.76.12,7.69,7.69,0,0,1-2.93-.58,7.13,7.13,0,0,1-2.45-1.69,8.19,8.19,0,0,1-1.68-2.71,11,11,0,0,1-.08-7,7.71,7.71,0,0,1,1.6-2.72,7.32,7.32,0,0,1,2.61-1.81,9.19,9.19,0,0,1,3.61-.66,8.78,8.78,0,0,1,3.45.63,8.11,8.11,0,0,1,2.67,1.83Z"/><path class="cls-2" d="M139.61,87.86a2.65,2.65,0,0,1-.24,1.12,3,3,0,0,1-.66.92,3.38,3.38,0,0,1-1,.63,3.19,3.19,0,0,1-1.19.23,3,3,0,0,1-1.15-.23,3.52,3.52,0,0,1-.94-.63,2.93,2.93,0,0,1-.64-.92,2.65,2.65,0,0,1-.24-1.12,2.71,2.71,0,0,1,.24-1.14,2.9,2.9,0,0,1,.64-.94,3.1,3.1,0,0,1,.94-.63,2.94,2.94,0,0,1,1.15-.22,3.18,3.18,0,0,1,1.19.22,3,3,0,0,1,1,.63,3,3,0,0,1,.66.94A2.71,2.71,0,0,1,139.61,87.86Zm-.51,4.57v16.71h-5V92.43Z"/><path class="cls-2" d="M148.58,109.4a5.85,5.85,0,0,1-2.1-.35,4.28,4.28,0,0,1-1.54-1,4.37,4.37,0,0,1-.94-1.54,5.81,5.81,0,0,1-.32-2V95.88h-1.42a.92.92,0,0,1-.66-.25.91.91,0,0,1-.28-.73V93l2.66-.52,1-4.07a1,1,0,0,1,1.1-.77h2.61v4.88h4.14v3.41h-4.14v8.3a1.56,1.56,0,0,0,.28,1,1,1,0,0,0,.81.38,1.47,1.47,0,0,0,.46-.06,2.06,2.06,0,0,0,.33-.13l.25-.13a.68.68,0,0,1,.29-.06.57.57,0,0,1,.36.11,1.2,1.2,0,0,1,.28.33l1.52,2.37a7.19,7.19,0,0,1-2.18,1.09A8.74,8.74,0,0,1,148.58,109.4Z"/><path class="cls-2" d="M154.61,94.75a10.27,10.27,0,0,1,3.36-2,12,12,0,0,1,4-.65,7.43,7.43,0,0,1,2.74.49A5.82,5.82,0,0,1,168,96.06a7.5,7.5,0,0,1,.45,2.64v10.44h-2.29a2.33,2.33,0,0,1-1.07-.19,1.54,1.54,0,0,1-.61-.81l-.35-.92a14.85,14.85,0,0,1-1.21.94,8,8,0,0,1-1.2.68,6,6,0,0,1-1.32.42,8.3,8.3,0,0,1-1.56.14,6.79,6.79,0,0,1-2.08-.3,4.39,4.39,0,0,1-1.59-.88,3.94,3.94,0,0,1-1-1.44,5.32,5.32,0,0,1-.35-2,4.18,4.18,0,0,1,.45-1.83,4.48,4.48,0,0,1,1.56-1.69,10,10,0,0,1,3-1.28,20.25,20.25,0,0,1,4.76-.58V98.7a3.09,3.09,0,0,0-.6-2.12,2.26,2.26,0,0,0-1.72-.65,4.51,4.51,0,0,0-1.45.19,6.37,6.37,0,0,0-1,.44c-.3.16-.58.3-.86.43a2.38,2.38,0,0,1-1,.2,1.43,1.43,0,0,1-.87-.26,2.24,2.24,0,0,1-.58-.61Zm9,7.59a17.53,17.53,0,0,0-2.47.26,6.3,6.3,0,0,0-1.53.48,2,2,0,0,0-.78.66,1.54,1.54,0,0,0-.22.81,1.4,1.4,0,0,0,.47,1.2,2.29,2.29,0,0,0,1.37.35,4,4,0,0,0,1.69-.34,5,5,0,0,0,1.47-1.1Z"/></g></g></svg>