<svg xmlns="http://www.w3.org/2000/svg" viewBox="0 0 148.46 47.12"><defs><style>.cls-1{fill:#0a999a;}.cls-2{fill:#fff;}</style></defs><title>prev-btn</title><g id="Capa_2" data-name="Capa 2"><g id="_1200" data-name="1200"><path class="cls-1" d="M134.68,47.12H26.19a13.77,13.77,0,0,1-8.45-2.9L5.33,34.6a13.78,13.78,0,0,1-.12-21.68L17.7,3a13.77,13.77,0,0,1,8.58-3h108.4a13.78,13.78,0,0,1,13.78,13.78V33.34A13.78,13.78,0,0,1,134.68,47.12Z"/><path class="cls-2" d="M57.72,31.1H55.45a1,1,0,0,1-.63-.2,1.22,1.22,0,0,1-.36-.48l-1.51-4H45.16l-1.51,4a1.16,1.16,0,0,1-.35.47,1,1,0,0,1-.63.21H40.4L47.57,13h3Zm-5.56-6.78-2.49-6.6a19.13,19.13,0,0,1-.61-1.94c-.1.39-.2.75-.31,1.08s-.21.62-.3.87L46,24.32Z"/><path class="cls-2" d="M61.82,20a8.79,8.79,0,0,1,.86-.77,5.3,5.3,0,0,1,2-1,5.22,5.22,0,0,1,1.23-.13,4.46,4.46,0,0,1,1.85.35,3.7,3.7,0,0,1,1.35,1A4.45,4.45,0,0,1,70,21a6.79,6.79,0,0,1,.28,2V31.1H67.54V23a3,3,0,0,0-.6-2,2.23,2.23,0,0,0-1.82-.72,3.42,3.42,0,0,0-1.67.42A5.6,5.6,0,0,0,62,21.77V31.1H59.29V18.3h1.64a.66.66,0,0,1,.7.51Z"/><path class="cls-2" d="M77.32,31.3a3.22,3.22,0,0,1-2.45-.9A3.48,3.48,0,0,1,74,27.87V20.42H72.6a.6.6,0,0,1-.39-.14.57.57,0,0,1-.16-.44V18.75l2.07-.3.59-3.7a.69.69,0,0,1,.21-.35.59.59,0,0,1,.41-.13h1.38v4.2h3.55v2H76.71v7.27a1.46,1.46,0,0,0,.34,1,1.16,1.16,0,0,0,.9.36,1.46,1.46,0,0,0,.54-.08,2.4,2.4,0,0,0,.39-.17l.28-.18a.46.46,0,0,1,.24-.08.4.4,0,0,1,.36.25l.8,1.32a4.14,4.14,0,0,1-1.48.84A5.25,5.25,0,0,1,77.32,31.3Z"/><path class="cls-2" d="M84.27,24.91a6.38,6.38,0,0,0,.34,1.89,3.87,3.87,0,0,0,.77,1.32,2.9,2.9,0,0,0,1.16.79,4.22,4.22,0,0,0,1.5.26A4.32,4.32,0,0,0,89.41,29a5.94,5.94,0,0,0,1-.4c.29-.14.53-.28.73-.4A1.11,1.11,0,0,1,91.7,28a.58.58,0,0,1,.5.25l.76,1a4.24,4.24,0,0,1-1.08,1,6.13,6.13,0,0,1-1.28.64,7.26,7.26,0,0,1-1.39.35,9.65,9.65,0,0,1-1.4.11,6.69,6.69,0,0,1-2.47-.45,5.58,5.58,0,0,1-2-1.31,6.07,6.07,0,0,1-1.3-2.15,8.31,8.31,0,0,1-.48-2.94A7.23,7.23,0,0,1,82,22a6,6,0,0,1,1.2-2,5.71,5.71,0,0,1,1.91-1.35,6.27,6.27,0,0,1,2.55-.49,6.2,6.2,0,0,1,2.18.38,4.7,4.7,0,0,1,1.73,1.12,5.12,5.12,0,0,1,1.14,1.82,6.86,6.86,0,0,1,.41,2.44,1.73,1.73,0,0,1-.14.84.55.55,0,0,1-.5.21Zm6.45-1.65a4,4,0,0,0-.2-1.27A3,3,0,0,0,90,21,2.5,2.5,0,0,0,89,20.3a3.21,3.21,0,0,0-1.28-.24,3.15,3.15,0,0,0-2.32.84,4.05,4.05,0,0,0-1.06,2.36Z"/><path class="cls-2" d="M98.2,20.67a5.72,5.72,0,0,1,1.46-1.91,3.11,3.11,0,0,1,2-.7,3.33,3.33,0,0,1,.78.09,2.26,2.26,0,0,1,.65.29l-.19,2a.43.43,0,0,1-.16.29.41.41,0,0,1-.28.09,4,4,0,0,1-.54-.07,3.51,3.51,0,0,0-.74-.07,2.8,2.8,0,0,0-1,.16,2.42,2.42,0,0,0-.78.48,3.34,3.34,0,0,0-.61.76,8.27,8.27,0,0,0-.49,1v8h-2.7V18.3h1.57a.87.87,0,0,1,.59.15A1,1,0,0,1,98,19Z"/><path class="cls-2" d="M108.19,14.43a1.74,1.74,0,0,1-.14.69,1.78,1.78,0,0,1-.4.57,1.87,1.87,0,0,1-1.29.54,1.58,1.58,0,0,1-.69-.15,1.67,1.67,0,0,1-.56-.39,1.9,1.9,0,0,1-.38-.57,1.58,1.58,0,0,1-.15-.69,1.66,1.66,0,0,1,.15-.7,1.9,1.9,0,0,1,.38-.57,2,2,0,0,1,.56-.39,1.58,1.58,0,0,1,.69-.14,1.73,1.73,0,0,1,.71.14,2.11,2.11,0,0,1,.58.39,1.78,1.78,0,0,1,.4.57A1.82,1.82,0,0,1,108.19,14.43Zm-.45,3.87V31.1H105V18.3Z"/><path class="cls-2" d="M116.68,18.1a6.76,6.76,0,0,1,2.57.46,5.47,5.47,0,0,1,2,1.32A5.83,5.83,0,0,1,122.46,22a7.84,7.84,0,0,1,.44,2.74,7.82,7.82,0,0,1-.44,2.73,5.87,5.87,0,0,1-1.25,2.08,5.47,5.47,0,0,1-2,1.32,6.76,6.76,0,0,1-2.57.47,6.85,6.85,0,0,1-2.58-.47,5.47,5.47,0,0,1-2-1.32,5.75,5.75,0,0,1-1.26-2.08,8.72,8.72,0,0,1,0-5.47,5.71,5.71,0,0,1,1.26-2.07,5.47,5.47,0,0,1,2-1.32A6.85,6.85,0,0,1,116.68,18.1Zm0,11.08A3,3,0,0,0,119.26,28a5.54,5.54,0,0,0,.85-3.32,5.57,5.57,0,0,0-.85-3.33,3,3,0,0,0-2.58-1.18,3,3,0,0,0-2.61,1.18,5.57,5.57,0,0,0-.85,3.33,5.54,5.54,0,0,0,.85,3.32A3,3,0,0,0,116.68,29.18Z"/><path class="cls-2" d="M128,20.67a5.59,5.59,0,0,1,1.46-1.91,3.11,3.11,0,0,1,2.05-.7,3.33,3.33,0,0,1,.78.09,2.26,2.26,0,0,1,.65.29l-.19,2a.47.47,0,0,1-.16.29.41.41,0,0,1-.28.09,3.62,3.62,0,0,1-.54-.07,3.51,3.51,0,0,0-.74-.07,2.8,2.8,0,0,0-1,.16,2.42,2.42,0,0,0-.78.48,3.34,3.34,0,0,0-.61.76,8.27,8.27,0,0,0-.49,1v8h-2.7V18.3h1.57a.87.87,0,0,1,.59.15,1,1,0,0,1,.23.55Z"/></g></g></svg>