<svg xmlns="http://www.w3.org/2000/svg" viewBox="0 0 195 118.82"><defs><style>.cls-1{fill:#0a999a;}.cls-2{fill:#fff;}</style></defs><title>saber-on-btn</title><g id="Capa_2" data-name="Capa 2"><g id="_1200" data-name="1200"><path class="cls-1" d="M195,71.7v47.12H0V71.7H55.78a46.85,46.85,0,1,1,79.43,0Z"/><path class="cls-2" d="M73.06,81,86,66.28a1.67,1.67,0,0,0-.14-2.34l-.26-.21,4.65-5.28a23.19,23.19,0,1,0-7.4-6.51l-4.65,5.27L78,57a1.67,1.67,0,0,0-2.34.14l-3.1,3.53-3.1,3.52-6.77,7.67a1.69,1.69,0,0,0,.15,2.35l7.89,7a1.65,1.65,0,0,0,1.2.41A1.7,1.7,0,0,0,73.06,81Zm6.28-12.16-.9,1L73,65.13l.91-1Zm2.86-3.73.25.21-.92,1-5.4-4.76.91-1,.25.22Zm4.43-40.18a20,20,0,0,1,28.16-1.78,20,20,0,1,1-26.37,30A20,20,0,0,1,86.63,24.94ZM85.07,54.47a12.36,12.36,0,0,0,1.16,1.12,12.86,12.86,0,0,0,1.25,1l-4.33,4.93L80.73,59.4ZM66.27,72.81l4.57-5.19,5.4,4.76-4.57,5.19Z"/><path class="cls-2" d="M114.14,40.25A1.64,1.64,0,0,1,112.62,42l-6.2.39.39,6.2a1.62,1.62,0,0,1-1.52,1.72l-5.81.37a1.62,1.62,0,0,1-1.72-1.52l-.39-6.2-6.2.4a1.62,1.62,0,0,1-1.72-1.52L89.08,36a1.61,1.61,0,0,1,1.52-1.72l6.19-.4-.39-6.2A1.62,1.62,0,0,1,97.92,26l5.81-.37a1.63,1.63,0,0,1,1.72,1.52l.4,6.2,6.19-.39a1.62,1.62,0,0,1,1.73,1.51Z"/><path class="cls-2" d="M37.37,90.44a2.12,2.12,0,0,1-.51.58,1.15,1.15,0,0,1-.69.19,1.71,1.71,0,0,1-.79-.23l-1-.53a8.58,8.58,0,0,0-1.24-.52,4.82,4.82,0,0,0-1.58-.23,3.37,3.37,0,0,0-2.28.65,2.2,2.2,0,0,0-.75,1.76A1.64,1.64,0,0,0,29,93.29a3.82,3.82,0,0,0,1.19.8,11.2,11.2,0,0,0,1.68.62q.94.29,1.92.63a15.52,15.52,0,0,1,1.93.82,6.24,6.24,0,0,1,1.68,1.19,5.5,5.5,0,0,1,1.18,1.76,6.33,6.33,0,0,1,.45,2.51,8.05,8.05,0,0,1-.56,3,7,7,0,0,1-1.64,2.47,7.39,7.39,0,0,1-2.64,1.66,9.76,9.76,0,0,1-3.57.61,11.51,11.51,0,0,1-2.24-.23,13.54,13.54,0,0,1-2.2-.63,12.8,12.8,0,0,1-2-1,8.36,8.36,0,0,1-1.63-1.25l1.61-2.55a1.62,1.62,0,0,1,.51-.46,1.37,1.37,0,0,1,.69-.18,1.83,1.83,0,0,1,1,.3l1.12.68a8.53,8.53,0,0,0,1.42.67,5.28,5.28,0,0,0,1.91.31,3.62,3.62,0,0,0,2.3-.65,2.49,2.49,0,0,0,.83-2.07,2,2,0,0,0-.46-1.34,3.42,3.42,0,0,0-1.18-.85,10.45,10.45,0,0,0-1.67-.6q-.93-.25-1.92-.57a14.51,14.51,0,0,1-1.92-.77A6.2,6.2,0,0,1,25.1,97a5.69,5.69,0,0,1-1.18-1.87,7.44,7.44,0,0,1-.46-2.76A6.49,6.49,0,0,1,24,89.81a6.57,6.57,0,0,1,1.56-2.24A7.59,7.59,0,0,1,28.09,86a9.43,9.43,0,0,1,3.44-.59,13.13,13.13,0,0,1,2.1.17,10.92,10.92,0,0,1,1.95.5,10.28,10.28,0,0,1,1.71.79,7.29,7.29,0,0,1,1.43,1Z"/><path class="cls-2" d="M41.09,94.75a10.27,10.27,0,0,1,3.36-2,12,12,0,0,1,4-.65,7.43,7.43,0,0,1,2.74.49,5.82,5.82,0,0,1,3.36,3.46A7.5,7.5,0,0,1,55,98.7v10.44H52.67A2.33,2.33,0,0,1,51.6,109a1.54,1.54,0,0,1-.61-.81l-.35-.92a14.85,14.85,0,0,1-1.21.94,8,8,0,0,1-1.2.68,6,6,0,0,1-1.32.42,8.3,8.3,0,0,1-1.56.14,6.79,6.79,0,0,1-2.08-.3,4.39,4.39,0,0,1-1.59-.88,3.94,3.94,0,0,1-1-1.44,5.32,5.32,0,0,1-.35-2,4.18,4.18,0,0,1,.45-1.83,4.48,4.48,0,0,1,1.56-1.69,10,10,0,0,1,3-1.28,20.25,20.25,0,0,1,4.76-.58V98.7a3.09,3.09,0,0,0-.6-2.12,2.26,2.26,0,0,0-1.72-.65,4.51,4.51,0,0,0-1.45.19,6.37,6.37,0,0,0-1,.44c-.3.16-.58.3-.86.43a2.38,2.38,0,0,1-1,.2,1.43,1.43,0,0,1-.87-.26,2.24,2.24,0,0,1-.58-.61Zm9,7.59a17.53,17.53,0,0,0-2.47.26,6.3,6.3,0,0,0-1.53.48,1.89,1.89,0,0,0-.78.66,1.54,1.54,0,0,0-.22.81,1.4,1.4,0,0,0,.47,1.2,2.29,2.29,0,0,0,1.37.35,4,4,0,0,0,1.69-.34,5,5,0,0,0,1.47-1.1Z"/><path class="cls-2" d="M63.15,94.21a8.36,8.36,0,0,1,2.12-1.48,5.88,5.88,0,0,1,2.58-.55,5.68,5.68,0,0,1,2.58.58,5.58,5.58,0,0,1,2,1.65A7.78,7.78,0,0,1,73.68,97a12.27,12.27,0,0,1,.44,3.39,12.12,12.12,0,0,1-.52,3.68,8.53,8.53,0,0,1-1.46,2.85,6.61,6.61,0,0,1-2.24,1.84,6.49,6.49,0,0,1-2.89.65,5.6,5.6,0,0,1-1.36-.15,4.31,4.31,0,0,1-1.09-.41,4.59,4.59,0,0,1-.91-.63,10.21,10.21,0,0,1-.8-.81l-.18.84a1.2,1.2,0,0,1-.42.71,1.35,1.35,0,0,1-.77.19H58.15V85h5Zm0,10.39a3.32,3.32,0,0,0,1.23.87,3.71,3.71,0,0,0,1.34.26,3.09,3.09,0,0,0,1.3-.27,2.58,2.58,0,0,0,1-.87,4.76,4.76,0,0,0,.67-1.6,10.52,10.52,0,0,0,.24-2.44,10,10,0,0,0-.19-2.13A4.25,4.25,0,0,0,68.23,97a2.31,2.31,0,0,0-.91-.8,2.85,2.85,0,0,0-1.23-.25,3.07,3.07,0,0,0-1.6.4,5.48,5.48,0,0,0-1.34,1.18Z"/><path class="cls-2" d="M80.8,101.68a4.69,4.69,0,0,0,1.27,3,3.79,3.79,0,0,0,2.66.94,4.76,4.76,0,0,0,1.5-.21,6.86,6.86,0,0,0,1.12-.47l.91-.46a1.85,1.85,0,0,1,.86-.21,1,1,0,0,1,.9.43l1.45,1.79A7.23,7.23,0,0,1,89.8,108a8.72,8.72,0,0,1-1.83.87,9.94,9.94,0,0,1-1.89.44,14.31,14.31,0,0,1-1.8.12,9.46,9.46,0,0,1-3.3-.57,7.79,7.79,0,0,1-2.69-1.7,7.9,7.9,0,0,1-1.82-2.81,10.34,10.34,0,0,1-.67-3.9,8.86,8.86,0,0,1,.57-3.17,7.7,7.7,0,0,1,4.24-4.41,9.3,9.3,0,0,1,6.48-.15A6.5,6.5,0,0,1,91,96.6a8.86,8.86,0,0,1,.56,3.23,7.45,7.45,0,0,1,0,.92,1.37,1.37,0,0,1-.18.56.64.64,0,0,1-.34.29,1.75,1.75,0,0,1-.56.08Zm6.29-2.9a4.16,4.16,0,0,0-.16-1.16,2.62,2.62,0,0,0-.5-1,2.43,2.43,0,0,0-.91-.72,3.12,3.12,0,0,0-1.37-.28,3,3,0,0,0-2.22.82,4.19,4.19,0,0,0-1.07,2.34Z"/><path class="cls-2" d="M98.75,95a6.89,6.89,0,0,1,1.78-2.12,3.66,3.66,0,0,1,2.31-.78,3,3,0,0,1,1.84.53l-.32,3.68a.79.79,0,0,1-.27.48.82.82,0,0,1-.5.13l-.34,0-.44,0-.46-.05-.43,0a2.53,2.53,0,0,0-1.75.58A4.61,4.61,0,0,0,99.07,99v10.15h-5V92.43h3a2.72,2.72,0,0,1,.62.07,1.17,1.17,0,0,1,.42.2.88.88,0,0,1,.26.36,4.24,4.24,0,0,1,.15.55Z"/><path class="cls-2" d="M113.16,109.14V92.43h3.1a1.19,1.19,0,0,1,1.23.84l.27.9a9.13,9.13,0,0,1,.87-.79,5.85,5.85,0,0,1,1-.63,5.07,5.07,0,0,1,1.13-.42,5.47,5.47,0,0,1,1.33-.15,3.91,3.91,0,0,1,2.5.78A4.74,4.74,0,0,1,126.08,95a5,5,0,0,1,1-1.32,5.32,5.32,0,0,1,1.3-.88,6.37,6.37,0,0,1,1.49-.5,7.49,7.49,0,0,1,1.55-.16,7.18,7.18,0,0,1,2.55.42,4.94,4.94,0,0,1,1.86,1.24,5.45,5.45,0,0,1,1.14,2,8.58,8.58,0,0,1,.39,2.68v10.62h-5V98.52c0-1.72-.74-2.59-2.23-2.59a2.26,2.26,0,0,0-1.68.67,2.6,2.6,0,0,0-.67,1.92v10.62h-5V98.52a2.84,2.84,0,0,0-.57-2,2.19,2.19,0,0,0-1.66-.58,2.72,2.72,0,0,0-1.28.31,4.55,4.55,0,0,0-1.14.82v12.08Z"/><path class="cls-2" d="M140.24,94.75a10.27,10.27,0,0,1,3.36-2,12,12,0,0,1,4-.65,7.43,7.43,0,0,1,2.74.49,5.82,5.82,0,0,1,3.36,3.46,7.5,7.5,0,0,1,.45,2.64v10.44h-2.29a2.33,2.33,0,0,1-1.07-.19,1.5,1.5,0,0,1-.61-.81l-.35-.92a14.85,14.85,0,0,1-1.21.94,8,8,0,0,1-1.2.68,6,6,0,0,1-1.32.42,8.3,8.3,0,0,1-1.56.14,6.79,6.79,0,0,1-2.08-.3,4.39,4.39,0,0,1-1.59-.88,3.83,3.83,0,0,1-1-1.44,5.32,5.32,0,0,1-.35-2,4.18,4.18,0,0,1,.45-1.83,4.48,4.48,0,0,1,1.56-1.69,9.82,9.82,0,0,1,3-1.28,20.25,20.25,0,0,1,4.76-.58V98.7a3.09,3.09,0,0,0-.6-2.12,2.26,2.26,0,0,0-1.72-.65,4.51,4.51,0,0,0-1.45.19,6.37,6.37,0,0,0-1,.44c-.3.16-.58.3-.86.43a2.38,2.38,0,0,1-1,.2,1.43,1.43,0,0,1-.87-.26,2.44,2.44,0,0,1-.59-.61Zm9,7.59a17.53,17.53,0,0,0-2.47.26,6.3,6.3,0,0,0-1.53.48,1.89,1.89,0,0,0-.78.66,1.54,1.54,0,0,0-.22.81,1.4,1.4,0,0,0,.47,1.2,2.29,2.29,0,0,0,1.37.35,4,4,0,0,0,1.69-.34,5,5,0,0,0,1.47-1.1Zm4.31-16.93-4.2,4.24a2.42,2.42,0,0,1-.71.52,2.22,2.22,0,0,1-.9.15h-3l2.19-3.94a2.29,2.29,0,0,1,.65-.72,2,2,0,0,1,1.13-.25Z"/><path class="cls-2" d="M167.93,96.09a1.26,1.26,0,0,1-.41.44,1.13,1.13,0,0,1-.56.12,1.76,1.76,0,0,1-.7-.15l-.77-.33a7.67,7.67,0,0,0-.93-.33,4.23,4.23,0,0,0-1.18-.15,2.52,2.52,0,0,0-1.46.36,1.19,1.19,0,0,0-.5,1,1,1,0,0,0,.33.77,2.75,2.75,0,0,0,.88.54,11,11,0,0,0,1.24.44c.46.14.93.3,1.42.47a11.67,11.67,0,0,1,1.42.61,5.35,5.35,0,0,1,1.24.85,3.94,3.94,0,0,1,.88,1.23,4.16,4.16,0,0,1,.33,1.74,5.74,5.74,0,0,1-.45,2.29,4.86,4.86,0,0,1-1.35,1.8,6.3,6.3,0,0,1-2.21,1.18,10.32,10.32,0,0,1-4.73.26,13.06,13.06,0,0,1-1.66-.44,9,9,0,0,1-1.47-.65,6.23,6.23,0,0,1-1.16-.81l1.16-1.84a1.5,1.5,0,0,1,.49-.51,1.46,1.46,0,0,1,.77-.18,1.55,1.55,0,0,1,.78.19l.75.42a6.42,6.42,0,0,0,.94.42,4.09,4.09,0,0,0,1.36.19,3.53,3.53,0,0,0,1-.12,1.68,1.68,0,0,0,.64-.33,1.44,1.44,0,0,0,.36-.47,1.4,1.4,0,0,0,.11-.53,1.08,1.08,0,0,0-.34-.82,3.1,3.1,0,0,0-.88-.56,12.07,12.07,0,0,0-1.25-.43c-.47-.13-.95-.29-1.43-.46a11.23,11.23,0,0,1-1.43-.62,4.93,4.93,0,0,1-1.25-.92,4.4,4.4,0,0,1-.89-1.36,5.16,5.16,0,0,1-.34-2,5,5,0,0,1,.42-2,4.57,4.57,0,0,1,1.23-1.68,6.12,6.12,0,0,1,2.06-1.16,10,10,0,0,1,4.66-.26,9.77,9.77,0,0,1,1.59.45,7.75,7.75,0,0,1,1.35.68,6.32,6.32,0,0,1,1.08.87Z"/></g></g></svg>